/* XPM */
static char *gls_objects[] = {
/* columns rows colors chars-per-pixel */
"16 16 132 2",
"   c #001E1E",
".  c #002424",
"X  c #002929",
"o  c #002A2A",
"O  c #002B2B",
"+  c #002E2E",
"@  c #003030",
"#  c #003131",
"$  c #003333",
"%  c #003434",
"&  c #003535",
"*  c #003939",
"=  c #013939",
"-  c #003A3A",
";  c #003E3E",
":  c #053D3D",
">  c #004242",
",  c #004444",
"<  c #004B4B",
"1  c #004C4C",
"2  c #084242",
"3  c #0E4D4D",
"4  c #025252",
"5  c #005454",
"6  c #005757",
"7  c #055555",
"8  c #005858",
"9  c #005959",
"0  c #105E5E",
"q  c #036464",
"w  c #056363",
"e  c #056767",
"r  c #056868",
"t  c #076A6A",
"y  c #0A6E6E",
"u  c #106A6A",
"i  c #186E6E",
"p  c #117575",
"a  c #157878",
"s  c #157979",
"d  c #1C7171",
"f  c #1B7E7E",
"g  c #1D7A7A",
"h  c #247A7A",
"j  c #2C7878",
"k  c #307A7A",
"l  c #347C7C",
"z  c #1D8181",
"x  c #1E8282",
"c  c #238787",
"v  c #248585",
"b  c #278888",
"n  c #298D8D",
"m  c #2C8F8F",
"M  c #308585",
"N  c #339595",
"B  c #369898",
"V  c #389898",
"C  c #3B9C9C",
"Z  c #3F9999",
"A  c #3D9D9D",
"S  c #3F9F9F",
"D  c #4A8D8D",
"F  c #419595",
"G  c #4E9D9D",
"H  c #44A3A3",
"J  c #4BA6A6",
"K  c #4FA8A8",
"L  c #52A5A5",
"P  c #52AAAA",
"I  c #54AAAA",
"U  c #55AAAA",
"Y  c #59ADAD",
"T  c #5AAEAE",
"R  c #6CA8A8",
"E  c #61B1B1",
"W  c #63B2B2",
"Q  c #68B4B4",
"!  c #69B5B5",
"~  c #6DB7B7",
"^  c #71B9B9",
"/  c #75BBBB",
"(  c #76BBBB",
")  c #77BBBB",
"_  c #7ABDBD",
"`  c #7CBFBF",
"'  c #7EBFBF",
"]  c #81C0C0",
"[  c #81C1C1",
"{  c #82C0C0",
"}  c #82C1C1",
"|  c #87C4C4",
" . c #88C4C4",
".. c #8AC5C5",
"X. c #8BC6C6",
"o. c #93C4C4",
"O. c #91C8C8",
"+. c #92C8C8",
"@. c #96CBCB",
"#. c #97CCCC",
"$. c #98CCCC",
"%. c #9ACDCD",
"&. c #9BCECE",
"*. c #9CCECE",
"=. c #9FCFCF",
"-. c #A2D1D1",
";. c #A3D1D1",
":. c #A3D2D2",
">. c #A4D2D2",
",. c #A9D4D4",
"<. c #ACD5D5",
"1. c #B0D8D8",
"2. c #B1D8D8",
"3. c #B1D9D9",
"4. c #B6DBDB",
"5. c #B7DCDC",
"6. c #BBDDDD",
"7. c #BDDEDE",
"8. c #C0E0E0",
"9. c #C5E2E2",
"0. c #C6E3E3",
"q. c #CBE5E5",
"w. c #CDE6E6",
"e. c #D6EBEB",
"r. c #DAEDED",
"t. c #DFEFEF",
"y. c #E4F2F2",
"u. c #EAF5F5",
"i. c #EFF7F7",
"p. c #F4FAFA",
"a. c #F9FCFC",
"s. c gray100",
/* pixels */
"s.s.s.s.s.t.;.' W J L <.s.s.s.s.",
"s.s.s.s.5.;.,.@. .E C s G a.s.s.",
"s.s.s.0.,. .F ;. .E C s 9 D s.s.",
"s.s.i.#.2.Q M R ' K N s 9 $ o.s.",
"s.s.0.@.' _ c 3 / A x r , O h q.",
"s.s.0.O.J %.x ; l V p 9 ; + 0 [ ",
"s.s.8.Q P ;.x 1 * m q > + $ u ^ ",
"s.s.7.H Q 2.c 9 O d 5 $ + ; g E ",
"s.s.| J [ :.m q + 2 4 + * 9 Z ^ ",
"s.y.S K :.%.n r , . i * 1 f E / ",
"s.[ G T 4.[ n q , + : 7 s I E 4.",
"t.C J ^ w.~ m r 9 +   j / E %.a.",
"O.A T / e.E m y 9 * . $ Q =.p.s.",
"s.r.%.' 2.T V b M l M I E *.s.s.",
"s.s.t. .Q E E E E E E Q [ 7.s.s.",
"s.s.s.s.s.s.s.u.u.s.s.s.s.s.s.s."
};
