/* XPM */
static char *TGLCamera[] = {
/* columns rows colors chars-per-pixel */
"16 16 83 1",
"  c #191919",
". c #3A3A3A",
"X c #3C3C3C",
"o c #444444",
"O c gray28",
"+ c #484848",
"@ c #4B4B4B",
"# c #4C4C4C",
"$ c #535353",
"% c #585858",
"& c #646464",
"* c gray40",
"= c #676767",
"- c DimGray",
"; c #6C6C6C",
": c #6D6D6D",
"> c #6F6F6F",
", c gray44",
"< c #727272",
"1 c gray45",
"2 c #747474",
"3 c #767676",
"4 c #777777",
"5 c gray47",
"6 c gray48",
"7 c #7B7B7B",
"8 c gray50",
"9 c #818181",
"0 c gray51",
"q c gray52",
"w c #868686",
"e c #8B8B8B",
"r c #8D8D8D",
"t c #8E8E8E",
"y c #909090",
"u c gray57",
"i c #939393",
"p c gray59",
"a c #9A9A9A",
"s c #9B9B9B",
"d c #9D9D9D",
"f c #9F9F9F",
"g c #A0A0A0",
"h c gray63",
"j c gray64",
"k c #A4A4A4",
"l c #A7A7A7",
"z c #AAAAAA",
"x c gray67",
"c c gray68",
"v c #AEAEAE",
"b c #AFAFAF",
"n c #B1B1B1",
"m c gray71",
"M c #B7B7B7",
"N c gray72",
"B c #BBBBBB",
"V c #BCBCBC",
"C c gray75",
"Z c #C3C3C3",
"A c #C5C5C5",
"S c #C6C6C6",
"D c gray78",
"F c #CACACA",
"G c gray80",
"H c #CECECE",
"J c gray81",
"K c gray82",
"L c LightGray",
"P c #D7D7D7",
"I c #D8D8D8",
"U c #DADADA",
"Y c gainsboro",
"T c #DDDDDD",
"R c gray88",
"E c gray89",
"W c #E7E7E7",
"Q c gray93",
"! c #F1F1F1",
"~ c #F4F4F4",
"^ c #F8F8F8",
"/ c #FBFBFB",
"( c gray100",
/* pixels */
"((((((((((((((((",
"((^UYVf~((((((((",
"((uqna7SY^((((((",
"((r*0z~KkiR~((((",
"((u17O3vvPa8~(((",
"(^qvJF13vz1>FJ((",
"(J+7KKF+fmnaq1~(",
"(N33fff%ifqqq>P(",
"(mvr&&-%iz873>C(",
"(JS>  O.iz733>S(",
"(^v08*.OzN71>*C(",
"((~UVmzfVC****C(",
"(((QRYUJVJ%#*rC(",
"(((((((QRJfNNVS(",
"(((((((((QYSSPW(",
"(((((((((((((((("
};
