/* XPM */
static char *TGLCapsule[] = {
/* columns rows colors chars-per-pixel */
"16 16 56 1",
"  c #101010",
". c #131313",
"X c gray10",
"o c #1D1D1D",
"O c #202020",
"+ c gray14",
"@ c gray15",
"# c gray19",
"$ c gray23",
"% c gray25",
"& c gray26",
"* c #494949",
"= c #4C4C4C",
"- c #5B5B5B",
"; c #5D5D5D",
": c #606060",
"> c #656565",
", c #6A6A6A",
"< c gray43",
"1 c #6F6F6F",
"2 c gray45",
"3 c #777777",
"4 c gray49",
"5 c #7E7E7E",
"6 c gray50",
"7 c magenta",
"8 c gray51",
"9 c #848484",
"0 c gray52",
"q c gray54",
"w c gray58",
"e c gray60",
"r c gray62",
"t c gray64",
"y c gray65",
"u c #AEAEAE",
"i c #B1B1B1",
"p c #B4B4B4",
"a c #B7B7B7",
"s c #BBBBBB",
"d c #BCBCBC",
"f c gray75",
"g c #C0C0C0",
"h c gray76",
"j c gray77",
"k c gray78",
"l c gray80",
"z c gray84",
"x c gray85",
"c c #DADADA",
"v c #DDDDDD",
"b c gray87",
"n c gray89",
"m c #F4F4F4",
"M c #F8F8F8",
"N c #FBFBFB",
/* pixels */
"7777777777777777",
"77777hkie-077777",
"7777xllae-$77777",
"777xsvmt8*@;v777",
"777xafgq2$O%u777",
"777zttr3:@ =t777",
"777zttr3:@ =t777",
"777zttr3:@ =t777",
"777zttr3:@ =t777",
"777ztyr3:@ =t777",
"777zttr3:@ =t777",
"777n,<>&# O5t777",
"7777w*%@ @;ey777",
"777775oX@<wfN777",
"77777Ng60erM7777",
"7777777777777777"
};
