/* XPM */
static char *TGLDodecahedron[] = {
/* columns rows colors chars-per-pixel */
"16 16 85 1",
"  c #090909",
". c #0A090A",
"X c #0C0C0C",
"o c #101010",
"O c #111011",
"+ c #1B1B1B",
"@ c #282828",
"# c gray16",
"$ c #3C3C3C",
"% c #5A5A5A",
"& c #5D5D5D",
"* c #606060",
"= c gray42",
"- c #6C6C6C",
"; c gray43",
": c gray46",
"> c #777777",
", c #7B7B7B",
"< c #7C7C7C",
"1 c #7C7D7C",
"2 c #7D7C7D",
"3 c gray49",
"4 c #7E7E7E",
"5 c #808080",
"6 c #818181",
"7 c gray51",
"8 c #848584",
"9 c gray52",
"0 c gray54",
"q c #8D8D8D",
"w c #8E8E8E",
"e c #908F90",
"r c gray58",
"t c gray59",
"y c #979797",
"u c #989898",
"i c gray61",
"p c #A4A4A4",
"a c gray65",
"s c gray66",
"d c #AAA9AA",
"f c gray70",
"g c #B4B4B4",
"h c gray71",
"j c #B7B7B7",
"k c #B9B9B9",
"l c gray73",
"z c #BBBABB",
"x c #BBBBBB",
"c c #BCBBBC",
"v c #BCBCBC",
"b c gray74",
"n c #BEBFBE",
"m c gray75",
"M c #BFC0BF",
"N c #C1C1C1",
"B c #C3C2C3",
"V c gray78",
"C c #CDCDCD",
"Z c #CFD0CF",
"A c #D2D3D2",
"S c #D7D7D7",
"D c #DAD9D7",
"F c gray85",
"G c #DADADA",
"H c gray86",
"J c #DDDDDD",
"K c gray88",
"L c #E1E2E1",
"P c #E7E6E4",
"I c #E6E6E6",
"U c #EAEAE7",
"Y c #ECECEC",
"T c gray93",
"R c gray94",
"E c #F1F1F1",
"W c #F4F4F1",
"Q c #F6F6F6",
"! c gray97",
"~ c #F8F8F8",
"^ c #FBFBFB",
"/ c gray99",
"( c #FDFDFD",
") c #FEFEFE",
"_ c gray100",
/* pixels */
"_____QEYPKH_____",
"___^Cmnmmm%p____",
"___Cmmmmmm8 4___",
"__AnmmmmmmfX f__",
"_Hnnnmmmnju$ #Q_",
"_Nnnmmngt44,@ 6_",
"Wccnnhr2,4,,:+OJ",
"Pxcch222,4242=Or",
"Sxxxv11<,11,44&G",
"Uxxxv91<11,4,,s_",
"_Vxxvw<<1,,,,6R_",
"_Yxxvr<<144,,N__",
"__Nxxi44422,e^__",
"__Ld0;&;:4,4G___",
"____QSxatw0g____",
"________________"
};
