/* XPM */
static char *TGLDisk[] = {
/* columns rows colors chars-per-pixel */
"16 16 50 1",
"  c #717371",
". c #727372",
"X c #717471",
"o c #727472",
"O c #737473",
"+ c #737573",
"@ c #818381",
"# c #828482",
"$ c #858685",
"% c #868886",
"& c #878987",
"* c #888A88",
"= c #898B89",
"- c #8D8F8D",
"; c #8E8F8E",
": c #929392",
"> c #929492",
", c #A6A8A6",
"< c #A8A9A8",
"1 c #ABACAB",
"2 c #B7B9B7",
"3 c #BBBCBB",
"4 c #BCBDBC",
"5 c #BDBEBD",
"6 c #BEBFBE",
"7 c #C3C4C3",
"8 c #C5C6C5",
"9 c gray78",
"0 c #C9CAC9",
"q c #CACBCA",
"w c #CBCCCB",
"e c #CDCECD",
"r c #CECECE",
"t c gray88",
"y c #E2E3E2",
"u c #E5E6E6",
"i c #EBECEB",
"p c #EEEEEE",
"a c #F1F1F1",
"s c #F1F2F1",
"d c #F2F3F2",
"f c #F6F7F7",
"g c #F8F8F8",
"h c #F9FAF9",
"j c gray98",
"k c #FBFCFB",
"l c gray99",
"z c #FDFDFD",
"x c #FEFEFE",
"c c gray100",
/* pixels */
"cccccccccccccccc",
"cccccccccccccccc",
"cccccccccccccccc",
"cccccccj28tccccc",
"cccccccf   @5jcc",
"cccccccf     -ac",
"cccccccf+     -j",
"cccccccf ++  ++q",
"ccccpq<$+ + OOO,",
"ar1*++++++++OOO<",
"6+++++++++++++Or",
"j%++++++++++++>c",
"ci*++++++++++>dc",
"ccj3#++++++%7jcc",
"ccccct8550uccccc",
"cccccccccccccccc"
};
