/* XPM */
static char *TGLTrail[] = {
/* columns rows colors chars-per-pixel */
"16 16 9 1",
"  c #0000C0",
". c #C00000",
"X c #D70307",
"o c red",
"O c magenta",
"+ c yellow",
"@ c #8080FF",
"# c #FF8080",
"$ c gray100",
/* pixels */
"OOOOOOOOOOOOOOOO",
"OOO####OOOOOOOOO",
"OO#oooo#OOOOOOOO",
"O#o+oooo.OOOOOOO",
"O#+$+ooo.OOOOOOO",
"O#o+oooX.OOOOOOO",
"O#oooooX.OOOOOO ",
"OO#ooXX.@OOOOO  ",
"OOO....@@OOOO  O",
"OOO@@@@@@OOO  OO",
"OOOO@@@@@@O   OO",
"OOOOO@@@@@   OOO",
"OOOOO@@@@@   OOO",
"OOOOOO@@@@@ OOOO",
"OOOOOO@@@@@ OOOO",
"OOOOOOO@@@@OOOOO"
};
