<?xml version="1.0" encoding="UTF-8" standalone="no"?>
<svg
   viewBox="0 0 22 22"
   version="1.1"
   id="svg8"
   sodipodi:docname="i31.svg"
   inkscape:version="1.1.2 (0a00cf5339, 2022-02-04)"
   xmlns:inkscape="http://www.inkscape.org/namespaces/inkscape"
   xmlns:sodipodi="http://sodipodi.sourceforge.net/DTD/sodipodi-0.dtd"
   xmlns="http://www.w3.org/2000/svg"
   xmlns:svg="http://www.w3.org/2000/svg"
   xmlns:rdf="http://www.w3.org/1999/02/22-rdf-syntax-ns#"
   xmlns:cc="http://creativecommons.org/ns#"
   xmlns:dc="http://purl.org/dc/elements/1.1/">
  <metadata
     id="metadata12">
    <rdf:RDF>
      <cc:Work
         rdf:about="">
        <dc:format>image/svg+xml</dc:format>
        <dc:type
           rdf:resource="http://purl.org/dc/dcmitype/StillImage" />
      </cc:Work>
    </rdf:RDF>
  </metadata>
  <sodipodi:namedview
     pagecolor="#ffffff"
     bordercolor="#666666"
     borderopacity="1"
     objecttolerance="10"
     gridtolerance="10"
     guidetolerance="10"
     inkscape:pageopacity="0"
     inkscape:pageshadow="2"
     inkscape:window-width="1345"
     inkscape:window-height="879"
     id="namedview10"
     showgrid="false"
     inkscape:zoom="30.34131"
     inkscape:cx="11.008094"
     inkscape:cy="11.008094"
     inkscape:window-x="44"
     inkscape:window-y="0"
     inkscape:window-maximized="0"
     inkscape:current-layer="svg8"
     inkscape:pagecheckerboard="0" />
  <defs
     id="defs3051">
    <style
       type="text/css"
       id="current-color-scheme">
      .ColorScheme-Text {
        color:#f2f2f2;
      }
      </style>
  </defs>
  <path
     inkscape:connector-curvature="0"
     style="color:#f2f2f2;fill:currentColor;fill-opacity:1;stroke:none"
     d="m 19,11 a 8,8 0 0 0 -8,-8 8,8 0 0 0 -8,8 8,8 0 0 0 8,8 8,8 0 0 0 8,-8 z m -1,0 a 7,7 0 0 1 -7,7 7,7 0 0 1 -7,-7 7,7 0 0 1 7,-7 7,7 0 0 1 7,7 z"
     class="ColorScheme-Text"
     id="path4" />
  <path
     inkscape:connector-curvature="0"
     style="color:#f2f2f2;fill:none;fill-opacity:0.5;stroke:#f2f2f2;stroke-width:0.969126;stroke-opacity:1"
     d="m 12.200516,3.5066193 c -0.244772,-0.021627 -0.490476,-0.032645 -0.736328,-0.033019 -4.4182779,0 -7.9999999,3.3639671 -7.9999999,7.5136317 0,4.149663 3.581722,7.51363 7.9999999,7.51363 0.238064,-0.0017 0.475931,-0.01328 0.712891,-0.03485 C 10.638587,18.095545 9.4642631,14.85822 9.4641881,10.987232 9.4650031,7.095016 10.652468,3.8487083 12.200516,3.5066193 Z"
     class="ColorScheme-Text"
     id="path6" />
</svg>
