<?xml version="1.0" encoding="UTF-8" standalone="no"?>
<!-- Created with Inkscape (http://www.inkscape.org/) -->

<svg
   version="1.1"
   id="svg388"
   width="512"
   height="512"
   viewBox="0 0 512 512"
   sodipodi:docname="i34.svg"
   inkscape:version="1.2.2 (b0a8486541, 2022-12-01)"
   xmlns:inkscape="http://www.inkscape.org/namespaces/inkscape"
   xmlns:sodipodi="http://sodipodi.sourceforge.net/DTD/sodipodi-0.dtd"
   xmlns="http://www.w3.org/2000/svg"
   xmlns:svg="http://www.w3.org/2000/svg">
  <defs
     id="defs392" />
  <sodipodi:namedview
     id="namedview390"
     pagecolor="#ffffff"
     bordercolor="#666666"
     borderopacity="1.0"
     inkscape:showpageshadow="2"
     inkscape:pageopacity="0.0"
     inkscape:pagecheckerboard="0"
     inkscape:deskcolor="#d1d1d1"
     showgrid="false"
     inkscape:zoom="0.905042"
     inkscape:cx="96.128135"
     inkscape:cy="269.04829"
     inkscape:window-width="1413"
     inkscape:window-height="924"
     inkscape:window-x="107"
     inkscape:window-y="55"
     inkscape:window-maximized="0"
     inkscape:current-layer="g394" />
  <g
     inkscape:groupmode="layer"
     inkscape:label="Image"
     id="g394">
    <path
       id="path398"
       style="fill:#f2f2f2;stroke-width:1.32;fill-opacity:1"
       d="m 254.36719,97.919922 c -4.69666,0.163622 -9.59474,0.791841 -13.6349,3.378828 -10.08274,5.68741 -20.01466,11.63764 -29.99267,17.50589 -25.80991,15.26908 -51.51257,30.68981 -77.18618,46.19526 -10.92239,6.64348 -21.90239,13.21527 -32.45492,20.44057 -2.737756,1.92524 -5.548782,3.8639 -7.717532,6.44145 -0.519081,0.92541 -0.413594,2.08448 -0.203254,3.08488 0.388636,0.96499 1.320928,1.57517 2.007813,2.32226 3.278662,2.93267 7.026823,5.27269 10.651453,7.74431 5.3938,3.56152 10.76071,6.89181 16.2742,10.26727 22.00965,13.42795 44.13143,26.67114 66.27208,39.88161 17.71159,10.53456 35.37976,21.11495 53.26785,31.32634 3.68766,2.08972 8.00698,2.60386 12.1702,2.82928 2.92967,0.11461 5.86921,-0.0801 8.76265,-0.54881 0.35235,-0.0702 1.10863,-0.18637 1.61516,-0.29793 3.48155,-0.60096 6.74978,-2.05341 9.73596,-3.90974 17.97686,-10.2413 35.71844,-20.88678 53.50694,-31.45003 20.53901,-12.24384 41.04613,-24.54141 61.46809,-36.97943 8.56528,-5.26765 17.1813,-10.49066 25.28412,-16.45867 1.66108,-1.28702 3.38626,-2.60993 4.56161,-4.37295 0.3368,-1.0721 0.27179,-2.27135 0.008,-3.34961 -0.72809,-1.26809 -1.93776,-2.1824 -3.01589,-3.14254 -4.54134,-3.70311 -9.53089,-6.80271 -14.43815,-9.98798 -11.8059,-7.49993 -23.82526,-14.65606 -35.79452,-21.89001 -26.57507,-15.99037 -53.19585,-31.93064 -79.98483,-47.58025 -5.043,-2.90925 -10.04114,-5.90511 -15.18259,-8.6373 -2.59455,-1.245837 -5.5279,-1.916221 -8.26175,-2.343948 -2.55343,-0.38015 -5.13916,-0.502825 -7.71875,-0.46875 z m 2.17578,15.806638 c 3.92461,0.32773 7.37135,2.41836 10.8297,4.11626 10.93641,5.71133 21.50609,12.08599 32.14529,18.32556 22.52686,13.3304 44.93831,26.85915 67.30628,40.4538 6.35078,3.88441 12.7201,7.74532 18.95634,11.80969 1.12413,0.87779 2.2385,1.83656 3.07415,2.9926 1.17907,1.93304 0.40253,4.54658 -1.32431,5.88283 -2.13736,2.17971 -4.93844,3.50223 -7.4515,5.17919 -21.9679,13.6117 -44.15343,26.86904 -66.31738,40.15537 -13.81587,8.2514 -27.62437,16.52219 -41.69271,24.3402 -4.05327,2.19517 -8.13322,4.41385 -12.49762,5.93179 -2.55306,0.79567 -5.37732,0.74637 -7.84118,-0.33484 -5.07557,-1.87873 -9.74318,-4.66519 -14.48662,-7.23505 -14.57312,-8.1199 -28.84404,-16.76208 -43.17986,-25.28991 -21.77056,-12.99948 -43.50975,-26.06201 -65.06876,-39.41187 -1.73546,-1.14344 -3.58752,-2.18868 -4.92591,-3.8149 -1.01517,-1.06676 -2.03033,-2.13352 -3.04544,-3.20033 2.29221,-2.37408 4.40944,-5.05266 7.39114,-6.60429 16.79416,-10.49319 33.81296,-20.61968 50.7836,-30.82472 18.36621,-10.99083 36.72359,-22.00019 55.32265,-32.59433 5.41092,-3.03175 10.82533,-6.09169 16.50844,-8.58999 1.74674,-0.71717 3.60701,-1.31715 5.5137,-1.28706 z m 156.44922,133.40039 c -3.43059,0.59877 -6.49757,2.35546 -9.60365,3.83632 -7.40754,3.74412 -14.48464,7.92618 -21.66461,12.09707 -25.64853,15.08674 -51.09579,30.51132 -76.63226,45.78629 -16.28711,9.77045 -32.57388,19.54147 -48.8612,29.31157 -38.64369,-23.15398 -77.24938,-46.35388 -115.96214,-69.39188 -10.82322,-6.38666 -21.6157,-12.84362 -32.73513,-18.7064 -2.16366,-1.06965 -4.30988,-2.29602 -6.67979,-2.83311 -3.757033,-0.20401 -7.441641,2.83497 -7.756508,6.6276 -0.232404,1.09902 0.0207,2.29941 0.88552,3.06161 2.472431,2.68078 5.55048,4.69683 8.484378,6.82812 8.92086,6.16753 18.22312,11.75458 27.44731,17.45028 20.89306,12.75448 41.92579,25.27918 62.92475,37.85833 16.91612,10.08451 33.79395,20.17912 50.95411,29.84959 4.00485,2.20772 8.02756,4.41218 12.24023,6.20118 3.12378,-1.11482 6.00074,-2.78609 8.9336,-4.31055 1.13872,-0.62876 2.55185,-1.39316 3.72636,-2.04042 10.89839,-6.06963 21.72493,-12.51512 32.49434,-18.87755 29.17313,-17.31961 58.29306,-34.80028 87.30625,-52.41907 9.18754,-5.59909 18.37782,-11.21634 27.48477,-16.98132 1.76164,-1.01869 2.43652,-3.12639 2.59692,-5.04138 0.20997,-2.92656 -0.93456,-6.2089 -3.62375,-7.68092 -0.604,-0.29525 -1.24564,-0.8428 -1.9595,-0.62536 z m -312.4043,63.96875 c -3.264019,0.40606 -6.366479,2.76674 -7.054687,6.07813 -0.387627,1.76752 -0.269289,3.79086 0.784947,5.30487 3.517977,2.82755 7.39237,5.1507 11.14802,7.63844 12.5623,8.09745 25.33418,15.80599 38.09406,23.57027 27.47191,16.64324 55.03448,33.1388 82.75788,49.36073 9.11838,5.30715 18.20227,10.55697 27.53534,15.4828 0.68153,0.34927 1.36933,0.68716 2.06647,1.00422 5.021,-2.37695 9.81372,-5.19982 14.67206,-7.88614 18.28987,-10.29026 36.3758,-21.03279 54.44563,-31.76358 24.5346,-14.62845 48.98219,-29.40731 73.17391,-44.59713 6.04353,-3.82896 12.0715,-7.66607 17.93624,-11.70911 0.79508,-0.65897 1.906,-1.12733 2.13544,-2.2335 1.18013,-3.39342 -0.38868,-7.51758 -3.61523,-9.1582 -1.55871,-0.82983 -3.48454,-1.50723 -5.19727,-0.72461 -3.54923,1.43364 -6.76445,3.55178 -10.10486,5.39526 -32.97658,19.20003 -65.66522,38.96882 -98.40332,58.60498 -14.98836,9.00436 -29.97543,18.01086 -44.96252,27.01734 -36.15495,-21.71565 -72.30159,-43.50256 -108.51172,-65.08985 -13.76443,-8.15663 -27.46667,-16.36419 -41.39782,-24.25134 -1.69844,-0.89088 -3.44923,-1.91749 -5.39855,-2.05758 l -0.0991,0.0133 z" />
  </g>
</svg>
