<?xml version="1.0" encoding="UTF-8" standalone="no"?>
<!-- Created with Inkscape (http://www.inkscape.org/) -->

<svg
   version="1.1"
   id="svg2"
   width="512"
   height="512"
   viewBox="0 0 512 512"
   sodipodi:docname="i35.svg"
   inkscape:version="1.2.2 (b0a8486541, 2022-12-01)"
   xmlns:inkscape="http://www.inkscape.org/namespaces/inkscape"
   xmlns:sodipodi="http://sodipodi.sourceforge.net/DTD/sodipodi-0.dtd"
   xmlns="http://www.w3.org/2000/svg"
   xmlns:svg="http://www.w3.org/2000/svg">
  <defs
     id="defs6" />
  <sodipodi:namedview
     id="namedview4"
     pagecolor="#ffffff"
     bordercolor="#666666"
     borderopacity="1.0"
     inkscape:showpageshadow="2"
     inkscape:pageopacity="0.0"
     inkscape:pagecheckerboard="0"
     inkscape:deskcolor="#d1d1d1"
     showgrid="false"
     inkscape:zoom="1.0356666"
     inkscape:cx="108.14291"
     inkscape:cy="280.49567"
     inkscape:window-width="1427"
     inkscape:window-height="900"
     inkscape:window-x="94"
     inkscape:window-y="20"
     inkscape:window-maximized="0"
     inkscape:current-layer="g8" />
  <g
     inkscape:groupmode="layer"
     inkscape:label="Image"
     id="g8">
    <path
       id="path116"
       style="fill:#f2f2f2;stroke-width:1.32;fill-opacity:1"
       d="m 100.45312,93.53125 c -0.620501,0.05376 -1.276694,0.06776 -1.85937,0.296875 -1.226686,1.285093 -2.474237,2.568981 -3.910156,3.621094 -1.433289,1.631147 -1.223102,3.978721 -1.154376,5.997951 0.183023,3.09317 0.522812,6.24462 0.15047,9.36416 -10e-7,82.66445 0,165.3289 0,247.99336 0.891211,4.55383 1.939844,9.08355 3.347656,13.50781 0.345865,1.04656 0.776808,2.33996 1.200174,3.46664 2.521072,6.84225 6.219842,13.3861 11.591742,18.39661 2.1368,2.13509 4.2138,4.32968 6.37801,6.43753 0.97232,0.94203 2.13622,2.0291 3.24418,2.95797 2.97249,2.54273 6.3158,4.71948 10.05034,5.95378 1.94047,0.72847 3.74126,1.79046 5.7027,2.4777 5.8922,2.2946 12.17483,3.40756 18.45785,3.91524 0.39464,0.0307 1.19776,0.0841 1.74875,0.12346 1.19256,0.0749 2.4022,0.13767 3.49778,0.17414 1.65845,0.0584 3.24547,0.0875 4.95073,0.0925 9.97019,0.0188 19.93909,-0.63312 29.90848,-0.21236 6.1199,0.11136 12.24272,0.0289 18.36379,0.0623 66.74714,0.0541 133.49427,0.10817 200.24141,0.16225 2.43313,-1.11246 4.98989,-2.91769 5.49024,-5.72851 0.42557,-3.10937 -1.55448,-5.98882 -3.88003,-7.85041 -3.51538,-2.84562 -8.59936,-3.68911 -12.78674,-1.89831 -1.5189,0.57794 -3.15851,0.18756 -4.7375,0.28529 -84.03061,-0.41194 -168.06122,-0.82378 -252.09183,-1.23579 -9.06793,-3.6071 -17.78308,-8.69657 -24.25847,-16.11496 -3.14353,-3.56821 -5.60841,-7.71548 -7.32698,-12.14445 -3.53139,-6.16617 -4.4091,-13.43821 -4.28458,-20.43471 0.0824,-6.85067 0.85673,-13.71175 0.21548,-20.55627 -0.19588,-78.14375 -0.39176,-156.2875 -0.58764,-234.431252 -1.11205,-3.066872 -4.55238,-4.71792 -7.66211,-4.679688 z m 301.29102,55.93359 c -1.79952,0.14453 -3.59157,0.43977 -5.40312,0.31446 -12.83243,0 -25.66485,0 -38.49727,0 -1.16917,1.17832 -2.40147,2.29444 -3.742,3.2705 -1.75268,1.74746 -1.62637,4.53346 -0.7912,6.69043 0.87603,2.45788 2.65029,4.51895 4.80859,5.94922 4.02728,3.96866 8.6665,7.50561 11.54688,12.46797 1.70227,2.99435 2.19529,6.85893 0.51048,9.97131 -1.53872,3.10389 -4.46779,5.18332 -7.39201,6.85968 -16.13531,16.01352 -32.26971,32.02794 -48.40558,48.04089 -1.74514,-0.27286 -3.71635,-0.37266 -5.35157,-0.27735 -4.19962,0.18344 -8.70169,0.78237 -12.69995,-0.98702 -2.28036,-0.9432 -4.18617,-2.61815 -5.60426,-4.61915 -3.28245,-3.77 -7.54055,-6.6389 -12.13048,-8.57994 -7.3969,-3.10032 -15.61481,-3.87202 -23.54727,-3.07628 -1.83279,0.31368 -3.54969,1.12827 -5.24412,1.87364 -7.70905,3.56938 -13.96484,9.50354 -19.78354,15.56266 -5.0486,5.26127 -9.93274,10.69362 -15.33051,15.6055 -16.74978,17.32488 -34.67684,33.50941 -50.69112,51.54286 -0.55341,3.40466 0.93584,7.36704 4.19336,8.87109 1.44143,0.65522 3.1498,0.63227 4.54607,-0.12848 6.05675,-2.47309 10.74654,-7.2469 15.11448,-11.96128 6.07207,-6.65263 11.6032,-13.90622 18.76894,-19.45997 3.06875,-2.67049 5.90152,-5.59798 8.79957,-8.44979 12.26045,-12.31228 23.89082,-25.37871 37.65956,-36.06751 4.22163,-2.97093 9.82214,-3.84063 14.75447,-2.32371 5.7876,1.6788 10.48556,5.64777 15.11374,9.32844 2.26852,1.79152 4.54329,3.62093 7.10255,4.98418 0.32475,0.16655 1.04923,0.46552 1.5332,0.67187 9.74882,3.69166 21.08807,3.43567 30.44504,-1.29146 3.97062,-1.97367 7.4213,-4.88885 10.20145,-8.32963 17.58125,-17.42201 35.1655,-34.84099 52.74609,-52.26367 3.31972,2.31484 6.45081,4.9182 9.14065,7.95071 4.00946,4.22603 7.58021,9.0584 12.64451,12.10788 2.09204,1.14805 4.69169,1.79148 7,0.97656 2.05109,-1.83276 4.35703,-3.82145 4.89062,-6.66601 0.33065,-1.75576 -0.55337,-3.45264 -0.33008,-5.21367 0,-14.02383 0,-28.04766 0,-42.07149 -1.52185,-5.28368 -6.06075,-9.51179 -11.40773,-10.74876 -1.6836,-0.42919 -3.43378,-0.58785 -5.16844,-0.52468 z" />
  </g>
</svg>
