<?xml version="1.0" encoding="UTF-8" standalone="no"?>
<!-- Created with Inkscape (http://www.inkscape.org/) -->

<svg
   version="1.1"
   id="svg254"
   width="512"
   height="512"
   viewBox="0 0 512 512"
   sodipodi:docname="i36.svg"
   inkscape:version="1.2.2 (b0a8486541, 2022-12-01)"
   xmlns:inkscape="http://www.inkscape.org/namespaces/inkscape"
   xmlns:sodipodi="http://sodipodi.sourceforge.net/DTD/sodipodi-0.dtd"
   xmlns="http://www.w3.org/2000/svg"
   xmlns:svg="http://www.w3.org/2000/svg">
  <defs
     id="defs258" />
  <sodipodi:namedview
     id="namedview256"
     pagecolor="#ffffff"
     bordercolor="#666666"
     borderopacity="1.0"
     inkscape:showpageshadow="2"
     inkscape:pageopacity="0.0"
     inkscape:pagecheckerboard="0"
     inkscape:deskcolor="#d1d1d1"
     showgrid="false"
     inkscape:zoom="1.3342372"
     inkscape:cx="158.14279"
     inkscape:cy="280.68472"
     inkscape:window-width="1499"
     inkscape:window-height="1062"
     inkscape:window-x="191"
     inkscape:window-y="66"
     inkscape:window-maximized="0"
     inkscape:current-layer="g260" />
  <g
     inkscape:groupmode="layer"
     inkscape:label="Image"
     id="g260">
    <path
       id="path264"
       style="fill:#f2f2f2;stroke-width:1.32;fill-opacity:1"
       d="m 341.66406,93.119141 c -6.14417,0.07695 -12.23663,0.149561 -18.34523,0.465715 -3.35263,0.187613 -6.72759,0.293167 -9.98289,1.270613 -13.8734,3.903637 -25.74989,14.018681 -32.13683,26.898781 -1.3291,2.75376 -2.67919,5.49873 -4.01942,8.2477 0,22.8737 0,45.7474 0,68.6211 3.20554,6.32665 5.95026,13.00169 10.51061,18.51994 6.44561,8.10656 15.52202,13.99993 25.44531,16.88402 5.38797,0.91741 10.87344,0.9134 16.31972,1.13433 11.07388,0.28305 22.15333,0.24495 33.2298,0.19308 2.26198,-0.0218 4.58636,-0.0711 6.71331,-0.1513 4.52358,-0.19168 9.09274,-0.46517 13.45492,-1.7759 3.45625,-0.95702 6.96429,-2.45841 9.97672,-4.14597 9.84023,-5.46723 17.49176,-14.41152 22.22656,-24.55078 1.06279,-2.29453 2.04675,-4.65539 2.37624,-7.18284 0.53991,-3.27426 0.59434,-6.54037 0.78782,-9.82693 0.0399,-1.03042 0.0846,-2.33189 0.1264,-3.46646 0.26659,-8.21926 0.36835,-16.56178 0.44165,-24.83049 0.0181,-4.37457 -0.0129,-8.74954 -0.11883,-13.12297 -0.0564,-1.94487 -0.1379,-4.08922 -0.24212,-6.11025 -0.17954,-3.83719 -0.68634,-7.68776 -1.97746,-11.32213 -5.0146,-15.6525 -17.84188,-28.70364 -33.61636,-33.518791 -5.07978,-1.653399 -10.47426,-1.582288 -15.74869,-1.878373 -8.4081,-0.320253 -16.95126,-0.376537 -25.42123,-0.352095 z m -188.20117,0.09375 c -3.6643,0.04093 -7.32293,0.08608 -10.92938,0.251062 -3.88294,0.15535 -7.99288,0.359814 -11.81671,1.522375 -9.31723,2.579817 -17.83573,7.895032 -24.33399,15.042972 -0.41559,0.45852 -1.03596,1.15842 -1.50737,1.73332 -4.38313,5.27623 -7.746636,11.42681 -9.635206,18.03035 -0.133112,0.4584 -0.349394,1.27338 -0.492187,1.87109 -1.03321,4.09603 -1.170624,8.43173 -1.345703,12.57227 -0.433261,13.21513 -0.08008,26.43839 0.220703,39.65234 0.123569,3.99836 0.251372,8.18842 0.740234,12.23438 0.541943,5.09283 2.898837,9.75573 5.367105,14.1626 0.947134,1.6214 2.056054,3.27685 3.104184,4.69434 0.77567,1.05895 1.71639,2.21888 2.50332,3.12157 6.54748,7.57111 15.34988,13.23392 25.05011,15.77499 4.51632,1.1479 9.21437,1.12038 13.84146,1.26079 9.30408,0.14554 18.60968,-0.0171 27.91403,-0.0697 8.79206,-0.0743 17.58405,-0.15768 26.37604,-0.23956 6.35826,-3.03922 12.99542,-5.77008 18.46801,-10.31928 6.03926,-4.83824 10.75816,-11.20763 14.03241,-18.18964 1.27479,-2.53784 2.54174,-5.13612 3.81794,-7.71178 0.18873,-17.08818 0.58453,-34.17569 0.50977,-51.26562 -0.0337,-2.10441 -0.0811,-4.13595 -0.16016,-6.21094 -0.0405,-0.65206 -0.078,-1.62409 -0.14155,-2.39963 -0.37819,-7.29168 -2.65499,-14.43153 -6.38164,-20.69672 -3.31148,-5.59167 -7.6985,-10.53687 -12.83423,-14.51693 -0.81299,-0.63036 -1.85157,-1.39134 -2.79321,-2.02093 -4.07669,-2.745701 -8.51375,-5.0174 -13.22351,-6.451434 -4.01136,-1.030302 -8.18543,-1.078779 -12.29788,-1.294338 -8.60862,-0.31116 -17.27247,-0.425336 -25.91894,-0.524207 -2.71118,-0.02848 -5.42238,-0.01585 -8.13365,-0.01378 z m 5.29492,15.630859 c 12.18109,0.10608 24.35949,0.39647 36.53907,0.60352 4.68513,3.10564 9.87025,5.57984 13.91155,9.56268 3.28231,3.2481 5.59234,7.30193 7.62265,11.4091 1.04321,1.99708 2.08708,3.99381 3.12986,5.99111 -0.29791,20.09048 -0.59163,40.18102 -0.89063,60.27148 -3.00352,4.39706 -5.65326,9.11579 -9.54477,12.82052 -2.79846,2.8709 -6.0866,5.19801 -9.46773,7.32655 -1.15488,0.72346 -2.24162,1.61169 -3.5207,2.09902 -1.3505,0.33806 -2.76278,0.0987 -4.14046,0.2057 -18.66802,0.27525 -37.33605,0.55 -56.00407,0.82555 -5.09441,-2.84656 -10.60275,-5.06475 -15.18179,-8.75016 -3.41716,-2.80026 -6.03468,-6.42677 -8.22893,-10.22926 -1.17738,-1.90475 -2.35623,-3.80859 -3.53264,-5.71394 -0.18833,-14.11612 -0.61947,-28.23118 -0.52149,-42.3496 0.1084,-6.86396 0.32957,-13.83424 2.23994,-20.47374 1.39221,-4.58866 3.98938,-8.78329 7.43459,-12.11444 4.15057,-4.30735 9.24087,-7.90828 15.09696,-9.41378 6.51425,-1.78831 13.32454,-1.88035 20.03161,-2.04144 1.67557,-0.0212 3.35132,-0.0196 5.02698,-0.0289 z m 194.49219,0 c 8.46153,0.0803 17.06773,-0.0686 25.3109,2.12518 4.79738,1.35336 9.18296,3.97612 12.79652,7.3924 4.27008,3.79813 7.92285,8.53579 9.46807,14.11351 2.0117,6.63136 2.11864,13.62899 2.27035,20.49931 0.13812,12.37253 -0.30447,24.74119 -0.45393,37.11162 -0.0666,1.75577 0.009,3.55411 -0.14466,5.28385 -3.22007,4.87803 -5.78419,10.3068 -10.07147,14.38429 -3.14897,3.01641 -6.98624,5.16299 -10.86708,7.08438 -1.90523,0.95885 -3.77926,2.04676 -5.70362,2.92655 -16.85674,-0.15486 -33.7258,0.0987 -50.56969,-0.70092 -3.0895,-0.19829 -6.20181,-0.32193 -9.25219,-0.87251 -4.42268,-1.06566 -8.13387,-3.91693 -11.47172,-6.88257 -3.89915,-3.61223 -7.40269,-7.77604 -9.69513,-12.60171 -1.15962,-2.52512 -1.5846,-5.30123 -1.72819,-8.05487 -0.86737,-10.62304 -0.85077,-21.29233 -0.8874,-31.94367 0.0171,-6.13453 -0.024,-12.27823 0.37798,-18.40188 0.30652,-3.76532 1.25234,-7.50122 3.05247,-10.83846 2.55004,-5.33028 6.06941,-10.38049 11.04,-13.71004 2.98466,-2.0862 6.15481,-3.8926 9.2484,-5.80526 1.78166,-0.89467 3.818,-0.42826 5.72515,-0.59486 10.51805,-0.1935 21.03566,-0.42067 31.55524,-0.51434 z M 164.75391,277.17773 c -11.58073,0 -23.16146,0 -34.74219,0 -5.6291,2.81899 -11.53448,5.24463 -16.52908,9.1559 -9.53794,7.23158 -16.676008,17.78392 -19.228734,29.5277 -0.705054,3.7837 -0.748823,7.80582 -0.966797,11.5332 -0.381552,10.26156 -0.312755,20.66996 -0.05957,30.99532 0.19875,6.32989 0.436576,12.75097 1.147463,19.08476 0.482218,4.12886 1.925828,8.07152 3.581512,11.85949 1.379436,3.08116 3.191168,6.15166 5.164578,8.75379 3.229,4.30183 7.14654,8.06196 11.45508,11.27149 0.85345,0.63446 1.93125,1.39645 2.9207,2.00894 4.6046,2.86971 9.72686,4.88653 15.0059,6.10638 4.31654,0.88463 8.74716,0.88007 13.13255,1.05098 11.56095,0.22249 23.12508,0.01 34.6853,-0.16875 5.48577,-0.14951 10.99271,-0.15839 16.44785,-0.81397 2.96999,-0.29415 5.79276,-1.3495 8.43215,-2.7038 10.53452,-5.00198 19.73461,-13.21993 24.97767,-23.72602 0.90321,-1.80465 1.77181,-3.846 2.40374,-5.63658 0.35771,-1.0179 0.69123,-2.04918 0.99937,-3.16374 1.14339,-3.96585 1.59128,-8.09109 1.67837,-12.20735 0.25602,-8.41821 0.0375,-16.84126 -0.0212,-25.26097 -0.12232,-10.48346 -0.26699,-20.96665 -0.40066,-31.44997 -3.21502,-6.33746 -5.96442,-13.02089 -10.51895,-18.55926 -4.84151,-6.07786 -11.22404,-10.82652 -18.2491,-14.09784 -2.48286,-1.20685 -5.00051,-2.34041 -7.48586,-3.54212 -11.27669,-0.0175 -22.55337,-0.0228 -33.83007,-0.0176 z m 141.09179,3.59961 c -8.7464,4.06868 -16.46624,10.5294 -21.51834,18.79448 -2.72642,4.41078 -4.79753,9.18035 -7.14767,13.79341 0,22.8737 0,45.7474 0,68.6211 3.13621,6.33025 5.91979,12.96795 10.55654,18.39319 5.30226,6.47304 12.27536,11.52059 20.01889,14.66998 3.24084,1.33094 6.60284,2.5215 10.12277,2.77448 5.16611,0.55362 10.48804,0.6622 15.59867,0.84008 9.72577,0.23875 19.4577,0.30038 29.1836,0.0352 4.00006,-0.13846 8.18892,-0.24246 12.25083,-0.57268 3.5394,-0.2656 7.02675,-1.04146 10.35189,-2.28087 14.58164,-5.1628 26.20197,-17.55615 30.94197,-32.21861 1.03293,-2.93607 1.51194,-6.02572 1.72679,-9.1212 0.1245,-1.48379 0.25974,-3.25091 0.3497,-4.76671 0.24466,-4.09001 0.40892,-8.22327 0.51497,-12.25214 0.25509,-10.78376 0.29734,-21.58027 -0.18735,-32.3582 -0.25046,-4.11866 -0.36356,-8.30357 -1.60511,-12.27471 -0.15057,-0.53528 -0.27356,-0.92807 -0.46595,-1.51706 -2.67352,-8.00746 -7.3361,-15.33221 -13.47291,-21.1308 -1.08289,-1.03467 -2.37935,-2.15712 -3.44194,-3.00702 -3.67639,-2.97281 -7.78912,-5.36083 -12.08604,-7.31484 -1.88373,-0.8874 -3.74026,-1.89246 -5.64092,-2.70665 -22.81823,0 -45.63645,0 -68.45468,0 -2.5319,1.19987 -5.06381,2.39974 -7.59571,3.59961 z m -168.92578,11.26563 c 19.92186,0.29525 39.84379,0.58642 59.76563,0.88281 4.29993,2.94382 8.91467,5.53149 12.57656,9.30002 2.94653,2.84879 5.3631,6.18505 7.52328,9.65375 0.84021,1.2634 1.76537,2.52565 2.29447,3.947 0.29558,19.92562 0.58669,39.85132 0.88108,59.77697 -2.7854,4.98431 -4.96607,10.35778 -8.50391,14.88476 -2.75266,3.44114 -6.32342,6.12311 -10.1245,8.30593 -2.02764,1.25524 -4.05417,2.51227 -6.08253,3.76634 -16.02596,0.087 -32.05615,0.5034 -48.08008,0.0566 -4.02852,-0.16421 -8.07535,-0.30036 -12.06836,-0.88281 -4.05965,-0.85437 -7.59672,-3.17777 -10.97326,-5.47896 -4.14803,-3.01154 -7.99302,-6.62544 -10.58731,-11.08861 -3.26567,-5.7769 -4.03389,-12.52113 -4.38888,-19.03454 -0.51291,-9.56916 -0.15085,-19.15568 -0.0482,-28.73105 0.10725,-6.89754 0.22813,-13.79486 0.34529,-20.69224 3.0554,-4.627 5.51105,-9.72275 9.39062,-13.75 3.30567,-3.39194 7.46633,-5.76128 11.67679,-7.84295 1.96521,-1.02686 3.92999,-2.05454 5.89548,-3.08087 0.16927,0.003 0.33854,0.005 0.50781,0.008 z m 239.11719,0.22656 c 5.19631,2.87692 10.83421,5.13036 15.37626,9.04865 3.22141,2.7843 5.65544,6.33001 7.78444,9.9845 1.11747,1.80742 2.23657,3.61384 3.35297,5.42193 0.19648,14.39265 0.70987,28.78424 0.54037,43.17958 -0.13169,6.57245 -0.43794,13.2453 -2.34255,19.58002 -1.44938,4.60837 -4.11796,8.76319 -7.44571,12.23816 -4.16578,4.56102 -9.54648,8.15742 -15.61967,9.541 -4.5322,1.05349 -9.20666,1.22398 -13.83166,1.54132 -12.71692,0.64503 -25.47489,0.64128 -38.18359,-0.17578 -4.02987,-0.33435 -8.14462,-0.73647 -11.89219,-2.36706 -5.17246,-2.1027 -9.91093,-5.41005 -13.33119,-9.8581 -2.7281,-3.45102 -4.73604,-7.4208 -6.33576,-11.50225 -1.06773,-2.77832 -1.50918,-5.74385 -1.62725,-8.7056 -0.39217,-6.91809 -0.10433,-13.85006 -0.0589,-20.77361 0.16012,-11.36941 0.33103,-22.73866 0.50699,-34.10784 3.01135,-4.42423 5.68701,-9.15992 9.60078,-12.87977 2.80473,-2.86742 6.10298,-5.18269 9.48219,-7.31647 1.33253,-0.80681 2.5701,-1.94415 4.14758,-2.21397 19.80377,-0.27942 39.61935,-0.5803 59.42765,-0.86908 0.14974,0.0781 0.29948,0.15625 0.44922,0.23437 z" />
  </g>
</svg>
