/* XPM */
static char *gls_camera[] = {
/* columns rows colors chars-per-pixel */
"16 16 101 2",
"   c #003737",
".  c #075A5A",
"X  c #0A5858",
"o  c #076666",
"O  c #126565",
"+  c #146262",
"@  c #106A6A",
"#  c #176969",
"$  c #196666",
"%  c #127171",
"&  c #177676",
"*  c #1D7676",
"=  c #1E8282",
"-  c #208484",
";  c #238787",
":  c #288383",
">  c #2A8383",
",  c #298D8D",
"<  c #2C8D8D",
"1  c #2D9191",
"2  c #308888",
"3  c #348989",
"4  c #3C8C8C",
"5  c #329090",
"6  c #329393",
"7  c #329494",
"8  c #329696",
"9  c #369999",
"0  c #389191",
"q  c #3E9191",
"w  c #3C9595",
"e  c #3B9C9C",
"r  c #409F9F",
"t  c #469898",
"y  c #4A9393",
"u  c #4B9A9A",
"i  c #4A9F9F",
"p  c #4C9B9B",
"a  c #44A2A2",
"s  c #44A3A3",
"d  c #55A7A7",
"f  c #56A5A5",
"g  c #5BA7A7",
"h  c #5CA2A2",
"j  c #5AA9A9",
"k  c #58ADAD",
"l  c #59ACAC",
"z  c #5EAFAF",
"x  c #63B2B2",
"c  c #64B2B2",
"v  c #69B2B2",
"b  c #68B5B5",
"n  c #6DB7B7",
"m  c #6FB6B6",
"M  c #71B2B2",
"N  c #73B9B9",
"B  c #73BABA",
"V  c #77BCBC",
"C  c #78BDBD",
"Z  c #7CBEBE",
"A  c #7EBEBE",
"S  c #7FBEBE",
"D  c #82C1C1",
"F  c #83C1C1",
"G  c #83C2C2",
"H  c #87C4C4",
"J  c #8DC7C7",
"K  c #93C7C7",
"L  c #91C8C8",
"P  c #92C8C8",
"I  c #96CBCB",
"U  c #97CCCC",
"Y  c #9CCECE",
"T  c #A3D1D1",
"R  c #A6D3D3",
"E  c #A7D3D3",
"W  c #A8D4D4",
"Q  c #ADD6D6",
"!  c #B0D8D8",
"~  c #B1D8D8",
"^  c #B4DADA",
"/  c #B5DBDB",
"(  c #B6DBDB",
")  c #B8DCDC",
"_  c #BBDDDD",
"`  c #C1E0E0",
"'  c #C3E1E1",
"]  c #C7E3E3",
"[  c #CAE5E5",
"{  c #CBE5E5",
"}  c #CCE6E6",
"|  c #CFE7E7",
" . c #D0E8E8",
".. c #D5EAEA",
"X. c #DAEDED",
"o. c #E5F2F2",
"O. c #EAF5F5",
"+. c #EFF7F7",
"@. c #F4FAFA",
"#. c #F9FCFC",
"$. c gray100",
/* pixels */
"$.$.$.$.$.$.$.$.$.$.$.$.$.$.$.$.",
"$.$.@.] [ I m +.$.$.$.$.$.$.$.$.",
"$.$.j a H x y W { @.$.$.$.$.$.$.",
"$.$.f - a S +.) N l | +.$.$.$.$.",
"$.$.g 1 7 $ q D D ` v p +.$.$.$.",
"$.#.i D ( ~ 4 0 D S 6 2 Q Q $.$.",
"$./ o w ) ) W # b J D x a < @.$.",
"$.P 6 7 n n n & z N s s s , ` $.",
"$.P D d = - - * l C e 9 1 , T $.",
"$.( E 3     + . z C 9 9 9 , T $.",
"$.#.S u t > X O S L 7 1 , = T $.",
"$.$.@.` I P C N I Y = = = = T $.",
"$.$.$.o. .[ { ~ Y ~ % @ : h T $.",
"$.$.$.$.$.$.@.O...~ m I I I T $.",
"$.$.$.$.$.$.$.$.#.O.| R E ` X.$.",
"$.$.$.$.$.$.$.$.$.$.$.$.$.$.$.$."
};
