/* XPM */
static char *gls_cross[] = {
/* columns rows colors chars-per-pixel */
"16 16 70 1",
"  c #FF0C0C",
". c #FF0C19",
"X c #FF190C",
"o c #FF1919",
"O c #FF1926",
"+ c #FF2626",
"@ c #FF3232",
"# c #FF3333",
"$ c #FF323F",
"% c #F83939",
"& c #FF3F3F",
"* c #FF324C",
"= c #FF3F4C",
"- c #FF3F59",
"; c #FF4C3F",
": c #EB5252",
"> c #FB4949",
", c #FF4C4C",
"< c #FF4C59",
"1 c #F15858",
"2 c #FF5959",
"3 c #FB5562",
"4 c #FF5965",
"5 c #FF5966",
"6 c #FF6559",
"7 c #FF6659",
"8 c #FF6565",
"9 c #FF6666",
"0 c #F86C6C",
"q c #FB6F7C",
"w c #FF7272",
"e c #FF727F",
"r c #FF7F72",
"t c #FB7C7C",
"y c #FF7F7F",
"u c #FF7F8C",
"i c #F88578",
"p c #FB887C",
"a c #FF8C7F",
"s c #F48E8E",
"d c #FB8888",
"f c #FF8C8C",
"g c #F89285",
"h c #FF998C",
"j c #FF9898",
"k c #FF9999",
"l c #FBA2A2",
"z c #FFA5A5",
"x c #F8ABAB",
"c c #FBAFAF",
"v c #F8ABB8",
"b c #FFB2A5",
"n c #FFB2B2",
"m c #FFBFB2",
"M c #F8B8B8",
"N c #FBBBBB",
"B c #FFBFBF",
"V c #F8C5C5",
"C c #FFCCCC",
"Z c #F2D8D8",
"A c #F8D1D1",
"S c #FFD8D8",
"D c #FBE2E2",
"F c #FFE5E5",
"G c #FBEEEE",
"H c #F4F4F4",
"J c #FFF2F2",
"K c #F8F8F8",
"L c #FBFBFB",
"P c gray100",
/* pixels */
"PPPPPPPPPPPPPPPP",
"PK7APPPPPPKxnPPP",
"PPS&MKPPPPf,zPPP",
"PDe8,xPPKk8,5iGP",
"PKl&mwBPt+*q,hPP",
"PPH,fbX1,,58cKPP",
"PPPAa2;o$okVKPPP",
"PPPPP=2.+wMPPPPP",
"PPPLl 8-t#PPPPPP",
"PPLd f8 8#kKPPPP",
"PPl##2wv#fkpPPPP",
"PS8&-rsLZ+&2SPPP",
"PCOukgLPP3ow0DPP",
"Pd<87KPPPJ:tnJPP",
"PtFtDPPPPPx%SPPP",
"PPPPPPPPPPPBKPPP"
};
