/* XPM */
static char *TGLPolygon[] = {
/* columns rows colors chars-per-pixel */
"16 16 16 1",
"  c #040204",
". c #848284",
"X c #04FEFC",
"o c #C4C2C4",
"O c #FCFEFC",
"+ c #990B00",
"@ c #833E00",
"# c #7C7700",
"$ c #186968",
"% c #9F0EF1",
"& c #803E17",
"* c #7C7700",
"= c #FF004A",
"- c #FF0002",
"; c #FF002D",
": c red",
/* pixels */
"OOOOOOOOOOOOOOOO",
"OOOO .oOOOOOOOOO",
"OOO.Xo...oOOOOOO",
"OO.XXXXXo...oOOO",
"O XXXXXXXXXo. OO",
"O.XXXXXXXXXXX.OO",
"O.oXXXXXXXXXX.OO",
"Oo.XXX XXXXXX.OO",
"OO.XXX..XXXXX.oO",
"OO.XX.oO XXXXo.O",
"OO.Xo.OO.XXXXX.O",
"OOo..oOo.XXXXX.O",
"OOO..OO.XXXXo. O",
"OOO OOO.o....oOO",
"OOOOOOO .oOOOOOO",
"OOOOOOOOOOOOOOOO"
};
