/* XPM */
static char *TGLRenderPoint[] = {
/* columns rows colors chars-per-pixel */
"16 16 16 1",
"  c #040204",
". c #FCFE04",
"X c #848284",
"o c #04FEFC",
"O c #040284",
"+ c #C4C2C4",
"@ c #0402FC",
"# c #FCFEFC",
"$ c #186968",
"% c #9F0EF1",
"& c #803E17",
"* c #7C7700",
"= c #FF004A",
"- c #FF0002",
"; c #FF002D",
": c red",
/* pixels */
"#+############+#",
"+ +##########+ +",
"#+ +#+####+#+ +#",
"##+ +X####X+ +##",
"###+ X####X +###",
"##+XX o@@o XX+##",
"#####o@OO@o#####",
"#####@O..O@#####",
"#####@O..O@#####",
"#####o@OO@o#####",
"##+XX o@@o XX+##",
"###+ X####X +###",
"##+ +X####X+ +##",
"#+ +#+####+#+ +#",
"+ +##########+ +",
"#+############+#"
};
