/* XPM */
static char *TGLTilePlane[] = {
/* columns rows colors chars-per-pixel */
"16 16 16 1",
"  c #040204",
". c #04FE04",
"X c #C4C2C4",
"o c #0402FC",
"O c #FC0204",
"+ c #FCFE04",
"@ c #FCFEFC",
"# c #7C7700",
"$ c #186968",
"% c #9F0EF1",
"& c #803E17",
"* c #7C7700",
"= c #FF004A",
"- c #FF0002",
"; c #FF002D",
": c red",
/* pixels */
"@@@@@@@@@@@@@@@@",
"@@@@@@@@@@@@@@@@",
"@             @@",
"@ +++ OOO XXX @@",
"@ +++ OOO XXX @@",
"@ +++ OOO XXX @@",
"@             @@",
"@ ooo ooo ... @@",
"@ ooo ooo ... @@",
"@ ooo ooo ... @@",
"@             @@",
"@ ... ooo ... @@",
"@ ... ooo ... @@",
"@ ... ooo ... @@",
"@             @@",
"@@@@@@@@@@@@@@@@"
};
