/* XPM */
static char *TGLBitmapFont[] = {
/* columns rows colors chars-per-pixel */
"24 24 218 2",
"   c black",
".  c navy",
"X  c blue",
"o  c #008000",
"O  c green",
"+  c #800000",
"@  c red",
"#  c #EE9403",
"$  c #EF970C",
"%  c #EF9810",
"&  c #EF9912",
"*  c #EF9A12",
"=  c #F09B15",
"-  c #F09B16",
";  c #F09C16",
":  c #F09C18",
">  c #F09D18",
",  c #F09D1B",
"<  c #F09E1B",
"1  c #F09D1C",
"2  c #F09E1C",
"3  c #F09F1E",
"4  c #F09F20",
"5  c #F0A01F",
"6  c #F0A020",
"7  c #F0A120",
"8  c #F1A124",
"9  c #F1A125",
"0  c #F0A224",
"q  c #F1A224",
"w  c #F1A328",
"e  c #F1A329",
"r  c #F1A429",
"t  c #F1A42A",
"y  c #F1A52F",
"u  c #F1A62C",
"i  c #F1A62D",
"p  c #F1A62E",
"a  c #F1A62F",
"s  c #F2A730",
"d  c #F2A732",
"f  c #F2A834",
"g  c #F2A934",
"h  c #F2A935",
"j  c #F2A836",
"k  c #F2A937",
"l  c #F2AA39",
"z  c #F2AB39",
"x  c #F2AA3A",
"c  c #F2AB3A",
"v  c #F2AB3B",
"b  c #F3AD3F",
"n  c #F2AD40",
"m  c #F3AD40",
"M  c #F3AD41",
"N  c #F2AE40",
"B  c #F3AE40",
"V  c #F3AE41",
"C  c #F3AF45",
"Z  c #F3AF46",
"A  c #F3B044",
"S  c #F3B045",
"D  c #F3B046",
"F  c #F3B047",
"G  c #F3B249",
"H  c #F3B24A",
"J  c #F3B24B",
"K  c #F3B34B",
"L  c #F3B24C",
"P  c #F3B34C",
"I  c #F3B34D",
"U  c #F4B34C",
"Y  c #F3B551",
"T  c #F4B550",
"R  c #F4B551",
"E  c #F4B552",
"W  c #F4B553",
"Q  c #F4B652",
"!  c #F4B653",
"~  c #F4B756",
"^  c #F4B757",
"/  c #F4B758",
"(  c #F4B857",
")  c #F4B858",
"_  c #F4B859",
"`  c #F5B95B",
"'  c #F5BA5D",
"]  c #F4BA5E",
"[  c #F5BA5E",
"{  c #F5BA5F",
"}  c #F5BB5E",
"|  c #F5BB5F",
" . c #F5BB60",
".. c #F5BC63",
"X. c #F5BD63",
"o. c #F5BD64",
"O. c #F5BD65",
"+. c #F5BD66",
"@. c #F5BE65",
"#. c #F5BE66",
"$. c #F5BE67",
"%. c #F5BF6A",
"&. c #F6BF69",
"*. c #F5C06A",
"=. c #F5C06B",
"-. c #F5C06C",
";. c #F6C16D",
":. c #F6C26F",
">. c #F5C370",
",. c #F5C372",
"<. c #F6C270",
"1. c #F6C271",
"2. c #F6C371",
"3. c #F6C272",
"4. c #F6C372",
"5. c #F6C373",
"6. c #F6C576",
"7. c #F6C577",
"8. c #F6C578",
"9. c #F6C579",
"0. c #F6C679",
"q. c #F6C87E",
"w. c #F6C97F",
"e. c #F7C87E",
"r. c #F7C87F",
"t. c #F7C97F",
"y. c #808080",
"u. c #F6C880",
"i. c #F7C980",
"p. c #F7C982",
"a. c #F7CB83",
"s. c #F7CB84",
"d. c #F7CB85",
"f. c #F7CB86",
"g. c #F7CC86",
"h. c #F7CC87",
"j. c #F7CC88",
"k. c #F7CD8B",
"l. c #F7CE8C",
"z. c #F7CF8E",
"x. c #F8CE8C",
"c. c #F8CE8D",
"v. c #F7D092",
"b. c #F8D091",
"n. c #F8D092",
"m. c #F8D192",
"M. c #F8D193",
"N. c #F8D194",
"B. c #F8D398",
"V. c #F8D399",
"C. c #F8D39A",
"Z. c #F8D499",
"A. c #F8D49A",
"S. c #F9D49A",
"D. c #F8D69F",
"F. c #F9D69E",
"G. c #F9D69F",
"H. c #F8D7A1",
"J. c #F9D6A0",
"K. c #F9D7A0",
"L. c #F9D7A1",
"P. c #F9D8A5",
"I. c #F9D9A6",
"U. c #F9D9A7",
"Y. c #F9DAA7",
"T. c #F9DBAA",
"R. c #F9DBAC",
"E. c #FADBAC",
"W. c #FADCAB",
"Q. c #FADCAC",
"!. c #FADCAD",
"~. c #FADDB1",
"^. c #FADEB2",
"/. c #FADEB3",
"(. c #FADFB3",
"). c #FADFB4",
"_. c #FAE0B7",
"`. c #FAE1B8",
"'. c #FAE1B9",
"]. c #FBE1B9",
"[. c #FBE1BA",
"{. c #FBE3BC",
"}. c #FBE3BE",
"|. c #FBE3BF",
" X c #FBE4BF",
".X c #FBE5C2",
"XX c #FBE6C4",
"oX c #FBE6C5",
"OX c #FBE7C7",
"+X c #FBE7C8",
"@X c #FCE9CA",
"#X c #FCE9CD",
"$X c #FCE9CE",
"%X c #FCEBCF",
"&X c #FCEBD0",
"*X c #FCECD2",
"=X c #FCECD3",
"-X c #FCEDD5",
";X c #FCEED6",
":X c #FCEED7",
">X c #FCEFD8",
",X c #FDEFDA",
"<X c #FDF0DA",
"1X c #FDF0DC",
"2X c #FDF1DD",
"3X c #FDF2DF",
"4X c #FDF3E1",
"5X c #FDF3E2",
"6X c #FDF4E4",
"7X c OldLace",
"8X c #FEF6E8",
"9X c #FEF7E9",
"0X c #FEF7EA",
"qX c #FEF7ED",
"wX c #FEF8ED",
"eX c #FEF8EE",
"rX c #FEF9F2",
"tX c #FEFBF5",
/* pixels */
"3 % % ; > 3 5 8 t a d g v V G L ! ! [ #.%.:.5.h.",
"$ # . . . X ; > 5 8 + + + @ V Z L ! o o o O 3.r.",
"% . . . . . X 5 8 + + + + + @ L ! o o o o o O j.",
"; . X % ; . X 8 t + @ v V + @ ! _ o O -.5.o O z.",
"> . X ; > . X t a + @ V F + @ _ { o O 5.0.o O B.",
"3 . . . . . X a g + + + + + @  .#.o o o o o O N.",
"6 . X 5 8 . X g v + @ K ! + @ #.%.o O a.k.o O L.",
"8 . X 8 t . X c V + @ ! _ + @ -.3.o O a.z.o O P.",
"t . X e a . X V F + @ _ [ + @ 5.0.o O c.N.o O !.",
"a 6 t a d v b F G ! / [ #.-.5.0.e.h.c.N.N.L.Y.(.",
"a t a g v b F K ! _ [ #.-.3.0.t.h.c.N.N.L.P.!.'.",
"g a d v b F G ! / [ #.%.3.0.t.f.c.N.F.L.T.!._.}.",
"v d v     y.!   [   -.    y.f.z.N.D.L.P.E.).{..X",
"b v b   L   ^       3.  t.  z.M.N.L.P.E.).].|.+X",
"Z b Z     y.}   y.  0.    y.M.N.F.P.E._.].|..X#X",
"Z Z J   ^   #.  5.  a.  c.N.N.L.P.E._.].|..X@X;X",
"! G !     y.*.  0.  a.  M.N.L.P.!.(.].|.XX@X&X<X",
"^ ! _ } #.*.3.0.e.a.z.M.N.L.P.!.^.'.|.XX@X&X;X2X",
"_ ^ [ #.*.5.      z.y.  y.T.  ^.'.  .X      <X4X",
"} }  .-.3.5.  d.x.M.  L.  !.    }.  @X&X  <X3X7X",
"%. .*.3.0.t.    M.N.  P.  ^.  y.y.  %X;X  2X7X9X",
"-.*.3.0.t.d.  M.B.D.  !.  '.  .X    ;X<X  7X7XwX",
"5.-.5.t.d.k.  B.D.P.y.  y.|.  @X#X  <X2X  7XwXrX",
"a.a.d.k.M.B.D.P.T.^.'.'..X@X#X&X:X2X4X7XwXwXrXtX"
};
