/* XPM */
static char *TGLBumpmapHDS[] = {
/* columns rows colors chars-per-pixel */
"24 24 210 2",
"   c black",
".  c #EF960A",
"X  c #EF970C",
"o  c #EF980E",
"O  c #EF990E",
"+  c #EF9810",
"@  c #EF9912",
"#  c #EF9A12",
"$  c #F09B15",
"%  c #F09C16",
"&  c #F09C18",
"*  c #F09D18",
"=  c #F09D1B",
"-  c #F09D1C",
";  c #F09E1C",
":  c #F09F1E",
">  c #F0A01F",
",  c #F0A020",
"<  c #F0A120",
"1  c #F1A124",
"2  c #F1A125",
"3  c #F0A224",
"4  c #F1A224",
"5  c #F1A328",
"6  c #F1A329",
"7  c #F1A429",
"8  c #F1A52F",
"9  c #F1A62C",
"0  c #F1A62D",
"q  c #F1A62E",
"w  c #F1A62F",
"e  c #F2A730",
"r  c #F2A732",
"t  c #F2A834",
"y  c #F2A934",
"u  c #F2A935",
"i  c #F2A836",
"p  c #F2A937",
"a  c #F2AA39",
"s  c #F2AB39",
"d  c #F2AA3A",
"f  c #F2AB3A",
"g  c #F2AB3B",
"h  c #F2AD3F",
"j  c #F3AD3F",
"k  c #F2AD40",
"l  c #F3AD40",
"z  c #F2AE40",
"x  c #F3AE40",
"c  c #F3AE41",
"v  c #F3AF45",
"b  c #F3AF46",
"n  c #F3B044",
"m  c #F3B045",
"M  c #F3B046",
"N  c #F3B047",
"B  c #F3B249",
"V  c #F3B24B",
"C  c #F3B34B",
"Z  c #F3B24C",
"A  c #F3B34C",
"S  c #F3B34D",
"D  c #F4B34C",
"F  c #F3B551",
"G  c #F4B550",
"H  c #F4B551",
"J  c #F4B552",
"K  c #F4B756",
"L  c #F4B757",
"P  c #F4B758",
"I  c #F4B857",
"U  c #F4B858",
"Y  c #F4B859",
"T  c #F5B95B",
"R  c #F5BA5D",
"E  c #F4BA5E",
"W  c #F5BA5E",
"Q  c #F5BA5F",
"!  c #F5BB5E",
"~  c #F5BB5F",
"^  c #F4BB60",
"/  c #F5BB60",
"(  c #F5BC63",
")  c #F5BD64",
"_  c #F5BD65",
"`  c #F5BD66",
"'  c #F5BE65",
"]  c #F5BE66",
"[  c #F5BE67",
"{  c #F6BF69",
"}  c #F5C06B",
"|  c #F5C06C",
" . c #F5C16D",
".. c #F6C16D",
"X. c #F6C26F",
"o. c #F5C370",
"O. c #F5C372",
"+. c #F6C271",
"@. c #F6C371",
"#. c #F6C272",
"$. c #F6C372",
"%. c #F6C373",
"&. c #F5C474",
"*. c #F6C576",
"=. c #F6C577",
"-. c #F6C578",
";. c #F6C579",
":. c #F6C678",
">. c #F6C679",
",. c #F6C67A",
"<. c #F6C97F",
"1. c #F7C87E",
"2. c #F7C87F",
"3. c #F7C97F",
"4. c #808080",
"5. c #F6C880",
"6. c #F7C980",
"7. c #F7C981",
"8. c #F7C982",
"9. c #F7CB83",
"0. c #F7CB85",
"q. c #F7CB86",
"w. c #F7CB87",
"e. c #F7CC86",
"r. c #F7CC87",
"t. c #F7CC88",
"y. c #F7CD8B",
"u. c #F7CE8C",
"i. c #F7CF8E",
"p. c #F8CD8C",
"a. c #F8CE8C",
"s. c #F8CE8D",
"d. c #F8CF8D",
"f. c #F7D092",
"g. c #F7D192",
"h. c #F8D091",
"j. c #F8D092",
"k. c #F8D192",
"l. c #F8D193",
"z. c #F8D194",
"x. c #F8D398",
"c. c #F8D399",
"v. c #F8D39A",
"b. c #F8D499",
"n. c #F8D49A",
"m. c #F9D49A",
"M. c #F8D69F",
"N. c #F9D69F",
"B. c #F8D7A1",
"V. c #F9D6A0",
"C. c #F9D7A0",
"Z. c #F9D7A1",
"A. c #F9D8A5",
"S. c #F9D9A5",
"D. c #F9D9A6",
"F. c #F9D9A7",
"G. c #F9DAA7",
"H. c #F9DBAA",
"J. c #F9DBAC",
"K. c #FADBAC",
"L. c #FADCAC",
"P. c #FADCAD",
"I. c #FADDB1",
"U. c #FADEB2",
"Y. c #FADEB3",
"T. c #FADFB3",
"R. c #FADFB4",
"E. c #FAE0B7",
"W. c #FAE1B8",
"Q. c #FAE1B9",
"!. c #FBE1B8",
"~. c #FBE1B9",
"^. c #FBE1BA",
"/. c #FBE3BC",
"(. c #FBE3BE",
"). c #FBE3BF",
"_. c #FBE4BF",
"`. c #FBE5C2",
"'. c #FBE6C4",
"]. c #FBE6C5",
"[. c #FBE7C7",
"{. c #FBE7C8",
"}. c #FCE9CA",
"|. c #FCE9CD",
" X c #FCE9CE",
".X c #FCEBCF",
"XX c #FCEBD0",
"oX c #FCECD2",
"OX c #FCECD3",
"+X c #FCEDD5",
"@X c #FCEED6",
"#X c #FCEED7",
"$X c #FCEFD8",
"%X c #FDEFDA",
"&X c #FDF0DA",
"*X c #FDF0DC",
"=X c #FDF1DD",
"-X c #FDF2DF",
";X c #FDF3E1",
":X c #FDF3E2",
">X c #FDF4E4",
",X c OldLace",
"<X c #FEF6E8",
"1X c #FEF7E9",
"2X c #FEF7EA",
"3X c #FEF7ED",
"4X c #FEF8ED",
"5X c #FEF8EE",
"6X c #FEF9F2",
"7X c #FEFBF5",
/* pixels */
": + + % = : > 4 2 q y y g c N D J K ! ( { ..%.e.",
"X     . O     =         4.g c 4.        { { %.2.",
"+     O +     >           4.N           { %.2.y.",
"%     + %     1     y g     S     ^ ' ..%.2.2.i.",
"=             7     f c     J         4.>.6.a.g.",
":             w     c N     Y 4.        6.0.a.c.",
">     > 1     y     N S     ~ ' ..%.    0.d.l.C.",
"1     1 7     f           4.'         4.i.g.c.F.",
"6     6 e     g         4.{ {         4.g.m.A.H.",
"w 1 6 e y f c M N J P ^ ' { &.,.1.0.i.g.m.A.F.U.",
"w 7 e y f c M Z K Y ! ' { +.,.2.0.a.g.c.C.F.L.^.",
"y w y f g N Z J Y ! ' { %.,.2.w.i.l.N.V.F.L.R.).",
"f y f g b Z J L ^ ' { $.,.2.e.u.g.N.V.A.L.U.^.].",
"g f l B Z J L ! ' { &.>.2.e.i.g.c.C.A.L.U.^.`.{.",
"b j b Z J P ^ ' { &.=.1.0.i.l.c.N.A.L.E.^.(.].|.",
"B M Z J P ! ' { +.>.1.0.i.l.c.V.A.L.U.^.(.].}.oX",
"D       4.'   +.,.  w.  l.z.V.  L.      4.}..X$X",
"L   K !   {   ,.2.  y.  4.C.4.  U.  ).'.  oX@X=X",
"Y   ! '   %.  2.e.  l.    4.    Q.  '.}.  @X&X;X",
"(       4.%.  w.u.  z.  A.  R.  ).      4.&X=X,X",
"'   { +.  2.  i.g.  V.  L.U.Q.  ].  |.@X&X=X,X2X",
"{   +.,.  e.  l.z.  H.  U.Q.).  }.  @X&X=X,X,X5X",
"%.      4.u.4.    4.L.  Q.(.'.  .X  &X=X,X,X5X6X",
"w.2.w.u.l.z.N.A.H.U.R.(.`.[.|.oX@X=X;X,X2X5X6X7X"
};
