/* XPM */
static char *TGLFireFXManager[] = {
/* columns rows colors chars-per-pixel */
"24 24 206 2",
"   c black",
".  c red",
"X  c #EF970A",
"o  c #EF970C",
"O  c #EF990E",
"+  c #EF9810",
"@  c #EF9912",
"#  c #EF9A12",
"$  c #F09B15",
"%  c #F09B16",
"&  c #F09C16",
"*  c #F09C18",
"=  c #F09D18",
"-  c #F09D1A",
";  c #F09D1B",
":  c #F09E1A",
">  c #F09E1B",
",  c #F09D1C",
"<  c #F09E1C",
"1  c #F09F1E",
"2  c #F09F1F",
"3  c #F0A01F",
"4  c #F0A020",
"5  c #F0A120",
"6  c #F1A124",
"7  c #F1A125",
"8  c #F0A224",
"9  c #F1A224",
"0  c #F1A328",
"q  c #F1A329",
"w  c #F1A32A",
"e  c #F1A429",
"r  c #F1A52F",
"t  c #F1A62C",
"y  c #F1A62D",
"u  c #F1A62E",
"i  c #F1A62F",
"p  c #F1A72F",
"a  c #F2A730",
"s  c #F2A732",
"d  c #F2A834",
"f  c #F2A934",
"g  c #F2A935",
"h  c #F2A836",
"j  c #F2A937",
"k  c #F2AA39",
"l  c #F2AB39",
"z  c #F2AA3A",
"x  c #F2AB3A",
"c  c #F2AB3B",
"v  c #F2AD3F",
"b  c #F3AD3F",
"n  c #FF8040",
"m  c #F2AD40",
"M  c #F3AD40",
"N  c #F3AD41",
"B  c #F2AE40",
"V  c #F2AE41",
"C  c #F3AE40",
"Z  c #F3AE41",
"A  c #F3AF45",
"S  c #F3AF46",
"D  c #F3B044",
"F  c #F3B045",
"G  c #F3B046",
"H  c #F3B047",
"J  c #F3B249",
"K  c #F3B24A",
"L  c #F3B24B",
"P  c #F3B24C",
"I  c #F3B34D",
"U  c #F4B34C",
"Y  c #F4B550",
"T  c #F4B551",
"R  c #F4B552",
"E  c #F4B553",
"W  c #F4B653",
"Q  c #F4B756",
"!  c #F4B757",
"~  c #F4B858",
"^  c #F4B859",
"/  c #F5B95B",
"(  c #F5BA5D",
")  c #F4BA5E",
"_  c #F5BA5E",
"`  c #F5BB5E",
"'  c #F5BB5F",
"]  c #F4BB60",
"[  c #F5BB60",
"{  c #F5BC63",
"}  c #F5BD63",
"|  c #F5BD64",
" . c #F5BD65",
".. c #F5BD66",
"X. c #F5BE65",
"o. c #F5BE66",
"O. c #F5BE67",
"+. c #F5BF6A",
"@. c #F6BF69",
"#. c #FECC05",
"$. c #F5C06B",
"%. c #F5C06C",
"&. c #F6C06C",
"*. c #F6C16D",
"=. c #F6C26F",
"-. c #F5C370",
";. c #F6C270",
":. c #F6C271",
">. c #F6C371",
",. c #F6C372",
"<. c #F6C373",
"1. c #F6C576",
"2. c #F6C577",
"3. c #F6C578",
"4. c #F6C679",
"5. c #F6C67A",
"6. c #F6C87E",
"7. c #F7C87E",
"8. c #F7C87F",
"9. c #F7C97F",
"0. c #F6C880",
"q. c #F7C880",
"w. c #F7C980",
"e. c #F7C981",
"r. c #F7C982",
"t. c #F7CB83",
"y. c #F7CB84",
"u. c #F7CB85",
"i. c #F7CB86",
"p. c #F7CB87",
"a. c #F7CC86",
"s. c #F7CC87",
"d. c #F7CC88",
"f. c #F7CD8B",
"g. c #F7CE8C",
"h. c #F7CF8E",
"j. c #F8CE8D",
"k. c #F8CF8D",
"l. c #F8D092",
"z. c #F8D193",
"x. c #F8D194",
"c. c #F8D398",
"v. c #F8D499",
"b. c #F8D49A",
"n. c #F9D49A",
"m. c #F8D69F",
"M. c #F8D7A1",
"N. c #F9D6A0",
"B. c #F9D7A0",
"V. c #F9D7A1",
"C. c #F9D8A5",
"Z. c #F9D9A6",
"A. c #F9D9A7",
"S. c #F9DAA7",
"D. c #F9DBAA",
"F. c #F9DBAC",
"G. c #FADBAC",
"H. c #FADCAD",
"J. c #FADDB1",
"K. c #FADEB3",
"L. c #FADFB3",
"P. c #FADFB4",
"I. c #FAE0B7",
"U. c #FAE1B8",
"Y. c #FBE1B9",
"T. c #FBE1BA",
"R. c #FBE3BC",
"E. c #FBE3BE",
"W. c #FBE3BF",
"Q. c #FBE4BF",
"!. c #FBE5C2",
"~. c #FBE6C4",
"^. c #FBE6C5",
"/. c #FBE7C7",
"(. c #FBE7C8",
"). c #FCE8CA",
"_. c #FCE9CA",
"`. c #FCE9CD",
"'. c #FCE9CE",
"]. c #FCEACF",
"[. c #FCEBCF",
"{. c #FCEAD0",
"}. c #FCEBD0",
"|. c #FCECD2",
" X c #FCECD3",
".X c #FCEDD5",
"XX c #FCEED6",
"oX c #FCEED7",
"OX c #FCEFD8",
"+X c #FDEFDA",
"@X c #FDF0DA",
"#X c #FDF0DC",
"$X c #FDF1DD",
"%X c #FDF2DF",
"&X c #FDF3E1",
"*X c #FDF3E2",
"=X c #FDF4E4",
"-X c OldLace",
";X c #FEF6E8",
":X c #FEF7E9",
">X c #FEF7EA",
",X c #FEF7ED",
"<X c #FEF8ED",
"1X c #FEF8EE",
"2X c #FEF9F2",
"3X c #FEFBF5",
/* pixels */
"1 + + & : : 4 6 e i d d c Z H U R ^ ' [ @.;.2.r.",
"o       &   &     6 &       Z       ^   X.  ,.r.",
"+   X O &   :   6   i   c Z H   W ^ [   *.  5.s.",
"&     + &   4     i d     H I     [ X.$.  5.9.l.",
":   + & 1   6   i   c   H I R   ' X.*.  5.  u.l.",
"1   & : 4   e   d   #.      ^   X.*.<.  9.  h.m.",
"4 % : 3 6 e i d c Z #.#.R ^ ' X.$.<.5.9.s.h.x.V.",
"6 : 1 6 e i d c Z #.#.#.#.' X.$.<.5.9.a.h.l.c.C.",
"e 5 4 0 d g c c #.#.#.#.#.X.$.<.5.8.u.j.x.c.V.H.",
"i 8 e i d c c H #.#.#.#.#.#.,.5.r.u.j.x.m.V.C.I.",
"i e d d g Z H #.#.#.#.#.#.#.5.8.i.g.x.n.m.C.H.P.",
"d i d c c H #.#.#.#.#.#.#.#.#.i.j.l.n.N.C.H.I.E.",
"c d c c H #.#.#.#.#.#.#.#.#.#.#.x.n.N.C.J.P.P.~.",
"c c Z H I #.#.. #.#.n #.#.#.#.#.#.N.A.H.P.P.!.(.",
"G c H L #.#.#.. #.#.n n #.. #.#.#.A.H.P.P.!.~.[.",
"J H L R #.#.#.#.#.n n n n #.#.#.#.#.P.P.!.(._. X",
"R J R Q #.. #.#.#.n n n n #.#.#.#.#.T.!.~._.[.OX",
"Q R ^ ' #.#.#.#.n n n n n n #.#.. #.R.~._.[.XX$X",
"^ Q ' X.#.#.#.#.n n n n n n #.. #.#.~._.[.XX+X*X",
"[ ' [ $.,.. #.n n n n n n n #.#.#.~._.[.XX+X%X-X",
"X.[ $.=.2.#.#.#.#.n n n n n #.#.#._.[.XXOX$X-X>X",
"$.$.,.5.8.u.#.. #.n n n n #.. #._.`.XX+X%X-X>X,X",
"=.=.2.8.u.f.l.#.#.#.#.#.#.#.~._.[.XX$X$X%X>X,X2X",
"i.r.u.f.l.c.m.C.D.J.I.R.!./.`.|.OX+X%X-X>X,X2X3X"
};
