/* XPM */
static char *TGLHiddenlineShader[] = {
/* columns rows colors chars-per-pixel */
"24 24 167 2",
"   c #513712",
".  c #5F3F13",
"X  c #473B40",
"o  c #554337",
"O  c #634316",
"+  c #65451B",
"@  c #6E4912",
"#  c #6B4A1D",
"$  c #765018",
"%  c #644928",
"&  c #6A4C25",
"*  c #6A4E2D",
"=  c #634B34",
"-  c #624C39",
";  c #6A5034",
":  c #6C553F",
">  c #745121",
",  c #72542F",
"<  c #795627",
"1  c #7F5A27",
"2  c #735430",
"3  c #7B5E3D",
"4  c #4E4040",
"5  c #5D4B42",
"6  c #665142",
"7  c #695549",
"8  c #6A5A56",
"9  c #685A5B",
"0  c #625A67",
"q  c #6E5F60",
"w  c #786047",
"e  c #746156",
"r  c #7E6959",
"t  c #776B6F",
"y  c #7A6A62",
"u  c #786A69",
"i  c #885D1E",
"p  c #8C6126",
"a  c #8B632E",
"s  c #8B6631",
"d  c #8F6A3A",
"f  c #956A2F",
"g  c #9F6D25",
"h  c #976D34",
"j  c #95703F",
"k  c #A16F25",
"l  c #A4773B",
"z  c #B57A24",
"x  c #B37D2D",
"c  c #836642",
"v  c #856C55",
"b  c #8A6F51",
"n  c #91714B",
"m  c #9B7A4E",
"M  c #857573",
"N  c #95806B",
"B  c #93837E",
"V  c #9A897C",
"C  c #AA834F",
"Z  c #AC8958",
"A  c #B38542",
"S  c #B0854C",
"D  c #B48849",
"F  c #BF8D40",
"G  c #B18A56",
"H  c #A18970",
"J  c #C4882F",
"K  c #CA8822",
"L  c #C88D35",
"P  c #CC943F",
"I  c #D28F28",
"U  c #D49028",
"Y  c #DD9121",
"T  c #D79A3C",
"R  c #DD9E3E",
"E  c #EE9205",
"W  c #EF950B",
"Q  c #EF9711",
"!  c #EF9811",
"~  c #EA991B",
"^  c #F09915",
"/  c #F09C1B",
"(  c #EF9E22",
")  c #E19C33",
"_  c #E19F3B",
"`  c #F09E22",
"'  c #ECA332",
"]  c #F1A026",
"[  c #F1A22A",
"{  c #F2A532",
"}  c #F2A836",
"|  c #F2AA3B",
" . c #C7964C",
".. c #CA9444",
"X. c #CA994D",
"o. c #CC9E59",
"O. c #C49D66",
"+. c #C89E62",
"@. c #DCA95D",
"#. c #CCA76E",
"$. c #CEAA6F",
"%. c #C5A57A",
"&. c #CCAD7D",
"*. c #D1A766",
"=. c #DBAD65",
"-. c #DFB473",
";. c #DCB57C",
":. c #E5A544",
">. c #ECAB47",
",. c #EDAC49",
"<. c #E5AA50",
"1. c #E8AE55",
"2. c #EEB151",
"3. c #F2AD42",
"4. c #F3AF48",
"5. c #F3B14B",
"6. c #F3B453",
"7. c #F4B658",
"8. c #F4B95B",
"9. c #EDB763",
"0. c #E2B471",
"q. c #F5BC63",
"w. c #F4BE6A",
"e. c #EEC179",
"r. c #F5C06B",
"t. c #F5C373",
"y. c #F6C578",
"u. c #F6C87E",
"i. c #A19289",
"p. c #BBA180",
"a. c #C1A98C",
"s. c #C5AF97",
"d. c #D0B898",
"f. c #E2BB80",
"g. c #DBC19A",
"h. c #D7C4AA",
"j. c #E7C38A",
"k. c #E3C597",
"l. c #E5C798",
"z. c #E7CA9D",
"x. c #E9CA9B",
"c. c #F0C380",
"v. c #F6CA84",
"b. c #F7CE89",
"n. c #F8CB84",
"m. c #F8CD8A",
"M. c #F1CE93",
"N. c #F7D08F",
"B. c #F8D08F",
"V. c #F6D092",
"C. c #F4D29B",
"Z. c #F8D193",
"A. c #F8D59B",
"S. c #E8D1AE",
"D. c #F7D8A6",
"F. c #F9D8A3",
"G. c #FADCAB",
"H. c #FBDFB3",
"J. c #FBE0B4",
"K. c #FBE3BB",
"L. c #FCE6C2",
"P. c #FCE8C6",
"I. c #FCEACA",
"U. c #FDEED2",
"Y. c #FDF0D7",
"T. c #FDF2DB",
"R. c #FEF5E3",
/* pixels */
"/ W ! ! / / / ` ] [ [ { | | 3.5.5.6.6.8.q.r.w.u.",
"W E E W Q ! ! / / ` [ [ { { | 3.5.6.6.8.8.w.r.y.",
"! E W W ! ! / / ` ] [ { } | 3.5.5.6.6.q.w.r.t.u.",
"! W W ! ! / / ` ] { { | | 3.4.5.2.7.q.w.r.t.y.n.",
"/ W ! ! / ~ Y K z k p < & % * d 1.q.q.r.t.y.u.m.",
"/ Q ! ~ @ . $ i k x L _ >.5.8.D - C w.t.y.u.n.B.",
"/ ^ ! ~   O I { } | 3.4.5.6. .q.9.m 6 O.u.n.m.A.",
"` / ` ` + I + J | 3.4.5.1. .S C n w 5 o ;.m.Z.A.",
"] / ` ] + ' ) & h s 2 = * 3 c G +.0.u.v f.M.A.F.",
"[ ` ] [ # ' | R % ..<.7.q.q.o.t.y.u.n.e j.A.A.F.",
"[ ] [ { > _ 3.:., 6.7.q.w.t.y.u.u.u.b.8 M.A.F.G.",
"{ [ { } 1 T 4.,.* 8.8.q.w.y.v.v.n.m.M.8 C.F.G.H.",
"} { } } a P ,.6.; 8.q.r.t.t.-.v.m.Z.V.9 F.G.H.J.",
"| } | 3.h ..6.2.; w.w.t.u.e.#.m.Z.Z.C.q D.G.J.K.",
"3.| 3.5.l A 8.q.- t.=.*.n.$.V.M.F.A.x.u G.J.K.L.",
"3.3.3.5.A j X.r.o y.u.e.m.Z.Z.&.F.F.g.M J.K.K.I.",
"5.4.5.6.1.o @.r.6 u.n.m.m.C.A.F.G.z.d.B J.K.P.I.",
"5.5.6.8.8.@.: w.6 u.v.m.N.A.A.F.G.g.V i.K.P.I.U.",
"7.6.7.8.q.w.Z b 7 b.n.B.Z.A.l.p.V t 0 h.L.I.I.Y.",
"8.7.8.q.w.t.t.b X 0.%.V y 9 u i.s.S.K.P.I.I.U.Y.",
"q.8.q.w.t.t.u.c.r e N %.k.G.G.J.J.K.L.I.I.U.Y.T.",
"w.q.r.t.t.u.n.m.Z.A.A.F.G.G.J.K.L.L.I.I.U.Y.T.T.",
"r.w.t.t.u.u.m.B.Z.A.A.G.G.H.J.K.L.P.I.U.T.T.T.R.",
"y.t.u.n.m.Z.Z.A.A.G.G.H.J.K.L.L.I.I.U.T.T.R.R.R."
};
