/* XPM */
static char *TGLHeightTileFileHDS[] = {
/* columns rows colors chars-per-pixel */
"24 24 216 2",
"   c black",
".  c #EF960A",
"X  c #EF970C",
"o  c #EF980E",
"O  c #EF990E",
"+  c #EF9810",
"@  c #EF9912",
"#  c #EF9A12",
"$  c #F09B15",
"%  c #F09C16",
"&  c #F09C18",
"*  c #F09D18",
"=  c #F09D1B",
"-  c #F09D1C",
";  c #F09E1C",
":  c #F09F1E",
">  c #F0A01F",
",  c #F0A020",
"<  c #F0A120",
"1  c #F1A124",
"2  c #F1A125",
"3  c #F0A224",
"4  c #F1A224",
"5  c #F1A328",
"6  c #F1A329",
"7  c #F1A429",
"8  c #F1A52F",
"9  c #F1A62C",
"0  c #F1A62D",
"q  c #F1A62E",
"w  c #F1A62F",
"e  c #F2A730",
"r  c #F2A732",
"t  c #F2A834",
"y  c #F2A934",
"u  c #F2A935",
"i  c #F2A836",
"p  c #F2A937",
"a  c #F2AA39",
"s  c #F2AB39",
"d  c #F2AA3A",
"f  c #F2AB3A",
"g  c #F2AB3B",
"h  c #F2AD3F",
"j  c #F3AD3F",
"k  c #F2AD40",
"l  c #F3AD40",
"z  c #F2AE40",
"x  c #F3AE40",
"c  c #F3AE41",
"v  c #F3AF45",
"b  c #F3AF46",
"n  c #F3B044",
"m  c #F3B045",
"M  c #F3B046",
"N  c #F3B047",
"B  c #F3B249",
"V  c #F3B24B",
"C  c #F3B34B",
"Z  c #F3B24C",
"A  c #F3B34C",
"S  c #F3B34D",
"D  c #F4B34C",
"F  c #F3B551",
"G  c #F4B550",
"H  c #F4B551",
"J  c #F4B552",
"K  c #F4B756",
"L  c #F4B757",
"P  c #F4B758",
"I  c #F4B857",
"U  c #F4B858",
"Y  c #F4B859",
"T  c #F5B95B",
"R  c #F5BA5D",
"E  c #F4BA5E",
"W  c #F5BA5E",
"Q  c #F5BA5F",
"!  c #F5BB5E",
"~  c #F5BB5F",
"^  c #F4BB60",
"/  c #F5BB60",
"(  c #F5BC63",
")  c #F5BD64",
"_  c #F5BD65",
"`  c #F5BD66",
"'  c #F5BE65",
"]  c #F5BE66",
"[  c #F5BE67",
"{  c #F6BF69",
"}  c #F5C06A",
"|  c #F5C06B",
" . c #F5C06C",
".. c #F5C16D",
"X. c #F6C16D",
"o. c #F6C26F",
"O. c #F5C370",
"+. c #F5C372",
"@. c #F6C271",
"#. c #F6C371",
"$. c #F6C272",
"%. c #F6C372",
"&. c #F6C373",
"*. c #F5C474",
"=. c #F6C576",
"-. c #F6C577",
";. c #F6C578",
":. c #F6C579",
">. c #F6C678",
",. c #F6C679",
"<. c #F6C67A",
"1. c #F6C87E",
"2. c #F6C97F",
"3. c #F7C87E",
"4. c #F7C87F",
"5. c #F7C97F",
"6. c #808080",
"7. c #F6C880",
"8. c #F7C980",
"9. c #F7C981",
"0. c #F7C982",
"q. c #F7CB83",
"w. c #F7CB84",
"e. c #F7CB85",
"r. c #F7CB86",
"t. c #F7CB87",
"y. c #F7CC86",
"u. c #F7CC87",
"i. c #F7CC88",
"p. c #F7CE8C",
"a. c #F7CF8E",
"s. c #F8CD8C",
"d. c #F8CE8C",
"f. c #F8CE8D",
"g. c #F8CF8D",
"h. c #F7D092",
"j. c #F7D192",
"k. c #F8D091",
"l. c #F8D092",
"z. c #F8D192",
"x. c #F8D193",
"c. c #F8D194",
"v. c #F8D398",
"b. c #F8D399",
"n. c #F8D39A",
"m. c #F8D499",
"M. c #F8D49A",
"N. c #F9D49A",
"B. c #F8D69F",
"V. c #F9D69E",
"C. c #F9D69F",
"Z. c #F8D7A1",
"A. c #F9D6A0",
"S. c #F9D7A0",
"D. c #F9D7A1",
"F. c #F9D8A5",
"G. c #F9D9A5",
"H. c #F9D9A6",
"J. c #F9D9A7",
"K. c #F9DAA7",
"L. c #F9DBAA",
"P. c #F9DBAC",
"I. c #FADBAC",
"U. c #FADCAC",
"Y. c #FADCAD",
"T. c #FADDB1",
"R. c #FADEB2",
"E. c #FADEB3",
"W. c #FADFB3",
"Q. c #FADFB4",
"!. c #FAE0B7",
"~. c #FAE1B8",
"^. c #FAE1B9",
"/. c #FBE1B8",
"(. c #FBE1B9",
"). c #FBE1BA",
"_. c #FBE3BC",
"`. c #FBE3BE",
"'. c #FBE3BF",
"]. c #FBE4BF",
"[. c #FBE5C2",
"{. c #FBE6C4",
"}. c #FBE6C5",
"|. c #FBE7C7",
" X c #FBE7C8",
".X c #FCE8CA",
"XX c #FCE9CA",
"oX c #FCE9CD",
"OX c #FCE9CE",
"+X c #FCEACF",
"@X c #FCEBCF",
"#X c #FCEAD0",
"$X c #FCEBD0",
"%X c #FCECD2",
"&X c #FCECD3",
"*X c #FCEDD5",
"=X c #FCEED6",
"-X c #FCEED7",
";X c #FCEFD8",
":X c #FDEFDA",
">X c #FDF0DA",
",X c #FDF0DC",
"<X c #FDF1DD",
"1X c #FDF2DF",
"2X c #FDF3E1",
"3X c #FDF3E2",
"4X c #FDF4E4",
"5X c OldLace",
"6X c #FEF6E8",
"7X c #FEF7E9",
"8X c #FEF7EA",
"9X c #FEF7ED",
"0X c #FEF8ED",
"qX c #FEF8EE",
"wX c #FEF9F2",
"eX c #FEFBF5",
/* pixels */
": + + % = : > 4 2 q y y g c N D J K W ( { X.&.e.",
"X     . O     =         6.g c 6.        ' X.@.4.",
"+     O +     >           6.N           X.&.;.p.",
"%     + %     1     y g     S     ^ ] X.-.;.4.x.",
"=             7     f c     J         6.;.5.p.j.",
":             w     c N     Y 6.        4.e.a.C.",
">     > 1     y     N S     ~ ' X.%.    p.p.j.C.",
"1     1 7     f           6.'           a.x.b.F.",
"5     5 e     g         6.{ {         6.c.N.D.I.",
"w 1 7 w i f c b N J P ^ ' { *.<.4.w.f.c.N.F.H.T.",
"w 7 w y f g b S K Y ! ' { @.<.4.t.a.j.v.D.H.I.).",
"y w i f c N S J Y ! ' { &.<.4.t.f.j.v.D.H.I.Q.[.",
"f e f g b S F K ^ ' { %.<.4.y.p.j.N.D.H.I.W.).{.",
"j f l B S J K ! ' { *.;.4.y.a.j.v.A.L.I.W.)._.|.",
"b j b Z J P ! { { *.-.5.e.a.x.b.C.F.I.W.).[.{.+X",
"B v Z J K ! ' { @.;.5.w.a.x.b.A.L.I.W.)._.{.XX*X",
"D   J K !   {           x.          ^._.|.XX@X;X",
"I   P ! '   @.<.4.  p.x.b.  G.I.!.^.].{.XX%X=X<X",
"!   ! ' {   <.4.y.  j.b.C.  I.!.!.].[.XX%X*X;X4X",
"!           4.t.p.  b.C.F.      6.[.XX@X*X;X1X5X",
"{   { @.<.  t.p.x.  C.F.I.  ^.].[.XX%X*X;X<X5X7X",
"{   @.<.4.  p.x.v.  F.I.E.  ].{.XX+X*X;X1X5X5XqX",
"+.  &.4.w.  g.v.C.  I.E.^.  {.XX@X*X:X<X5X5XqXwX",
"4.4.w.a.x.v.C.F.L.E.!._.[.|.+X*X*X<X4X5X7XqXwXeX"
};
