/* XPM */
static char *TGLMaterialLibrary[] = {
/* columns rows colors chars-per-pixel */
"24 24 199 2",
"   c black",
".  c #008080",
"X  c #0080FF",
"o  c magenta",
"O  c #EE9403",
"+  c #EF9506",
"@  c #EF9507",
"#  c #EF960A",
"$  c #EF970A",
"%  c #EF970C",
"&  c #EF980E",
"*  c #EF990E",
"=  c #EF9810",
"-  c #EF9912",
";  c #EF9A12",
":  c #F09B15",
">  c #F09B16",
",  c #F09C16",
"<  c #F09C18",
"1  c #F09D18",
"2  c #F09D1A",
"3  c #F09D1B",
"4  c #F09E1A",
"5  c #F09E1B",
"6  c #F09D1C",
"7  c #F09E1C",
"8  c #F09F1E",
"9  c #F09F1F",
"0  c #F09F20",
"q  c #F0A01F",
"w  c #F0A020",
"e  c #F0A120",
"r  c #F1A124",
"t  c #F1A125",
"y  c #F0A224",
"u  c #F1A224",
"i  c #F1A328",
"p  c #F1A329",
"a  c #F1A429",
"s  c #F1A42A",
"d  c #F1A62C",
"f  c #F1A62D",
"g  c #F1A62E",
"h  c #F1A62F",
"j  c #F1A72F",
"k  c #F2A730",
"l  c #F2A732",
"z  c #F2A834",
"x  c #F2A935",
"c  c #F2A836",
"v  c #F2A937",
"b  c #F2AA39",
"n  c #F2AB39",
"m  c #F2AB3A",
"M  c #F2AB3B",
"N  c #F3AD3F",
"B  c #FF8040",
"V  c #F3AD40",
"C  c #F3AE40",
"Z  c #F3AE41",
"A  c #F3AF45",
"S  c #F3AF46",
"D  c #F3B044",
"F  c #F3B046",
"G  c #F3B047",
"H  c #F3B249",
"J  c #F3B24A",
"K  c #F3B24B",
"L  c #F3B34C",
"P  c #F3B34D",
"I  c #F4B34C",
"U  c #F4B550",
"Y  c #F4B551",
"T  c #F4B552",
"R  c #F4B652",
"E  c #F4B653",
"W  c #F4B756",
"Q  c #F4B757",
"!  c #F4B858",
"~  c #F4B859",
"^  c #F5B95B",
"/  c #F5BA5D",
"(  c #F4BA5E",
")  c #F5BB5F",
"_  c #F5BB60",
"`  c #F5BC63",
"'  c #F5BD63",
"]  c #F5BD64",
"[  c #F5BD66",
"{  c #F5BE66",
"}  c #F5BE67",
"|  c #F5BF6A",
" . c #F6BF69",
".. c yellow",
"X. c #F5C06B",
"o. c #F5C16D",
"O. c #F6C16D",
"+. c #F6C26F",
"@. c #F5C370",
"#. c #F6C270",
"$. c #F6C271",
"%. c #F6C373",
"&. c #F5C474",
"*. c #F6C576",
"=. c #F6C577",
"-. c #F6C578",
";. c #F6C67A",
":. c #F6C87E",
">. c #F7C87E",
",. c #F7C87F",
"<. c #808080",
"1. c #F6C880",
"2. c #F7C980",
"3. c #F7C981",
"4. c #F7C982",
"5. c #F7CB83",
"6. c #F7CB84",
"7. c #F7CB85",
"8. c #F7CB86",
"9. c #F7CB87",
"0. c #F7CC87",
"q. c #F7CC88",
"w. c #F7CD8B",
"e. c #F7CE8C",
"r. c #F7CF8E",
"t. c #F8CE8C",
"y. c #F8CF8D",
"u. c #F8D091",
"i. c #F8D092",
"p. c #F8D193",
"a. c #F8D194",
"s. c #F8D398",
"d. c #F8D399",
"f. c #F8D49A",
"g. c #F9D49A",
"h. c #F8D69F",
"j. c #F9D69E",
"k. c #F9D69F",
"l. c #F8D7A1",
"z. c #F9D7A1",
"x. c #F9D8A5",
"c. c #F9D9A6",
"v. c #F9D9A7",
"b. c #F9DAA7",
"n. c #F9DBAA",
"m. c #F9DBAC",
"M. c #FADBAC",
"N. c #FADCAC",
"B. c #FADCAD",
"V. c #FADDB1",
"C. c #FADEB2",
"Z. c #FADEB3",
"A. c #FADFB3",
"S. c #FADFB4",
"D. c #FAE0B7",
"F. c #FAE1B8",
"G. c #FBE1B8",
"H. c #FBE1B9",
"J. c #FBE1BA",
"K. c #FBE3BC",
"L. c #FBE3BE",
"P. c #FBE3BF",
"I. c #FBE4BF",
"U. c #FBE5C2",
"Y. c #FBE6C4",
"T. c #FBE6C5",
"R. c #FBE7C7",
"E. c #FBE7C8",
"W. c #FCE8CA",
"Q. c #FCE9CA",
"!. c #FCE9CD",
"~. c #FCE9CE",
"^. c #FCEACF",
"/. c #FCEBCF",
"(. c #FCEAD0",
"). c #FCEBD0",
"_. c #FCECD2",
"`. c #FCECD3",
"'. c #FCEDD5",
"]. c #FCEED6",
"[. c #FCEED7",
"{. c #FCEFD8",
"}. c #FDEFDA",
"|. c #FDF0DA",
" X c #FDF0DC",
".X c #FDF1DD",
"XX c #FDF2DF",
"oX c #FDF3E1",
"OX c #FDF3E2",
"+X c #FDF4E4",
"@X c OldLace",
"#X c #FEF6E8",
"$X c #FEF7E9",
"%X c #FEF7EA",
"&X c #FEF7ED",
"*X c #FEF8ED",
"=X c #FEF8EE",
"-X c #FEF9F2",
";X c #FEFBF5",
/* pixels */
"8 = = , 2 q q e s f l b b Z F I U W / ) | @.&.5.",
"% O @ $ * = , 2 e t s f c M Z F L E ^ / X.O.%.:.",
"= @ $ * = 2 2 q t s f c M Z F I E ^ / X.O.&.-.w.",
", $ * = , 2 q t                           -.5.r.",
"2 * = , 2 e t   <.X X X X X X X X X X     ,.w.a.",
"8 = , 2 e t   X <.X X X X X X X X X   B   0.y.d.",
"0 > 2 q t   X X <.X X X X X X X X   B B   y.a.z.",
"t 2 q t   X X X <.X X X X X X X   B B B   p.d.x.",
"p e t                           B B B B   d.z.n.",
"f e s   ........<.o o o o o o   B B B B   z.x.D.",
"f p f   ........<.o o o o o o   B B B B   x.M.K.",
"c f c   ........<.o o o o o o   B B B B   M.S.P.",
"b c b   ........<.o o o o o o   B B B B   S.D.U.",
"Z b Z   ........<.o o o o o o   B B B B   G.P.Q.",
"A N A   ........<.o o o o o o   B B B B   P.T.~.",
"K F K   ........<.<.<.<.<.<.<.  B B B B   R.~.).",
"I K U   ......<.. . . . . . .   B B c   T.~.~.}.",
"W U ^   ....<.. . . . . . . .   B B   T.~.~.}.}.",
"^ W )   ..<.. . . . . . . . .   B   T.Q.~.`.}.OX",
") ) '   <.. . . . . . . . . .     T.Q./.'.}.OX+X",
"| ) |                           T.W.~.'.}.OXOX#X",
"O.| %.-.:.7.t.u.d.k.x.B.A.D.P.T.Q.^.'.}.OX+X#X&X",
"@.%.-.:.5.w.u.d.h.x.M.A.G.P.T.Q.~.'.}.OX+X&X&X-X",
"3.>.7.e.u.d.h.x.n.C.D.D.U.Q.~.).}.}.OX+X#X&X-X-X"
};
