/* XPM */
static char *TGLNavigator[] = {
/* columns rows colors chars-per-pixel */
"24 24 217 2",
"   c black",
".  c #EE9403",
"X  c #EF9506",
"o  c #EF9507",
"O  c #EF960A",
"+  c #EF970A",
"@  c #EF970C",
"#  c #EF980E",
"$  c #EF990E",
"%  c #EF9810",
"&  c #EF9912",
"*  c #EF9A12",
"=  c #F09B15",
"-  c #F09B16",
";  c #F09C16",
":  c #F09C18",
">  c #F09D18",
",  c #F09D1A",
"<  c #F09D1B",
"1  c #F09E1A",
"2  c #F09E1B",
"3  c #F09D1C",
"4  c #F09E1C",
"5  c #F09F1E",
"6  c #F09F1F",
"7  c #F09F20",
"8  c #F0A01F",
"9  c #F0A020",
"0  c #F0A120",
"q  c #F1A124",
"w  c #F1A125",
"e  c #F0A224",
"r  c #F1A224",
"t  c #F1A328",
"y  c #F1A32A",
"u  c #F1A429",
"i  c #F1A42A",
"p  c #F1A62C",
"a  c #F1A62D",
"s  c #F1A62F",
"d  c #F1A72F",
"f  c #F2A730",
"g  c #F2A732",
"h  c #F2A834",
"j  c #F2A934",
"k  c #F2A836",
"l  c #F2A937",
"z  c #F2AA39",
"x  c #F2AB39",
"c  c #F2AB3A",
"v  c #F2AB3B",
"b  c #F3AD3F",
"n  c #F2AD40",
"m  c #F3AD40",
"M  c #F3AD41",
"N  c #F2AE41",
"B  c #F3AE40",
"V  c #F3AE41",
"C  c #F3AF45",
"Z  c #F3AF46",
"A  c #F3B044",
"S  c #F3B046",
"D  c #F3B047",
"F  c #F3B249",
"G  c #F3B24A",
"H  c #F3B24B",
"J  c #F3B34B",
"K  c #F3B24C",
"L  c #F3B34C",
"P  c #F3B34D",
"I  c #F4B34C",
"U  c #F4B550",
"Y  c #F4B551",
"T  c #F4B552",
"R  c #F4B652",
"E  c #F4B653",
"W  c #F4B756",
"Q  c #F4B757",
"!  c #F4B857",
"~  c #F4B858",
"^  c #F4B859",
"/  c #F5B95B",
"(  c #F5BA5D",
")  c #F4BA5E",
"_  c #F5BA5E",
"`  c #F5BA5F",
"'  c #F5BB5E",
"]  c #F5BB5F",
"[  c #F4BB60",
"{  c #F5BB60",
"}  c #F5BC63",
"|  c #F5BD63",
" . c #F5BD64",
".. c #F5BD65",
"X. c #F5BD66",
"o. c #F5BE65",
"O. c #F5BE66",
"+. c #F5BE67",
"@. c #F5BF6A",
"#. c #F6BF69",
"$. c #F5C06A",
"%. c #F5C06B",
"&. c #F5C06C",
"*. c #F5C16D",
"=. c #F6C06C",
"-. c #F6C16D",
";. c #F6C26F",
":. c #F5C370",
">. c #F5C372",
",. c #F6C270",
"<. c #F6C271",
"1. c #F6C371",
"2. c #F6C372",
"3. c #F6C373",
"4. c #F5C474",
"5. c #F6C576",
"6. c #F6C577",
"7. c #F6C578",
"8. c #F6C678",
"9. c #F6C679",
"0. c #F6C67A",
"q. c #F6C87E",
"w. c #F7C87E",
"e. c #F7C87F",
"r. c #F6C880",
"t. c #F7C880",
"y. c #F7C980",
"u. c #F7C981",
"i. c #F7C982",
"p. c #F7CB83",
"a. c #F7CB84",
"s. c #F7CB85",
"d. c #F7CB86",
"f. c #F7CB87",
"g. c #F7CC87",
"h. c #F7CC88",
"j. c #F7CD8B",
"k. c #F7CE8C",
"l. c #F7CF8E",
"z. c #F8CD8C",
"x. c #F8CE8C",
"c. c #F8CE8D",
"v. c #F8CF8D",
"b. c #F7D092",
"n. c #F8D091",
"m. c #F8D092",
"M. c #F8D192",
"N. c #F8D193",
"B. c #F8D194",
"V. c #F8D398",
"C. c #F8D399",
"Z. c #F8D499",
"A. c #F8D49A",
"S. c #F9D49A",
"D. c #F8D69F",
"F. c #F9D69E",
"G. c #F9D69F",
"H. c #F8D7A1",
"J. c #F9D6A0",
"K. c #F9D7A1",
"L. c #F9D8A5",
"P. c #F9D9A6",
"I. c #F9D9A7",
"U. c #F9DAA7",
"Y. c #F9DBAA",
"T. c #F9DBAC",
"R. c #FADCAC",
"E. c #FADCAD",
"W. c #FADDB1",
"Q. c #FADEB2",
"!. c #FADEB3",
"~. c #FAE0B7",
"^. c #FAE1B8",
"/. c #FAE1B9",
"(. c #FBE1B9",
"). c #FBE1BA",
"_. c #FBE3BC",
"`. c #FBE3BE",
"'. c #FBE3BF",
"]. c #FBE4BF",
"[. c #FBE5C2",
"{. c #FBE6C4",
"}. c #FBE6C5",
"|. c #FBE7C7",
" X c #FBE7C8",
".X c #FCE8CA",
"XX c #FCE9CA",
"oX c #FCE9CD",
"OX c #FCE9CE",
"+X c #FCEACF",
"@X c #FCEBCF",
"#X c #FCEAD0",
"$X c #FCEBD0",
"%X c #FCECD2",
"&X c #FCECD3",
"*X c #FCEDD5",
"=X c #FCEED6",
"-X c #FCEED7",
";X c #FCEFD8",
":X c #FDEFDA",
">X c #FDF0DA",
",X c #FDF0DC",
"<X c #FDF1DD",
"1X c #FDF2DF",
"2X c #FDF3E1",
"3X c #FDF3E2",
"4X c #FDF4E4",
"5X c OldLace",
"6X c #FEF6E8",
"7X c #FEF7E9",
"8X c #FEF7EA",
"9X c #FEF7ED",
"0X c #FEF8ED",
"qX c #FEF8EE",
"wX c #FEF9F2",
"eX c #FEFBF5",
"rX c gray100",
/* pixels */
"5 % % ; , 5 8 w w s g j v V D I E W ] } o.-.4.s.",
"@ . o + @ & ; , 0 w i     c V F P E W } %.@.2.w.",
"% o + $ & ; 5 0 w i   rXrX  Z I E ~ } o.-.4.0.j.",
"; + $ % ; , 5 0 i   rXrXrXrX  E W } o.@.3.0.i.v.",
", $ % ; , 0 w i   rXrXrXrXrXrX  ' O.-.3.0.u.h.B.",
"5 % ; , 0 w i s       rXrX      %.@.3.0.w.h.z.Z.",
"7 - , 8 w i d j c N   rXrX  ] o.@.2.9.i.h.v.b.H.",
"w , 8 w     j c N S   rXrX  o.@.2.9.    v.b.Z.Y.",
"w 0 w   rX  c N D F   rXrX  @.4.0.w.  rX  Z.H.R.",
"s 0   rXrX      F E   rXrX  2.0.      rXrX  L.W.",
"g   rXrXrXrXrXrX      rXrX      rXrXrXrXrXrX  (.",
"j   rXrXrXrXrXrXrXrX  rXrX  rXrXrXrXrXrXrXrX  '.",
"c g   rXrX    rXrXrXrXrXrXrXrXrXrX    rXrX  '.{.",
"N c V   rX  ~     rXrXrXrXrXrX    J.  rX  (.'. X",
"C b Z I     ] o.%.  rXrXrXrX  Z.G.L.    (.].{.oX",
"G C G E W ] } %.2.0.  rXrX  Z.J.Y.R.W.(.'.{..X%X",
"P F E W ] o.@.2.0.w.  rXrX  J.Y.R.W.(.'.{.XX$X;X",
"W E W ] { @.2.0.w.s.  rXrX  L.R.W.(.].{.XX$X=X<X",
"~ Q ] o.@.2.0.q.s.k.  rXrX  R.!.(.].{.XX$X=X>X3X",
"{ ] o.@.2.4.q.s.z.b.  rXrX  W.(.].{.XX@X=X>X<X5X",
"o.o.@.2.0.w.a.z.b.C.  rXrX  (.'.{. X@X=X:X<X5X8X",
"@.@.2.4.q.a.z.n.C.G.  rXrX  '.{..X@X=X>X<X5X8X9X",
"2.2.0.q.a.j.n.C.G.L.        {..XoX=X:X<X3X8X9XwX",
"i.e.s.z.n.C.G.L.Y.W.(._.{.{.oX%X=X<X3X5X8X9XwXeX"
};
