/* XPM */
static char *TGLODEManager[] = {
/* columns rows colors chars-per-pixel */
"24 24 208 2",
"   c black",
".  c #202040",
"X  c #402000",
"o  c gray25",
"O  c #606040",
"+  c #606080",
"@  c #806000",
"#  c #A06000",
"$  c #806040",
"%  c #A06040",
"&  c #806080",
"*  c #A08000",
"=  c #A08040",
"-  c #C08000",
";  c #C0A000",
":  c #E08000",
">  c #EE9403",
",  c #EF970A",
"<  c #EF970C",
"1  c #EF980E",
"2  c #EF990E",
"3  c #EF9810",
"4  c #EF9912",
"5  c #EF9A12",
"6  c #F09B15",
"7  c #F09B16",
"8  c #F09C16",
"9  c #F09C18",
"0  c #F09D18",
"q  c #F09D1A",
"w  c #F09D1B",
"e  c #F09E1A",
"r  c #F09E1B",
"t  c #F09D1C",
"y  c #F09E1C",
"u  c #F09F1E",
"i  c #F09F1F",
"p  c #F09F20",
"a  c #E0A000",
"s  c #F0A01F",
"d  c #F0A020",
"f  c #F0A120",
"g  c #F1A124",
"h  c #F1A125",
"j  c #F0A224",
"k  c #F1A224",
"l  c #F1A328",
"z  c #F1A329",
"x  c #F1A32A",
"c  c #F1A429",
"v  c #F1A42A",
"b  c #F1A52F",
"n  c #F1A62C",
"m  c #F1A62D",
"M  c #F1A62E",
"N  c #F1A62F",
"B  c #F1A72F",
"V  c #F2A730",
"C  c #F2A732",
"Z  c #F2A834",
"A  c #F2A934",
"S  c #F2A935",
"D  c #F2A836",
"F  c #F2A937",
"G  c #F2AB39",
"H  c #F2AB3A",
"J  c #F2AB3B",
"K  c #F3AD3F",
"L  c #F2AD40",
"P  c #F3AD41",
"I  c #F2AE40",
"U  c #F3AE40",
"Y  c #F3AE41",
"T  c #F3AF45",
"R  c #F3B046",
"E  c #F3B047",
"W  c #F3B249",
"Q  c #F3B34B",
"!  c #F3B24C",
"~  c #F3B34C",
"^  c #F3B34D",
"/  c #F4B34C",
"(  c #F4B550",
")  c #F4B552",
"_  c #F4B553",
"`  c #F4B653",
"'  c #F4B756",
"]  c #F4B757",
"[  c #F4B858",
"{  c #F4B859",
"}  c #F5B95B",
"|  c #F5BA5D",
" . c #F5BA5F",
".. c #F5BB5F",
"X. c #F4BB60",
"o. c #F5BB60",
"O. c #F5BC63",
"+. c #F5BD63",
"@. c #F5BD65",
"#. c #F5BD66",
"$. c #F5BE65",
"%. c #F5BE66",
"&. c #F5BE67",
"*. c #F5BF6A",
"=. c #F6BF69",
"-. c #E0C000",
";. c #E0E000",
":. c #F5C06B",
">. c #F5C06C",
",. c #F6C06C",
"<. c #F6C16D",
"1. c #F6C26F",
"2. c #F5C370",
"3. c #F6C270",
"4. c #F6C271",
"5. c #F6C372",
"6. c #F6C373",
"7. c #F5C474",
"8. c #F6C576",
"9. c #F6C577",
"0. c #F6C578",
"q. c #F6C679",
"w. c #F6C67A",
"e. c #F7C87E",
"r. c #F7C87F",
"t. c #F7C97F",
"y. c #808080",
"u. c #A0A080",
"i. c #A0A0A4",
"p. c #A0A0C0",
"a. c #C0A080",
"s. c #F6C880",
"d. c #F7C880",
"f. c #F7C980",
"g. c #F7C981",
"h. c #F7C982",
"j. c #F7CB83",
"k. c #F7CB84",
"l. c #F7CB86",
"z. c #F7CB87",
"x. c #F7CC86",
"c. c #F7CC87",
"v. c #F7CC88",
"b. c #F7CD8B",
"n. c #F7CE8C",
"m. c #F7CF8E",
"M. c #F8CE8D",
"N. c #F8CF8D",
"B. c #F8D092",
"V. c #F8D193",
"C. c #F8D194",
"Z. c #F8D398",
"A. c #F8D499",
"S. c #F8D49A",
"D. c #F9D49A",
"F. c #F8D69F",
"G. c #F8D7A1",
"H. c #F9D6A0",
"J. c #F9D7A0",
"K. c #F9D7A1",
"L. c #F9D8A5",
"P. c #F9D9A6",
"I. c #F9D9A7",
"U. c #F9DAA7",
"Y. c #F9DBAA",
"T. c #F9DBAC",
"R. c #FADBAC",
"E. c #FADCAC",
"W. c #FADCAD",
"Q. c #FADDB1",
"!. c #FADEB2",
"~. c #FADEB3",
"^. c #FADFB3",
"/. c #FADFB4",
"(. c #FAE0B7",
"). c #FAE1B8",
"_. c #FBE1B8",
"`. c #FBE1BA",
"'. c #FBE3BC",
"]. c #FBE3BE",
"[. c #FBE3BF",
"{. c #FBE4BF",
"}. c #C0C0C0",
"|. c #C0DCC0",
" X c #FBE5C2",
".X c #FBE6C4",
"XX c #FBE7C7",
"oX c #FBE7C8",
"OX c #FCE9CD",
"+X c #FCE9CE",
"@X c #FCECD2",
"#X c #FCECD3",
"$X c #FCEED7",
"%X c #FCEFD8",
"&X c #FDF0DC",
"*X c #FDF1DD",
"=X c #FDF3E1",
"-X c #FDF3E2",
";X c OldLace",
":X c #FEF6E8",
">X c #FEF7E9",
",X c #FEF7EA",
"<X c #FEF7ED",
"1X c #FEF8ED",
"2X c #FEF8EE",
"3X c #FEF9F2",
"4X c #FFFBF0",
"5X c #FEFBF5",
/* pixels */
"u 3 3 8 8 s s g v n V F J Y E / ` ] | $.&.5.6.l.",
"< >           q p       o . Y E             5.e.",
"3   , 2 3 8 q   g   n F J Y . ^   { o.&.*.5.w.b.",
"8   2 3 8 s p   v   F J Y E   `   o.$.*.q.0.j.N.",
"q   3 8 u s g   V   F Y E Q   {           t.v.C.",
"u   8 q p p v   F   Y T ^ ` o ..  *.6.w.t.v.b.D.",
"p   q s k v V   F   Q ! _ { . $.  5.w.j.v.m.V.F.",
"g q   . o .   J Y   o o .   $.*.  o o o o   D.I.",
"z p p z V Z K E Q Q _ } o.#.=.*.w.t.c.N.C.Z.F.W.",
"n h x V Z J }.}.Q ` o.=.=.=.*.d.t.c.N.C.D.F.I.!.",
"C z V C }.}.i.i.i.i.i.|.*.*.d.h.l.b.V.D.F.I.W.`.",
"D n }.}.}.}.}.i.i.i.i.i.i.i.}.z.N.V.D.F.Y.W./.[.",
"J }.}.}.}.}.}.i.i.i.i.y.y.o }.|.}.}.}.}.W./.`..X",
"K O i.}.}.}.}.i.i.i.i.$ - $ }.}.}.}.i.y.y.}.{.oX",
"T o o O y.i.}.}.i.i.i.@ -.: u.|.|.}.i.i.y.O }.OX",
"W o o o o o y.i.}.}.i.; ; i.|.|.4X|.i.y.y.O o @X",
"( O o o o o o o O & % ;.a a.}.}.|.}.p.y.y.O . 1X",
"q.$ o o o o o o o . X -.-.% p.}.i.i.y.y.+ o . ;X",
",.i.. o o o o o o . # -.= i.i.i.i.y.y.+ O o   ;X",
"=.}.o . o o o o o .   * = y.y.y.y.O + O o .   ;X",
":.:.n.$ o . o o o .   i.p.o + + O O o o .     1X",
":.5.e.q.}.+ . . o   y.^. Xy.. o o o .       1X1X",
"1.1.q.e.j.b.i.o . . T.~.[. X= .         o >X1X2X",
"j.e.l.N.B.D.F.U.T.T.(.[. XoXOX@X$X*X=X-X1X2X4X5X"
};
