/* XPM */
static char *TGLPolygonPFXManager[] = {
/* columns rows colors chars-per-pixel */
"24 24 217 2",
"   c black",
".  c #0080FF",
"X  c #EF970A",
"o  c #EF970C",
"O  c #EF980E",
"+  c #EF9810",
"@  c #EF9912",
"#  c #EF9A12",
"$  c #F09B15",
"%  c #F09B16",
"&  c #F09C16",
"*  c #F09C18",
"=  c #F09D18",
"-  c #F09D1A",
";  c #F09D1B",
":  c #F09E1A",
">  c #F09E1B",
",  c #F09D1C",
"<  c #F09E1C",
"1  c #F09F1E",
"2  c #F09F1F",
"3  c #F09F20",
"4  c #F0A01F",
"5  c #F0A020",
"6  c #F0A120",
"7  c #F1A124",
"8  c #F1A125",
"9  c #F0A224",
"0  c #F1A224",
"q  c #F1A328",
"w  c #F1A329",
"e  c #F1A32A",
"r  c #F1A429",
"t  c #F1A42A",
"y  c #F1A52F",
"u  c #F1A62C",
"i  c #F1A62D",
"p  c #F1A62E",
"a  c #F1A62F",
"s  c #F1A72F",
"d  c #F2A730",
"f  c #F2A732",
"g  c #F2A834",
"h  c #F2A934",
"j  c #F2A935",
"k  c #F2A836",
"l  c #F2A937",
"z  c #F2AA39",
"x  c #F2AB39",
"c  c #F2AA3A",
"v  c #F2AB3A",
"b  c #F2AB3B",
"n  c #F2AD3F",
"m  c #F3AD3F",
"M  c #F2AD40",
"N  c #F3AD40",
"B  c #F3AD41",
"V  c #F2AE40",
"C  c #F2AE41",
"Z  c #F3AE40",
"A  c #F3AE41",
"S  c #F3AF45",
"D  c #F3AF46",
"F  c #F3B044",
"G  c #F3B045",
"H  c #F3B046",
"J  c #F3B047",
"K  c #F3B249",
"L  c #F3B24A",
"P  c #F3B24B",
"I  c #F3B34B",
"U  c #F3B24C",
"Y  c #F3B34C",
"T  c #F3B34D",
"R  c #F4B34C",
"E  c #F3B551",
"W  c #F4B550",
"Q  c #F4B551",
"!  c #F4B552",
"~  c #F4B553",
"^  c #F4B652",
"/  c #F4B653",
"(  c #F4B756",
")  c #F4B757",
"_  c #F4B758",
"`  c #F4B857",
"'  c #F4B858",
"]  c #F4B859",
"[  c #F5B95B",
"{  c #F5BA5D",
"}  c #F4BA5E",
"|  c #F5BA5E",
" . c #F5BA5F",
".. c #F5BB5E",
"X. c #F5BB5F",
"o. c #F4BB60",
"O. c #F5BB60",
"+. c #F5BC63",
"@. c #F5BD63",
"#. c #F5BD64",
"$. c #F5BD65",
"%. c #F5BD66",
"&. c #F5BE65",
"*. c #F5BE66",
"=. c #F5BE67",
"-. c #F5BF6A",
";. c #F6BF69",
":. c #F5C06A",
">. c #F5C06B",
",. c #F5C06C",
"<. c #F5C16D",
"1. c #F6C06C",
"2. c #F6C16D",
"3. c #F6C26F",
"4. c #F5C370",
"5. c #F6C270",
"6. c #F6C271",
"7. c #F6C371",
"8. c #F6C372",
"9. c #F6C373",
"0. c #F5C474",
"q. c #F6C576",
"w. c #F6C577",
"e. c #F6C578",
"r. c #F6C579",
"t. c #F6C679",
"y. c #F6C67A",
"u. c #F6C87E",
"i. c #F7C87E",
"p. c #F7C87F",
"a. c #F7C97F",
"s. c #808080",
"d. c #F6C880",
"f. c #F7C880",
"g. c #F7C980",
"h. c #F7C981",
"j. c #F7C982",
"k. c #F7CB83",
"l. c #F7CB84",
"z. c #F7CB85",
"x. c #F7CB86",
"c. c #F7CB87",
"v. c #F7CC86",
"b. c #F7CC87",
"n. c #F7CC88",
"m. c #F7CD8B",
"M. c #F7CE8C",
"N. c #F7CF8E",
"B. c #F8CE8D",
"V. c #F8CF8D",
"C. c #F8D092",
"Z. c #F8D193",
"A. c #F8D194",
"S. c #F8D398",
"D. c #F8D499",
"F. c #F8D49A",
"G. c #F9D49A",
"H. c #F8D69F",
"J. c #F8D7A1",
"K. c #F9D6A0",
"L. c #F9D7A0",
"P. c #F9D8A5",
"I. c #F9D9A6",
"U. c #F9D9A7",
"Y. c #F9DAA7",
"T. c #F9DBAA",
"R. c #F9DBAC",
"E. c #FADBAC",
"W. c #FADCAD",
"Q. c #FADDB1",
"!. c #FADEB3",
"~. c #FADFB3",
"^. c #FAE0B7",
"/. c #FAE1B8",
"(. c #FBE1B9",
"). c #FBE1BA",
"_. c #FBE3BC",
"`. c #FBE3BE",
"'. c #FBE3BF",
"]. c #FBE4BF",
"[. c #FBE5C2",
"{. c #FBE6C4",
"}. c #FBE6C5",
"|. c #FBE7C7",
" X c #FBE7C8",
".X c #FCE8CA",
"XX c #FCE9CA",
"oX c #FCE9CD",
"OX c #FCE9CE",
"+X c #FCEACF",
"@X c #FCEBCF",
"#X c #FCEAD0",
"$X c #FCEBD0",
"%X c #FCECD2",
"&X c #FCECD3",
"*X c #FCEDD5",
"=X c #FCEED6",
"-X c #FCEED7",
";X c #FCEFD8",
":X c #FDEFDA",
">X c #FDF0DA",
",X c #FDF0DC",
"<X c #FDF1DD",
"1X c #FDF2DF",
"2X c #FDF3E1",
"3X c #FDF3E2",
"4X c #FDF4E4",
"5X c OldLace",
"6X c #FEF6E8",
"7X c #FEF7E9",
"8X c #FEF7EA",
"9X c #FEF7ED",
"0X c #FEF8ED",
"qX c #FEF8EE",
"wX c #FEF9F2",
"eX c #FEFBF5",
"rX c gray100",
/* pixels */
"1 + + & - 1 4 7 r s d b b A D T ^ ) X.O.-.3.0.z.",
"o     s.O s.  s.1   r d g   A   P ^ ] X.&.,.6.g.",
"+   X   +   -   7   d g b   D   ) ] O.&.3.0.y.v.",
"&     s.&   6   r   g b A s.  s.] O.&.,.9.y.a.C.",
"-   + & 1   7   d   b A D Y   ] X.&.,.9.y.g.b.A.",
"1   & - 4 s.  s.g       T ^   O.-.,.9.y.g.b.N.G.",
"1 % - 4 7 r s g b A D Y ^ ] X.&.,.3.y.a.b.N.C.L.",
"7 - 4 7 r s g b A D Y ^     s.,.      v.  C.  U.",
"e 3 7 e s h b n D T ^ _   &.  9.  a.b.m.  H.  W.",
"s 6 e s d b n D I E _ X.    s.y.    m.A.G.  U.Q.",
"s e d g b A D Y ^ ] X.&.  6.y.a.  m.C.G.  U.  (.",
"g s d b n D Y ^ _ X.&.-.  y.a.x.  C.G.H.  W.  ].",
"b g b n D T E rXrXrXrXrXrXrXrXrXC.G.L.U.W.~.^.[.",
"n g N H D ^ rX. rX. . . . . rX. rXH.T.T.Q.(.[..X",
"H N H T ^ _ rX. . rX. . . rX. . rXU.W.~.(.[.}.OX",
"P N P ^ ) rX. . . rX. . . rX. . . rXQ.(.].}..X*X",
"^ P ^ ) X.rX. . . . rX. rX. . . . rX^.].}..X@X>X",
") T ) X.rXrXrXrXrXrXrXrXrXrXrXrXrXrXrX{..X$X=X<X",
"] ) X.&.-.rX. . . . rX. rX. . . . rX|..X@X*X>X2X",
"O.X.&.-.,.rX. . . rX. . . rX. . . rX.XOX*X>X1X5X",
"-.O.-.6.y.i.rX. . rX. . . rX. . rX.X$X*X>X<X5X8X",
",.-.6.y.a.x.rX. rX. . . . . rX. rXOX*X>X<X5X5XqX",
"3.3.y.i.z.m.C.rXrXrXrXrXrXrXrXrX@X*X>X<X5X5XqXwX",
"a.a.z.m.C.S.H.J.T.Q.^._.[.|.OX*X*X<X2X5X8XqXwXeX"
};
