/* XPM */
static char *TGLPhongShader[] = {
/* columns rows colors chars-per-pixel */
"24 24 132 2",
"   c #073F63",
".  c #0D4061",
"X  c #014C7D",
"o  c #154462",
"O  c #184563",
"+  c #1F4C62",
"@  c #1C506E",
"#  c #1A5373",
"$  c #274F61",
"%  c #265064",
"&  c #305363",
"*  c #355A6A",
"=  c #365F71",
"-  c #37657D",
";  c #465E60",
":  c #53655E",
">  c #466364",
",  c #4B6262",
"<  c #476C7A",
"1  c #005B96",
"2  c #005F9D",
"3  c #1B5882",
"4  c #06629F",
"5  c #116299",
"6  c #1F689B",
"7  c #0067AA",
"8  c #0069AD",
"9  c #0C6BAB",
"0  c #006FB7",
"q  c #0172BC",
"w  c #0B76BE",
"e  c #0D78BE",
"r  c #1C73AE",
"t  c #1379BE",
"y  c #1B7BBC",
"u  c #255B83",
"i  c #2D6E9D",
"p  c #2074AF",
"a  c #2D72A5",
"s  c #287FBE",
"d  c #3576A5",
"f  c #317CB3",
"g  c #167BC0",
"h  c #1B7DC0",
"j  c #487083",
"k  c #3083BF",
"l  c #3981B7",
"z  c #1F80C1",
"x  c #2481C2",
"c  c #2883C2",
"v  c #3187C4",
"b  c #3589C5",
"n  c #3C8BC6",
"m  c #458FC7",
"M  c #458FC8",
"N  c #4590C8",
"B  c #4991C8",
"V  c #5395CA",
"C  c #5D9DCE",
"Z  c #65A2D1",
"A  c #6EA6D3",
"S  c #74ACD5",
"D  c #7AABD4",
"F  c #8C7D4B",
"G  c #907F4E",
"H  c #9F8444",
"J  c #878462",
"K  c #888563",
"L  c #848A72",
"P  c #9A916B",
"I  c #9B987C",
"U  c #A18445",
"Y  c #EE9405",
"T  c #EF960A",
"R  c #EF980E",
"E  c #EF9911",
"W  c #F09B15",
"Q  c #F09D1B",
"!  c #E49D29",
"~  c #F09F20",
"^  c #F0A01F",
"/  c #F0A022",
"(  c #F1A42B",
")  c #F2A731",
"_  c #F2A835",
"`  c #F2AB3B",
"'  c #E6B15A",
"]  c #F3AE42",
"[  c #F3B046",
"{  c #F3B24B",
"}  c #F4B553",
"|  c #F4B95B",
" . c #F4BC63",
".. c #F5BF69",
"X. c #F5C06C",
"o. c #F5C373",
"O. c #F6C579",
"+. c #F6C87E",
"@. c #899385",
"#. c #879C9F",
"$. c #8B9E9E",
"%. c #9DABA7",
"&. c #85B3D8",
"*. c #A4C9E4",
"=. c #AACBE5",
"-. c #B4CFE7",
";. c #E9C58B",
":. c #F6CA83",
">. c #F7CD8B",
",. c #F8CE8C",
"<. c #F8D092",
"1. c #F8D49B",
"2. c #F8D7A1",
"3. c #F9D9A6",
"4. c #F9DBAC",
"5. c #FADEB2",
"6. c #FAE0B7",
"7. c #FAE2BB",
"8. c #C7DDEE",
"9. c #CCDFEF",
"0. c #ECDDC0",
"q. c #FBE6C4",
"w. c #FBE7C8",
"e. c #FCE9CC",
"r. c #FCECD3",
"t. c #FCEFD9",
"y. c #FDF1DC",
"u. c #FDF4E3",
"i. c #FEF6E9",
"p. c #FEF8ED",
"a. c #FEF9F3",
"s. c gray100",
/* pixels */
"Q R E E Q Q ^ / ( ( ) _ ` ] [ { } | |  ...X.O.:.",
"R Y T T R E W Q Q / ( ) _ ` ] [ { { | |  .X.X.+.",
"E Y T R E W Q / / ( ) _ ` [ [ { } | |  .X.O.o.>.",
"W T R E W Q ^ ! G : & O O % , K '  ...X.o.+.:.,.",
"W R E W Q Q H ; u i f k s r 5 X * P X.o.O.+.>.<.",
"Q E W Q / F * d N B N n b c h t 4 @ L O.+.>.,.1.",
"/ E Q ^ H * l B V V V B n v c t w 7 @ I :.,.<.2.",
"/ Q / ! ; a m V C D &.A N b c h e q 7 = ;.<.1.3.",
"( Q ~ F 3 n B V D -.9.=.Z n c h e q q X @.1.2.4.",
") ~ ( : 6 b M V &.9.s.8.S b c g e q q 1 < 2.3.5.",
") ~ ( & r v n B A =.8.*.C v x g e q q 7 @ 3.4.5.",
"_ _ _   y c v M M Z S C b c h e q q q 0   4.5.q.",
"` _ `   e h c v b b b v c x t w q q 0 0   5.5.w.",
"] _ ] $ 9 g h s c c s s h g e q q q q 7 # 5.q.w.",
"] ] ] ; 1 w g g z h h g t e q q q q 0 1 j q.w.e.",
"{ ] { J X q q g g g e e q q q q q q q X $.w.e.e.",
"} { } ' * 1 q q q q q q q q q q q q 2 u q.e.e.t.",
"} } | | P @ 8 q q q q q q q q q q 7 # %.w.e.t.y.",
"| }  . ...L @ 2 q q q q q q q q 2 # #.e.e.r.t.u.",
" .|  ...X.O.I = X 1 7 0 0 7 1 X - %.e.e.t.y.y.u.",
".. ...X.O.+.:.;.@.< @     @ j $.0.e.e.r.t.y.i.i.",
"....o.O.+.:.,.<.1.1.2.4.5.6.7.q.e.e.t.y.y.u.i.p.",
"o.X.O.+.:.,.<.1.1.4.4.5.6.q.q.e.e.r.t.y.y.i.p.a.",
":.:.:.,.<.1.1.2.4.5.5.7.q.q.w.r.t.y.u.u.p.p.a.a."
};
