/* XPM */
static char *TGLStaticImposterBuilder[] = {
/* columns rows colors chars-per-pixel */
"24 24 256 2",
"   c black",
".  c #402000",
"X  c gray25",
"o  c #604040",
"O  c #606040",
"+  c #606080",
"@  c #800000",
"#  c #A04040",
"$  c #A06040",
"%  c #C00040",
"&  c #E00040",
"*  c #E04040",
"=  c #A06080",
"-  c #E04080",
";  c #A0A000",
":  c #A0A040",
">  c #EE9403",
",  c #EF9506",
"<  c #EF9507",
"1  c #EF960A",
"2  c #EF970A",
"3  c #EF970C",
"4  c #EF980E",
"5  c #EF990E",
"6  c #EF9810",
"7  c #EF9912",
"8  c #EF9A12",
"9  c #F09B15",
"0  c #F09B16",
"q  c #F09C16",
"w  c #F09C18",
"e  c #F09D18",
"r  c #F09D1A",
"t  c #F09D1B",
"y  c #F09E1A",
"u  c #F09E1B",
"i  c #F09D1C",
"p  c #F09E1C",
"a  c #F09F1E",
"s  c #F09F1F",
"d  c #F09F20",
"f  c #F0A01F",
"g  c #F0A020",
"h  c #F0A120",
"j  c #F1A124",
"k  c #F1A125",
"l  c #F0A224",
"z  c #F1A224",
"x  c #F1A328",
"c  c #F1A329",
"v  c #F1A429",
"b  c #F1A42A",
"n  c #F1A52F",
"m  c #F1A62C",
"M  c #F1A62D",
"N  c #F1A62E",
"B  c #F1A62F",
"V  c #F1A72F",
"C  c #F2A730",
"Z  c #F2A732",
"A  c #F2A834",
"S  c #F2A934",
"D  c #F2A935",
"F  c #F2A836",
"G  c #F2A937",
"H  c #F2AA39",
"J  c #F2AB39",
"K  c #F2AA3A",
"L  c #F2AB3A",
"P  c #F2AB3B",
"I  c #F2AD3F",
"U  c #F3AD3F",
"Y  c #F2AD40",
"T  c #F3AD40",
"R  c #F2AE40",
"E  c #F3AE40",
"W  c #F3AE41",
"Q  c #F3AF45",
"!  c #F3AF46",
"~  c #F3B044",
"^  c #F3B046",
"/  c #F3B047",
"(  c #F3B249",
")  c #F3B24A",
"_  c #F3B24B",
"`  c #F3B24C",
"'  c #F3B34D",
"]  c #F4B34C",
"[  c #F4B550",
"{  c #F4B551",
"}  c #F4B552",
"|  c #F4B756",
" . c #F4B757",
".. c #F4B857",
"X. c #F4B858",
"o. c #F5B95B",
"O. c #F5BA5D",
"+. c #F4BA5E",
"@. c #F5BA5E",
"#. c #F5BA5F",
"$. c #F5BB60",
"%. c #F5BC63",
"&. c #F5BD63",
"*. c #F5BD64",
"=. c #F5BE66",
"-. c #F5BE67",
";. c #F5BF6A",
":. c #F6BF69",
">. c #C0C000",
",. c yellow",
"<. c #F5C06B",
"1. c #F5C16D",
"2. c #F6C16D",
"3. c #F6C26F",
"4. c #F5C370",
"5. c #F6C270",
"6. c #F6C271",
"7. c #F6C371",
"8. c #F6C372",
"9. c #F6C373",
"0. c #F5C474",
"q. c #F6C576",
"w. c #F6C577",
"e. c #F6C578",
"r. c #F6C679",
"t. c #F6C67A",
"y. c #F7C87E",
"u. c #F7C87F",
"i. c #E0E040",
"p. c #808080",
"a. c #A0A080",
"s. c #A0A0A4",
"d. c #E0A0C0",
"f. c #C0C080",
"g. c #F6C880",
"h. c #F7C880",
"j. c #F7C980",
"k. c #F7C981",
"l. c #F7C982",
"z. c #F7CB83",
"x. c #F7CB85",
"c. c #F7CB86",
"v. c #F7CB87",
"b. c #F7CC86",
"n. c #F7CC87",
"m. c #F7CC88",
"M. c #F7CD8B",
"N. c #F7CE8C",
"B. c #F7CF8E",
"V. c #F8CE8C",
"C. c #F8CE8D",
"Z. c #F8CF8D",
"A. c #F7D092",
"S. c #F8D092",
"D. c #F8D192",
"F. c #F8D193",
"G. c #F8D194",
"H. c #F8D398",
"J. c #F8D399",
"K. c #F8D39A",
"L. c #F8D499",
"P. c #F8D49A",
"I. c #F9D49A",
"U. c #F8D69F",
"Y. c #F9D69E",
"T. c #F9D69F",
"R. c #F8D7A1",
"E. c #F9D6A0",
"W. c #F9D7A0",
"Q. c #F9D7A1",
"!. c #F9D8A5",
"~. c #F9D9A6",
"^. c #F9D9A7",
"/. c #F9DAA7",
"(. c #F9DBAA",
"). c #F9DBAC",
"_. c #FADBAC",
"`. c #FADCAB",
"'. c #FADCAC",
"]. c #FADCAD",
"[. c #FADDB1",
"{. c #FADEB2",
"}. c #FADEB3",
"|. c #FADFB3",
" X c #FADFB4",
".X c #E0E080",
"XX c #FAE0B7",
"oX c #FAE1B8",
"OX c #FAE1B9",
"+X c #FBE1B9",
"@X c #FBE1BA",
"#X c #FBE3BC",
"$X c #FBE3BE",
"%X c #FBE3BF",
"&X c #FBE4BF",
"*X c #C0C0C0",
"=X c #FBE5C2",
"-X c #FBE6C4",
";X c #FBE6C5",
":X c #FBE7C7",
">X c #FBE7C8",
",X c #FCE8CA",
"<X c #FCE9CA",
"1X c #FCE9CD",
"2X c #FCE9CE",
"3X c #FCEACF",
"4X c #FCEBCF",
"5X c #FCEBD0",
"6X c #FCECD2",
"7X c #FCECD3",
"8X c #FCEDD5",
"9X c #FCEED6",
"0X c #FCEED7",
"qX c #FCEFD8",
"wX c #FDEFDA",
"eX c #FDF0DA",
"rX c #FDF0DC",
"tX c #FDF1DD",
"yX c #FDF2DF",
"uX c #FDF3E1",
"iX c #FDF3E2",
"pX c #FDF4E4",
"aX c OldLace",
"sX c #FEF6E8",
"dX c #FEF7E9",
"fX c #FEF7EA",
"gX c #FEF8ED",
"hX c #FEF8EE",
"jX c #FEF9F2",
"kX c #FEFBF5",
"lX c black",
"zX c black",
"xX c black",
"cX c black",
"vX c black",
"bX c black",
"nX c black",
"mX c black",
"MX c black",
"NX c black",
"BX c black",
"VX c black",
"CX c black",
"ZX c black",
"AX c black",
"SX c black",
"DX c black",
"FX c black",
"GX c black",
"HX c black",
"JX c black",
"KX c black",
"LX c black",
"PX c black",
"IX c black",
"UX c black",
/* pixels */
"a 6 8 9 e p h j x M Z G P W ^ ] }  .O.%.:.3.q.z.",
"3 > < 1 4 7 q t d k b V D L E / o . = $.=.1.9.g.",
"7 , 2 5 7 q t f k b B A P W / s.@ @ @ = 2.0.t.m.",
"9 2 4 8 q u f k b V D P R / '     @   X 9.t.k.B.",
"w 4 7 0 u s k v B A L W / ` + ,.;     9.r.j.v.G.",
"i 7 q y g % v B D P Y / ' s.i.,.>.X *Xt.j.n.Z.P.",
"g 0 y f z % % % & - - - *Xf.,.,.O s.t.j.n.Z.F.R.",
"j r f z v % % + + + & * $ ,.,.; + r.j.c.C.F.P.^.",
"x s j c n % + s.*Xs.s.+ .X,.; O d.h.b.C.G.I.Q.).",
"m l v B A % + *X*X*X= f.,.>.O # j.b.C.G.P.Q./.}.",
"C c B S J % + *Xs.s.a.,.,.: o % c.N.F.L.W.~.].oX",
"F N A K Y % + s.+ + i.,.; + % % C.F.P.E.^.]. X$X",
"L A J I ^ % X + + + *Xf.O + & % F.I.W.~.].|.@X-X",
"U H T ^ ` % % X + X *X+ + s.& % K.E.^._.}.+X&X>X",
"Q U ! ` } * & + +   + s.s.& & % T.^.].|.+X&X;X2X",
"( ~ _ } ..#.- - * & & & & & & % ~.].}.+X&X;X<X7X",
"[ ) {  .+.*.<.7.e.- - * * & % % '.}.+X%X;X<X4XqX",
"| { X.@.*.<.8.e.y.x.N.F.L.T.~.'.{.OX&X-X<X5X9XtX",
"o. .p.    7.      N.p.  p.~.      %X  <Xp.    iX",
"$.+.  <.6.w.y.  N.D.  T.  `.}.  $X-X  4X  wXyXaX",
"-.&.p.  p.y.x.  A.H.      {.OX  -X,X  8X  yXpXfX",
"2.;.6.e.  x.V.  J.T.  '.  oX%X  <X3X  eX  pXsXhX",
"4.5.    p.M.S.  Y.~.  {.  %X-X  4X8X  yXp.    jX",
"l.u.c.N.S.H.U.!.(.[.XX#X=X:X1X6X0XrXuXaXdXgXjXkX"
};
