/* XPM */
static char *TGLSmoothNavigator[] = {
/* columns rows colors chars-per-pixel */
"24 24 190 2",
"   c black",
".  c #7E6C46",
"X  c #83632C",
"o  c #8A672C",
"O  c #816734",
"+  c #866B3A",
"@  c #8C6C33",
"#  c #926C2E",
"$  c #91733E",
"%  c #9D7431",
"&  c #9A7839",
"*  c #A47E3F",
"=  c #AC7F36",
"-  c #A87F3B",
";  c #836C44",
":  c #8E7540",
">  c #89744B",
",  c #8F7849",
"<  c #877953",
"1  c #887753",
"2  c #897B57",
"3  c #8C7B58",
"4  c #917544",
"5  c #9E7C43",
"6  c #9B7D4C",
"7  c #917953",
"8  c #907F5C",
"9  c #B3883D",
"0  c #AFBB36",
"q  c #B0BA36",
"w  c #B0BD3A",
"e  c #98815A",
"r  c #928160",
"t  c #958A64",
"y  c #988464",
"u  c #9F8863",
"i  c #A4824A",
"p  c #A68654",
"a  c #AB8D5C",
"s  c #B38B4B",
"d  c #B48F53",
"f  c #BF914B",
"g  c #BB9950",
"h  c #A29371",
"j  c #A79679",
"k  c #A39872",
"l  c #AA9572",
"z  c #B19364",
"x  c #B7996C",
"c  c #ABA844",
"v  c #ABAE4F",
"b  c #A7AD56",
"n  c #AAAF55",
"m  c #B5B34E",
"M  c #B7B957",
"N  c #AFA77C",
"B  c #ACB868",
"V  c #B1C044",
"C  c #B1C44C",
"Z  c #B1C753",
"A  c #B1C854",
"S  c #B2CA5A",
"D  c #B2CD61",
"F  c #BBCC7D",
"G  c #B3D065",
"H  c #B3D16B",
"J  c #B3D574",
"K  c #B4D879",
"L  c #DE951D",
"P  c #C99232",
"I  c #CD993B",
"U  c #D49428",
"Y  c #D89526",
"T  c #D39B37",
"R  c #D59E3D",
"E  c #DB9E32",
"W  c #C0B33E",
"Q  c #EE9405",
"!  c #ED960B",
"~  c #E69413",
"^  c #E5981B",
"/  c #ED9911",
"(  c #EC9C1C",
")  c #F09B15",
"_  c #F09E1C",
"`  c #E29D2A",
"'  c #ED9F21",
"]  c #EBA024",
"[  c #EAA22D",
"{  c #E3A235",
"}  c #E3A93F",
"|  c #EAA530",
" . c #ECAC3F",
".. c #C29544",
"X. c #C69844",
"o. c #C89442",
"O. c #CF9B49",
"+. c #C79C56",
"@. c #C19B5D",
"#. c #C0B342",
"$. c #C5BA44",
"%. c #C7BB48",
"&. c #DCA54E",
"*. c #D4A457",
"=. c #D9A654",
"-. c #C9A266",
";. c #CCA86E",
":. c #C0A57B",
">. c #D6A962",
",. c #D0AD75",
"<. c #DEB26C",
"1. c #E1A841",
"2. c #E2AA54",
"3. c #E7B047",
"4. c #EAB45C",
"5. c #EEB956",
"6. c #E3B263",
"7. c #ECBB6D",
"8. c #E1B773",
"9. c #E4BB7A",
"0. c #F4BD65",
"q. c #F4BE69",
"w. c #CCC253",
"e. c #C1CA6F",
"r. c #CECC66",
"t. c #CECC6B",
"y. c #EFC075",
"u. c #F5C067",
"i. c #F6C26D",
"p. c #F5C373",
"a. c #F3C57B",
"s. c #F7C975",
"d. c #F6C87D",
"f. c #B6A78A",
"g. c #B6CB92",
"h. c #B4DC83",
"j. c #B5DF8B",
"k. c #BFD69C",
"l. c #B5E08B",
"z. c #B6E292",
"x. c #B6E69B",
"c. c #B6E89E",
"v. c #B7E9A4",
"b. c #B7EDAB",
"n. c #C4B897",
"m. c #C7B999",
"M. c #CDBD9E",
"N. c #D6B683",
"B. c #CEBFA1",
"V. c #CCC189",
"C. c #CAC29E",
"Z. c #CFDD8F",
"A. c #C2D999",
"S. c #D0D782",
"D. c #D0DA8D",
"F. c #D2DF99",
"G. c #DAD29A",
"H. c #D2C3A3",
"J. c #DCCAAB",
"K. c #CEE6B2",
"L. c #D2E5A7",
"P. c #D1EAB7",
"I. c #D3EEBD",
"U. c #E7C288",
"Y. c #F6CA82",
"T. c #F4CA88",
"R. c #F8D18D",
"E. c #F7D090",
"W. c #F8D390",
"Q. c #F9D49A",
"!. c #E1CEAE",
"~. c #E2D2B3",
"^. c #E8D5B6",
"/. c #EBDABB",
"(. c #F9DAA3",
"). c #FAE2B4",
"_. c #F9E8B4",
"`. c #F9EDBB",
"'. c #EFDEC1",
"]. c #EFE1C6",
"[. c #F3E2C4",
"{. c #F6E6C9",
"}. c #F8E6CD",
"|. c #F9E9CD",
" X c #FBECD3",
".X c #FBEED9",
"XX c #FCF0DC",
"oX c #FBF3E4",
"OX c #FCF5EB",
"+X c gray100",
/* pixels */
"_ / / ) ( ( ' [  .5.w.m     C r.s.i.u.u.u.i.p.Y.",
"! Q Q ! ! ~ L E 1.%.w   +X+X  C r.i.u.u.u.i.p.Y.",
"/ Q ! ! ~ L Y T #.w   +X+X+X+X  S t.p.i.i.s.a.T.",
") ! / ^ ^ U P X.w   +X+X+X+X+X+X  G d.d.d.d.Y.E.",
"_ ) ( [ E I ..g w       +X+X      G W.R.R.R.E.Q.",
"' ' | } w 0 w m M V C   +X+X  D D S.S.K K D.(.(.",
"[ [ 3.$.q     V V.G.C   +X+X  D `._.J     h.F.).",
"{ } $.0   +X  V C e.Z   +X+X  H Z.J K   +X  l.L.",
"R W 0   +X+X      A A   +X+X  H J       +X+X  x.",
"..0   +X+X+X+X+X+X      +X+X      +X+X+X+X+X+X  ",
"9 w   +X+X+X+X+X+X+X+X  +X+X  +X+X+X+X+X+X+X+X  ",
"& c m   +X+X    +X+X+X+X+X+X+X+X+X+X    +X+X  v.",
"@ $ v C   +X  S     +X+X+X+X+X+X    z.  +X  v.I.",
"X O , b A     D D H   +X+X+X+X  j.l.x.    c.P. X",
"o X + , b S D B N F J   +X+X  l.A.C.A.c.v.K.{. X",
"% # @ $ 4 , > < t N K   +X+X  l.B.n.m.H.~.'.{. X",
"9 9 - * 5 4 ; ; 2 k K   +X+X  z.H.M.H.J./.[.}..X",
"O.P ..f s i , ; 1 k h.  +X+X  x.~.J.J.^.[.{..XXX",
"=.&.=.*.+.d 6 > 3 k h.  +X+X  c./././.[.}..X.XXX",
"4.4.4.6.>.@.p 1 8 k j.  +X+X  v.{.[.{.}. XXXXXoX",
"0.0.q.7.<.-.a 7 3 j j.  +X+X  v.|.}.|. X.XXXoXOX",
"q.q.p.p.8.;.z 8 8 h x.        b. X X.X.XXXXXOXOX",
"p.q.p.9.9.,.x a y h g.c.v.v.b.I. X X.XXXoXoXOXOX",
"Y.Y.T.T.U.N.:.l h j f.B.~.]. X.XXXXXXXoXoXOXOXOX"
};
