/* XPM */
static char *TGLScriptLibrary[] = {
/* columns rows colors chars-per-pixel */
"24 24 170 2",
"   c black",
".  c gray20",
"X  c #008F00",
"o  c #00A400",
"O  c #00D400",
"+  c #EE9403",
"@  c #EF9506",
"#  c #EF9507",
"$  c #EF970A",
"%  c #EF970C",
"&  c #EF980E",
"*  c #EF9810",
"=  c #EF9912",
"-  c #EF9A12",
";  c #F09B15",
":  c #F09B16",
">  c #F09C16",
",  c #F09C18",
"<  c #F09D18",
"1  c #F09D1A",
"2  c #F09E1A",
"3  c #F09D1C",
"4  c #F09E1C",
"5  c #F09F1E",
"6  c #F09F1F",
"7  c #F0A01F",
"8  c #F0A020",
"9  c #F0A120",
"0  c #F1A124",
"q  c #F0A224",
"w  c #F1A328",
"e  c #F1A329",
"r  c #F1A429",
"t  c #F1A62C",
"y  c #F1A62D",
"u  c #F1A62E",
"i  c #F1A62F",
"p  c #F2A730",
"a  c #F2A732",
"s  c #F2A834",
"d  c #F2A836",
"f  c #F2A937",
"g  c #F2AA39",
"h  c #F2AB39",
"j  c #F2AB3A",
"k  c #F2AB3B",
"l  c #F3AD3F",
"z  c #F3AD40",
"x  c #F3AE41",
"c  c #F3AF45",
"v  c #F3AF46",
"b  c #F3B044",
"n  c #F3B046",
"m  c #F3B249",
"M  c #F3B24A",
"N  c #F3B24B",
"B  c #F3B34C",
"V  c #F4B34C",
"C  c #F4B550",
"Z  c #F4B551",
"A  c #F4B552",
"S  c #F4B652",
"D  c #F4B756",
"F  c #F4B757",
"G  c #F4B858",
"H  c #F4B859",
"J  c #F5B95B",
"K  c #F5BA5D",
"L  c #F4BA5E",
"P  c #F5BB5F",
"I  c #F5BB60",
"U  c #F5BC63",
"Y  c #F5BD63",
"T  c #F5BD64",
"R  c #F5BD66",
"E  c #F5BE66",
"W  c #F5BE67",
"Q  c #F5BF6A",
"!  c #F6BF69",
"~  c #F5C06B",
"^  c #F5C06C",
"/  c #F5C16D",
"(  c #F6C16D",
")  c #F6C26F",
"_  c #F5C370",
"`  c #F6C270",
"'  c #F6C271",
"]  c #F6C373",
"[  c #F5C474",
"{  c #F6C576",
"}  c #F6C577",
"|  c #F6C679",
" . c #F6C67A",
".. c #F7C87E",
"X. c #F7C87F",
"o. c gray60",
"O. c #F6C880",
"+. c #F7C980",
"@. c #F7C981",
"#. c #F7C982",
"$. c #F7CB83",
"%. c #F7CB84",
"&. c #F7CB86",
"*. c #F7CB87",
"=. c #F7CC87",
"-. c #F7CC88",
";. c #F7CE8C",
":. c #F7CF8E",
">. c #F8CF8D",
",. c #F8D092",
"<. c #F8D193",
"1. c #F8D194",
"2. c #F8D398",
"3. c #F8D49A",
"4. c #F9D49A",
"5. c #F8D69F",
"6. c #F8D7A1",
"7. c #F9D7A1",
"8. c #F9D8A5",
"9. c #F9D9A6",
"0. c #F9D9A7",
"q. c #F9DAA7",
"w. c #F9DBAA",
"e. c #F9DBAC",
"r. c #FADCAD",
"t. c #FADDB1",
"y. c #FADEB3",
"u. c #FADFB3",
"i. c #FADFB4",
"p. c #FAE0B7",
"a. c #FAE1B8",
"s. c #FBE1B9",
"d. c #FBE1BA",
"f. c #FBE3BC",
"g. c #FBE3BE",
"h. c #FBE4BF",
"j. c #FBE5C2",
"k. c #FBE6C4",
"l. c #FBE6C5",
"z. c #FBE7C7",
"x. c #FBE7C8",
"c. c #FCE9CA",
"v. c #FCE9CD",
"b. c #FCE9CE",
"n. c #FCEBCF",
"m. c #FCEBD0",
"M. c #FCECD2",
"N. c #FCECD3",
"B. c #FCEDD5",
"V. c #FCEED6",
"C. c #FCEED7",
"Z. c #FCEFD8",
"A. c #FDEFDA",
"S. c #FDF0DA",
"D. c #FDF0DC",
"F. c #FDF1DD",
"G. c #FDF2DF",
"H. c #FDF3E1",
"J. c #FDF3E2",
"K. c #FDF4E4",
"L. c OldLace",
"P. c #FEF6E8",
"I. c #FEF7E9",
"U. c #FEF7EA",
"Y. c #FEF7ED",
"T. c #FEF8ED",
"R. c #FEF8EE",
"E. c #FEF9F2",
"W. c #FEFBF5",
"Q. c gray100",
/* pixels */
"5 * * > < 5 7 8 e u a f k x n V S F P P Q ' [ $.",
"% + # . . . . . . . . . . . . . B S F P T ) [ #.",
"* # $ . Q.Q.Q.Q.Q.Q.Q.Q.Q.Q.. Q.. J P T ) [ | =.",
"> $ & . Q.Q.O Q.O Q.Q.Q.Q.Q.. Q.Q.. T ) ' | #.;.",
"< & * . Q.Q.X Q.X O Q.Q.Q.Q.. Q.Q.Q.. ' | #.=.1.",
"5 * < . Q.Q.X Q.X X o Q.Q.Q.. Q.Q.Q.Q.. #.=.;.4.",
"8 : < . Q.Q.X Q.X o Q.Q.Q.Q.  .   .   .   :.1.6.",
"0 < 8 . Q.Q.o Q.o Q.Q.Q.Q.Q.              ,.4.8.",
"e 8 8 . Q.Q.Q.Q.Q.Q.Q.Q.Q.Q.Q.Q.o.o.o.o.  4.7.e.",
"u 0 e . Q.Q.    Q.      Q.    Q.Q.o.o.o.  7.w.i.",
"i e u . Q.Q.Q.Q.Q.Q.Q.Q.Q.Q.Q.Q.Q.Q.Q.o.  8.r.i.",
"f u f . Q.Q.      Q.Q.Q.Q.Q.Q.Q.Q.Q.Q.o.  r.p.f.",
"h a h . Q.Q.Q.Q.Q.Q.Q.Q.Q.Q.Q.Q.Q.Q.Q.o.  i.i.z.",
"l k l . Q.Q.Q.                    Q.Q.o.  i.j.z.",
"v l v . Q.Q.Q.Q.Q.Q.Q.Q.Q.Q.Q.Q.Q.Q.Q.o.  j.z.v.",
"v v N . Q.Q.Q.                    Q.Q.o.  l.c.M.",
"V V S . Q.Q.Q.Q.Q.Q.Q.Q.Q.Q.Q.Q.Q.Q.Q.o.  c.v.S.",
"J V G . Q.Q.Q.      Q.            Q.Q.o.  m.V.F.",
"K G P . Q.Q.Q.Q.Q.Q.Q.Q.Q.Q.Q.Q.Q.Q.Q.o.  V.S.J.",
"P K T . Q.Q.    Q.Q.Q.Q.Q.Q.Q.Q.Q.Q.Q.o.  S.F.L.",
"T T Q . Q.Q.Q.Q.Q.Q.Q.Q.Q.Q.Q.Q.Q.Q.Q.o.  F.L.I.",
") Q ' . . o.o.o.o.o.o.o.o.o.o.o.o.o.o..   L.I.Y.",
"' ' | X.$.                                I.Y.E.",
"#.X.$.;.,.2.5.8.w.t.p.f.j.z.v.M.V.F.H.L.I.Y.E.W."
};
