/* XPM */
static char *TGLShaderCombiner[] = {
/* columns rows colors chars-per-pixel */
"24 24 256 2",
"   c #070B0F",
".  c #0B090E",
"X  c #0F0E1A",
"o  c #0D171D",
"O  c #0F1315",
"+  c #181A19",
"@  c #111B20",
"#  c #172124",
"$  c #1D2321",
"%  c #1A2830",
"&  c #1A2D3B",
"*  c #1E303D",
"=  c #201F28",
"-  c #24221B",
";  c #282719",
":  c #2A2A1D",
">  c #312209",
",  c #3E321B",
"<  c #252323",
"1  c #2C2B25",
"2  c #3D3B2E",
"3  c #383D3D",
"4  c #373436",
"5  c #2C2936",
"6  c #233A4A",
"7  c #3B403F",
"8  c #284559",
"9  c #2C485A",
"0  c #3D4241",
"q  c #3D5057",
"w  c #2E4F65",
"e  c #2F5169",
"r  c #305168",
"t  c #4E350D",
"y  c #413928",
"u  c #7F0000",
"i  c #5B4116",
"p  c #49412D",
"a  c #48403C",
"s  c #534529",
"d  c #674A19",
"f  c #7E5719",
"g  c #635130",
"h  c #7D4135",
"j  c #424141",
"k  c #444A43",
"l  c #474B48",
"z  c #4B4C45",
"x  c #4D4D50",
"c  c #4F5141",
"v  c #514F49",
"b  c #514F43",
"n  c #5C5945",
"m  c #555847",
"M  c #585A57",
"N  c #5A6D44",
"B  c #615E4E",
"V  c #66635C",
"C  c #666555",
"Z  c #69705D",
"A  c #73664E",
"S  c #746C5F",
"D  c #75735A",
"F  c #727850",
"G  c #656965",
"H  c #717466",
"J  c #767A6A",
"K  c #7F7C71",
"L  c #3B6684",
"P  c #3C6885",
"I  c #446B83",
"U  c #42718F",
"Y  c #427191",
"T  c #7E8263",
"R  c #4D81A4",
"E  c #5089AF",
"W  c #5687A6",
"Q  c #578DB1",
"!  c #5794BF",
"~  c #5995BF",
"^  c #618495",
"/  c #5795C0",
"(  c #5E98C0",
")  c #5A96C0",
"_  c #5DA1CF",
"`  c #5DA1D0",
"'  c #629BC1",
"]  c #6AA0C3",
"[  c #64AADA",
"{  c #68A8D1",
"}  c #75A8C9",
"|  c #64ADE0",
" . c #800000",
".. c #824535",
"X. c #84632B",
"o. c #83693B",
"O. c #916F35",
"+. c #90733E",
"@. c #AE7B27",
"#. c #9D5E47",
"$. c #846D43",
"%. c #8E7F5E",
"&. c #9A6140",
"*. c #917748",
"=. c #847D64",
"-. c #A2684F",
";. c #A66A52",
":. c #AB7248",
">. c #CA7F08",
",. c #89945F",
"<. c #8E8667",
"1. c #858173",
"2. c #8E936A",
"3. c #9B8A64",
"4. c #978B6E",
"5. c #948C74",
"6. c #988E72",
"7. c #98917C",
"8. c #9B9675",
"9. c #8FAB67",
"0. c #8EA86C",
"q. c #92AE6C",
"w. c #92AF66",
"e. c #A5834B",
"r. c #B7924E",
"t. c #AF9361",
"y. c #A29470",
"u. c #B09F7C",
"i. c #A9B26E",
"p. c #AFB370",
"a. c #A8BC74",
"s. c #B2A17C",
"d. c #B3CA5A",
"f. c #BFD35E",
"g. c #A8C061",
"h. c #AECF70",
"j. c #B2CB6C",
"k. c #D5993B",
"l. c #C58724",
"z. c #EE9405",
"x. c #EF970A",
"c. c #EF980E",
"v. c #EF9911",
"b. c #F09B15",
"n. c #F09D1B",
"m. c #F0A01F",
"M. c #F0A122",
"N. c #F1A42B",
"B. c #F2A731",
"V. c #F2A835",
"C. c #F2AB3B",
"Z. c #D59E46",
"A. c #D5A14E",
"S. c #DDA956",
"D. c #D7AF64",
"F. c #D9B677",
"G. c #C7A466",
"H. c #EFAD40",
"J. c #EFB551",
"K. c #F3AE41",
"L. c #F2B045",
"P. c #F3B34B",
"I. c #F4B653",
"U. c #F4B855",
"Y. c #F4BB5B",
"T. c #E8B761",
"R. c #F5BC63",
"E. c #F6BF69",
"W. c #C4D962",
"Q. c #D0DC7D",
"!. c #CEE574",
"~. c #E9C075",
"^. c #F6C26B",
"/. c #F5C166",
"(. c #F5C473",
"). c #F6C679",
"_. c #F6CB7B",
"`. c #8B8B8B",
"'. c #878784",
"]. c #8D908A",
"[. c #8F9891",
"{. c #979388",
"}. c #959593",
"|. c #9999A2",
" X c #9EAF80",
".X c #ADA48D",
"XX c #A9A480",
"oX c #AFA997",
"OX c #ACA79C",
"+X c #ACB383",
"@X c #BFAF8C",
"#X c #B7A985",
"$X c #BAB88E",
"%X c #BBB48A",
"&X c #ADACAA",
"*X c #B4B4B1",
"=X c #BDD482",
"-X c #C8B488",
";X c #CABA9B",
":X c #DEBF8B",
">X c #CAD69D",
",X c #DFC68B",
"<X c #DCC49A",
"1X c #C9C697",
"2X c #CAC6A9",
"3X c #C7C3B7",
"4X c #C7C7BB",
"5X c #CEC9BC",
"6X c #CAD2A1",
"7X c #DAC5A0",
"8X c #DAC8A7",
"9X c #D0C6B0",
"0X c #D9CCB5",
"qX c #D9EC8D",
"wX c #DDF583",
"eX c #E1C78E",
"rX c #E2C699",
"tX c #F6CA83",
"yX c #F7CD8B",
"uX c #F8CE8C",
"iX c #F1CD90",
"pX c #F7D083",
"aX c #F8D48C",
"sX c #F8D193",
"dX c #F8D49A",
"fX c #E6CDA2",
"gX c #E1D2B7",
"hX c #F8D7A0",
"jX c #F9D9A6",
"kX c #F9DCAD",
"lX c #FADEB3",
"zX c #FAE2BB",
"xX c #C7C7C5",
"cX c #D2CEC4",
"vX c #D7D7C9",
"bX c #DBD4C6",
"nX c #D6D8CD",
"mX c #D9D9D4",
"MX c #D5D5D5",
"NX c #D9EBD8",
"BX c #E5DCCA",
"VX c #E8E4D7",
"CX c #FBE5C3",
"ZX c #FBE7C8",
"AX c #FBE9CB",
"SX c #FCE8C5",
"DX c #FCECD2",
"FX c #FBEED8",
"GX c #FCF1DC",
"HX c #ECE9E4",
"JX c #EEEEEE",
"KX c #FDF4E4",
"LX c #FCF6ED",
"PX c #F6F2EC",
"IX c #FFFFFE",
"UX c #FDFAF4",
/* pixels */
"n.c.v.v.m.m.m.M.M.N.N.V.V.K.L.P.I.I.Y.R.R.E.).tX",
"c.z.z.l.> z Z 3 3 V - X.V.V.K.P.J.I.Y.R.E.E.E.tX",
"v.z.z.3 &XUXHXnXmXIXMX: V.k.Z.Z.Z.A.S.R.E.).).yX",
"v.x.c.2 JXnX'.M x }.JX6 d . ; - O + ; o.).).tXyX",
"n.c.v.6 VX}.t l.@.a l l = u.j.p.+Xh.T + )._.tXsX",
"n.v.v.3 NX].d C.K.O.*.+.N wX].G 1.!.2.7 tXyXuXdX",
"M.v.n.3 mX`.d L.J.V H H T qXa e.4 1X0.3 tXuXsXhX",
"M.n.M.3 mX`., o.*.].u u O.qXB G.5 d.w.3 uXsXdXjX",
"N.m.M.a xXxX}.|.*XmXu  .-.qXi.F D W.9.3 sXdXhXkX",
"N.M.N.i 0 |.*X4XnXVXu u ;.6X>X6X$XW.w.3 dXhXjXlX",
"B.N.B.C.X.M T u u u u u  . .u #.S W.q.6 hXjXkXzX",
"V.N.V.C.J./._. .u u u u  .u  .:.a.g.n 1 jXkXlXzX",
"C.V.C.L.U./._.u  .u u u  .u u h Z k A rXlXlXlXCX",
"L.C.P.U./.^.pX,X-X1Xu u ;.-X8.<.u.fXkXkXlXlXCXAX",
"P.P.U./.D.F.aX,X@X%Xu u #.XX8.6.-X8X7XlXCXCXZXAX",
"U.Y.r.s @ # p y.a C u u ..N l 1 D X @ C CXZXAXDX",
"Y.T.s U ` { Q $ } } B =.k ^ } [ % I | o 0XAXDXFX",
"^.o.w [ 8 w e # ' ' 2 g q Q I R 8 P | o 9XFXFXGX",
"^.g P [ & [ | q ( ' 1 5.$ E | [ r P | o =.FXGXKX",
"(.$.w ` 6 e [ w ) ) 9 6 R Y * { / P | e w C KXLX",
"_.~.p P [ [ E o ! [ [ / * ` | ( & L | | | o cXLX",
"(.pXt.2 o o # g   o o   B   o   v X o o o v VXLX",
"_.(.tXF.3.<.8.s.#X4.=.6.oX.X7.7..XOX{.=.=.OXbXUX",
"tXtXyXiX~.-X-X<XfX7X;X;X8XgX0X9X0XBXBXxX3XcXHXUX"
};
