/* XPM */
static char *TGLUserInterface[] = {
/* columns rows colors chars-per-pixel */
"24 24 213 2",
"   c black",
".  c red",
"X  c #EE9403",
"o  c #EF9506",
"O  c #EF9507",
"+  c #EF960A",
"@  c #EF970A",
"#  c #EF970C",
"$  c #EF980E",
"%  c #EF990E",
"&  c #EF9810",
"*  c #EF9912",
"=  c #EF9A12",
"-  c #F09B15",
";  c #F09B16",
":  c #F09C16",
">  c #F09C18",
",  c #F09D18",
"<  c #F09D1A",
"1  c #F09D1B",
"2  c #F09E1A",
"3  c #F09E1B",
"4  c #F09D1C",
"5  c #F09E1C",
"6  c #F09F1E",
"7  c #F09F1F",
"8  c #F09F20",
"9  c #F0A01F",
"0  c #F0A020",
"q  c #F0A120",
"w  c #F1A124",
"e  c #F1A125",
"r  c #F0A224",
"t  c #F1A224",
"y  c #F1A328",
"u  c #F1A32A",
"i  c #F1A429",
"p  c #F1A42A",
"a  c #F1A62C",
"s  c #F1A62D",
"d  c #F1A62F",
"f  c #F1A72F",
"g  c #F2A730",
"h  c #F2A732",
"j  c #F2A834",
"k  c #F2A934",
"l  c #F2A836",
"z  c #F2A937",
"x  c #F2AA39",
"c  c #F2AB39",
"v  c #F2AB3A",
"b  c #F2AB3B",
"n  c #F3AD3F",
"m  c #F3AD40",
"M  c #F3AE40",
"N  c #F3AE41",
"B  c #F3AF45",
"V  c #F3AF46",
"C  c #F3B044",
"Z  c #F3B046",
"A  c #F3B047",
"S  c #F3B249",
"D  c #F3B24A",
"F  c #F3B24B",
"G  c #F3B24C",
"H  c #F3B34C",
"J  c #F3B34D",
"K  c #F4B34C",
"L  c #F4B550",
"P  c #F4B551",
"I  c #F4B552",
"U  c #F4B652",
"Y  c #F4B653",
"T  c #F4B756",
"R  c #F4B757",
"E  c #F4B857",
"W  c #F4B858",
"Q  c #F4B859",
"!  c #F5B95B",
"~  c #F5BA5D",
"^  c #F4BA5E",
"/  c #F5BA5E",
"(  c #F5BA5F",
")  c #F5BB5E",
"_  c #F5BB5F",
"`  c #F4BB60",
"'  c #F5BB60",
"]  c #F5BC63",
"[  c #F5BD63",
"{  c #F5BD64",
"}  c #F5BD65",
"|  c #F5BD66",
" . c #F5BE65",
".. c #F5BE66",
"X. c #F5BE67",
"o. c #F5BF6A",
"O. c #F6BF69",
"+. c #F5C06A",
"@. c #F5C06B",
"#. c #F5C06C",
"$. c #F5C16D",
"%. c #F6C06C",
"&. c #F6C16D",
"*. c #F6C26F",
"=. c #F5C370",
"-. c #F5C372",
";. c #F6C270",
":. c #F6C271",
">. c #F6C371",
",. c #F6C372",
"<. c #F6C373",
"1. c #F5C474",
"2. c #F6C576",
"3. c #F6C577",
"4. c #F6C578",
"5. c #F6C678",
"6. c #F6C679",
"7. c #F6C67A",
"8. c #F6C87E",
"9. c #F7C87E",
"0. c #F7C87F",
"q. c #F6C880",
"w. c #F7C880",
"e. c #F7C980",
"r. c #F7C981",
"t. c #F7C982",
"y. c #F7CB83",
"u. c #F7CB84",
"i. c #F7CB85",
"p. c #F7CB86",
"a. c #F7CB87",
"s. c #F7CC87",
"d. c #F7CC88",
"f. c #F7CD8B",
"g. c #F7CE8C",
"h. c #F7CF8E",
"j. c #F8CD8C",
"k. c #F8CE8C",
"l. c #F8CE8D",
"z. c #F8CF8D",
"x. c #F7D092",
"c. c #F8D091",
"v. c #F8D092",
"b. c #F8D192",
"n. c #F8D193",
"m. c #F8D194",
"M. c #F8D398",
"N. c #F8D399",
"B. c #F8D49A",
"V. c #F9D49A",
"C. c #F8D69F",
"Z. c #F9D69E",
"A. c #F9D69F",
"S. c #F8D7A1",
"D. c #F9D6A0",
"F. c #F9D7A1",
"G. c #F9D8A5",
"H. c #F9D9A6",
"J. c #F9D9A7",
"K. c #F9DAA7",
"L. c #F9DBAA",
"P. c #F9DBAC",
"I. c #FADCAC",
"U. c #FADCAD",
"Y. c #FADDB1",
"T. c #FADEB2",
"R. c #FADEB3",
"E. c #FAE0B7",
"W. c #FAE1B8",
"Q. c #FAE1B9",
"!. c #FBE1B9",
"~. c #FBE1BA",
"^. c #FBE3BC",
"/. c #FBE3BE",
"(. c #FBE3BF",
"). c #FBE4BF",
"_. c #FBE5C2",
"`. c #FBE6C4",
"'. c #FBE6C5",
"]. c #FBE7C7",
"[. c #FBE7C8",
"{. c #FCE8CA",
"}. c #FCE9CA",
"|. c #FCE9CD",
" X c #FCE9CE",
".X c #FCEACF",
"XX c #FCEBCF",
"oX c #FCEAD0",
"OX c #FCEBD0",
"+X c #FCECD2",
"@X c #FCECD3",
"#X c #FCEDD5",
"$X c #FCEED6",
"%X c #FCEED7",
"&X c #FCEFD8",
"*X c #FDEFDA",
"=X c #FDF0DA",
"-X c #FDF0DC",
";X c #FDF1DD",
":X c #FDF2DF",
">X c #FDF3E1",
",X c #FDF3E2",
"<X c #FDF4E4",
"1X c OldLace",
"2X c #FEF6E8",
"3X c #FEF7E9",
"4X c #FEF7EA",
"5X c #FEF7ED",
"6X c #FEF8ED",
"7X c #FEF8EE",
"8X c #FEF9F2",
"9X c #FEFBF5",
"0X c gray100",
/* pixels */
"6 & & : < 6 9 e e d h k b N A K Y R /  .O.$.2.e.",
"# X O @ # * : < q e p     v N S K Y W '  .$.2.q.",
"& O @ % * : 6 q e p   0X0X  V K Y W '  .$.2.5.a.",
": @ % & : < 6 q p   0X0X0X0X  Y W '  .$.<.7.w.c.",
"< % & : < q e p   0X0X0X0X0X0X  '  .*.<.5.0.u.x.",
"6 & : < q e p d       0X0X       .$.<.4.e.f.h.A.",
"8 ; < 9 e p f k v              .$.>.7.w.u.h.m.S.",
"e < 9 e     k v     . . . .     >.7.    j.m.M.G.",
"e q e   0X  v     . . . . . .     e.  0X  M.A.I.",
"d q   0X0X      . . .     . . .       0X0X  L.R.",
"h   0X0X0X0X0X  . .         . .   0X0X0X0X0X  E.",
"k   0X0X0X0X0X        0X0X  . .   0X0X0X0X0X  /.",
"v k   0X0X    0X0X0X0X0X    . .       0X0X  !.`.",
"m v m   0X  W     0X0X    . . .   A.  0X  !.).[.",
"V m V G     /  .@.      . . .     G.    !.).`. X",
"F m F Y R /  .@.-.5.  . . .     L.I.Y.!._.`. XOX",
"J F Y R /  .@.>.5.e.  . .     G.I.Y.!.).`.}.OX%X",
"R Y W / ' $.-.5.e.u.  . .   L.I.R.E.).`.}.OX$X;X",
"W R _  .@.-.5.0.u.g.        I.R.E.).`.}.OX$X=X,X",
"' _ ' $.$.2.0.i.g.c.  0X0X  R.E._.`.}.OX$X=X:X1X",
"O.' @.-.4.0.i.j.c.M.  . .   !.).`.}.OX$X%X;X1X4X",
"$.O.-.5.0.i.j.c.M.A.  . .   ).`.}. X$X=X:X1X4X5X",
"-.-.5.0.u.f.c.M.A.G.        `.}. X$X;X;X:X4X5X8X",
"w.0.u.g.c.M.A.G.L.Y.E.^.`.`. XOX$X;X:X1X4X5X8X9X"
};
