/* XPM */
static char *TJoystick[] = {
/* columns rows colors chars-per-pixel */
"24 24 208 2",
"   c #800000",
".  c #EE9403",
"X  c #EF9506",
"o  c #EF9507",
"O  c #EF960A",
"+  c #EF970A",
"@  c #EF970C",
"#  c #EF980E",
"$  c #EF990E",
"%  c #EF9810",
"&  c #EF9912",
"*  c #EF9A12",
"=  c #F09B15",
"-  c #F09B16",
";  c #F09C16",
":  c #F09C18",
">  c #F09D18",
",  c #F09D1A",
"<  c #F09D1B",
"1  c #F09E1A",
"2  c #F09E1B",
"3  c #F09D1C",
"4  c #F09E1C",
"5  c #F09F1E",
"6  c #F09F1F",
"7  c #F09F20",
"8  c #F0A01F",
"9  c #F0A020",
"0  c #F0A120",
"q  c #F1A124",
"w  c #F1A125",
"e  c #F0A224",
"r  c #F1A224",
"t  c #F1A328",
"y  c #F1A329",
"u  c #F1A32A",
"i  c #F1A429",
"p  c #F1A42A",
"a  c #F1A52F",
"s  c #F1A62C",
"d  c #F1A62D",
"f  c #F1A62E",
"g  c #F1A62F",
"h  c #F1A72F",
"j  c #F2A730",
"k  c #F2A732",
"l  c #F2A834",
"z  c #F2A934",
"x  c #F2A935",
"c  c #F2A836",
"v  c #F2A937",
"b  c #F2AA39",
"n  c #F2AB39",
"m  c #F2AA3A",
"M  c #F2AB3A",
"N  c #F2AB3B",
"B  c #F2AD3F",
"V  c #F3AD3F",
"C  c #F2AD40",
"Z  c #F3AD40",
"A  c #F3AD41",
"S  c #F2AE40",
"D  c #F3AE40",
"F  c #F3AE41",
"G  c #F3AF45",
"H  c #F3B044",
"J  c #F3B045",
"K  c #F3B046",
"L  c #F3B047",
"P  c #F3B249",
"I  c #F3B24A",
"U  c #F3B34B",
"Y  c #F3B24C",
"T  c #F3B34C",
"R  c #F3B34D",
"E  c #F4B34C",
"W  c #F4B550",
"Q  c #F4B551",
"!  c #F4B552",
"~  c #F4B652",
"^  c #F4B653",
"/  c #F4B756",
"(  c #F4B757",
")  c #F4B859",
"_  c #F5B95B",
"`  c #F5BA5D",
"'  c #F4BA5E",
"]  c #F5BB5F",
"[  c #F4BB60",
"{  c #F5BB60",
"}  c #F5BC63",
"|  c #F5BD63",
" . c #F5BD64",
".. c #F5BD66",
"X. c #F5BE65",
"o. c #F5BE66",
"O. c #F5BE67",
"+. c #F5BF6A",
"@. c #F6BF69",
"#. c #F5C06B",
"$. c #F5C06C",
"%. c #F5C16D",
"&. c #F6C06C",
"*. c #F6C16D",
"=. c #F6C26F",
"-. c #F5C370",
";. c #F6C270",
":. c #F6C271",
">. c #F6C371",
",. c #F6C372",
"<. c #F6C373",
"1. c #F5C474",
"2. c #F6C576",
"3. c #F6C577",
"4. c #F6C578",
"5. c #F6C679",
"6. c #F6C67A",
"7. c #F6C87E",
"8. c #F7C87E",
"9. c #F7C87F",
"0. c #F7C97F",
"q. c #808080",
"w. c #F6C880",
"e. c #F7C880",
"r. c #F7C980",
"t. c #F7C981",
"y. c #F7C982",
"u. c #F7CB83",
"i. c #F7CB84",
"p. c #F7CB85",
"a. c #F7CB86",
"s. c #F7CB87",
"d. c #F7CC86",
"f. c #F7CC87",
"g. c #F7CC88",
"h. c #F7CD8B",
"j. c #F7CE8C",
"k. c #F7CF8E",
"l. c #F8CE8C",
"z. c #F8CE8D",
"x. c #F8CF8D",
"c. c #F8D091",
"v. c #F8D092",
"b. c #F8D193",
"n. c #F8D194",
"m. c #F8D398",
"M. c #F8D499",
"N. c #F8D49A",
"B. c #F9D49A",
"V. c #F8D69F",
"C. c #F9D69E",
"Z. c #F8D7A1",
"A. c #F9D6A0",
"S. c #F9D7A0",
"D. c #F9D7A1",
"F. c #F9D8A5",
"G. c #F9D9A6",
"H. c #F9D9A7",
"J. c #F9DAA7",
"K. c #F9DBAA",
"L. c #F9DBAC",
"P. c #FADCAD",
"I. c #FADDB1",
"U. c #FADEB3",
"Y. c #FADFB3",
"T. c #FADFB4",
"R. c #FAE0B7",
"E. c #FAE1B8",
"W. c #FBE1B9",
"Q. c #FBE1BA",
"!. c #FBE3BC",
"~. c #FBE3BE",
"^. c #FBE4BF",
"/. c #C0C0C0",
"(. c #FBE5C2",
"). c #FBE6C4",
"_. c #FBE6C5",
"`. c #FBE7C7",
"'. c #FBE7C8",
"]. c #FCE9CA",
"[. c #FCE9CD",
"{. c #FCE9CE",
"}. c #FCEACF",
"|. c #FCEBCF",
" X c #FCECD2",
".X c #FCECD3",
"XX c #FCEDD5",
"oX c #FCEED6",
"OX c #FCEED7",
"+X c #FCEFD8",
"@X c #FDEFDA",
"#X c #FDF0DA",
"$X c #FDF0DC",
"%X c #FDF1DD",
"&X c #FDF2DF",
"*X c #FDF3E1",
"=X c #FDF3E2",
"-X c #FDF4E4",
";X c OldLace",
":X c #FEF6E8",
">X c #FEF7E9",
",X c #FEF7EA",
"<X c #FEF7ED",
"1X c #FEF8ED",
"2X c #FEF8EE",
"3X c #FEF9F2",
"4X c #FEFBF5",
"5X c gray100",
/* pixels */
"5 % % ; , 5 8 w w h j M M A L R ^ / ] { +.,.2.i.",
"@ . o + $ % ; , 0 w i j l M A L U ^ / { X.+.2.t.",
"% o + $ % , , 8 w i q.q.q.A L R / ) ] +.+.>.6.g.",
"; + $ % ; , 8 w i q./././.q.R ^ ) { X.+.2.8.t.h.",
", $ % ; , 0 w i h q.5X5X5Xq.^ ) ] X.+.>.6.t.d.n.",
"5 % ; , 0 w i h l q.5X/.q.q.) ] +.+.2.6.t.g.h.N.",
"7 - , 8 w i h l M q.5X/.q.q.] X.+.>.6.t.d.x.n.Z.",
"w , 8 w i h l M A q.5X/.q.q.X.+.>.6.t.d.l.b.N.G.",
"y 7 w y h z M A L q.5X/.q.q.+.<.6.0.d.l.n.C.D.P.",
"h 0 y h j M B G U q.5X/.q.q.,.6.t.d.h.n.N.V.G.I.",
"h y h l M A L U ^ q.q./.q.q.q.0.d.h.n.N.D.G.P.Q.",
"l h l M B L U q.q./.q.q.q././.q.q.b.N.V.G.P.R.!.",
"M j M A L q.q./././.q./.q././././.q.q.G.P.I.Q.(.",
"B M A q.q././././.q.q./.q.q.q./.  /./.q.q.Q.^.].",
"G A q./.5X/./././.q.5Xq.q.q.q.    q./././.q.).{.",
"U A q././.5X/./././.q.q.q./././././././.q.q.]. X",
"R U q./././.5X5X/./././././././././.q.q.q.q.{.#X",
"/ ^ q.q././././.5X5X/./././././.q.q.q.q.q.q..X%X",
") / q.q.q.q././././.5X5X5X/./.q.q.q.q.q.q..X#X-X",
"{ ] X.+.q.q.q.q./././././.q.q.q.q.q.q.q..X#X&X;X",
"X.{ +.,.6.8.q.q.q.q././.q.q.q.q.q.q. X.X%X%X-X>X",
"+.+.,.6.7.u.l.c.q.q.q.q.q.q.q.q.]. X.X#X-X-X:X1X",
",.,.6.7.i.l.c.m.C.G.q.q.q.q._.].{..X@X%X;X:X1X3X",
"e.e.i.h.c.m.V.F.K.I.R.~.(._.{..X@X%X*X;X:X1X3X4X"
};
