/* XPM */
static char *TGLPerlinPFXManager[] = {
/* columns rows colors chars-per-pixel */
"24 24 86 1",
"  c #000000",
". c #0981FA",
"X c #0C8CF4",
"o c #0B8BFC",
"O c #0F96F6",
"+ c #0E91FB",
"@ c #1195F6",
"# c #1193FC",
"$ c #1897FF",
"% c #1D9CFF",
"& c #24A1FF",
"* c #2AA5FF",
"= c #2EA9FF",
"- c #5DADFF",
"; c #61ADFE",
": c #69ACFA",
"> c #63B2FF",
", c #69B5FD",
"< c #6CB9FF",
"1 c #74C0FF",
"2 c #EF970B",
"3 c #EF980E",
"4 c #EF9911",
"5 c #F09B15",
"6 c #F09D1B",
"7 c #F09F20",
"8 c #F0A01F",
"9 c #F0A123",
"0 c #F1A42C",
"q c #F2A731",
"w c #F2A834",
"e c #F2AB3A",
"r c #F2AD41",
"t c #F3B045",
"y c #F3B24B",
"u c #F3B552",
"i c #F3B758",
"p c #F4B857",
"a c #F4B95C",
"s c #F4BC64",
"d c #F4BE6A",
"f c #F5C06C",
"g c #F5C372",
"h c #F5C579",
"j c #F6C87E",
"k c #808080",
"l c #91C4FF",
"z c #9ECCFF",
"x c #A2D0FF",
"c c #B1D0FF",
"v c #BAD8FF",
"b c #F6CA84",
"n c #F7CD8B",
"m c #F8CE8D",
"M c #F7D093",
"N c #F7D29A",
"B c #F8D093",
"V c #F8D49A",
"C c #F8D6A0",
"Z c #F9D9A6",
"A c #F9DBAC",
"S c #F7DDBB",
"D c #F9DDB3",
"F c #FAE2BB",
"G c #C0C6FF",
"H c #CEC8FF",
"J c #C2DEFF",
"K c #D1D2FD",
"L c #DFDFFF",
"P c #D0E1FF",
"I c #DFE2FF",
"U c #DAEDFF",
"Y c #FAE5C4",
"T c #FAE6C9",
"R c #FBE9CC",
"E c #FCECD3",
"W c #FCEFD9",
"Q c #FDF1DC",
"! c #E2E4FF",
"~ c #E6E9FF",
"^ c #EDEDFF",
"/ c #FDF4E3",
"( c #FEF6E9",
") c #FEF8ED",
"_ c #F2F2FF",
"` c #FEF9F3",
/* pixels */
"6444668900qeerryupasffgb",
"3  k3   6  kw yyy a fg b",
"4 2 4 699 q e yyu a  g n",
"5  k6  00  kr yaa f kk m",
"6 458 90q e r usa f h  B",
"6 588   w r y   f g jn V",
"7467900werryuaasdghbbmBC",
"967900werryu  kf   b B Z",
"06900weryyui s g bbm V A",
"0900werryuaa  kh  mBV ZD",
"000werryuaad ghj mBV Z F",
"e0werryuuasd hjb BVV A F",
"eweetyui@:o...+mBVCZADFT",
"eerryui@:+-zUo,+VVAADFFT",
"trtyupO+I<$J<_JoXZADFFTR",
"yryupsK#->K*<_<,+ADFFYRR",
"uyuuaO+>;&%J~&<^,+FFTRRQ",
"uyaaso>l:c<<x,xJ,.FYTRWQ",
"aaasdX#H*<1~,%>>ooYRRWW/",
"aadddho;,cI=<v#;oYTRWWQ/",
"ssddhhXol,$z<,_.OTRWWQ/(",
"ffghbbm.o-,P,,+XTREQQ/()",
"gfhjbmBNXo,++,@TREQQ//)`",
"bbbnBVVZADDSYTRRWQ//()``"
};
