/* XPM */
static char *TGLTexCombineShader[] = {
/* columns rows colors chars-per-pixel */
"24 24 237 2",
"   c navy",
".  c blue",
"X  c #800000",
"o  c red",
"O  c #808000",
"+  c #EE9403",
"@  c #EF9506",
"#  c #EF9507",
"$  c #EF960A",
"%  c #EF970A",
"&  c #EF970C",
"*  c #EF980E",
"=  c #EF990E",
"-  c #EF9810",
";  c #EF9912",
":  c #EF9A12",
">  c #F09B15",
",  c #F09B16",
"<  c #F09C16",
"1  c #F09C18",
"2  c #F09D18",
"3  c #F09D1A",
"4  c #F09D1B",
"5  c #F09E1A",
"6  c #F09E1B",
"7  c #F09D1C",
"8  c #F09E1C",
"9  c #F09F1E",
"0  c #F09F1F",
"q  c #F09F20",
"w  c #F0A01F",
"e  c #F0A020",
"r  c #F0A120",
"t  c #F1A124",
"y  c #F1A125",
"u  c #F0A224",
"i  c #F1A224",
"p  c #F1A328",
"a  c #F1A329",
"s  c #F1A32A",
"d  c #F1A429",
"f  c #F1A42A",
"g  c #F1A52F",
"h  c #F1A62C",
"j  c #F1A62D",
"k  c #F1A62E",
"l  c #F1A62F",
"z  c #F1A72F",
"x  c #F2A730",
"c  c #F2A732",
"v  c #F2A834",
"b  c #F2A934",
"n  c #F2A935",
"m  c #F2A836",
"M  c #F2A937",
"N  c #F2AA39",
"B  c #F2AB39",
"V  c #F2AA3A",
"C  c #F2AB3A",
"Z  c #F2AB3B",
"A  c #F2AD3F",
"S  c #F3AD3F",
"D  c #F2AD40",
"F  c #F3AD40",
"G  c #F2AE40",
"H  c #F3AE40",
"J  c #F3AE41",
"K  c #F3AF45",
"L  c #F3AF46",
"P  c #F3B044",
"I  c #F3B045",
"U  c #F3B046",
"Y  c #F3B047",
"T  c #F3B249",
"R  c #F3B24A",
"E  c #F3B24B",
"W  c #F3B34B",
"Q  c #F3B24C",
"!  c #F3B34C",
"~  c #F3B34D",
"^  c #F4B34C",
"/  c #F4B550",
"(  c #F4B551",
")  c #F4B552",
"_  c #F4B652",
"`  c #F4B653",
"'  c #F4B756",
"]  c #F4B757",
"[  c #F4B758",
"{  c #F4B857",
"}  c #F4B858",
"|  c #F4B859",
" . c #F5B95B",
".. c #F5BA5D",
"X. c #F4BA5E",
"o. c #F5BA5E",
"O. c #F5BA5F",
"+. c #F5BB5E",
"@. c #F5BB5F",
"#. c #F4BB60",
"$. c #F5BB60",
"%. c #F5BC63",
"&. c #F5BD63",
"*. c #F5BD64",
"=. c #F5BD65",
"-. c #F5BD66",
";. c #F5BE65",
":. c #F5BE66",
">. c #F5BE67",
",. c #F5BF6A",
"<. c #F6BF69",
"1. c yellow",
"2. c #F5C06A",
"3. c #F5C06B",
"4. c #F5C06C",
"5. c #F5C16D",
"6. c #F6C06C",
"7. c #F6C16D",
"8. c #F6C26F",
"9. c #F5C370",
"0. c #F5C372",
"q. c #F6C270",
"w. c #F6C271",
"e. c #F6C371",
"r. c #F6C372",
"t. c #F6C373",
"y. c #F5C474",
"u. c #F6C576",
"i. c #F6C577",
"p. c #F6C578",
"a. c #F6C678",
"s. c #F6C679",
"d. c #F6C67A",
"f. c #F6C87E",
"g. c #F7C87E",
"h. c #F7C87F",
"j. c #F6C880",
"k. c #F7C880",
"l. c #F7C980",
"z. c #F7C981",
"x. c #F7C982",
"c. c #F7CB83",
"v. c #F7CB84",
"b. c #F7CB85",
"n. c #F7CB86",
"m. c #F7CB87",
"M. c #F7CC86",
"N. c #F7CC87",
"B. c #F7CC88",
"V. c #F7CD8B",
"C. c #F7CE8C",
"Z. c #F7CF8E",
"A. c #F8CD8C",
"S. c #F8CE8C",
"D. c #F8CE8D",
"F. c #F8CF8D",
"G. c #F7D092",
"H. c #F7D192",
"J. c #F8D091",
"K. c #F8D092",
"L. c #F8D192",
"P. c #F8D193",
"I. c #F8D194",
"U. c #F8D398",
"Y. c #F8D399",
"T. c #F8D499",
"R. c #F8D49A",
"E. c #F9D49A",
"W. c #F8D69F",
"Q. c #F9D69E",
"!. c #F9D69F",
"~. c #F8D7A1",
"^. c #F9D6A0",
"/. c #F9D7A0",
"(. c #F9D7A1",
"). c #F9D8A5",
"_. c #F9D9A5",
"`. c #F9D9A6",
"'. c #F9D9A7",
"]. c #F9DAA7",
"[. c #F9DBAA",
"{. c #F9DBAC",
"}. c #FADBAC",
"|. c #FADCAB",
" X c #FADCAC",
".X c #FADCAD",
"XX c #FADDB1",
"oX c #FADEB2",
"OX c #FADEB3",
"+X c #FADFB3",
"@X c #FADFB4",
"#X c #FAE0B7",
"$X c #FAE1B8",
"%X c #FAE1B9",
"&X c #FBE1B8",
"*X c #FBE1B9",
"=X c #FBE1BA",
"-X c #FBE3BC",
";X c #FBE3BE",
":X c #FBE3BF",
">X c #FBE4BF",
",X c #FBE5C2",
"<X c #FBE6C4",
"1X c #FBE6C5",
"2X c #FBE7C7",
"3X c #FBE7C8",
"4X c #FCE8CA",
"5X c #FCE9CA",
"6X c #FCE9CD",
"7X c #FCE9CE",
"8X c #FCEACF",
"9X c #FCEBCF",
"0X c #FCEAD0",
"qX c #FCEBD0",
"wX c #FCECD2",
"eX c #FCECD3",
"rX c #FCEDD5",
"tX c #FCEED6",
"yX c #FCEED7",
"uX c #FCEFD8",
"iX c #FDEFDA",
"pX c #FDF0DA",
"aX c #FDF0DC",
"sX c #FDF1DD",
"dX c #FDF2DF",
"fX c #FDF3E1",
"gX c #FDF3E2",
"hX c #FDF4E4",
"jX c OldLace",
"kX c #FEF6E8",
"lX c #FEF7E9",
"zX c #FEF7EA",
"xX c #FEF7ED",
"cX c #FEF8ED",
"vX c #FEF8EE",
"bX c #FEF9F2",
"nX c #FEFBF5",
/* pixels */
"9 - - < 3 9 w y y z x m Z J U ! ` ] o.:.,.4.i.h.",
"& + # % = - < 3 r y d z m Z J U W ` { o.:.4.i.h.",
"- # % = - 3 3 w y d x m Z J U ~ ] [ o.,.4.i.p.M.",
"< % = - < 3 w y d z m Z J U ~ ` [ @.:.4.u.i.h.P.",
"3 = - < 3 r y d z v Z J U ~ ` [ o.:.4.q.p.h.c.I.",
"9 - < 3 r y d z . . . . ~ ` [ @.,.4.i.p.h.C.S.Q.",
"q , 3 w y d . . .     . . [ #.:.1.1.1.h.C.S.I.!.",
"y 3 w y d . .     U ~   . . :.1.1.O O c.S.P.U.[.",
"p 9 y p z     Z U W ` [   . . 1.O h.M.S.I.Q.!. X",
"z y p z m Z J U W ` [ o.:.  . . O M.S.I.T.!.).oX",
"z p z v Z Z U ~ ` [ o.:.4.1.  . M.S.I.T.!.). X%X",
"v z v Z J U o o o o o 3.1.1.O . . I.T.!.[. X+X,X",
"Z m Z Z K o o X X o o o o O O   . . Q.).|.#X=X,X",
"Z Z J U ~ X X o.:.X X o o o S.P.  . . |.oX=X;X5X",
"L S L Q ` ] o.:.3.q.p.X X o o T.Q.    #X=X;X<X7X",
"U U R ` { 1.1.3.0.p.1.1.O X o o _.|.#X*X;X<X7XqX",
"` R ` { o.O O 1.1.1.1.O P.U.X X o o %X:X2X5X9XyX",
"{ ! [ @.:.3.q.O O O O I.T.Q.). XX X o 2X5X7XtXsX",
"[ [ o.#.3.0.p.h.c.V.I.T.!.). X+X%X:X,X5XqXtXyXhX",
"#.#.:.3.q.i.g.M.C.P.T.!.). X+X%X;X2X5X9XrXyXfXhX",
":.:.4.q.i.g.b.S.P.U.Q.). XoX%X>X2X5XqXyXsXfXhXzX",
"4.,.q.p.g.M.A.P.U.Q.). XoX%X>X<X5XqXrXyXsXhXjXvX",
"q.q.p.h.c.S.P.I.Q.).[.oX%X:X<X5X7XrXsXsXhXjXvXbX",
"h.h.c.V.P.U.!.).[.oX#X:X,X2X7XrXrXsXfXhXzXvXbXnX"
};
