/* XPM */
static char *TGLTexturedHDS[] = {
/* columns rows colors chars-per-pixel */
"24 24 214 2",
"   c black",
".  c #EF960A",
"X  c #EF970C",
"o  c #EF980E",
"O  c #EF990E",
"+  c #EF9810",
"@  c #EF9912",
"#  c #EF9A12",
"$  c #F09B15",
"%  c #F09C16",
"&  c #F09C18",
"*  c #F09D18",
"=  c #F09D1B",
"-  c #F09D1C",
";  c #F09E1C",
":  c #F09F1E",
">  c #F0A01F",
",  c #F0A020",
"<  c #F0A120",
"1  c #F1A124",
"2  c #F1A125",
"3  c #F0A224",
"4  c #F1A224",
"5  c #F1A328",
"6  c #F1A329",
"7  c #F1A429",
"8  c #F1A52F",
"9  c #F1A62C",
"0  c #F1A62D",
"q  c #F1A62E",
"w  c #F1A62F",
"e  c #F2A730",
"r  c #F2A732",
"t  c #F2A834",
"y  c #F2A934",
"u  c #F2A935",
"i  c #F2A836",
"p  c #F2A937",
"a  c #F2AA39",
"s  c #F2AB39",
"d  c #F2AA3A",
"f  c #F2AB3A",
"g  c #F2AB3B",
"h  c #F2AD3F",
"j  c #F3AD3F",
"k  c #F2AD40",
"l  c #F3AD40",
"z  c #F2AE40",
"x  c #F3AE40",
"c  c #F3AE41",
"v  c #F3AF45",
"b  c #F3AF46",
"n  c #F3B044",
"m  c #F3B045",
"M  c #F3B046",
"N  c #F3B047",
"B  c #F3B249",
"V  c #F3B24B",
"C  c #F3B34B",
"Z  c #F3B24C",
"A  c #F3B34C",
"S  c #F3B34D",
"D  c #F4B34C",
"F  c #F3B551",
"G  c #F4B551",
"H  c #F4B552",
"J  c #F4B756",
"K  c #F4B757",
"L  c #F4B758",
"P  c #F4B857",
"I  c #F4B858",
"U  c #F4B859",
"Y  c #F5B95B",
"T  c #F5BA5D",
"R  c #F4BA5E",
"E  c #F5BA5E",
"W  c #F5BA5F",
"Q  c #F5BB5E",
"!  c #F5BB5F",
"~  c #F4BB60",
"^  c #F5BB60",
"/  c #F5BC63",
"(  c #F5BD64",
")  c #F5BD65",
"_  c #F5BD66",
"`  c #F5BE65",
"'  c #F5BE66",
"]  c #F5BE67",
"[  c #F5BF6A",
"{  c #F6BF69",
"}  c #F5C06B",
"|  c #F5C06C",
" . c #F5C16D",
".. c #F6C16D",
"X. c #F6C26F",
"o. c #F5C370",
"O. c #F5C372",
"+. c #F6C270",
"@. c #F6C271",
"#. c #F6C371",
"$. c #F6C272",
"%. c #F6C372",
"&. c #F6C373",
"*. c #F5C474",
"=. c #F6C576",
"-. c #F6C577",
";. c #F6C578",
":. c #F6C579",
">. c #F6C678",
",. c #F6C679",
"<. c #F6C67A",
"1. c #F6C87E",
"2. c #F6C97F",
"3. c #F7C87E",
"4. c #F7C87F",
"5. c #F7C97F",
"6. c #808080",
"7. c #F6C880",
"8. c #F7C980",
"9. c #F7C981",
"0. c #F7C982",
"q. c #F7CB83",
"w. c #F7CB84",
"e. c #F7CB85",
"r. c #F7CB86",
"t. c #F7CB87",
"y. c #F7CC86",
"u. c #F7CC87",
"i. c #F7CC88",
"p. c #F7CD8B",
"a. c #F7CE8C",
"s. c #F7CF8E",
"d. c #F8CD8C",
"f. c #F8CE8C",
"g. c #F8CE8D",
"h. c #F8CF8D",
"j. c #F8D091",
"k. c #F8D092",
"l. c #F8D192",
"z. c #F8D193",
"x. c #F8D194",
"c. c #F8D398",
"v. c #F8D399",
"b. c #F8D39A",
"n. c #F8D499",
"m. c #F8D49A",
"M. c #F9D49A",
"N. c #F8D69F",
"B. c #F9D69E",
"V. c #F9D69F",
"C. c #F8D7A1",
"Z. c #F9D6A0",
"A. c #F9D7A0",
"S. c #F9D7A1",
"D. c #F9D8A5",
"F. c #F9D9A6",
"G. c #F9D9A7",
"H. c #F9DAA7",
"J. c #F9DBAA",
"K. c #F9DBAC",
"L. c #FADBAC",
"P. c #FADCAB",
"I. c #FADCAC",
"U. c #FADCAD",
"Y. c #FADDB1",
"T. c #FADEB2",
"R. c #FADEB3",
"E. c #FADFB3",
"W. c #FADFB4",
"Q. c #FAE0B7",
"!. c #FAE1B8",
"~. c #FAE1B9",
"^. c #FBE1B8",
"/. c #FBE1B9",
"(. c #FBE1BA",
"). c #FBE3BC",
"_. c #FBE3BE",
"`. c #FBE3BF",
"'. c #FBE4BF",
"]. c #FBE5C2",
"[. c #FBE6C4",
"{. c #FBE6C5",
"}. c #FBE7C7",
"|. c #FBE7C8",
" X c #FCE8CA",
".X c #FCE9CA",
"XX c #FCE9CD",
"oX c #FCE9CE",
"OX c #FCEACF",
"+X c #FCEBCF",
"@X c #FCEBD0",
"#X c #FCECD2",
"$X c #FCECD3",
"%X c #FCEDD5",
"&X c #FCEED6",
"*X c #FCEED7",
"=X c #FCEFD8",
"-X c #FDEFDA",
";X c #FDF0DA",
":X c #FDF0DC",
">X c #FDF1DD",
",X c #FDF2DF",
"<X c #FDF3E1",
"1X c #FDF3E2",
"2X c #FDF4E4",
"3X c OldLace",
"4X c #FEF6E8",
"5X c #FEF7E9",
"6X c #FEF7EA",
"7X c #FEF7ED",
"8X c #FEF8ED",
"9X c #FEF8EE",
"0X c #FEF9F2",
"qX c #FEFBF5",
/* pixels */
": + + % = : > 4 2 q y y g c N D H I Q / [ X.-.0.",
"X     . O     =         6.g c 6.        ` [ &.5.",
"+     O +     >           6.N           X.-.<.p.",
"%     + %     1     y g     S     / [ [ &.,.9.f.",
"=             7     f c     H         6.,.5.p.x.",
":             w     c N     U 6.        9.y.h.b.",
">     > 1     y     N S     ! ` [ &.    y.h.l.A.",
"1     1 7     f           6.`         6.f.l.b.G.",
"6     6 w     c         6.[ [         6.x.b.S.P.",
"7 1 7 w y f c N N H L Q ` [ &.<.9.y.f.x.b.S.H.E.",
"y 6 w y f g N N J U Q ` [ &.<.5.y.f.l.b.S.H.L.Q.",
"y w y f c N S H U Q ` [ &.<.5.r.h.l.b.V.H.L.Q.`.",
"f y f c N S F I ^ ` [ #.<.5.r.p.l.b.S.H.L.R./.[.",
"g f c b N H U Q ` [ &.-.5.r.f.l.b.A.H.L.R./.`.|.",
"N g b N H L Q ` [ &.<.5.r.f.l.b.V.G.L.E./.].[.XX",
"C N N J I Q / [ &.<.5.r.f.l.b.Z.G.L.R./.`.[..X&X",
"          `   &.          b.  G.    /.`.    +X*X",
"J   U   ` [   -.  y.  l.  B.  I.  !.  ].  #X&X>X",
"U   Q     &.<.  y.p.  b.  G.  R.    [..X    *X2X",
"/   `   &.-.  w.  l.  B.  P.  /.  [.  #X  *X<X2X",
"`   [         f.  b.  G.      `.  .X  *X      6X",
"[ [ &.-.5.r.p.l.x.B.G.I.R.!.`.[..X#X&X*X<X2X6X9X",
"#.&.<.3.r.a.l.x.B.G.P.R.!.`.[..XXX&X>X>X2X2X9X0X",
"0.5.r.a.l.x.Z.G.J.R.W.`.].}.XX#X&X>X<X2X6X9X0XqX"
};
