/* XPM */
static char *TGLTimeEventsMGR[] = {
/* columns rows colors chars-per-pixel */
"24 24 199 2",
"   c black",
".  c #800000",
"X  c #CE4300",
"o  c #EE9403",
"O  c #EF9506",
"+  c #EF9507",
"@  c #EF960A",
"#  c #EF970A",
"$  c #EF970C",
"%  c #EF980E",
"&  c #EF990E",
"*  c #EF9810",
"=  c #EF9912",
"-  c #EF9A12",
";  c #F09B15",
":  c #F09B16",
">  c #F09C16",
",  c #F09C18",
"<  c #F09D18",
"1  c #F09D1A",
"2  c #F09D1B",
"3  c #F09E1A",
"4  c #F09E1B",
"5  c #F09D1C",
"6  c #F09E1C",
"7  c #F09F1E",
"8  c #F09F1F",
"9  c #F09F20",
"0  c #F0A01F",
"q  c #F0A020",
"w  c #F0A120",
"e  c #F1A124",
"r  c #F1A125",
"t  c #F0A224",
"y  c #F1A224",
"u  c #F1A328",
"i  c #F1A329",
"p  c #F1A32A",
"a  c #F1A429",
"s  c #F1A52F",
"d  c #F1A62C",
"f  c #F1A62D",
"g  c #F1A62E",
"h  c #F1A62F",
"j  c #F1A72F",
"k  c #F2A730",
"l  c #F2A834",
"z  c #F2A934",
"x  c #F2A836",
"c  c #F2AA39",
"v  c #F2AB39",
"b  c #F2AA3A",
"n  c #F2AB3A",
"m  c #F2AD3F",
"M  c #F3AD3F",
"N  c #F2AD40",
"B  c #F3AD40",
"V  c #F2AE40",
"C  c #F3AF45",
"Z  c #F3AF46",
"A  c #F3B044",
"S  c #F3B045",
"D  c #F3B046",
"F  c #F3B249",
"G  c #F3B24A",
"H  c #F3B24B",
"J  c #F3B24C",
"K  c #F3B34C",
"L  c #F4B34C",
"P  c #F3B551",
"I  c #F4B550",
"U  c #F4B551",
"Y  c #F4B552",
"T  c #F4B652",
"R  c #F4B757",
"E  c #F4B758",
"W  c #F4B857",
"Q  c #F4B859",
"!  c #F5BA5D",
"~  c #F4BA5E",
"^  c #F5BA5E",
"/  c #F5BA5F",
"(  c #F5BB5F",
")  c #F4BB60",
"_  c #F5BB60",
"`  c #F5BC63",
"'  c #F5BD63",
"]  c #F5BD64",
"[  c #F5BD66",
"{  c #F5BE66",
"}  c #F5BF6A",
"|  c #F6BF69",
" . c #F5C06B",
".. c #F5C06C",
"X. c #F5C16D",
"o. c #F6C06C",
"O. c #F6C16D",
"+. c #F6C26F",
"@. c #F6C271",
"#. c #F6C371",
"$. c #F6C372",
"%. c #F6C373",
"&. c #F5C474",
"*. c #F6C576",
"=. c #F6C577",
"-. c #F6C578",
";. c #F6C679",
":. c #F6C67A",
">. c #F7C87E",
",. c #F7C87F",
"<. c #808080",
"1. c #F6C880",
"2. c #F7C880",
"3. c #F7C980",
"4. c #F7C981",
"5. c #F7C982",
"6. c #F7CB83",
"7. c #F7CB84",
"8. c #F7CB85",
"9. c #F7CB86",
"0. c #F7CB87",
"q. c #F7CC86",
"w. c #F7CC87",
"e. c #F7CC88",
"r. c #F7CE8C",
"t. c #F7CF8E",
"y. c #F8CD8C",
"u. c #F8CE8C",
"i. c #F8CE8D",
"p. c #F8CF8D",
"a. c #F7D192",
"s. c #F8D091",
"d. c #F8D092",
"f. c #F8D192",
"g. c #F8D193",
"h. c #F8D194",
"j. c #F8D398",
"k. c #F8D499",
"l. c #F8D49A",
"z. c #F9D49A",
"x. c #F8D69F",
"c. c #F9D69F",
"v. c #F8D7A1",
"b. c #F9D6A0",
"n. c #F9D7A0",
"m. c #F9D7A1",
"M. c #F9D8A5",
"N. c #F9D9A6",
"B. c #F9D9A7",
"V. c #F9DAA7",
"C. c #F9DBAA",
"Z. c #F9DBAC",
"A. c #FADBAC",
"S. c #FADCAC",
"D. c #FADCAD",
"F. c #FADDB1",
"G. c #FADEB2",
"H. c #FADEB3",
"J. c #FADFB3",
"K. c #FADFB4",
"L. c #FAE0B7",
"P. c #FAE1B8",
"I. c #FBE1B9",
"U. c #FBE1BA",
"Y. c #FBE3BC",
"T. c #FBE3BE",
"R. c #FBE3BF",
"E. c #FBE4BF",
"W. c #FBE5C2",
"Q. c #FBE6C4",
"!. c #FBE6C5",
"~. c #FBE7C7",
"^. c #FBE7C8",
"/. c #FCE8CA",
"(. c #FCE9CA",
"). c #FCE9CD",
"_. c #FCE9CE",
"`. c #FCEACF",
"'. c #FCEBCF",
"]. c #FCEAD0",
"[. c #FCEBD0",
"{. c #FCECD2",
"}. c #FCECD3",
"|. c #FCEDD5",
" X c #FCEED7",
".X c #FCEFD8",
"XX c #FDEFDA",
"oX c #FDF0DA",
"OX c #FDF0DC",
"+X c #FDF2DF",
"@X c #FDF3E1",
"#X c #FDF3E2",
"$X c #FDF4E4",
"%X c OldLace",
"&X c #FEF6E8",
"*X c #FEF7E9",
"=X c #FEF8ED",
"-X c #FEF9F2",
";X c #FEFBF5",
/* pixels */
"7 * * > 1 7 0 r r j X X X X X L T E / ' } O.=.5.",
"$ o + # & * > 1 w X X X X X X . K T Q ) ' O.*.5.",
"* + # & * 1 1 0 r X . d.d.d.X X . Q ' ' O.=.-.e.",
"> # & * > 1 0 r X X d.d.d.d.d.X . ) ' O.*.-.5.r.",
"1 & * > 1 w r a X . d.d.d.d.d.  . ' O.#.-.5.8.d.",
"7 * > 1 w r a j X . d.d.d.d.d.  . O.=.-.5.e.p.c.",
"9 : 1 0 r a j l X . d.d.d.d.<.<.. #.:.5.8.p.g.n.",
"r 1 0 r a j l n X . d.d.d.d.  <.. :.5.8.p.d.j.B.",
"i 9 r i j l n N X . d.d.d.<.  d.. 5.w.p.g.c.n.S.",
"j w i j l n m X X d.d.d.d.  d.d.X . y.g.j.x.B.H.",
"j i j l n m D X . d.d.<.  <.d.d.X . g.j.m.V.A.U.",
"l j l n N C K X X X X X X X X X X . j.x.V.A.K.E.",
"n k n N D K P X X X X X X X X X X . n.B.A.H.U.Q.",
"M n B Z H Y X X X X X X X X X X X X . A.H.U.E.^.",
"Z M Z L Y E X X X X X X X X X X X X . J.U.E.Q.`.",
"C Z J Y W / . . . . . . . . . . . . . U.E.Q.(.{.",
"Y J Y W / '  .#.-.,.8.p.d.j.x.B.S.G.U.E.Q.(.).oX",
"      /    .  -.      d.  c.B.  G.      (.{.    ",
"  W / '   #.  ,.  r.d.j.    S.  P.E.  (.`.  oX#X",
"    '  .  =.  8.    j.c.    J.  E.Q.  ).|.oX  %X",
"  '  .#.  ,.  y.  h.x.B.  G.    Q.(.  |.oX+X%X  ",
"  } #.-.  8.  d.  c.C.S.  P.    (.`.  oX+X%X%X  ",
"      ,.8.  d.h.      G.  R.Q.  {.|.  +X%X    -X",
"5.,.8.r.d.j.x.B.C.G.L.R.Q.Q.).{. XoX#X%X%X=X-X;X"
};
