/* XPM */
static char *TGLWideBitmapFont[] = {
/* columns rows colors chars-per-pixel */
"24 24 225 2",
"   c black",
".  c #020201",
"X  c #040303",
"o  c #251F16",
"O  c #2E2517",
"+  c #362D1D",
"@  c #5F5038",
"#  c navy",
"$  c blue",
"%  c #008000",
"&  c green",
"*  c #800000",
"=  c red",
"-  c #EE9403",
";  c #EF970C",
":  c #EF9810",
">  c #EF9912",
",  c #EF9A12",
"<  c #F09B15",
"1  c #F09B16",
"2  c #F09C16",
"3  c #F09C18",
"4  c #F09D18",
"5  c #F09D1B",
"6  c #F09E1B",
"7  c #F09D1C",
"8  c #F09E1C",
"9  c #F09F1E",
"0  c #F09F20",
"q  c #F0A01F",
"w  c #F0A020",
"e  c #F0A120",
"r  c #F1A124",
"t  c #F1A125",
"y  c #F0A224",
"u  c #F1A224",
"i  c #F1A328",
"p  c #F1A329",
"a  c #F1A429",
"s  c #F1A42A",
"d  c #F1A52F",
"f  c #F1A62C",
"g  c #F1A62D",
"h  c #F1A62E",
"j  c #F1A62F",
"k  c #F2A730",
"l  c #F2A732",
"z  c #F2A834",
"x  c #F2A934",
"c  c #F2A935",
"v  c #F2A836",
"b  c #F2A937",
"n  c #F2AA39",
"m  c #F2AB39",
"M  c #F2AA3A",
"N  c #F2AB3A",
"B  c #F2AB3B",
"V  c #F3AD3F",
"C  c #F2AD40",
"Z  c #F3AD40",
"A  c #F3AD41",
"S  c #F2AE40",
"D  c #F3AE40",
"F  c #F3AE41",
"G  c #F3AF45",
"H  c #F3AF46",
"J  c #F3B044",
"K  c #F3B045",
"L  c #F3B046",
"P  c #F3B047",
"I  c #F3B249",
"U  c #F3B24A",
"Y  c #F3B24B",
"T  c #F3B34B",
"R  c #F3B24C",
"E  c #F3B34C",
"W  c #F3B34D",
"Q  c #F4B34C",
"!  c #F3B551",
"~  c #F4B550",
"^  c #F4B551",
"/  c #F4B552",
"(  c #F4B553",
")  c #F4B652",
"_  c #F4B653",
"`  c #F4B756",
"'  c #F4B757",
"]  c #F4B758",
"[  c #F4B857",
"{  c #F4B858",
"}  c #F4B859",
"|  c #F5B95B",
" . c #F5BA5D",
".. c #F4BA5E",
"X. c #F5BA5E",
"o. c #F5BA5F",
"O. c #F5BB5E",
"+. c #F5BB5F",
"@. c #F5BB60",
"#. c #F5BC63",
"$. c #F5BD63",
"%. c #F5BD64",
"&. c #F5BD65",
"*. c #F5BD66",
"=. c #F5BE65",
"-. c #F5BE66",
";. c #F5BE67",
":. c #F5BF6A",
">. c #F6BF69",
",. c #F5C06A",
"<. c #F5C06B",
"1. c #F5C06C",
"2. c #F6C16D",
"3. c #F6C26F",
"4. c #F5C370",
"5. c #F5C372",
"6. c #F6C270",
"7. c #F6C271",
"8. c #F6C371",
"9. c #F6C272",
"0. c #F6C372",
"q. c #F6C373",
"w. c #F6C576",
"e. c #F6C577",
"r. c #F2C67D",
"t. c #F6C578",
"y. c #F6C579",
"u. c #F6C679",
"i. c #F6C87E",
"p. c #F7C87E",
"a. c #F7C87F",
"s. c #F7C97F",
"d. c #808080",
"f. c #E0BE89",
"g. c #E0BE8B",
"h. c #F6C880",
"j. c #F7C980",
"k. c #F7C982",
"l. c #F7CB83",
"z. c #F7CB84",
"x. c #F7CB85",
"c. c #F7CB86",
"v. c #F7CC86",
"b. c #F7CC87",
"n. c #F7CC88",
"m. c #F7CD8B",
"M. c #F7CE8C",
"N. c #F7CF8E",
"B. c #F8CE8C",
"V. c #F8CE8D",
"C. c #F7D092",
"Z. c #F8D091",
"A. c #F8D092",
"S. c #F8D192",
"D. c #F8D193",
"F. c #F8D194",
"G. c #F8D398",
"H. c #F8D399",
"J. c #F8D499",
"K. c #F8D49A",
"L. c #F8D69F",
"P. c #F9D69E",
"I. c #F9D69F",
"U. c #F8D7A1",
"Y. c #F9D6A0",
"T. c #F9D7A0",
"R. c #F9D7A1",
"E. c #F9D8A5",
"W. c #F9D9A6",
"Q. c #F9D9A7",
"!. c #F9DAA7",
"~. c #F9DBAA",
"^. c #F9DBAC",
"/. c #FADBAC",
"(. c #FADCAB",
"). c #FADCAC",
"_. c #FADCAD",
"`. c #FADDB1",
"'. c #FADEB2",
"]. c #FADEB3",
"[. c #FADFB3",
"{. c #FADFB4",
"}. c #FAE0B7",
"|. c #FAE1B8",
" X c #FAE1B9",
".X c #FBE1B8",
"XX c #FBE1B9",
"oX c #FBE1BA",
"OX c #FBE3BC",
"+X c #FBE3BE",
"@X c #FBE3BF",
"#X c #FBE4BF",
"$X c #FBE5C2",
"%X c #FBE6C4",
"&X c #FBE6C5",
"*X c #FBE7C7",
"=X c #FBE7C8",
"-X c #FCE9CA",
";X c #FCE9CD",
":X c #FCE9CE",
">X c #FCEBCF",
",X c #FCEBD0",
"<X c #FCECD2",
"1X c #FCECD3",
"2X c #FCEDD5",
"3X c #FCEED6",
"4X c #FCEED7",
"5X c #FCEFD8",
"6X c #FDEFDA",
"7X c #FDF0DA",
"8X c #FDF0DC",
"9X c #FDF1DD",
"0X c #FDF2DF",
"qX c #FDF3E1",
"wX c #FDF3E2",
"eX c #FDF4E4",
"rX c OldLace",
"tX c #FEF6E8",
"yX c #FEF7E9",
"uX c #FEF7EA",
"iX c #FEF7ED",
"pX c #FEF8ED",
"aX c #FEF8EE",
"sX c #FEF9F2",
"dX c #FEFBF5",
/* pixels */
"9 : : 2 4 9 q r s j l x B F I R _ _ X.-.>.2.q.b.",
"; - # # # $ 2 4 q r * * * = F H U _ % % % & q.k.",
": # # # # # $ q r * * * * * = R _ % % % % % & n.",
"2 # $ : 2 # $ r s * = B F * = _ } % & 2.q.% & M.",
"4 # $ 2 4 # $ s j * = F P * = } +.% & 9.u.% & F.",
"9 # # # # # $ j x * * * * * = @.-.% % % % % & L.",
"w # $ q r # $ x B * = T _ * = -.2.% & k.n.% & I.",
"r # $ r s # $ N F * = _ } * = 1.9.% & c.M.% & Q.",
"s # $ s j # $ F P * = } X.* = q.u.% & V.F.% & _.",
"j w s j x N V H I _ ] X.-.1.q.u.s.b.V.F.K.R.Q.].",
"j s j l B V H R _ } X.-.1.9.u.s.c.M.D.G.R.Q._.}.",
"x j l B V P U _ ] X.-.:.9.u.s.c.V.D.K.R.Q._._.#X",
"N l N   H U _   X.  1.  O s.c.      R.Q._.{.}.%X",
"V B V   U _ '   -.  9.  r.+ M.  g.R.Q._.].}.#X=X",
"H V H   _ d.+.  >.  u.  b.  D.      _.{.OX#X%X;X",
"U H U   '   -.  q.  s.  M.@ J.  g._.].}.#X%X-X2X",
"W T _ d.  d.  d.q.  b.  o f.I.      }.#X%X-X;X4X",
"' _ ' +.@.1.q.u.s.b.M.D.J.L.E._.{.}.#X%X;X<X3X9X",
"} ' X.-.>.q.      M.d.  d.E.X ].}.  %X      4XeX",
"+.+.@.1.q.q.  b.M.D.  I.  (.    #X  -X<X  4X0XrX",
":.@.:.9.u.s.    Z.G.  E.  [.  d.d.  <X4X  0XeXpX",
"1.:.9.u.s.c.  D.G.L.  ).  |.  %X    2X4X  eXyXpX",
"q.1.u.s.l.m.  G.L.E.d.  }.#X  -X>X  9X0X  yXpXsX",
"k.s.l.m.D.G.L.E.~.[.|.OX#X-X;X<X2X9X0XeXyXpXsXdX"
};
