/* XPM */
static char *TSDLWindow[] = {
/* columns rows colors chars-per-pixel */
"24 24 230 2",
"   c black",
".  c #004080",
"X  c #EE9403",
"o  c #EF9506",
"O  c #EF9507",
"+  c #EF960A",
"@  c #EF970A",
"#  c #EF970C",
"$  c #EF980E",
"%  c #EF990E",
"&  c #EF9810",
"*  c #EF9912",
"=  c #EF9A12",
"-  c #F09B15",
";  c #F09B16",
":  c #F09C16",
">  c #F09C18",
",  c #F09D18",
"<  c #F09D1A",
"1  c #F09D1B",
"2  c #F09E1A",
"3  c #F09E1B",
"4  c #F09D1C",
"5  c #F09E1C",
"6  c #F09F1E",
"7  c #F09F1F",
"8  c #F09F20",
"9  c #F0A01F",
"0  c #F0A020",
"q  c #F0A120",
"w  c #F1A124",
"e  c #F1A125",
"r  c #F0A224",
"t  c #F1A328",
"y  c #F1A329",
"u  c #F1A429",
"i  c #F1A42A",
"p  c #F1A62C",
"a  c #F1A62D",
"s  c #F1A62E",
"d  c #F1A62F",
"f  c #F1A72F",
"g  c #F2A730",
"h  c #F2A732",
"j  c #F2A834",
"k  c #F2A934",
"l  c #F2A935",
"z  c #F2A836",
"x  c #F2A937",
"c  c #F2AA39",
"v  c #F2AB39",
"b  c #F2AB3A",
"n  c #F2AB3B",
"m  c #F3AD3F",
"M  c #F2AD40",
"N  c #F3AD40",
"B  c #F3AD41",
"V  c #F2AE40",
"C  c #F3AE40",
"Z  c #F3AE41",
"A  c #F3AF45",
"S  c #F3AF46",
"D  c #F3B044",
"F  c #F3B045",
"G  c #F3B046",
"H  c #F3B047",
"J  c #F3B249",
"K  c #F3B24A",
"L  c #F3B24B",
"P  c #F3B34B",
"I  c #F3B24C",
"U  c #F3B34C",
"Y  c #F3B34D",
"T  c #F4B34C",
"R  c #F4B550",
"E  c #F4B551",
"W  c #F4B552",
"Q  c #F4B652",
"!  c #F4B653",
"~  c #F4B756",
"^  c #F4B757",
"/  c #F4B758",
"(  c #F4B857",
")  c #F4B858",
"_  c #F4B859",
"`  c #F5B95B",
"'  c #F5BA5D",
"]  c #F4BA5E",
"[  c #F5BA5E",
"{  c #F5BA5F",
"}  c #F5BB5E",
"|  c #F5BB5F",
" . c #F4BB60",
".. c #F5BB60",
"X. c #F5BC63",
"o. c #F5BD63",
"O. c #F5BD64",
"+. c #F5BD65",
"@. c #F5BD66",
"#. c #F5BE66",
"$. c #F5BE67",
"%. c #F5BF6A",
"&. c #F6BF69",
"*. c #F5C06A",
"=. c #F5C06B",
"-. c #F5C06C",
";. c #F5C16D",
":. c #F6C06C",
">. c #F6C16D",
",. c #F6C26F",
"<. c #F5C370",
"1. c #F5C372",
"2. c #F6C270",
"3. c #F6C271",
"4. c #F6C371",
"5. c #F6C272",
"6. c #F6C372",
"7. c #F6C373",
"8. c #F5C474",
"9. c #F6C576",
"0. c #F6C577",
"q. c #F6C578",
"w. c #F6C678",
"e. c #F6C679",
"r. c #F6C67A",
"t. c #F6C87E",
"y. c #F6C97F",
"u. c #F7C87E",
"i. c #F7C87F",
"p. c #F7C97F",
"a. c #808080",
"s. c #F6C880",
"d. c #F7C880",
"f. c #F7C980",
"g. c #F7C981",
"h. c #F7C982",
"j. c #F7CB83",
"k. c #F7CB84",
"l. c #F7CB85",
"z. c #F7CB86",
"x. c #F7CB87",
"c. c #F7CC86",
"v. c #F7CC87",
"b. c #F7CC88",
"n. c #F7CD8B",
"m. c #F7CE8C",
"M. c #F7CF8E",
"N. c #F8CD8C",
"B. c #F8CE8C",
"V. c #F8CE8D",
"C. c #F8CF8D",
"Z. c #F8D091",
"A. c #F8D092",
"S. c #F8D192",
"D. c #F8D193",
"F. c #F8D194",
"G. c #F8D398",
"H. c #F8D399",
"J. c #F8D39A",
"K. c #F8D499",
"L. c #F8D49A",
"P. c #F9D49A",
"I. c #F8D69F",
"U. c #F9D69E",
"Y. c #F9D69F",
"T. c #F8D7A1",
"R. c #F9D6A0",
"E. c #F9D7A0",
"W. c #F9D7A1",
"Q. c #F9D8A5",
"!. c #F9D9A6",
"~. c #F9D9A7",
"^. c #F9DAA7",
"/. c #F9DBAA",
"(. c #F9DBAC",
"). c #FADBAC",
"_. c #FADCAB",
"`. c #FADCAC",
"'. c #FADCAD",
"]. c #FADDB1",
"[. c #FADEB2",
"{. c #FADEB3",
"}. c #FADFB3",
"|. c #FADFB4",
" X c #FAE0B7",
".X c #FAE1B8",
"XX c #FAE1B9",
"oX c #FBE1B8",
"OX c #FBE1B9",
"+X c #FBE1BA",
"@X c #FBE3BC",
"#X c #FBE3BE",
"$X c #FBE3BF",
"%X c #FBE4BF",
"&X c #FBE5C2",
"*X c #FBE6C4",
"=X c #FBE6C5",
"-X c #FBE7C7",
";X c #FBE7C8",
":X c #FCE8CA",
">X c #FCE9CA",
",X c #FCE9CD",
"<X c #FCE9CE",
"1X c #FCEACF",
"2X c #FCEBCF",
"3X c #FCEAD0",
"4X c #FCEBD0",
"5X c #FCECD2",
"6X c #FCECD3",
"7X c #FCEDD5",
"8X c #FCEED6",
"9X c #FCEED7",
"0X c #FCEFD8",
"qX c #FDEFDA",
"wX c #FDF0DA",
"eX c #FDF0DC",
"rX c #FDF1DD",
"tX c #FDF2DF",
"yX c #FDF3E1",
"uX c #FDF3E2",
"iX c #FDF4E4",
"pX c OldLace",
"aX c #FEF6E8",
"sX c #FEF7E9",
"dX c #FEF7EA",
"fX c #FEF7ED",
"gX c #FEF8ED",
"hX c #FEF8EE",
"jX c #FEF9F2",
"kX c #FEFBF5",
/* pixels */
"6 & & : < 6 9 e e f g b b Z H Y ! ^ | X.&.:.0.f.",
"# X O @ % & : < 0 e u g j b Z H I ! ( | &.:.7.f.",
"& O @ % & < < 9 e u g j b Z H Y ! _ | &.:.4.r.b.",
": @ % & : < 9 e u f j n Z H Y ! _ { @.&.0.r.f.M.",
"< % & : 6 6 e u g g b Z H Y W / ..&.&.9.q.p.x.F.",
"6 & : a.. . . d j . . . a.W _ . . &.9.q.j.m.m.K.",
"8 ; < . . . . j b . . . . a.| . . 5.q.j.z.m.D.E.",
"e < 9 . . d j b Z . . ! . . @.. . q.p.z.m.D.H./.",
"e 9 e . . . a.n H . . / . . %.. . j.z.m.F.P.Y.).",
"f e u a.. . . A Y . . | . . 7.. . z.m.D.P.Y./.{.",
"f u g j n . . K ! . . @.. . r.. . m.D.H.Y.!.).|.",
"j d j . . . . ! ^ . . . . a.i.. . . . . /.).{.&X",
"n j n . . . a.^ | . . . a.i.z.. . . . . ).{.|.*X",
"n n C G K ! ( | @.:.5.q.i.l.m.D.H.Y./.).{.$X&X*X",
"A m G I ! ^ } @.%.7.q.p.z.m.D.K.Y.!.).{.OX$X*X2X",
"K G K ! ( | @.%.4.0.p.z.m.D.K.E.!.`.{.OX&X*X2X4X",
"Y K ! ^ | X.%.4.r.p.z.m.D.F.Y.!.`.{.OX$X*X>X4X0X",
"^ ! ( | X.%.4.r.  z.m.D.  I.  `.{.OX%X*X>X4X8XrX",
"_ ^ | @.%.4.0.i.  m.a.K.  !.a.{.    a.>X4X8XwXuX",
"} | X.%.4.0.i.z.  D.  E.  _.  OX  *X  2X8XwXrXpX",
"@.X.&.7.0.i.j.m.a.  a.  a.[.  %X  :X  8X0XuXuXdX",
":.&.7.0.i.z.m.D.H.I.Q.`.[. X%X*X>X2X8XwXuXuXdXfX",
",.7.0.u.j.m.D.F.I.Q.).[. X&X*X>X2X8X0XrXuXdXfXjX",
"f.i.z.m.D.K.I.Q./.[. X@X*X*X,X5X0XqXuXpXdXfXjXkX"
};
