/* XPM */
static char *TGLGameMenu[] = {
/* columns rows colors chars-per-pixel */
"16 16 8 1",
"  c black",
". c #0000C0",
"X c #008000",
"o c #00C000",
"O c green",
"+ c red",
"@ c magenta",
"# c yellow",
/* pixels */
"@@OOOOOOOOOOOO@@",
"@@OooooooooooX @",
"@@Oo+oo+++++oX @",
"@@Oo++oo###ooX @",
"@@OXXXXXXXXXXX @",
"@@@            @",
"@@@@@@@@@@@@@@@@",
"@@@@@......@@@@@",
"@@@@@@      @@@@",
"@@@@@@@@@@@@@@@@",
"@@.......@....@@",
"@@@       @    @",
"@@@@@@@@@@@@@@@@",
"@@@...@...@..@@@",
"@@@@   @   @  @@",
"@@@@@@@@@@@@@@@@"
};
