/* XPM */
static char *TGLHudText[] = {
/* columns rows colors chars-per-pixel */
"16 16 16 1",
"  c #040284",
". c #C4C2C4",
"X c #0402FC",
"o c #000077",
"O c #F3470C",
"+ c #990B00",
"@ c #833E00",
"# c #7C7700",
"$ c #186968",
"% c #9F0EF1",
"& c #803E17",
"* c #7C7700",
"= c #FF004A",
"- c #FF0002",
"; c #FF002D",
": c red",
/* pixels */
"................",
"................",
". . ....... ....",
". . ....... ....",
".   . . .X  ....",
". . . . . . ....",
". . .X X.X X....",
"................",
"................",
".   ......... ..",
".. ..X X.....  .",
".. .. X . . . ..",
".. .. .... .. ..",
".. ..X  . . .X  ",
"................",
"................"
};
