/* XPM */
static char *TGLHeightfield[] = {
/* columns rows colors chars-per-pixel */
"16 16 16 1",
"  c #040204",
". c #848284",
"X c #FCFEFC",
"o c #000077",
"O c #F34708",
"+ c #990B00",
"@ c #833E00",
"# c #7C7700",
"$ c #186968",
"% c #9F0EF1",
"& c #803E17",
"* c #7C7700",
"= c #FF004A",
"- c #FF0002",
"; c #FF002D",
": c red",
/* pixels */
"XXXXXXXXXXXXXXXX",
"XXXX XXXX    XXX",
"XXX   XXXXX XXXX",
"XXXX XXXXX XXXXX",
"XXXX XXXX    XXX",
"XXXX XXXXXXXXXXX",
"XXXX............",
"XXX.XX.XX.XX.XX.",
"XXX.............",
"XX.XX.XX.XX.XX.X",
"XX.............X",
"X.XX.XX.XX.XX.XX",
"X.............XX",
"XXXXXXXXXXXXXXXX",
"XXXXXXXXXXXXXXXX",
"XXXXXXXXXXXXXXXX"
};
