/* XPM */
static char *TGLParticleFXRenderer[] = {
/* columns rows colors chars-per-pixel */
"16 16 16 1",
"  c #040204",
". c #048204",
"X c #040284",
"o c #C4C2C4",
"O c #FC0204",
"+ c #FCFE04",
"@ c #0402FC",
"# c #FCFEFC",
"$ c #186968",
"% c #9F0EF1",
"& c #803E17",
"* c #7C7700",
"= c #FF004A",
"- c #FF0002",
"; c #FF002D",
": c red",
/* pixels */
"################",
"#  ##   # # ####",
"# o # ooo o o###",
"#  #o  ### #o###",
"# oo# oo# o ####",
"# o## o## o o###",
"##o###o###o#o###",
"################",
"#.####O#####@#O#",
"###X###@#+#X####",
"##@##.#######.##",
"#+######X#######",
"O#.###+##@#O##X#",
"####O###########",
"#X#@####.#X#+#O#",
"######+#########"
};
