/* XPM */
static char *TGLSphere[] = {
/* columns rows colors chars-per-pixel */
"16 16 87 1",
"  c gray5",
". c #101010",
"X c #131313",
"o c #161616",
"O c gray10",
"+ c #1D1D1D",
"@ c #202020",
"# c gray14",
"$ c gray15",
"% c gray19",
"& c #3A3A3A",
"* c gray23",
"= c gray25",
"- c gray26",
"; c #464646",
": c #494949",
"> c #4C4C4C",
", c #505050",
"< c gray32",
"1 c #5B5B5B",
"2 c gray36",
"3 c #5D5D5D",
"4 c #606060",
"5 c gray39",
"6 c #656565",
"7 c #6A6A6A",
"8 c #6D6D6D",
"9 c gray43",
"0 c #6F6F6F",
"q c gray45",
"w c gray46",
"e c #777777",
"r c #7B7B7B",
"t c gray49",
"y c #7E7E7E",
"u c gray50",
"i c gray51",
"p c #848484",
"a c gray52",
"s c gray53",
"d c #898989",
"f c gray54",
"g c gray55",
"h c gray56",
"j c gray58",
"k c gray60",
"l c #9A9A9A",
"z c gray62",
"x c gray64",
"c c gray65",
"v c gray67",
"b c #AEAEAE",
"n c #B1B1B1",
"m c #B4B4B4",
"M c gray71",
"N c #B7B7B7",
"B c gray72",
"V c #BBBBBB",
"C c #BCBCBC",
"Z c gray75",
"A c #C0C0C0",
"S c gray76",
"D c #C3C3C3",
"F c gray77",
"G c #C6C6C6",
"H c gray78",
"J c #C8C8C8",
"K c gray80",
"L c gray81",
"P c #D0D0D0",
"I c gray82",
"U c gray84",
"Y c #D8D8D8",
"T c gray85",
"R c #DADADA",
"E c #DDDDDD",
"W c gray87",
"Q c gray89",
"! c #E7E7E7",
"~ c #EAEAEA",
"^ c gray92",
"/ c #EEEEEE",
"( c #F1F1F1",
") c #F4F4F4",
"_ c #F8F8F8",
"` c #FBFBFB",
"' c gray100",
/* pixels */
"''''''''''''''''",
"''''~AvlfgK'''''",
"'''PAKCbly1a_'''",
"''RHKKHMly1*e'''",
"')CKW/Rbge1*XM''",
"'RVHW)Pxi7>$ 3W'",
"'RMVCAvfq1*@X*b'",
"'Uxbczfe4;$XX>x)",
"'Hajfyq1;%XX+3l~",
"'Q7886<-%XX@*yx(",
"''j>>-*$XX@44lc_",
"''_8$@X X@<rjlP'",
"''''yOXO$*8jlC''",
"'''''AfyiglzC_''",
"''''''(KVMH!''''",
"''''''''''''''''"
};
