/* XPM */
static char *TGLTree[] = {
/* columns rows colors chars-per-pixel */
"16 16 16 1",
"  c #040204",
". c #048204",
"X c #848284",
"o c #C4C2C4",
"O c #840204",
"+ c #848204",
"@ c #FCFEFC",
"# c #7C7700",
"$ c #186968",
"% c #9F0EF1",
"& c #803E17",
"* c #7C7700",
"= c #FF004A",
"- c #FF0002",
"; c #FF002D",
": c red",
/* pixels */
"@@o@XXXoXXoXXX@@",
"oX..X..XXXX..X@@",
"@XXX....XX...Xo@",
"oX...XX.XX...X.o",
"X..X.XX.X.....X@",
"X.X.....X  ...Xo",
"XXX+  ...  ....X",
"@.X.   .   X...X",
"o.X..O   ..X..XX",
"@.XXXXO  .XXXXX@",
"@oX...+  +....X@",
"@@@o@oO  Oo@@@o@",
"@@@@@@O  O@@@@@@",
"@@@@@@O   @@@@@@",
"@@@@@@+  O@@@@@@",
"@@@@@@X+OX@@@@@@"
};
