/* XPM */
static char *TAVIRecorder[] = {
/* columns rows colors chars-per-pixel */
"24 24 193 2",
"   c black",
".  c #EE9403",
"X  c #EF9506",
"o  c #EF9507",
"O  c #EF960A",
"+  c #EF970A",
"@  c #EF970C",
"#  c #EF980E",
"$  c #EF990E",
"%  c #EF9810",
"&  c #EF9912",
"*  c #EF9A12",
"=  c #F09B15",
"-  c #F09B16",
";  c #F09C16",
":  c #F09C18",
">  c #F09D18",
",  c #F09D1B",
"<  c #F09E1A",
"1  c #F09E1B",
"2  c #F09D1C",
"3  c #F09E1C",
"4  c #F09F1E",
"5  c #F09F1F",
"6  c #F09F20",
"7  c #F0A01F",
"8  c #F0A020",
"9  c #F0A120",
"0  c #F1A124",
"q  c #F1A125",
"w  c #F0A224",
"e  c #F1A224",
"r  c #F1A328",
"t  c #F1A329",
"y  c #F1A429",
"u  c #F1A42A",
"i  c #F1A62C",
"p  c #F1A62D",
"a  c #F1A62E",
"s  c #F1A62F",
"d  c #F1A72F",
"f  c #F2A730",
"g  c #F2A732",
"h  c #F2A834",
"j  c #F2A934",
"k  c #F2A935",
"l  c #F2A836",
"z  c #F2A937",
"x  c #F2AB39",
"c  c #F2AA3A",
"v  c #F2AB3A",
"b  c #F2AB3B",
"n  c #F2AD3F",
"m  c #F3AD3F",
"M  c #F2AD40",
"N  c #F3AD40",
"B  c #F2AE40",
"V  c #F2AE41",
"C  c #F3AE40",
"Z  c #F3AE41",
"A  c #F3AF45",
"S  c #F3B045",
"D  c #F3B046",
"F  c #F3B047",
"G  c #F3B249",
"H  c #F3B34B",
"J  c #F3B24C",
"K  c #F3B34C",
"L  c #F3B34D",
"P  c #F4B34C",
"I  c #F4B550",
"U  c #F4B552",
"Y  c #F4B553",
"T  c #F4B652",
"R  c #F4B653",
"E  c #F4B756",
"W  c #F4B757",
"Q  c #F4B858",
"!  c #F4B859",
"~  c #F5B95B",
"^  c #F5BA5D",
"/  c #F5BA5E",
"(  c #F5BA5F",
")  c #F5BB5F",
"_  c #F4BB60",
"`  c #F5BB60",
"'  c #F5BC63",
"]  c #F5BD63",
"[  c #F5BD66",
"{  c #F5BE65",
"}  c #F5BE66",
"|  c #F5BE67",
" . c #F5BF6A",
".. c #F6BF69",
"X. c #F5C06B",
"o. c #F5C06C",
"O. c #F5C16D",
"+. c #F6C06C",
"@. c #F6C16D",
"#. c #F6C26F",
"$. c #F5C370",
"%. c #F6C270",
"&. c #F6C271",
"*. c #F6C371",
"=. c #F6C372",
"-. c #F6C373",
";. c #F5C474",
":. c #F6C576",
">. c #F6C577",
",. c #F6C578",
"<. c #F6C679",
"1. c #F6C67A",
"2. c #F6C87E",
"3. c #F7C87E",
"4. c #F7C87F",
"5. c #808080",
"6. c #F6C880",
"7. c #F7C880",
"8. c #F7C980",
"9. c #F7C981",
"0. c #F7C982",
"q. c #F7CB83",
"w. c #F7CB84",
"e. c #F7CB85",
"r. c #F7CB86",
"t. c #F7CB87",
"y. c #F7CC86",
"u. c #F7CC87",
"i. c #F7CC88",
"p. c #F7CD8B",
"a. c #F7CE8C",
"s. c #F7CF8E",
"d. c #F8CE8C",
"f. c #F8CE8D",
"g. c #F8CF8D",
"h. c #F8D092",
"j. c #F8D193",
"k. c #F8D194",
"l. c #F8D398",
"z. c #F8D49A",
"x. c #F8D69F",
"c. c #F9D69E",
"v. c #F8D7A1",
"b. c #F9D8A5",
"n. c #F9D9A6",
"m. c #F9D9A7",
"M. c #F9DBAA",
"N. c #F9DBAC",
"B. c #FADBAC",
"V. c #FADDB1",
"C. c #FADEB2",
"Z. c #FADEB3",
"A. c #FAE0B7",
"S. c #FAE1B8",
"D. c #FBE1B8",
"F. c #FBE3BC",
"G. c #FBE3BE",
"H. c #FBE3BF",
"J. c #FBE4BF",
"K. c #C0C0C0",
"L. c #FBE5C2",
"P. c #FBE6C4",
"I. c #FBE6C5",
"U. c #FBE7C7",
"Y. c #FBE7C8",
"T. c #FCE9CA",
"R. c #FCE9CD",
"E. c #FCE9CE",
"W. c #FCEBCF",
"Q. c #FCEBD0",
"!. c #FCECD2",
"~. c #FCECD3",
"^. c #FCEDD5",
"/. c #FCEED6",
"(. c #FCEED7",
"). c #FCEFD8",
"_. c #FDEFDA",
"`. c #FDF0DA",
"'. c #FDF0DC",
"]. c #FDF1DD",
"[. c #FDF2DF",
"{. c #FDF3E1",
"}. c #FDF3E2",
"|. c #FDF4E4",
" X c OldLace",
".X c #FEF6E8",
"XX c #FEF7E9",
"oX c #FEF7EA",
"OX c #FEF7ED",
"+X c #FEF8ED",
"@X c #FEF8EE",
"#X c #FEF9F2",
"$X c #FEFBF5",
/* pixels */
"4 % % ; , 1 7 0 y d f c c V F L Y Q / } | #.;.e.",
"@ . o + % % ; 1 5 0 y f j c V F L Y Q ) X. .-.4.",
"% o + $ % ; 4 7 0 y f j v   F L Y Q ) } #.;.1.p.",
"; + $ % ; , 5 0 y f j b V F L R Q ) }  .#.1.q.d.",
", $       5 0   s j c   F   R Q ) | #.-.<.q.p.k.",
"4   ; , 7   y   j c V   L   Q ) |  .-.1.3.r.d.l.",
"4 -         d j   V   L Y   ) }  .=.<.q.r.g.k.v.",
"0   5 0 y   j v   F   R Q   }  .-.;.q.r.d.k.l.m.",
"u   0 u     v b F   R ! /    .;.<.q.e.d.      N.",
"y 0     j   V F H   Q / }                 K.  Z.",
"f y f j c m F H R Q / }  .-.  K.K.K.K.K.K.5.  D.",
"j s j v b F F                   5.5.5.5.  5.  G.",
"c j c b F L   K.K.K.K.K.K.K.5.            5.  P.",
"V       L   5.5.5.5.5.5.5.5.5.5.5.  5.  5.    T.",
"F   K.K.    K.5.5.5.5.5.5.5.5.5.5.  5.    H.P.R.",
"H   5.5.5.  K.5.5.5.5.  5.5.5.5.  5.      P.T.^.",
"R   5.5.5.  K.5.5.5.5.5.5.5.5.  5.  5.    T.W.(.",
"Y   5.5.    K.5.5.5.5.  5.5.5.5.  5.      !.(.].",
"/   5.      K.5.5.5.5.5.5.5.5.  5.        ^.`.{.",
")       -.  5.5.5.5.5.  5.5.  5.  5.      `.[. X",
"| ) X.=.;.3.  5.5.5.5.5.5.  5.  5.      `.]. XoX",
" .X.-.<.4.r.d.                        `.]. X X@X",
"=.=.;.3.r.p.h.l.x.b.B.V.D.H.P.T.!.^.`.]. X X@X#X",
"q.3.r.p.h.l.x.b.B.V.A.H.L.U.R.!.^.`.{. XoX@X#X$X"
};
