/* XPM */
static char *TGLLinePFXManager[] = {
/* columns rows colors chars-per-pixel */
"24 24 219 2",
"   c black",
".  c #0080FF",
"X  c #EF970A",
"o  c #EF970C",
"O  c #EF980E",
"+  c #EF9810",
"@  c #EF9912",
"#  c #EF9A12",
"$  c #F09B15",
"%  c #F09B16",
"&  c #F09C16",
"*  c #F09C18",
"=  c #F09D18",
"-  c #F09D1A",
";  c #F09D1B",
":  c #F09E1A",
">  c #F09E1B",
",  c #F09D1C",
"<  c #F09E1C",
"1  c #F09F1E",
"2  c #F09F1F",
"3  c #F09F20",
"4  c #F0A01F",
"5  c #F0A020",
"6  c #F0A120",
"7  c #F1A124",
"8  c #F1A125",
"9  c #F0A224",
"0  c #F1A224",
"q  c #F1A328",
"w  c #F1A329",
"e  c #F1A32A",
"r  c #F1A429",
"t  c #F1A42A",
"y  c #F1A52F",
"u  c #F1A62C",
"i  c #F1A62D",
"p  c #F1A62E",
"a  c #F1A62F",
"s  c #F1A72F",
"d  c #F2A730",
"f  c #F2A732",
"g  c #F2A834",
"h  c #F2A934",
"j  c #F2A935",
"k  c #F2A836",
"l  c #F2A937",
"z  c #F2AA39",
"x  c #F2AB39",
"c  c #F2AA3A",
"v  c #F2AB3A",
"b  c #F2AB3B",
"n  c #F2AD3F",
"m  c #F3AD3F",
"M  c #F2AD40",
"N  c #F3AD40",
"B  c #F3AD41",
"V  c #F2AE40",
"C  c #F2AE41",
"Z  c #F3AE40",
"A  c #F3AE41",
"S  c #F3AF45",
"D  c #F3AF46",
"F  c #F3B044",
"G  c #F3B045",
"H  c #F3B046",
"J  c #F3B047",
"K  c #F3B249",
"L  c #F3B24A",
"P  c #F3B24B",
"I  c #F3B34B",
"U  c #F3B24C",
"Y  c #F3B34C",
"T  c #F3B34D",
"R  c #F4B34C",
"E  c #F3B551",
"W  c #F4B550",
"Q  c #F4B551",
"!  c #F4B552",
"~  c #F4B553",
"^  c #F4B652",
"/  c #F4B653",
"(  c #F4B756",
")  c #F4B757",
"_  c #F4B758",
"`  c #F4B857",
"'  c #F4B858",
"]  c #F4B859",
"[  c #F5B95B",
"{  c #F5BA5D",
"}  c #F4BA5E",
"|  c #F5BA5E",
" . c #F5BA5F",
".. c #F5BB5E",
"X. c #F5BB5F",
"o. c #F4BB60",
"O. c #F5BB60",
"+. c #F5BC63",
"@. c #F5BD63",
"#. c #F5BD64",
"$. c #F5BD65",
"%. c #F5BD66",
"&. c #F5BE65",
"*. c #F5BE66",
"=. c #F5BE67",
"-. c #F5BF6A",
";. c #F6BF69",
":. c #F5C06A",
">. c #F5C06B",
",. c #F5C06C",
"<. c #F5C16D",
"1. c #F6C06C",
"2. c #F6C16D",
"3. c #F6C26F",
"4. c #F5C370",
"5. c #F6C270",
"6. c #F6C271",
"7. c #F6C371",
"8. c #F6C372",
"9. c #F6C373",
"0. c #F5C474",
"q. c #F6C576",
"w. c #F6C577",
"e. c #F6C578",
"r. c #F6C579",
"t. c #F6C679",
"y. c #F6C67A",
"u. c #F6C87E",
"i. c #F7C87E",
"p. c #F7C87F",
"a. c #F7C97F",
"s. c #808080",
"d. c #F6C880",
"f. c #F7C880",
"g. c #F7C980",
"h. c #F7C981",
"j. c #F7C982",
"k. c #F7CB83",
"l. c #F7CB84",
"z. c #F7CB85",
"x. c #F7CB86",
"c. c #F7CB87",
"v. c #F7CC86",
"b. c #F7CC87",
"n. c #F7CC88",
"m. c #F7CD8B",
"M. c #F7CE8C",
"N. c #F7CF8E",
"B. c #F8CE8C",
"V. c #F8CE8D",
"C. c #F8CF8D",
"Z. c #F8D092",
"A. c #F8D193",
"S. c #F8D194",
"D. c #F8D398",
"F. c #F8D39A",
"G. c #F8D499",
"H. c #F8D49A",
"J. c #F9D49A",
"K. c #F8D69F",
"L. c #F8D7A1",
"P. c #F9D6A0",
"I. c #F9D7A0",
"U. c #F9D8A5",
"Y. c #F9D9A6",
"T. c #F9D9A7",
"R. c #F9DAA7",
"E. c #F9DBAA",
"W. c #F9DBAC",
"Q. c #FADBAC",
"!. c #FADCAD",
"~. c #FADDB1",
"^. c #FADEB3",
"/. c #FADFB3",
"(. c #FAE0B7",
"). c #FAE1B8",
"_. c #FBE1B9",
"`. c #FBE1BA",
"'. c #FBE3BC",
"]. c #FBE3BE",
"[. c #FBE3BF",
"{. c #FBE4BF",
"}. c #FBE5C2",
"|. c #FBE6C4",
" X c #FBE6C5",
".X c #FBE7C7",
"XX c #FBE7C8",
"oX c #FCE8CA",
"OX c #FCE9CA",
"+X c #FCE9CD",
"@X c #FCE9CE",
"#X c #FCEACF",
"$X c #FCEBCF",
"%X c #FCEAD0",
"&X c #FCEBD0",
"*X c #FCECD2",
"=X c #FCECD3",
"-X c #FCEDD5",
";X c #FCEED6",
":X c #FCEED7",
">X c #FCEFD8",
",X c #FDEFDA",
"<X c #FDF0DA",
"1X c #FDF0DC",
"2X c #FDF1DD",
"3X c #FDF2DF",
"4X c #FDF3E1",
"5X c #FDF3E2",
"6X c #FDF4E4",
"7X c OldLace",
"8X c #FEF6E8",
"9X c #FEF7E9",
"0X c #FEF7EA",
"qX c #FEF7ED",
"wX c #FEF8ED",
"eX c #FEF8EE",
"rX c #FEF9F2",
"tX c #FEFBF5",
"yX c gray100",
/* pixels */
"1 + + & - 1 4 7 r s f v v A D T / ) } X.;.7.w.x.",
"o     s.O + &   1 0 r   g   A J   /       ,.9.d.",
"+   X   + & -   7 r a   b   J T   ]   &.3.w.t.b.",
"&     s.&   0   e s g   A     /    .    7.y.j.V.",
"-   + & 1 4 7   s f b   D   /     &.  9.t.j.n.D.",
"1   & - 4 0 r       A   T   ] X.  ,.      b.N.S.",
"1 % - 4 7 e s g v A D T / ] X.&.,.8.t.j.v.N.Z.I.",
"7 - 4 7 r s g v A D P /     s.,.      v.  Z.  R.",
"e 4 7 r s f v A D T / _   &.  9.  j.v.V.  S.  Q.",
"r 7 r s g b n D I / ]  .    s.t.    V.A.K.  E.~.",
"f r s g b n D P / ] } &.  9.t.a.  Z.Z.D.  R.  _.",
"g s f v n D I / ) } &.-.  t.a.x.  A.S.K.  !.  ].",
"v g v n J T / ) . . . . . . . V.A.K.I.R.!.^._.|.",
"n v n D J / ) . . . yX. . . . . S.K.E.Q.^._.[.XX",
"D m D T / _ . . . yX. yX. . . . . R.!.~._.}.|.+X",
"J J J / ) } . . yX. . . yX. . . . !.^._.].|.OX;X",
"/ J / ) } . . yX. . . . . yX. . . . _.].|.OX+X<X",
") / ] X.X.. . . . . . . . . yX. . . }.|.OX*X;X2X",
"] ) X.&.-.. . . . . . . . yX. . . . |.OX%X;X<X4X",
"X.X.X.,.9.w.. . . . . . yX. . . . |.OX+X;X<X2X7X",
"=.X.-.9.w.u.. . . . . . . yX. . . OX+X;X<X2X7X0X",
",.=.9.t.u.l.V.. . . . . . . . . OX%X;X<X2X7X0XqX",
"8.8.w.u.l.V.Z.S.. . . . . . . OX+X;X,X2X4X0XqXrX",
"j.a.x.N.A.S.K.R.E.~.(.'.}..X+X*X;X2X4X7X0XqXrXtX"
};
