/* XPM */
static char *TGLSLDiffuseSpecularShader[] = {
/* columns rows colors chars-per-pixel */
"24 24 211 2",
"   c #050B0E",
".  c #0B151D",
"X  c #18140D",
"o  c #151B1C",
"O  c #1B1E1B",
"+  c #12212B",
"@  c #1A252B",
"#  c #192C39",
"$  c #2F2613",
"%  c #282C2F",
"&  c #2C302B",
"*  c #243134",
"=  c #27373D",
"-  c #283638",
";  c #322F2A",
":  c #1B3548",
">  c #073F63",
",  c #213847",
"<  c #024D7D",
"1  c #154462",
"2  c #184563",
"3  c #1C506E",
"4  c #1A5474",
"5  c #204259",
"6  c #24495E",
"7  c #284355",
"8  c #344853",
"9  c #394B53",
"0  c #254D68",
"q  c #2E4E63",
"w  c #284D69",
"e  c #265064",
"r  c #2F5068",
"t  c #235873",
"y  c #2B5676",
"u  c #2C5877",
"i  c #325162",
"p  c #375C68",
"a  c #3D5664",
"s  c #355C73",
"d  c #336075",
"f  c #36637C",
"g  c #3D6071",
"h  c #38687E",
"j  c #523F1B",
"k  c #423822",
"l  c #594A2B",
"z  c #6C5326",
"x  c #424E54",
"c  c #4F544B",
"v  c #425456",
"b  c #40595F",
"n  c #545C5B",
"m  c #56675F",
"M  c #5F655E",
"N  c #4B6262",
"B  c #456870",
"V  c #476C7A",
"C  c #5E6363",
"Z  c #55757F",
"A  c #766F5F",
"S  c #69736C",
"D  c #005B96",
"F  c #005F9D",
"G  c #116299",
"H  c #0067AA",
"J  c #0069AD",
"K  c #006FB7",
"L  c #0072BC",
"P  c #1169A1",
"I  c #1C73AE",
"U  c #127BBE",
"Y  c #255B83",
"T  c #2D6E9D",
"R  c #316286",
"E  c #346C88",
"W  c #366C93",
"Q  c #247EB5",
"!  c #287FBE",
"~  c #337BA6",
"^  c #367EA8",
"/  c #3C7AA3",
"(  c #3D7BA8",
")  c #317CB3",
"_  c #157DC0",
"`  c #187EC0",
"'  c #426F8D",
"]  c #477084",
"[  c #487083",
"{  c #497B9C",
"}  c #577185",
"|  c #3180AF",
" . c #3D81A7",
".. c #3D83AD",
"X. c #3484B3",
"o. c #3083BF",
"O. c #3984B1",
"+. c #1D80C1",
"@. c #2884C3",
"#. c #3089C5",
"$. c #3A8CC6",
"%. c #3C92C8",
"&. c #4181AE",
"*. c #4984AB",
"=. c #4284B2",
"-. c #4886B4",
";. c #4592BF",
":. c #508AB2",
">. c #5693BC",
",. c #5C91B7",
"<. c #6590AC",
"1. c #448EC4",
"2. c #4695C9",
"3. c #4B94C9",
"4. c #4C98CF",
"5. c #5599CB",
"6. c #5C9DC5",
"7. c #5D9CCC",
"8. c #51A3DD",
"9. c #53A5E0",
"0. c #5AA8E1",
"q. c #639FCE",
"w. c #64A1CE",
"e. c #63A8D3",
"r. c #64ACDF",
"t. c #957840",
"y. c #907F4E",
"u. c #917F5F",
"i. c #867C6B",
"p. c #B68631",
"a. c #938452",
"s. c #888563",
"d. c #8A8869",
"f. c #848A72",
"g. c #898F77",
"h. c #9A916B",
"j. c #9B987B",
"k. c #A18445",
"l. c #B09A5D",
"z. c #A79779",
"x. c #B7A17B",
"c. c #EE9405",
"v. c #EF960A",
"b. c #EF980E",
"n. c #EF9912",
"m. c #F09B15",
"M. c #F09D1B",
"N. c #E49D2A",
"B. c #F09F20",
"V. c #F0A01E",
"C. c #F0A123",
"Z. c #F1A52A",
"A. c #F2A732",
"S. c #F2A935",
"D. c #F2AC3B",
"F. c #F3B03C",
"G. c #CC9E4B",
"H. c #D19F4A",
"J. c #D4A758",
"K. c #E6B25B",
"L. c #F3AE40",
"P. c #F3B046",
"I. c #F3B34C",
"U. c #F3B553",
"Y. c #F4B95B",
"T. c #E8B762",
"R. c #F4BC63",
"E. c #F5BF69",
"W. c #F5C06C",
"Q. c #F5C373",
"!. c #F6C579",
"~. c #F6C87E",
"^. c #899385",
"/. c #879C9F",
"(. c #8C9893",
"). c #8B9E9E",
"_. c #9A9081",
"`. c #9DABA7",
"'. c #A79B81",
"]. c #A6A588",
"[. c #B7BEBB",
"{. c #82B2D8",
"}. c #95BDDC",
"|. c #A9BECD",
" X c #E9C58B",
".X c #F6CA83",
"XX c #F7CD8A",
"oX c #F8CE8D",
"OX c #F8D08F",
"+X c #F8D092",
"@X c #F8D49B",
"#X c #E4D5BA",
"$X c #EEDABA",
"%X c #F8D7A1",
"&X c #F9D9A6",
"*X c #F9DBAB",
"=X c #FADEB2",
"-X c #FAE0B7",
";X c #FAE2BB",
":X c #D8D8D5",
">X c #D3E2EC",
",X c #ECDEC2",
"<X c #FBE6C4",
"1X c #FCE9CC",
"2X c #FCECD3",
"3X c #FDEFDA",
"4X c #FCF0DC",
"5X c #FDF4E3",
"6X c #FEF6E9",
"7X c #FEF8ED",
"8X c #FEF9F3",
/* pixels */
"M.b.n.n.M.M.V.C.Z.Z.A.S.D.D.L.U.U.U.Y.R.E.Q.!..X",
"b.c.c.v.n.n.n.V.B.C.Z.A.S.D.L.L.I.U.Y.Y.E.W.Q.~.",
"n.c.v.b.n.n.M.V.C.Z.Z.S.D.L.P.U.U.Y.Y.R.W.Q.~.XX",
"m.v.b.n.n.M.V.N.a.m q 2 1 e N s.K.Y.E.E.Q.!.~.oX",
"M.b.m.m.V.V.k.N Y T ) @.! I G D p h.E.Q.!.~.XX+X",
"M.m.V.C.C.a.g ( 3.3.2.1.$.@.! Q P t g..X.XXXOX@X",
"Z.Z.S.F.l.Z >.w.q.q.7.5.3.3.2.$.#.Q E ].OXOX@X@X",
"D.p.j $ O a <.9 @ } }.{.,.i @ @ f ;.6 o a.@X@X&X",
"z + ' *.&.w v R -.% >X|.x u -.( 5 8 3 ( # x.*X*X",
". 6.6.y =.9.w -.0.  :XC w 8.W -.8.+ y 8.: z.*X-X",
"6 e.7 . 5 w + =.0.  [.M 5 9.-.R 5 c y 8.: '.;X;X",
"s e., y 8.8.u =.8.  n S % 5 R 1.8.2 y 8.: A i.$X",
"* e.{ : R 8.u =.9.u u : ( 0.w u 8.e y 8.W s r i.",
"k q ,.8.4.W . =.9.9.9.u + ( 8.9./   y 8.8.r.:.; ",
"t.l X     * v o       = 8 o     @ a -       ; _.",
"H.G.J.d.E X. . ./ ....O.| ^ ~ | X.~ ~ s (.#X2X2X",
"U.I.Y.T.B P U U U ` ` U U U U U U U P ] ,X1X2X3X",
"U.U.Y.Y.h.3 J L L L L L L L L L L J 4 `.1X2X3X3X",
"Y.Y.Y.R.E.f.4 F L L L L L L L L F 4 /.<X2X3X3X5X",
"Y.Y.R.E.Q.!.j.p < D H K K H D < f `.1X2X2X3X3X5X",
"E.E.E.Q.!.~..X X^.V 3 > > 4 [ ).,X1X2X2X3X5X5X6X",
"E.E.E.!.~..XoX+X@X%X&X*X=X=X=X<X1X1X2X3X3X5X6X7X",
"Q.Q.!.~..XXX+X@X%X&X*X=X;X<X<X1X1X2X3X3X5X6X6X8X",
"~.~..XXXOX@X%X%X*X=X=X;X<X<X1X2X3X3X5X5X6X7X8X8X"
};
