/* XPM */
static char *gls_root[] = {
/* columns rows colors chars-per-pixel */
"16 16 13 1",
"  c #3F5656",
". c #3A6060",
"X c #607E7E",
"o c #607F7F",
"O c #658181",
"+ c #758989",
"@ c #7A8B8B",
"# c #7F8E8E",
"$ c #AFBFBF",
"% c #C0E0E0",
"& c #D5EAEA",
"* c #EAF5F5",
"= c gray100",
/* pixels */
"================",
"================",
"======O++++++.#=",
"=====@%*****$$#=",
"====@*%****$$*#=",
"===@**%***$$**#=",
"==#+++o++++***#=",
"==#***%***+***#=",
"==#***%***+***#=",
"==#***%%%%o%%%#=",
"==#**&&***+**@==",
"==#*&&****+*@===",
"==#&&*****+@====",
"==#o++++++ =====",
"================",
"================"
};
