/* XPM */
static char *TGLCone[] = {
/* columns rows colors chars-per-pixel */
"16 16 71 1",
"  c gray1",
". c #060606",
"X c #101010",
"o c #131313",
"O c #191919",
"+ c gray11",
"@ c #202020",
"# c gray15",
"$ c #272727",
"% c gray19",
"& c #323232",
"* c #343434",
"= c #353535",
"- c gray21",
"; c #3A3A3A",
": c gray23",
"> c #3E3E3E",
", c #494949",
"< c gray29",
"1 c #505050",
"2 c #646464",
"3 c gray40",
"4 c #676767",
"5 c DimGray",
"6 c #6F6F6F",
"7 c #7E7E7E",
"8 c gray50",
"9 c #838383",
"0 c #868686",
"q c gray54",
"w c gray55",
"e c gray56",
"r c #939393",
"t c gray58",
"y c gray60",
"u c #9A9A9A",
"i c gray61",
"p c #9D9D9D",
"a c gray62",
"s c gray63",
"d c gray64",
"f c #A4A4A4",
"g c #A5A5A5",
"h c gray65",
"j c #AAAAAA",
"k c #AEAEAE",
"l c #AFAFAF",
"z c gray69",
"x c #B2B2B2",
"c c #B6B6B6",
"v c #B7B7B7",
"b c gray72",
"n c gray73",
"m c gray",
"M c #C5C5C5",
"N c #C6C6C6",
"B c #C8C8C8",
"V c gray79",
"C c gray80",
"Z c gray81",
"A c gray82",
"S c gray84",
"D c #D8D8D8",
"F c #DADADA",
"G c #DDDDDD",
"H c #E1E1E1",
"J c gray89",
"K c #E7E7E7",
"L c #F8F8F8",
"P c #FBFBFB",
"I c gray100",
/* pixels */
"IIIIIIIIIIIIIIII",
"IIIIIIFbIIIIIIII",
"IIIIIIh2FLIIIIII",
"IIIIIFd5,cIIIIII",
"IIIIIix2O8JIIIII",
"IIIIZqN2$-xIIIII",
"IIIIrtV2-.8GIIII",
"IIIZ0hV6>X-hIIII",
"IIItwcm6,+ 8FIII",
"IIZ8tZb6,#.:xIII",
"IIw0iFd6,%X 8GII",
"IN8whHi61:o.%hII",
"IFhixJi6<:#@<uFI",
"IIISidtrruutuukI",
"IIIIJAZVmmNZAHLI",
"IIIIIIIIIIIIIIII"
};
