/* XPM */
static char *TGLLightSource[] = {
/* columns rows colors chars-per-pixel */
"16 16 80 1",
"  c #181818",
". c #1E1E1E",
"X c gray12",
"o c gray14",
"O c gray17",
"+ c #313131",
"@ c #373737",
"# c #434343",
"$ c #494949",
"% c #515151",
"& c #555555",
"* c #565656",
"= c #585858",
"- c gray36",
"; c #686868",
": c gray43",
"> c #727272",
", c #767676",
"< c #777777",
"1 c #7B7B7B",
"2 c #838383",
"3 c #848484",
"4 c gray52",
"5 c gray53",
"6 c #888888",
"7 c gray55",
"8 c #8D8D8D",
"9 c #929292",
"0 c #959595",
"q c gray59",
"w c #979797",
"e c #9B9B9B",
"r c #9D9D9D",
"t c gray63",
"y c #A4A4A4",
"u c gray65",
"i c gray66",
"p c #AAAAAA",
"a c gray67",
"s c #ACACAC",
"d c #AEAEAE",
"f c #B1B1B1",
"g c #B2B2B2",
"h c gray71",
"j c #B9B9B9",
"k c #BBBBBB",
"l c gray74",
"z c #C1C1C1",
"x c gray76",
"c c #C3C3C3",
"v c #C5C5C5",
"b c gray78",
"n c gray79",
"m c #CBCBCB",
"M c #CDCDCD",
"N c gray81",
"B c gray82",
"V c LightGray",
"C c #D5D5D5",
"Z c gray84",
"A c #D7D7D7",
"S c #D8D8D8",
"D c gray85",
"F c #DADADA",
"G c gray86",
"H c gainsboro",
"J c gray87",
"K c gray88",
"L c #E2E2E2",
"P c #E4E4E4",
"I c #E6E6E6",
"U c #EAEAEA",
"Y c #EEEEEE",
"T c gray94",
"R c gray95",
"E c #F4F4F4",
"W c #F6F6F6",
"Q c gray98",
"! c #FDFDFD",
"~ c gray100",
/* pixels */
"~~~~~~~~~~~~~~~~",
"~~~~~~~~~RIHQ~~~",
"~~~~~~~~Hblt<b~~",
"~~~~~~~LCCNg5#C~",
"~~~~~~RCHUBh7$<~",
"~~~~~~LDHImi5@&~",
"~~~~~RDHCmgq; 1R",
"~~~~~DHBxde<@oiU",
"~~~Rjgmgr5-O.5lT",
"~~Qjiq<5&.o&qlb~",
"~~bdy7:O%rjllxY~",
"~Tyx955illlbDR~~",
"~~>+qyllxLR~~~~~",
"~~NihlmL~~~~~~~~",
"~~YllBR~~~~~~~~~",
"~~~YTQ~~~~~~~~~~"
};
