/* XPM */
static char *TGLPostShaderHolder[] = {
/* columns rows colors chars-per-pixel */
"16 16 122 2",
"   c #7B4208",
".  c #008000",
"X  c #088B02",
"o  c #109703",
"O  c #18A205",
"+  c #20AD07",
"@  c #28B909",
"#  c #30C40A",
"$  c #38CF0C",
"%  c #47D819",
"&  c #5EDD31",
"*  c #74E349",
"=  c #6191E9",
"-  c #79A7EE",
";  c #8F1700",
":  c #921400",
">  c #9B1501",
",  c #9E1602",
"<  c #973E0F",
"1  c #AB0C02",
"2  c #A31D00",
"3  c #A61B01",
"4  c #AE1103",
"5  c #B30F01",
"6  c #B61308",
"7  c #BA180E",
"8  c #BC190F",
"9  c #A32900",
"0  c #B43D00",
"q  c #BE3900",
"w  c #954116",
"e  c #974B1C",
"r  c #98501D",
"t  c #9C521D",
"y  c #974D23",
"u  c #995329",
"i  c #C30000",
"p  c #C90404",
"a  c #CC0000",
"s  c #CB0F0F",
"d  c #C31F02",
"f  c #CA110E",
"g  c #C8140B",
"h  c #C41510",
"j  c #C71C15",
"k  c #CA1515",
"l  c #CF1715",
"z  c #D00000",
"x  c #DC0000",
"c  c #D21515",
"v  c #D21717",
"b  c #D41111",
"n  c #D61E1C",
"m  c #D81B1B",
"M  c #D91C1C",
"N  c #C42B05",
"B  c #C72A1B",
"V  c #C62D1C",
"C  c #CC261D",
"Z  c #CE281F",
"A  c #D23B03",
"S  c #CA3627",
"D  c #C83929",
"F  c #C93B29",
"G  c #CC3A28",
"H  c #DE2525",
"J  c #DF2727",
"K  c #DC2A2A",
"L  c #DF2828",
"P  c #DF2929",
"I  c #E00000",
"U  c #E00808",
"Y  c #ED0000",
"T  c #EF0000",
"R  c #E21B1B",
"E  c #F70000",
"W  c #F90000",
"Q  c #FD0000",
"!  c #FE0000",
"~  c #E3381C",
"^  c #E22727",
"/  c #E32727",
"(  c #E02929",
")  c #E22929",
"_  c #C15400",
"`  c #CC5D02",
"'  c #D5430B",
"]  c #CD7700",
"[  c #D57100",
"{  c #E34C14",
"}  c #E74327",
"|  c #E54428",
" . c #E5482B",
".. c #E87504",
"X. c #EA6027",
"o. c #EB6027",
"O. c #E86128",
"+. c #E9662E",
"@. c #EA662D",
"#. c #EE7C27",
"$. c #F07C27",
"%. c #F27E29",
"&. c #E44949",
"*. c #FB7272",
"=. c magenta",
"-. c #DEAA00",
";. c #E39205",
":. c #F29525",
">. c #F19827",
",. c #F49F2E",
"<. c #E0AA00",
"1. c #F2AA00",
"2. c #F3AE05",
"3. c #F7BB11",
"4. c #F8B527",
"5. c #E8C600",
"6. c #F2CA05",
"7. c #FBD711",
"8. c #F3E200",
"9. c #91BCF4",
"0. c #A9D2F9",
"q. c #C1E7FF",
/* pixels */
"=.q.q.q.q.q.q.q.q.q.q.q.q.q.q.=.",
"0.0.0.0.0.E ! ! ! E T 0.0.0.0.0.",
"9.9.9.9.T x z a z x T W 9.9.9.9.",
"- - - I i &.^ ) ^ ^ R I ! - - - ",
"= = I k *.| o.%.#.#.O.~ I W = = ",
"* T i *.U { ..1.2.3.:.O.R T T * ",
"& x &.L b A [ -.5.8.7.>.} x E & ",
"% z ^ J p d q _ ] <.6.4.o.a ! % ",
"$ a ) L f 5 2 9 0 ` ;.,.+.a ! $ ",
"# a ^ J s 1 : ; 3 N ' +. .a ! # ",
"@ x F ^ l 6 , , 4 g v L &.x E @ ",
"@ O t F C j 7 7 h v J ^ i E + O ",
"O O O t F Z n m M ^ ) V x O O O ",
"o o o o e S ^ ) ^ / V w o o o o ",
"X X X X X x y u r w   X X X X X ",
"=.. . . . . . . . . . . . . . =."
};
