/* XPM */
static char *TGLSkyDome[] = {
/* columns rows colors chars-per-pixel */
"16 16 16 1",
"  c #040284",
". c #848284",
"X c #04FEFC",
"o c #C4C2C4",
"O c #0402FC",
"+ c #FCFEFC",
"@ c #833E00",
"# c #7C7700",
"$ c #186968",
"% c #9F0EF1",
"& c #803E17",
"* c #7C7700",
"= c #FF004A",
"- c #FF0002",
"; c #FF002D",
": c red",
/* pixels */
"++++++++++++++++",
"++++++++++++++++",
"++++++....++++++",
"++++o.    .o++++",
"+++o.      .o+++",
"++o.        .o++",
"++.  O O O   .++",
"+o.OO OOO O O.o+",
"+.OOOOOOOOOOOO.+",
"+.OOOXOXOXOXOO.+",
"+.XOXXXXXXXXOX.+",
"+.XXo......oXX.+",
"+....++++++....+",
"++++++++++++++++",
"++++++++++++++++",
"++++++++++++++++"
};
