/* XPM */
static char *TGLTextureEmitter[] = {
/* columns rows colors chars-per-pixel */
"16 16 6 1",
"  c #0000C0",
". c #4040FF",
"X c magenta",
"o c #8080FF",
"O c #C0C0C0",
"+ c #C0C0FF",
/* pixels */
"X..  .....    .X",
"...  ....+oooo+.",
"...      ooooo+.",
"...      oo   ..",
".........+o   ..",
".OOOOOO..+ooo ..",
".OOOOOO..+ooo ..",
".OO......+o   ..",
".OO......+o   ..",
".OOOO....+oooo+.",
".OOOO....+oooo+.",
".OO.......    ..",
".OO.......    ..",
".OOOOOO...    ..",
".OOOOOO...    ..",
"X.........    .X"
};
