/* XPM */
static char *TGLCube[] = {
/* columns rows colors chars-per-pixel */
"16 16 72 1",
"  c #090909",
". c #0C0C0C",
"X c gray5",
"o c #101010",
"O c #131313",
"+ c gray10",
"@ c #202020",
"# c #2A2A2A",
"$ c #343434",
"% c #3A3A3A",
"& c gray23",
"* c #3C3C3C",
"= c gray24",
"- c #3F3F3F",
"; c #414141",
": c gray26",
"> c #464646",
", c #4C4C4C",
"< c #505050",
"1 c #535353",
"2 c #555555",
"3 c #5B5B5B",
"4 c #5D5D5D",
"5 c gray37",
"6 c #5F5F5F",
"7 c #606060",
"8 c gray40",
"9 c DimGray",
"0 c #6A6A6A",
"q c gray43",
"w c gray45",
"e c #767676",
"r c #777777",
"t c gray47",
"y c #7B7B7B",
"u c #7C7C7C",
"i c gray50",
"p c gray51",
"a c #868686",
"s c gray53",
"d c #888888",
"f c gray54",
"g c gray55",
"h c #8E8E8E",
"j c gray56",
"k c #939393",
"l c gray58",
"z c #989898",
"x c gray60",
"c c #9A9A9A",
"v c gray61",
"b c #9D9D9D",
"n c gray62",
"m c #9F9F9F",
"M c gray63",
"N c #A5A5A5",
"B c #A9A9A9",
"V c #BBBBBB",
"C c gray",
"Z c #C0C0C0",
"A c #C3C3C3",
"S c gray82",
"D c gray87",
"F c #E1E1E1",
"G c #E7E7E7",
"H c #EAEAEA",
"J c #F1F1F1",
"K c gray95",
"L c #F4F4F4",
"P c #F8F8F8",
"I c #FBFBFB",
"U c gray100",
/* pixels */
"UUUUUUUUUUUUUUUU",
"UUUUKGIUUUUUUUUU",
"UUUUy->4uvAFIUUU",
"UUUV,<<<,>:-9UUU",
"UUH7787322,$-zKU",
"UUvrwr9987<.%vKU",
"UUvjkkjfyq+.%vKU",
"UUkafffjjf..-vKU",
"UUjupaffaaO.:zKU",
"UUjyuaaaaaOO-vKU",
"UUfypuppap+O4zKU",
"UUfrrppapa+-zvIU",
"UUkyyyypaa#jzDUU",
"UUUFzkaapfrzAUUU",
"UUUUIKFSVBmNIUUU",
"UUUUUUUUUUUUUUUU"
};
