/* XPM */
static char *TGLFreeForm[] = {
/* columns rows colors chars-per-pixel */
"16 16 86 1",
"  c #0C0C0C",
". c gray8",
"X c #191919",
"o c #202020",
"O c gray15",
"+ c #282828",
"@ c #2D2D2D",
"# c #313131",
"$ c #323232",
"% c gray20",
"& c #3A3A3A",
"* c #414141",
"= c gray28",
"- c #4C4C4C",
"; c #4E4E4E",
": c gray32",
"> c #535353",
", c gray33",
"< c #565656",
"1 c #585858",
"2 c #5B5B5B",
"3 c gray36",
"4 c gray40",
"5 c #686868",
"6 c gray43",
"7 c gray44",
"8 c #717171",
"9 c gray45",
"0 c gray46",
"q c gray47",
"w c gray50",
"e c #818181",
"r c #848484",
"t c gray52",
"y c gray53",
"u c #888888",
"i c gray55",
"p c #8E8E8E",
"a c gray56",
"s c gray58",
"d c #959595",
"f c gray60",
"g c #9B9B9B",
"h c #9D9D9D",
"j c gray63",
"k c #A4A4A4",
"l c #A7A7A7",
"z c #A9A9A9",
"x c #AAAAAA",
"c c gray67",
"v c #AEAEAE",
"b c #AFAFAF",
"n c #B2B2B2",
"m c gray71",
"M c #B6B6B6",
"N c gray72",
"B c gray",
"V c gray75",
"C c gray76",
"Z c #C3C3C3",
"A c #C5C5C5",
"S c gray78",
"D c #C8C8C8",
"F c gray80",
"G c #CECECE",
"H c gray81",
"J c gray82",
"K c gray83",
"L c #D5D5D5",
"P c gray84",
"I c #D7D7D7",
"U c gray85",
"Y c #DDDDDD",
"T c gray88",
"R c #E1E1E1",
"E c #E2E2E2",
"W c #E4E4E4",
"Q c #E7E7E7",
"! c #EAEAEA",
"~ c gray92",
"^ c #EEEEEE",
"/ c #F1F1F1",
"( c #F4F4F4",
") c #F8F8F8",
"_ c #FBFBFB",
"` c gray100",
/* pixels */
"````````````````",
"``````;rY!``````",
"`````).;yjV)````",
"````()Qq%@1h^```",
"``JrvDJPC> %i(``",
"`)<iVcnPYJ0O9C)`",
"`Po9k3=1iUYDSFP)",
"`^X;iMM3*1rcvcF(",
"``9@5fNTSr46dSF(",
"``^+@5hVQ!PFFFT`",
"```Y%@5cPSFQ))``",
"````!>O>dP^Y````",
"`````(k&@1ehF```",
"```````TMw4cF/``",
"````````)QPDF)``",
"````````````````"
};
