/* XPM */
static char *TGLHudSprite[] = {
/* columns rows colors chars-per-pixel */
"16 16 16 1",
"  c #040204",
". c #848204",
"X c #04FEFC",
"o c #C4C2C4",
"O c #0402FC",
"+ c #FCFE04",
"@ c #FCFEFC",
"# c #7C7700",
"$ c #186968",
"% c #9F0EF1",
"& c #803E17",
"* c #7C7700",
"= c #FF004A",
"- c #FF0002",
"; c #FF002D",
": c red",
/* pixels */
"oooooooooooooooo",
"oXXXXXXXXXXXXXXo",
"oXX++XXXXXXXXXXo",
"oX++++XXXXXXXXXo",
"oX++++XXXXXXXX.o",
"oXX++XXXXXXX...o",
"oXXXXXXXXX.....o",
"oXXXXXXXX......o",
"oOOOOOOO.......o",
"oOOOOOOOOO.....o",
"oO@@ O@@ OOOOO.o",
"oOOO@ @O@ OOOOOo",
"oOO@ O@O@ OOOOOo",
"oO@ OO@O@ OOOOOo",
"oO@@@ @@ OOOOOOo",
"oooooooooooooooo"
};
