/* XPM */
static char *TGLIcosahedron[] = {
/* columns rows colors chars-per-pixel */
"16 16 80 1",
"  c gray38",
". c #626262",
"X c gray39",
"o c #646464",
"O c gray44",
"+ c gray45",
"@ c #747474",
"# c gray46",
"$ c gray47",
"% c #797979",
"& c #7B7B7B",
"* c gray49",
"= c #7E7E7E",
"- c #818181",
"; c gray51",
": c gray52",
"> c #868686",
", c #888888",
"< c gray54",
"1 c #8D8D8D",
"2 c #8E8E8E",
"3 c #939393",
"4 c gray59",
"5 c #979797",
"6 c #989898",
"7 c gray60",
"8 c #9A9A9A",
"9 c #9D9D9D",
"0 c #A2A2A2",
"q c #A4A4A4",
"w c #A5A5A5",
"e c #A7A7A7",
"r c gray66",
"t c #A9A9A9",
"y c gray67",
"u c gray68",
"i c #AEAEAE",
"p c #AFAFAF",
"a c #B2B2B2",
"s c gray70",
"d c #B4B4B4",
"f c gray71",
"g c #B6B6B6",
"h c #B7B7B7",
"j c gray72",
"k c #B9B9B9",
"l c #BCBCBC",
"z c gray74",
"x c gray",
"c c #C0C0C0",
"v c #C1C1C1",
"b c #C3C3C3",
"n c gray77",
"m c #C5C5C5",
"M c #C8C8C8",
"N c gray79",
"B c #CBCBCB",
"V c gray80",
"C c #CDCDCD",
"Z c #CECECE",
"A c gray81",
"S c #D0D0D0",
"D c #D2D2D2",
"F c gray83",
"G c gray84",
"H c gray85",
"J c #DADADA",
"K c #E6E6E6",
"L c #E9E9E9",
"P c #EAEAEA",
"I c gray93",
"U c #EEEEEE",
"Y c #F1F1F1",
"T c #F8F8F8",
"R c #F9F9F9",
"E c #FBFBFB",
"W c gray99",
"Q c #FDFDFD",
"! c #FEFEFE",
"~ c gray100",
/* pixels */
"~~~~~~~~~~~~~~~~",
"~~~~~DucL~~~~~~~",
"~~~~cuf*#2fJ~~~~",
"~~~c2lkw#####9E~",
"~~cOklll3####oK~",
"~JXwllllf;##oXG~",
"~m:llllllw#o XM~",
"~cfllcmmMM#X Xk~",
"~GCCDCCDDl7#XXt~",
"~DuDCDDCDt75*X5~",
"~I:kDDDDM7557*:~",
"~~::cCCDk555557~",
"~~5*<MDC0755:wY~",
"~~Ik:3Cm57#*G~~~",
"~~~~EMuuOXa~~~~~",
"~~~~~~~LE~~~~~~~"
};
