/* XPM */
static char *TGLProjectedTextures[] = {
/* columns rows colors chars-per-pixel */
"16 16 14 1",
"  c #0402FC",
". c #6261DE",
"X c #008000",
"o c #60A060",
"O c #69CE6D",
"+ c #04FEFC",
"@ c #62DFDE",
"# c red",
"$ c magenta",
"% c #9C8756",
"& c #FFA201",
"* c #FF8C8C",
"= c #FFD797",
"- c #FFFF80",
/* pixels */
"$--++++++++++++$",
"---+++++***===+X",
"--++++++***===XX",
"+++++++@***==OXX",
"++++++@@===*%%XX",
"+++++@@@===%%%XX",
"++++@@@@==O%%%XX",
"+++@@@@@@ooooXXX",
"  ......ooooXXXX",
" ###&&&...oXXXXX",
" ###&&&....   XX",
" ###&&&...     X",
" &&&###..       ",
" &&&###.        ",
" &&&###         ",
"$              $"
};
