/* XPM */
static char *TGLPostEffect[] = {
/* columns rows colors chars-per-pixel */
"16 16 65 1",
"  c #008000",
". c #088B02",
"X c #109703",
"o c #18A205",
"O c #20AD07",
"+ c #28B909",
"@ c #30C40A",
"# c #38CF0C",
"$ c #47D819",
"% c #5EDD31",
"& c #74E349",
"* c #8F1700",
"= c #921400",
"- c #9B1501",
"; c #9E1602",
": c #AB0C02",
"> c #A31D00",
", c #A61B01",
"< c #AE1103",
"1 c #B30F01",
"2 c #B61308",
"3 c #BA180E",
"4 c #BC190F",
"5 c #A32900",
"6 c #B43D00",
"7 c #BE3900",
"8 c #C31F02",
"9 c #C8140B",
"0 c #C41510",
"q c #C71C15",
"w c #D21515",
"e c #D21717",
"r c #C42B05",
"t c #D23B03",
"y c #DE2525",
"u c #E00000",
"i c #E21B1B",
"p c #E22727",
"a c #E32727",
"s c #E22929",
"d c #C15400",
"f c #CC5D02",
"g c #D5430B",
"h c #CD7700",
"j c #D57100",
"k c #E34C14",
"l c #E54428",
"z c #E87504",
"x c #EB6027",
"c c #E86128",
"v c #EE7C27",
"b c #F07C27",
"n c #F27E29",
"m c magenta",
"M c #DEAA00",
"N c #E39205",
"B c #F29525",
"V c #E0AA00",
"C c #F2AA00",
"Z c #F3AE05",
"A c #F7BB11",
"S c #E8C600",
"D c #F2CA05",
"F c #FBD711",
"G c #F3E200",
/* pixels */
"m&&&&&&&&&&&&&&m",
"&&&&&&&&&&&&&&&&",
"&&&&&&&&&&&&&&&&",
"&&&&pppsppiu&&&&",
"&&&&plxnbvcp&&&&",
"&&&&pkzCZABp&&&&",
"%%%%ptjMSGFp%%%%",
"$$$$p87dhVDp$$$$",
"####p1>56fNp####",
"@@@@p:=*,rgp@@@@",
"++++p2;-<9ep++++",
"OOOOpq430eypOOOO",
"ooooppppppppoooo",
"XXXXXXXXXXXXXXXX",
"................",
"m              m"
};
