/* XPM */
static char *TGLSpaceText[] = {
/* columns rows colors chars-per-pixel */
"16 16 67 1",
"  c #202020",
". c #2D2D2D",
"X c #3F3F3F",
"o c gray26",
"O c #4C4C4C",
"+ c #5D5D5D",
"@ c gray40",
"# c gray42",
"$ c gray47",
"% c #7B7B7B",
"& c gray50",
"* c gray51",
"= c gray52",
"- c #868686",
"; c #888888",
": c #898989",
"> c gray55",
", c gray56",
"< c #939393",
"1 c gray59",
"2 c gray60",
"3 c #9A9A9A",
"4 c gray61",
"5 c #9D9D9D",
"6 c gray63",
"7 c gray64",
"8 c #A4A4A4",
"9 c #A7A7A7",
"0 c gray66",
"q c #AAAAAA",
"w c #AEAEAE",
"e c #B1B1B1",
"r c #B2B2B2",
"t c #B4B4B4",
"y c #B7B7B7",
"u c #BBBBBB",
"i c gray75",
"p c #C1C1C1",
"a c #C3C3C3",
"s c #C5C5C5",
"d c #C6C6C6",
"f c gray78",
"g c #CACACA",
"h c gray80",
"j c #CECECE",
"k c gray81",
"l c #D0D0D0",
"z c gray82",
"x c #D2D2D2",
"c c LightGray",
"v c gray84",
"b c gray85",
"n c gray86",
"m c #DDDDDD",
"M c gray88",
"N c #E4E4E4",
"B c #E7E7E7",
"V c #EAEAEA",
"C c gray92",
"Z c gray93",
"A c #EEEEEE",
"S c #F1F1F1",
"D c gray95",
"F c #F4F4F4",
"G c #F8F8F8",
"H c #FBFBFB",
"J c gray100",
/* pixels */
"JJJJJJJJJJJJJJJJ",
"JJJJJveqgJJJJJJJ",
"JJJJJmzetgSJJJJJ",
"JJJJMvMCmMVCHJJJ",
"JJJJgzbBFzutaSJJ",
"JJJBihvBMwwwtbJJ",
"JJJdudzMdq36ehJJ",
"JJFqtahM6*O37aJJ",
"JJhqwugd3o.<<uFJ",
"JJq6wuh6<#.::iCJ",
"Jz<57ea>:5:%$qmJ",
"Je,57ew**%$$$5zJ",
"JFt,6d*$5: X#*dJ",
"JJJMqe$*uhz+@:uJ",
"JJJJHmuuaCJJMzvJ",
"JJJJJJJJJJJJJJJJ"
};
