/* XPM */
static char *TGLTorus[] = {
/* columns rows colors chars-per-pixel */
"16 16 135 2",
"   c gray31",
".  c gray36",
"X  c #5E5D5E",
"o  c #606060",
"O  c #666566",
"+  c #676667",
"@  c #676767",
"#  c #686868",
"$  c #6D6D6D",
"%  c gray44",
"&  c #727272",
"*  c #737273",
"=  c #747374",
"-  c #747474",
";  c gray46",
":  c #767676",
">  c #777777",
",  c #797979",
"<  c #797A79",
"1  c gray48",
"2  c #7B7B7B",
"3  c #7C7B7C",
"4  c #7C7C7C",
"5  c gray49",
"6  c #7E7D7E",
"7  c #7E7E7E",
"8  c gray50",
"9  c #808080",
"0  c #818181",
"q  c gray51",
"w  c #838283",
"e  c #838383",
"r  c #848484",
"t  c gray52",
"y  c #868686",
"u  c #868786",
"i  c #878887",
"p  c #888888",
"a  c #888988",
"s  c #898989",
"d  c gray54",
"f  c #8B8C8B",
"g  c gray55",
"h  c #8D8D8D",
"j  c #8E8E8E",
"k  c gray56",
"l  c gray57",
"z  c #929292",
"x  c #939393",
"c  c gray58",
"v  c #959595",
"b  c gray59",
"n  c #979797",
"m  c #989798",
"M  c #989898",
"N  c gray60",
"B  c #9A9A9A",
"V  c #9B9A9B",
"C  c #9B9B9B",
"Z  c gray61",
"A  c #9C9D9C",
"S  c #9D9D9D",
"D  c #A0A0A0",
"F  c gray63",
"G  c #A2A1A2",
"H  c #A2A2A2",
"J  c gray64",
"K  c #A4A4A4",
"L  c #A4A5A4",
"P  c #A6A5A6",
"I  c #A6A7A6",
"U  c #A7A6A7",
"Y  c #A7A7A7",
"T  c #A8A7A8",
"R  c gray66",
"E  c #A8A9A8",
"W  c #A9A9A9",
"Q  c #AAAAAA",
"!  c #ACABAC",
"~  c #ACADAC",
"^  c gray68",
"/  c #AEADAE",
"(  c gray69",
")  c #B1B1B1",
"_  c #B2B2B2",
"`  c #B3B2B3",
"'  c gray70",
"]  c #B4B4B4",
"[  c gray71",
"{  c #B6B6B6",
"}  c #B7B7B7",
"|  c #B9B8B9",
" . c gray73",
".. c #BBBBBB",
"X. c gray74",
"o. c #C1C1C1",
"O. c #C3C3C3",
"+. c gray77",
"@. c #C5C5C5",
"#. c #C6C6C6",
"$. c #C8C8C8",
"%. c #CACACA",
"&. c gray80",
"*. c gray81",
"=. c #D0D0D0",
"-. c gray83",
";. c #D8D8D8",
":. c #DADADA",
">. c #DBDCDB",
",. c gainsboro",
"<. c gray88",
"1. c #E2E2E2",
"2. c gray89",
"3. c #E4E4E4",
"4. c gray90",
"5. c #E6E6E6",
"6. c gray91",
"7. c #E9E9E9",
"8. c #EAEAEA",
"9. c gray92",
"0. c gray93",
"q. c #EEEEEE",
"w. c #F1F1F1",
"e. c #F2F3F2",
"r. c #F3F3F3",
"t. c gray96",
"y. c gray97",
"u. c #F8F8F8",
"i. c #F9FAF9",
"p. c gray98",
"a. c #FBFBFB",
"s. c gray99",
"d. c #FCFDFC",
"f. c #FDFDFD",
"g. c #FDFEFD",
/* pixels */
"f.f.f.f.f.f.2._ b 7 2 ] p.f.f.f.",
"f.f.f.f.t.| b S I I h # I s.f.f.",
"f.f.f.0.H i 9 7 e I I : 7 2.f.f.",
"f.f.e.M 9 : + h } T T 7 2 O.0.f.",
"f.a.I e i l ;.;.J l H 1 9 } T p.",
"f.%.9 b ! 6.=.S C %.I : h | i :.",
"t.l h | 5.;.S H 5.0.h : M ^ e #.",
"-.9 H ;.0.H S 2.s.} 1 7 ^ M 9 &.",
"} 1 _ 0.o.x #.f.&.e : e _ 7 9 6.",
"T % H 6.M n w.*.h : : S l 7 I f.",
"_ : # ^ i M } f = $ e m 7 8 :.f.",
"#.M 9 : 9 b f * # * k 7 1 | f.f.",
"5.T H S b e $ X + 7 4 1 ^ y.f.f.",
"f.&.l i 1 o   X 1 7 9 X.p.f.f.f.",
"f.f.9.} b u 9 e f _ 2.f.f.f.f.f.",
"f.f.f.f.f.f.w.6.t.a.f.f.f.f.f.f."
};
