/* XPM */
static char *TGLSLProjectedTextures[] = {
/* columns rows colors chars-per-pixel */
"16 16 21 1",
"  c #00003D",
". c #002A00",
"X c #00004C",
"o c #0402FC",
"O c #6261DE",
"+ c #008000",
"@ c #60A060",
"# c #69CE6D",
"$ c #04FEFC",
"% c #62DFDE",
"& c #E90000",
"* c red",
"= c #E95D00",
"- c magenta",
"; c #9C8756",
": c #FFA201",
"> c #E9E94E",
", c #F2F262",
"< c #FF8C8C",
"1 c #FFD797",
"2 c #FFFF80",
/* pixels */
"-22$$$$$$$$$$$$-",
"222$$$$$<<<111$+",
"22$$$$$$<<<111++",
"$$$$$$$%<<<11#++",
"$$$$$$%%111<;;++",
"$$$$$%%%111;;;++",
"$$$$%%%%11#;;;++",
"$$$%%%%%%@@@@+++",
"ooOOOOOO@@@@++++",
"o***:::OOO@+++++",
"o*&&===    XXX..",
"o*&&>>=,  ,,X,X.",
"o:=,&&&, X,XX,XX",
"o:=,&,&,XXX,X,XX",
"o:=,,,&,,X,,X,,X",
"-oXXXXXXXXXXXXX-"
};
