/* XPM */
static char *TGLShadowPlane[] = {
/* columns rows colors chars-per-pixel */
"16 16 16 1",
"  c #040204",
". c #848204",
"X c #0402FC",
"o c #C4C2C4",
"O c #840204",
"+ c #FCFEFC",
"@ c #833E00",
"# c #7C7700",
"$ c #186968",
"% c #9F0EF1",
"& c #803E17",
"* c #7C7700",
"= c #FF004A",
"- c #FF0002",
"; c #FF002D",
": c red",
/* pixels */
"ooooooo  ooooooo",
"ooooooo + oooooo",
"ooooooo ++ ooooo",
"ooooooo +++ oooo",
"ooXXooo ++   ooo",
"ooXXooo ++  + oo",
"oooXooo ++ ++ oo",
"ooOOOoo +   + oo",
"ooOOOoo +   + oo",
"ooOOOoo +   + oo",
"ooo..ooo   ++ oo",
"ooo..oooo  ++ oo",
"oooooooooo ++ oo",
"ooooooooooo + oo",
"oooooooooooo  oo",
"ooooooooooooo oo"
};
