/* XPM */
static char *calclun[] = {
/* columns rows colors chars-per-pixel */
"32 32 64 1 ",
"  c black",
". c gray2",
"X c gray3",
"o c #0E0E0E",
"O c #101010",
"+ c #131313",
"@ c gray8",
"# c #151515",
"$ c #191919",
"% c gray12",
"& c #202020",
"* c gray14",
"= c gray15",
"- c #2A2A2A",
"; c #2D2D2D",
": c gray19",
"> c #353535",
", c gray22",
"< c #3E3E3E",
"1 c #434343",
"2 c gray27",
"3 c #4B4B4B",
"4 c #4E4E4E",
"5 c #535353",
"6 c #565656",
"7 c #5A5A5A",
"8 c #5F5F5F",
"9 c gray38",
"0 c #646464",
"q c #686868",
"w c #6C6C6C",
"e c gray45",
"r c #777777",
"t c #7B7B7B",
"y c #7E7E7E",
"u c gray51",
"i c gray52",
"p c #898989",
"a c #8E8E8E",
"s c #929292",
"d c #979797",
"f c #989898",
"g c #9F9F9F",
"h c #A2A2A2",
"j c #A7A7A7",
"k c #AAAAAA",
"l c #AEAEAE",
"z c #AFAFAF",
"x c gray70",
"c c #B4B4B4",
"v c #B7B7B7",
"b c gray72",
"n c gray73",
"m c #BCBCBC",
"M c gray74",
"N c #C1C1C1",
"B c gray77",
"V c gray79",
"C c #CECECE",
"Z c #D0D0D0",
"A c gray84",
"S c #D8D8D8",
"D c gainsboro",
"F c gray88",
/* pixels */
"                                ",
"              %464<&            ",
"           Xo2sllkjdy5$         ",
"        .X#$,gnnnnvvxka6X       ",
"       .+$%&iNNNNBNNMnxjt-      ",
"      X#%&=3vBVVVVBBNNMvlp:     ",
"     X#&=-;uVCCCCCCCVBBNnxp-    ",
"    .#%=-;,kCVCCCVVVVBBBMnxy+   ",
"    +%=-;>6Bv999099998eNNNvk7   ",
"   X$&-;:>rZl#+o+o+o++4NVNMvd=  ",
"  .+&-;:>,sAn>+$qyttrriVCBNnk9  ",
"  .$&;:>,,jSSj:+eVSAAAAZCVBMvpX ",
"  o%=-:>,1vSDDk:oeVDSSAZCCBNvg: ",
"  +&-;>>,2NSDDDk:+eCDSSAZCVNnk5 ",
"  #&-:>,<3BDDDFDk>oeCSSAZZVNnl9 ",
" .#&=;>,<4VDFFFFSqo$jSSSZCVBMxw ",
" .#&-:>,<4VDDFFSd$#pADSAZCVBMlq ",
"  #%-;>,<4BDDDDh=oyADDSAZCVBMv0 ",
"  +%-;>,,2NSDDk;orZDDSAAZCVNnl6 ",
"  o%=-:>,1nSDv,+qCDDSSACZCBNnh> ",
"  X$&;:>,<kAM2+>gvxxxllMCVNMxao ",
"   #&-;:>,dAg+o+&$###++aCVNnl0  ",
"   o$&-;>>tZh$$$$$$$$$$pVNMvf;  ",
"    +%=;;>7BNxvvvxvxxllvBNnl0   ",
"    .$&=-;,xCZZAAZZCCVVBNnxi$   ",
"     X$&=-;pVCCCCCCCVVBMnxd>    ",
"      X$%==5nVVVVVVBBNnnxs<     ",
"       X#$&=aNNBBNNNMMvli>      ",
"        .o#%1hnnMnnvxld9$       ",
"           Xo5gxxlkha9-         ",
"              :9q94:o           ",
"                                "
};
