/* XPM */
static char *datlun[] = {
/* columns rows colors chars-per-pixel */
"64 64 52 1 ",
"  c #7EB2FF",
". c #ABAAAA",
"X c #BBBBBB",
"o c #C0BFBF",
"O c #B0BCCC",
"+ c #89B8FD",
"@ c #93BEFD",
"# c #BFC9D5",
"$ c #96C0FD",
"% c #9DC3FC",
"& c #B6C9E3",
"* c #BFCFE7",
"= c #B4CBEC",
"- c #B9CEEC",
"; c #BFD1EA",
": c #A2C3F3",
"> c #A2C6FC",
", c #A6C8FC",
"< c #ABCCFC",
"1 c #B1CFFC",
"2 c #B4D2FD",
"3 c #BAD5FD",
"4 c #C4C3C3",
"5 c #C8C6C6",
"6 c #C9C8C7",
"7 c #CDCDCD",
"8 c #CFD3DA",
"9 c #D4D4D4",
"0 c #D8D7D7",
"q c #D1D6DD",
"w c #D7D8D8",
"e c #DBDBDB",
"r c #E0DFDF",
"t c #E3E1DE",
"y c #C3D5EF",
"u c #C4D9F5",
"i c #C4DBF9",
"p c #CADEFA",
"a c #D9E6F6",
"s c #E4E4E4",
"d c #E8E7E7",
"f c #EDECEC",
"g c #F0EFEF",
"h c #E5EEF5",
"j c #ECEFF3",
"k c #ECF0F5",
"l c #F4F3F3",
"z c #F8F7F7",
"x c #FBF9F7",
"c c #F7F8F8",
"v c #FAFAFA",
"b c None",
/* pixels */
"bbbbbbbbbbbbbbbbbbbbbbbbbbbbbbbbbbbbbbbbbbbbbbbbbbbbbbbbbbbbbbbb",
"bbbbbbbbbbbbbbbbbbbbbbbbbbbbbbbbbbbbbbbbbbbbbbbbbbbbbbbbbbbbbbbb",
"bbbbbbbbbbbbbbbbbbbbbbbbbbbbbbbbbbbbbbbbbbbbbbbbbbbbbbbbbbbbbbbb",
"bbbbbbbbbbbbbbbbbbbbbbbbbbbbbbbbbbbbbbbbbbbbbbbbbbbbbbbbbbbbbbbb",
"bbbbbbbb9gffffffffgfgfffgfggfgggfggfffffgfffgffffjfffggdbbbbbbbb",
"bbbbbbbb7f9sggflgggggglllllglggllglglllllglggglggggggggdbbbbbbbb",
"bbbbbbbb7forgglggllllllgllglllllllllllllgllllglglggggggfbbbbbbbb",
"bbbbbbbb7gglglfdffddfjjkjjjjfggfgggggggfgfgfggffgfgfgggfbbbbbbbb",
"bbbbbbbb7gdggf70we98$%%>>,,<*0wweeee9eeeeeee9eeeeee9flgfbbbbbbbb",
"bbbbbbbb7gXelf0zlllk@,>,,<<<ydsssdssedddddssedsdsdsegglfbbbbbbbb",
"bbbbbbbb7lsglfellllh@2<22232ytssssssesssssssesssssseggggbbbbbbbb",
"bbbbbbbb7llllfqjkkka$2223333;eeesesrwssessse9srrsrr0gllfbbbbbbbb",
"bbbbbbbb7l7slj<<>%$+$iiuuppu#erressswssssrseessrrss9gllgbbbbbbbb",
"bbbbbbbb7l6dzj131>$ ,xcxcxxf9vcvvvvlsvvvvzllsczzlllsgllgbbbbbbbb",
"bbbbbbbb7llzlj13<>@ ,xzcccvf9vvvvvzlsvzzzlvlszclllvsgllgbbbbbbbb",
"bbbbbbbb7ldllj12<%++:ffffffs7llllllfsllllllfrllglllellzgbbbbbbbb",
"bbbbbbbb7lXrck&;====O6677797.4sssdsswdddddssqdssssselllfbbbbbbbb",
"bbbbbbbb7ldlcg7rette0vvvvvvl4svvvvvldvvvvxvlsvcxzzvsllllbbbbbbbb",
"bbbbbbbb7czccg7trrrewvvvvvvlrvvvvvvcdvcvcvvlsvxxvllsgzlgbbbbbbbb",
"bbbbbbbb7l5scg7eeeew9gllglkfelclcccfsccclllgsllklllslcclbbbbbbbb",
"bbbbbbbb7l9fcl7777776eeerrre9ssdsddswddddddrwddssssellcgbbbbbbbb",
"bbbbbbbb7cccck9rrssrevvvvvvcsvvvvvvcdvvvvvvldvvvvcvslcllbbbbbbbb",
"bbbbbbbb7csgvl9rsrsrevvvvvvlsvvvvvvcdvvvvvvcsvvxvcvslccgbbbbbbbb",
"bbbbbbbb7lXscl9rrrseellcllcfrllvclckslclcclksclklllsllvkbbbbbbbb",
"bbbbbbbb7vllcl7999q97srsrssewssddddseddddddswdddsdselcvgbbbbbbbb",
"bbbbbbbb7vlvvlesssdssvvvvvvcdvvvvvvcsvvvvvvcdvvvvvvdlccgbbbbbbbb",
"bbbbbbbb7l4svlwssddsrvvvvvvcsvvvvvvldvvvvvvkdvvvvccslcvkbbbbbbbb",
"bbbbbbbb7lejclwssssreccclclkrcccvlvkslccclcfsllllllslcllbbbbbbbb",
"bbbbbbbb7vvvvl9eqwewwsssdddswddddddseddddddseddsssdelccgbbbbbbbb",
"bbbbbbbb7cefvleddddddvvvvvvcdvvvvvvlsvvvvvvldvvvvvvslcclbbbbbbbb",
"bbbbbbbb7l4svledddfddvvvvvvldvvvvvvcdvvvvcvlsvcvccvdllllbbbbbbbb",
"bbbbbbbb7vlcclessddsrlllclcgsckclclgsclccllgrclllllslcvlbbbbbbbb",
"bbbbbbbb7xllclweeeeeedsddddsedddddds0ddddddswdssdsselzclbbbbbbbb",
"bbbbbbbb7loscledddfdsvvvvvvldvvvvvvzdvvvvvvldvvxvvvslzllbbbbbbbb",
"bbbbbbbb7csgcledddddsvvvvvvldvvvvvvldvvvvvvlsxvcclcslllfbbbbbbbb",
"bbbbbbbb7vvxclessdsssclllllfsclllllksclllllgskllllltlcllbbbbbbbb",
"bbbbbbbb7c9fxl0eeereessddddsessddddswdsddssrwssssssefllfbbbbbbbb",
"bbbbbbbb7l5scledddddsvvvvvvldvvvvvvldvvcxxvlsxzzlllsfllfbbbbbbbb",
"bbbbbbbb7czcclesddfdscvvvvvlsvvvvcclscccxccgsczlllltfllfbbbbbbbb",
"bbbbbbbb7cglclessssssllllllfsllllllgtllllkgfrggffffedffdbbbbbbbb",
"bbbbbbbb7kXrvl0ewereqddsssssessdsddswdssssrrwtrrree9dfddbbbbbbbb",
"bbbbbbbb7cdlxkedddfsdvvvvvvldvvvvvclsvcclccfrlkgjffwsddsbbbbbbbb",
"bbbbbbbb7xvxxkesdddssxcvvvvlsvccccclsxlcllkfekfddddwsre9bbbbbbbb",
"bbbbbbbb7c7dxlessssdsllklllfsllllllftkgggffs9ddssrr7ew9.bbbbbbbb",
"bbbbbbbb7l7dvk9weeewwdssssssedssssstwssrreew7w99777#67Xbbbbbbbbb",
"bbbbbbbb7xccxcedddddsvxvvcvlsvvvvvclslllkfdr7ew9976X6Xbbbbbbbbbb",
"bbbbbbbb7xdgckwdddddsxcczcclsvlcclclslkgfdfdesreeeeeXbbbbbbbbbbb",
"bbbbbbbb7kXrxlwssdssrllkkllfslllglldegfdstdvvvvcldtobbbbbbbbbbbb",
"bbbbbbbb7cflzl9eeeeewsssssssesssssse0eeee7evvzzgdrobbbbbbbbbbbbb",
"bbbbbbbb7vzlzlesddddsvvcccclsvcclvllslgfsedvzlgft4bbbbbbbbbbbbbb",
"bbbbbbbb7l5sllessddsscczzczlsczzzllgelfdsesvlldr5bbbbbbbbbbbbbbb",
"bbbbbbbb7l9fzlesssssrllklglftllglljdeddsr9rllds5bbbbbbbbbbbbbbbb",
"bbbbbbbb7zzlll9eeeee0ssssssr0sssssre9e0994eldr5bbbbbbbbbbbbbbbbb",
"bbbbbbbb7zsfzlesddddsvzzczzlsvzzlllfefddr9sds5bbbbbbbbbbbbbbbbbb",
"bbbbbbbb7lXszgessddsszzzzzzlszzzlllfefdsr9ss5bbbbbbbbbbbbbbbbbbb",
"bbbbbbbb7lllzl9ssssselgllglfrlgggffs0dse97s4bbbbbbbbbbbbbbbbbbbb",
"bbbbbbbb7zllzlssssrsrssssssssssssrree99747obbbbbbbbbbbbbbbbbbbbb",
"bbbbbbbb7lorzlzlzvzzzzzzzzzzzzllllgffdse9Xbbbbbbbbbbbbbbbbbbbbbb",
"bbbbbbbb7leflzzzzlzzllzllzlzllllgggffss9.bbbbbbbbbbbbbbbbbbbbbbb",
"bbbbbbbb7ggggfffgfffggggggggfgffffddds6bbbbbbbbbbbbbbbbbbbbbbbbb",
"bbbbbbbbbbbbbbbbbbbbbbbbbbbbbbbbbbbbbbbbbbbbbbbbbbbbbbbbbbbbbbbb",
"bbbbbbbbbbbbbbbbbbbbbbbbbbbbbbbbbbbbbbbbbbbbbbbbbbbbbbbbbbbbbbbb",
"bbbbbbbbbbbbbbbbbbbbbbbbbbbbbbbbbbbbbbbbbbbbbbbbbbbbbbbbbbbbbbbb",
"bbbbbbbbbbbbbbbbbbbbbbbbbbbbbbbbbbbbbbbbbbbbbbbbbbbbbbbbbbbbbbbb"
};
