/* XPM */
static char *notelun[] = {
/* columns rows colors chars-per-pixel */
"64 64 44 1 ",
"  c #000000",
". c #0C0C0C",
"X c #131313",
"o c #1C1C1C",
"O c #242424",
"+ c #232629",
"@ c #26292C",
"# c #2B2B2B",
"$ c #2C2E31",
"% c #2E3133",
"& c #333333",
"* c #353739",
"= c #3B3C3C",
"- c #3D3F40",
"; c #424344",
": c #454748",
"> c #47494A",
", c #4C4C4C",
"< c #535353",
"1 c #575859",
"2 c #5C5C5D",
"3 c #5F6061",
"4 c #626262",
"5 c #6B6B6B",
"6 c #6F7070",
"7 c #737474",
"8 c #777879",
"9 c #7B7B7C",
"0 c #838384",
"q c #878888",
"w c #8B8B8B",
"e c #8F8F90",
"r c #939393",
"t c #979898",
"y c #9B9B9B",
"u c #A4A4A4",
"i c #ACACAC",
"p c #B4B4B4",
"a c #BCBCBC",
"s c #C3C4C4",
"d c #CCCCCC",
"f c #D4D4D4",
"g c #DBDBDB",
"h c gray88",
/* pixels */
"                                                                ",
"                                                                ",
"                                                                ",
"                           .O,478752,&o.                        ",
"                        ..*5yuiiiuiuuyr81&.                     ",
"                      ..o1yipppppppppiiiuy0,o                   ",
"                    XXXO7ipppapaappaappppiiuw<o                 ",
"                  .XXo#0paaaaaaaaaaaaaappppiiu0-.               ",
"                ..XXOO9paaasssasssasaasaaaappiiy5O              ",
"               .XXoOO4paassssssssssssssasaaaappiu0*             ",
"              XXoooO,isssssssssdsssdssssssaaaappiie;            ",
"            .XXooOO&rssssddsdddddddddddssssssaaappit,           ",
"            XXooOOO4assddddddddddddddddddsdssaaapppit;          ",
"           XXoOOO#&usdddddddfddfdffdddddddsssssaaappir=         ",
"          XXoOOO##4adddddddffdffffddffddddddddsssaappiq#        ",
"         XXooOOO#&ydddddffdfdffffffffdfddfdddssssaaappu7X       ",
"        .XXOOOO##<adddfdffffffffffffffffdffdaussssaaapiu<       ",
"        .ooOOO##&0dddffffffffffffgfffffffdfs6*wsssssappieO      ",
"       .XoOO###&=idfdfffffffgfggfgfgffffffs7$+%qsdsaaappu4.     ",
"       XXoOO####<sfdfffffgfgfggfgggfgggffd7$+++%qsssaaapit#     ",
"      .oooO###&&7dfffffffggggggggfgggfgfs7$+++++&qsssaapii4     ",
"      .ooOO###&=yfdffffgfggfgggggggggggd8*@++++++$0sssaapiwO    ",
"     .XoOOO#&&&=pfffffggfgggggggggggggd8-r9%++++++&qasaappu;    ",
"     .ooOO##&#&,sffffgfggggggggggggggd8-tfd9$+++O++2assaapi7.   ",
"     XooOO##&&&4dfffgfggggggghghghggf8-tffgd0$++++2psssaapieo   ",
"     XoOO##&&&&9dffffgggggggghhghggf8-yfgggfd9%++2pddssaapiu*   ",
"    .XooO###&&&effgffgggggghhghghgf9-tgggggfgd3+2adddsssappu1   ",
"    .ooOO##&&&=yfffgggggghghghhhhf8-ygggggggfi;1addddssaappi6   ",
"    XooO###&&&=iffgfgggghghhhghhf8-ygghgggggi;3affdddsssaapi0.  ",
"    XoOOO##$&&=pffffggggghghhhhf9-ygghghgggi;2affffdddssaapiqX  ",
"    .ooO###%&&;pfffgfgghgghhhhf9-ygghhhghgi;4sfffddddsssaapiro  ",
"    XooOO#&&**;pfggggggghhghhf8=yghhhhghgi;2sfgffffdddssaapirO  ",
"    XXoOO#&#&=;pfffgggghhghgf8-yghhhhghgp-3sgggffdfddsssaapir+  ",
"   .XoOO###&&&;pffgfggggghgf8-yghhhghhgp-3sggfffffddddssaapie+  ",
"    XXoOO#&&&&=pfgggggggghf8$9ghhhhhhgp;3sgggffffffddssssapiwX  ",
"    .ooOO##&&&=ifffgfggggf9&+eghghhhgp;2sggffggfffddddsaaapi0X  ",
"    .ooO###&&&=uffggggggf8-q-qfgghhhp:3sggggggfffddddsssaapi7   ",
"    .XoOO###&&&tdfffggfgu*ys>,789dgp-2sgggfgfffffffdddssapii2   ",
"    .XooO##&&&&9fffggfggy-sf733:>sp-3shgggfggfffddddsssaapiu;   ",
"     XoOOO##&&&5dffffgggy-sgfffe:r:3sgggggggfffdfddddssaapitO   ",
"     .ooOOO##&&<sffffgfgy=aggght$%3sggggggfgffffddddsssappi9.   ",
"     .ooOO###&&;affffggfy#5dggfw@3sggggfgffffffffddsssaappu<    ",
"      .oOOO##&&=yfffffffy+#4tye-3sggggggfggffddfdddsssaapit+    ",
"      .XoOOO###&0ddfffgfy===---3sfggggffgffffffddddssaappi6.    ",
"      .XooOO##$&3sdfffffdssssssdggggfggffffdfddddssssaapiy=     ",
"       .XoOOO##$;pddfffffffggfgggffggfffffffdfddsdssaappi7.     ",
"       ..ooOO###%rddfdfdfffffgfffgffffffffffdddddsssaapiy&      ",
"        .XoOOO@#$2sddfdffffffffffffffffffdddddddssaapppu4.      ",
"         .XoOOO##=udddddffdfffffffffffdfdfdddsdssaaappi0O       ",
"          XXoOOO##8sdddddfdfdfffffdfddfdddddddsssaaapir=        ",
"          .XXooOO#=isdddddddfdfdddfddfdddddssssaaappiy<         ",
"           .XooOOO#7sssdddddddddddddddddddssssaaappiu2.         ",
"            ..oooOO=usssdsdddddddddddsddsssssaaappiu4X          ",
"             .XXooOO2pssssssdssddsdsdssssssaaaappiy2.           ",
"               XXooo+9aasssssssssssssssssaaaappiir,.            ",
"                .Xooo&eaasasassssssssaaaaaapppiu0=              ",
"                  XXoo*tpaaaaaaaaaaaaaapappiiit3O               ",
"                   ..Xo=epapaaaaaaaapapppiiiy7#.                ",
"                      .X#9uppppppppppppiiur5&.                  ",
"                         o<wuiiiiiiiuuur7<O.                    ",
"                          .o;50www0051*o.                       ",
"                              XoooX.                            ",
"                                                                ",
"                                                                "
};
