/* XPM */
static char *photlun[] = {
/* columns rows colors chars-per-pixel */
"64 64 256 2 ",
"   c black",
".  c #010101",
"X  c #020202",
"o  c gray1",
"O  c #040404",
"+  c gray2",
"@  c #060606",
"#  c #070707",
"$  c gray3",
"%  c #090909",
"&  c gray4",
"*  c #0B0B0B",
"=  c #0C0C0C",
"-  c gray5",
";  c #0E0E0E",
":  c gray6",
">  c #101010",
",  c #111111",
"<  c gray7",
"1  c #131313",
"2  c gray8",
"3  c #151515",
"4  c #161616",
"5  c gray9",
"6  c #181818",
"7  c #191919",
"8  c gray10",
"9  c #1B1B1B",
"0  c gray11",
"q  c #1D1D1D",
"w  c #1E1E1E",
"e  c gray12",
"r  c #202020",
"t  c gray13",
"y  c #222222",
"u  c #232323",
"i  c gray14",
"p  c #252525",
"a  c gray15",
"s  c #272727",
"d  c #282828",
"f  c gray16",
"g  c #2A2A2A",
"h  c gray17",
"j  c #2C2C2C",
"k  c #2D2D2D",
"l  c gray18",
"z  c #2F2F2F",
"x  c gray19",
"c  c #313131",
"v  c #323232",
"b  c gray20",
"n  c #343434",
"m  c #353535",
"M  c gray21",
"N  c #373737",
"B  c gray22",
"V  c #393939",
"C  c #3A3A3A",
"Z  c gray23",
"A  c #3C3C3C",
"S  c gray24",
"D  c #3E3E3E",
"F  c #3F3F3F",
"G  c gray25",
"H  c #414141",
"J  c gray26",
"K  c #434343",
"L  c #444444",
"P  c gray27",
"I  c #464646",
"U  c gray28",
"Y  c #484848",
"T  c #494949",
"R  c gray29",
"E  c #4B4B4B",
"W  c #4C4C4C",
"Q  c gray30",
"!  c #4E4E4E",
"~  c gray31",
"^  c #505050",
"/  c #515151",
"(  c gray32",
")  c #535353",
"_  c gray33",
"`  c #555555",
"'  c #565656",
"]  c gray34",
"[  c #585858",
"{  c gray35",
"}  c #5A5A5A",
"|  c #5B5B5B",
" . c gray36",
".. c #5D5D5D",
"X. c gray37",
"o. c #5F5F5F",
"O. c #606060",
"+. c gray38",
"@. c #626262",
"#. c gray39",
"$. c #646464",
"%. c #656565",
"&. c gray40",
"*. c #676767",
"=. c #686868",
"-. c DimGray",
";. c #6A6A6A",
":. c gray42",
">. c #6C6C6C",
",. c #6D6D6D",
"<. c gray43",
"1. c #6F6F6F",
"2. c gray44",
"3. c #717171",
"4. c #727272",
"5. c gray45",
"6. c #747474",
"7. c gray46",
"8. c #767676",
"9. c #777777",
"0. c gray47",
"q. c #797979",
"w. c gray48",
"e. c #7B7B7B",
"r. c #7C7C7C",
"t. c gray49",
"y. c #7E7E7E",
"u. c gray50",
"i. c #808080",
"p. c #818181",
"a. c gray51",
"s. c #838383",
"d. c #848484",
"f. c gray52",
"g. c #868686",
"h. c gray53",
"j. c #888888",
"k. c #898989",
"l. c gray54",
"z. c #8B8B8B",
"x. c gray55",
"c. c #8D8D8D",
"v. c #8E8E8E",
"b. c gray56",
"n. c #909090",
"m. c gray57",
"M. c #929292",
"N. c #939393",
"B. c gray58",
"V. c #959595",
"C. c gray59",
"Z. c #979797",
"A. c #989898",
"S. c gray60",
"D. c #9A9A9A",
"F. c #9B9B9B",
"G. c gray61",
"H. c #9D9D9D",
"J. c gray62",
"K. c #9F9F9F",
"L. c #A0A0A0",
"P. c gray63",
"I. c #A2A2A2",
"U. c gray64",
"Y. c #A4A4A4",
"T. c #A5A5A5",
"R. c gray65",
"E. c #A7A7A7",
"W. c gray66",
"Q. c #A9A9A9",
"!. c #AAAAAA",
"~. c gray67",
"^. c #ACACAC",
"/. c gray68",
"(. c #AEAEAE",
"). c #AFAFAF",
"_. c gray69",
"`. c #B1B1B1",
"'. c #B2B2B2",
"]. c gray70",
"[. c #B4B4B4",
"{. c gray71",
"}. c #B6B6B6",
"|. c #B7B7B7",
" X c gray72",
".X c #B9B9B9",
"XX c gray73",
"oX c #BBBBBB",
"OX c #BCBCBC",
"+X c gray74",
"@X c gray",
"#X c gray75",
"$X c #C0C0C0",
"%X c #C1C1C1",
"&X c gray76",
"*X c #C3C3C3",
"=X c gray77",
"-X c #C5C5C5",
";X c #C6C6C6",
":X c gray78",
">X c #C8C8C8",
",X c gray79",
"<X c #CACACA",
"1X c #CBCBCB",
"2X c gray80",
"3X c #CDCDCD",
"4X c #CECECE",
"5X c gray81",
"6X c #D0D0D0",
"7X c gray82",
"8X c #D2D2D2",
"9X c LightGray",
"0X c gray83",
"qX c #D5D5D5",
"wX c gray84",
"eX c #D7D7D7",
"rX c #D8D8D8",
"tX c gray85",
"yX c #DADADA",
"uX c gray86",
"iX c gainsboro",
"pX c #DDDDDD",
"aX c gray87",
"sX c #DFDFDF",
"dX c gray88",
"fX c #E1E1E1",
"gX c #E2E2E2",
"hX c gray89",
"jX c #E4E4E4",
"kX c gray90",
"lX c #E6E6E6",
"zX c #E7E7E7",
"xX c gray91",
"cX c #E9E9E9",
"vX c #EAEAEA",
"bX c gray92",
"nX c #ECECEC",
"mX c gray93",
"MX c #EEEEEE",
"NX c #EFEFEF",
"BX c gray94",
"VX c #F1F1F1",
"CX c gray95",
"ZX c #F3F3F3",
"AX c #F4F4F4",
"SX c gray96",
"DX c #F6F6F6",
"FX c gray97",
"GX c #F8F8F8",
"HX c #F9F9F9",
"JX c gray98",
"KX c #FBFBFB",
"LX c gray99",
"PX c #FDFDFD",
"IX c #FEFEFE",
"UX c white",
/* pixels */
"p.f.p.d.p.=.c.h.6.N.x.f.f.B.f.8.e.2.3.H.u.Y.`.,.9.Z.n.q.5.>.0.D.t.z.4.M.>.0.2.[ F.M.Z.d.e.B.g.h.f.y.9.4.5.g.j.A.b.e.e.8.3.,.2.t.",
"y.x.d.e.g.9.<.Y.n.x.m.8.0.k.d.0.s.p.b.~.1.f.P...r.a.y.s.a.d.q.l.u.Z.d.s.w.0.>. .A.N.N.A.u.8.f.d.2.8.h.<.z.y.C.Z.k.i.i.t.0.3. .( ",
"p.y.i.w.p.p.3.d.U.w.r.i.=.C.s.M.k.I.l.r.4.>.n.@.=.N.j.<.&.q.c.n.s.L.z.y.r.m.&.%.A.H.b.z.l.>.e.r.y.r.r.{ W P x.7XOXE.S.C._ i 7 > ",
"u.e.w.y.e.i.d.0.p.d.y.t.t.C.F.F.J.P.i.+.;.:.p.=.3.A.q.,.{ r.E.N.u.S.J.r.,.l.d.q.S.I.G.m.8.} P D A a t < - . <.UXBXZXjXuX(.m # % ",
"7.a.e.d.g.a.C.u.w.N.O.2.E.b.|.OX8.j.7.1.3.{ e.w. .0.1.4._ 7.$XC.d.9.S.x.V.r.k._ U u.uX;XD > * & @ # = - & s $XKXUXXX;.yXUX}.9.g.",
"7.i.Z.N.b.u.h.G.:.:.j.q.}.M.XXA.O.-.-.d.0.} 5.6.} 0._ _ ) w.XXW.$.< S 9XqXE w 2 X 3.UXfXw # ; : - - + - r ^.UXFXM.9 X W.UX0.XXUX",
"q.g.N.V.c.j.s.t.x.$.J.B.j.P.+Xd.#.2.~ 7.e.U g.4.t.t.b y 7.k.).U.6.K i {.Q.& % > + t.UXJX>.0 2 ; ; 5 [ r.F.VXjX#.@ > = F [.~ L.UX",
"g.k.x.n.H.4.g.K.M.O.Z @.`.-XT.D.=.%.@.@.} p s.N.P.b.G j -.&.n.2.7.c.2.c t.t $ : * 8 ! |.xX#XOXT + D FX4XZ.yXw.X < = , $ { 2.u.zX",
"R.D.h.v.H.v.B.%X@.: ! ( 1XMX^.K.3.f.:...A z ' }.~.<.2 - E S.+X' | n.g.x 4.H + * - % # ! N.<XUXuX8 =.nXW.N n.U.R > r % : q q z.BX",
"`.'.].L.H.m.-.;.$.] oXw.~..X XU.W h.9.u.9.y j <.A = T  .C.zXD.5.s.P.<.B c.p.P 4 & : : I XXL.lXfX,.OX7.a g 8XCX;.f { 0.] * 3 g.DX",
"R.`.3X).A.A.c.4.b.z.U E +X$XR.} $.f.E.j.6.x = $ # 7 2XjX.X:XC } L.x.b.H H 2.v.s < 1 3 4.4Xy.9.eXBX8.#   =.UX#Xr.C.<.qXpXM 1 M u.",
"H.y.$X,XF.H.`.{.h./ & Q fXXXN.2.K.r.a.*.t.) q * @ L '.n.[.).o.W m.Q 7.o.z.V.p.! 2 1 ( k.W.).N.|.BXl.R n F F.G.c.&X#XyX7X[ % 1 w ",
"4.a Y.LX_.R.T./.h.t & x <X<X>Xx.h.k.b.I +.! R , - i H R m.i.&.V r.@.g.|..XL.u.XXz , @.[.%XH.F.2X).^ y.Q.$.2.' Z.fX>X5X_.4.G > z ",
"y 7 M.UXpXD.P.D.J & ; p }.ZXcXM.X.B.1._ j c A < ; & > >.4.t.A.^ o.c.`.,XD.g.5.oXXXR S U.>X*X'.6Xr.r.{.#XY.k...H.9XXXH.H.<XV.) m ",
"t 0 ].UXcXl.$.C - > < ;.VXnX;Xk.F | @.O.l r 2 = : - h  X&X^./ | 7. .q.d.@XxX!.Q.dXn.6.i.3X@X-X&X X(.|.9XqXJ.I.n./.N.%.C.wXm.C.b.",
"w.d.'.0X X:.G $ > * i T.BXuX[.h.u d <.^ 3 q r , = y 0.`.9X[.w l w.H.t.p.*XgX#X^.!.3XW.G.T.0XOX'.hXJ.t.dXU.b. Xn.P.B.' M.XXH.H.Q.",
"L.@XH.U.0.n > ; : # l  X8XOX).l.) 3 P y ; s l % 3 %.k.~ b.m.`.@.F ,._ 6.}.wX~.[.].:X~.oX].<X@XQ.fXU.{ H.t.)./.N.j.T.w.3.~.N.!.`.",
"F.d.q.T.! $ : = = - = 6.dX3Xj.M.5.* 8 1 2 w ! e.|.hXU.8.tXIXsXJ ; e 1 2 ..=XaXI. XvXT.f.'.iX4X/. X*X%.z.L.1Xm.T.E.3.m.M.U.(.T.J.",
"7.;.[ V.y   & ; & & ; _ #XW.[ 2.P % 4 2 < f.MXLXIXUXxX_.JXaXn   i ! P k . P ).*.$.1XpX^.w.-XlXuXp.{.XXG.U.L.8.G.Y.7.9.h.k.p.-XC.",
"q.c.n c 3 ] 9 + ; = ; u 4.j.y } w < p > 6.HXJXVXvXoX[.XXqXk.9 3.Q.).U @.,.8 w < ; f '.FX$X(.}.bXc.|.sXL.J.n.T V.c.i.N.u.O.C J.M.",
"j.L 2 + t eX Xy % ; & 4 ~ 3.3 S q : 7 y.DXFXnXNXiX;XfXPXf.: { mX,X~.b 8 y.y . % * O c 7.wXhXb.;X5X.X|.OX'.@X@.<.G.n.U.4.o.#.;.n.",
"tXtXU & F 9XfXC + ; = > a N 3 < < a D.JXDXBX0XxXjXjXJXAXR.a.t.9XF.8.b > n r + & ; - *   ..GXqXOX0.s.L.2X8XqX(.L J.$XD.o.} 6.p.y.",
"ZXDX>Xi.2.c.n % = % & & 8 6 : ; n ;XUXCXBXMXxXVXUXwXY.P.pXlXI.dXgX=.# * % 2 = # + # = > @ P.UXlXK X.b.C.<XdX=X7.{.W.0.:.3.1.q.+.",
"CXVX/.0X{ ; @ - * & % * % & ; 5 (.UXNXNXMXVXZXxX+Xq.9.-XzX5X6XeXxXS.5 $ & # & % # + % ; # n fXKXU.v | t.].7X^.}.^.u.| q.i.n.3.( ",
"sXDX:.| 3 & * & * * % = & = & K AXSXzXvXCXAXMXb.e.J.1XlX0X7XP.kXsXC $ & % # + + @ @ & & ; + ( DXJXR e f.|.R._.[.~.W.2.,.p.^.O.~ ",
"%X`.~ # * & $ % % % % % * , * =.LXSXyXVXNXAXuXh..X!.yXeXZXD.V.vX~.x $ * $ $ # + @ # # % % ; = ).UX/.~ 6.!.`.Q.#X@X4Xd.w.).h.! } ",
"C.' B 4 - 1 - & & % & * - 3 2 9.PXCXCX-X;XbXuXI.wXiX:X:Xq.R =XqX_.a.: & # + # + # # # # $ ; $ ~ cXoX5Xr.].qX(.|.^.4X!.W.`.y.$.,.",
"J 4 , & 0 k.w $ * & - = ; < C #XLXFXdXb.kX#X}.@XSXuXl.w.0 i 6XNXJ.^ & * # + $ @ @ % # $ % * & p 3XmXVX+.`.vXP._.B.S.L.E.~.Z.] <.",
"<.N 4 : 2 B : - = & * - ; e '.UXNXJX3XOXhX[.>XpXMX_.m x 1 8 1XUX`.@.2 = = # # % @ $ # $ $ & ; > T.PXFX(.I.2X(.i.#.k.[./.k.B.L -.",
"E.W 6 > $ + & & - = - , ; 9.UXMXCXkX6XeXcX9X`.nXhXA.F - - ; H.UXR.8X&.  % & # @ @ $ $ $ % % : O ( FXDX8X#X[./.&.M d.{..Xh.3.O.^ ",
"2.p - = % = % % & - ; ; d 3XLXvXJX$XyXxXMXkX:XQ.%X9X .$ ; 3 1.S.B.yXiXj.8 @ $ # $ @ # @ % $ & % h 6XIX<XwX>Xl.@.o.r.C.4.s.x.w.F ",
"C - = = & * & $ % = - - 0.DXVXSXbX!.hXjXVXFXdXE s.A.] & = q yX3.7 D.GXUX=.  & # @ @ @ + % % & - 4 W.GXuX0X:X(.T n ;.O.d.v.a.O.%.",
"6.z : - - * $ # % * : > W wXJXDXrX`.vXVXCXCXcXq.j.O.W 1 @ c AX%XS {.HX5Xf + % # # % @ # $ % & = - (.ZX<XsXtXE.! > C 1.'.F.#.{ u.",
"E.8.s : - $ $ % = = ; > = o.GXFXsX4XZXNXCXVXZXW.*.r   & + F JXUXqXa.m.0.X & @ @ @ @ $ # @ % - ; 4 [.cXpXhXuXm.' t o.-.8.A.x.4.w.",
"m.0.| C $ = & = = * $ ; : d dXKXjXhXZXBXAXnXCX*Xh.} A t - & G.UXSX=.x ( ; @ # @ @ @ % $ $ & & % e {.uXMXBX#XO.[ ' =.I 3._.S.=.$.",
"A.s.-.M ; - % & = & * = 1 9 +XUXkXkXVXBXVXzXxXNXS.8.9.6.S v ~ 2XnX4._ c + & $ % % & # @ # % ; o | T.@XDXdX{.2.X.4.5.@.o.s.F.9.$.",
"z.p.H 4 > % % % * * * * > > _.UXzX5XVXBXBXnXhXjXH.( 6.s.;.=.L ( 8.l.XXb.* $ $ $ @ # $ % & & - $ } ,.>XZX6XC.E.0.! ~.M.K m V.V.2.",
"K.B.#.w q r & * & # % = : * G.UXvX5XjXZXNXCXnX5XL.$.v.n.Q u 5 u.N.N.'.Q.f X * & $ @ $ # * * = < < c.pXlXtXa.#X~.g a.M.| z 8.7.3.",
"H.).4.7 V z & = & * - = : % ~ FXAX7X&XGXNXBXZXpX(.a.7.x.Q 0 c U.!.r.d.^ : % $ $ * $ % % & ; * * i 7XbXhX$XJ.:XM.y | 8.L R k.8.u.",
"y.C.i.2.U ; ; ; ; - = ; = : > R.UXvX7XNXmXmXMX-X].`.q.h.6.i ` ].c.^ s $ @ # $ # @ # @ % - * f Q ] nXVXrXh.#.H.%X8.M T T H.].t.5.",
"*.8.H.R.d.e > % - : = = * ; : 7 U.UXqXgXxX5XBX%XqXzX#Xd.g.F 3.-XL * @ ; & # $ $ % % $ - : - /.uXE.AXaXqX7.h N.jXY.> *.k.!.J.8.d.",
"l.6.] #.L.T 6 v ; # ; - * = ; * p ~.sXtXJX@XtXSXgX;X5XOXZ.o.2.i.O.= - % % $ $ & $ $ * ; & D BXVXXX~..XMXa.4 ).fXq.Z l.N.oXD...$.",
"1.w w x.yX/ : K s.] % ; * & : 2 1 D >.].HXvX`.bXPX].{.+Xp.B.).g.V + * % $ % $ & $ & : : 1 |.LXuXi.+.;XfX!.^ R.$XO.;.n.2.n.v.p.i.",
"w & 0 ,XqXc j Q aX3X3 ; - * > z 8 w g :.%XvXiX`.VXsX4XzX'.V.4.C.f.S # % & % % - 1 > * = y.AXlX.X8.X.[.sXgXJ.e.p._ k oXK.%./ Q.@X",
"w , e ;X,XF.| j -XAXh @ > ; = 8 A H 6 q 2.0XBX2XK.5X7XwX1X~.}.N.n.%.* & * = - > < $ v R.zXgXrXtXw.$.%XeX5XV.+.) c | K.G..X:.S.E.",
"_ : w N.B. .j J  XFXg.8 = ; : & k h.J > 4 I.NXxX3XW.5.q.{.N.fX1X^.r < 2 ; * & $ 4 ..pXUXjXiXrXuXy.>.^.Q.Y.^.N.V m x.e.|.,X>.i.z.",
"A., 9 <.j o w &XhXz.*X{.i & q t i g R / $ < l.AXmX1XK.B.m.f.`.j.X.u 2 - $ 7 k ' &XJXLXvXsX:X*XU.) k.&XL.b.2XT.L %.N.Y.{.A.7.$.s.",
"(.G p %.7 $ X.FX<Xy 8.uX9 2 a 2 0.q.l T r * & C.MXG.`.I.q.o.L ;.o.p 0 y -.+X<XZXCXgX`.oXtXE.y.d.k.iXlX-X'.a.<.V.=.6.{.Z.c.w.7.e.",
"j.-.] <.3 < t.S.x.R u.x.+ c =.k -.J.} p u < & V Q.F.b.| k Q ,.=.g.c.L.V._.DXUXbX}.+Xv.(.BXp.u.^.aXaX.XE.6.{ c.C.) {.B.^ M.z.w.w.",
"1.n.p.q % n ' *.U.W x.N.n F %.0.A X.Y F N m -.] $.M.q.>.n.E.Q.2.:.n.VX|.Z.+X1X>XT.;XQ.oXNXu.:.4X Xx.m.9.k x.h.r.,.n.K.7.r.q.a.p.",
"..>.h 1 & z f.D.}.5 [ UXj.r.n.e.[ v W E } c -.mX2XO.I 5.b.H.E.<.p ) C.[._.q.U._.W.vX~.H.hX(.=.:X'.2.1.o.Q q.>.7.o.;.D.t.n.q.v.n.",
"g : + ; & W HX-X^.@.x.UX>XV.T.f.E w } O.p c B }.!.J ,.]./.n.P.%.t a X.<XM.,.,XA.'.tX'.N.dX3Xn.^.~.h.:.D +.7.1.F.0.m S.5.x.v.f.H.",
"9 % K i O S lX2X|.N.C.NX0X@.y.Y.R Q Y h N l R %.d. Xa.I..XV.&.r.d.T y.9.S :.P.r.p.aXoXb.2X7XyX@XW.H.p.:.t w.v.].F F f.-.a.f.s.k.",
"r @ Y e.f 5 a.}.}.].N.bX`.0.| ( i x.N ) k 3 3.`.k.OX_.U.G D / 9.,X0X}.c X #.).5.g.UXgXL.N.2XuX(.}.z.3.R z M.d.f X.K.c.u.x.g.4.1.",
"x : > p.%.$ e +.lXmXXX[.&.) _ p.%.-.@. .w.c p +XK.Z.L.H.O.q 5 I >XKXaXs.+.f.,.R Q.iXfXzXn.N.j.h.t.r.:.Z :.k.-.P A.g.l.9.6.M.7.$.",
"[ q - n A * 0 l.ZXgXV.(.s.a.y.B.L.^ <.` <.5.0 m.W.g.p.#.@.x O P %XyXuXiX,XY.b q G.=XXXjXF.>.#.[ ..m...W 2.F.' @.R.n.k.,.4.I.e.3.",
"&.U 0 6 w 8 J b.+Xx.(.9XR.I.h.,.k.o.7.E $.u.G <.z.0.Y H 5.2.u.1.#.U.OX&X Xw.H i.b.K.E.Y.z.$.<.K B q.5.P 6.w.u.[ J.n.q.G.$.k.N.1.",
"0. .p 4 , 3 4 z A.L.7XVX,XB.x.X.7. .{ k.3...g I Y.o.i L q.+XuXc./ } Y.H.P.[ 0.K.S.*.r.8.[ e.e.z +.Z.#.H -.+.b.-.k.B.:.a.u.&.8.w.",
"L.d > - q w 1 p Q o.%XPXlXy.i.x.1.t.,.#.-.#.J l 0.9.P 5.l.jXC.} B.X.| M.1.y.,XoX9.` 9.k.o.{.K w V.}.{ m O.r.u.8.q.t.s.#.<.f.>.,.",
"tXa * > 8 u 8 8 6 ' <XbXGXn.N.z.G.y.%.O.P.z.#.F %.J.I G /.*Xk.1.8.=.[ s.-.@XvXXX^ O.`.n.$.Y.s.W [ l.j.<.<.2.&.j.9...r.n.7.;.;.*.",
"G.7 : > ; - d y u k.aXhXGX$XS.g.9.n.R n. Xy.-.%.k.&.F D.4Xv.8.K.B ^ ~.<.W..X+Xa.J 0X/.:.E U.P.l.J  .J.g. .1.p.d.;.>._ l.<.#.:...",
"6 * : ; : > 3 ,.j.P.CXmXBXAXS.:.j.r.,.F.XX1.;.J.x.9.S.I.{.y.] /...G 9.M.L.S.j.C.b.}.].g.] M.x.,.I g.r.j.2.l.c.;.;.2.3.0.*.+.>.O.",
"= > ; , , ; J 5X$XOX7XvXmXIX3X6.a.f.4.A.~.-._.E.a.H.`.H.P.@.u.i.1.:.B.$Xx.U.f.2.F.p.f.t.J.f.r.G ..L.h.4.D.h...t.*.,.5.X.$.@.[ -.",
"3 < : 2 9 I P. X7X9XQ.7XNXGX6Xe.7.M.e.F.B.d.8X!.W H.Y._.n. .l.h.q.5.~. XN.v.0.&.8.X.k.-X8.8.Q E *.d.p.t.2.:.:.r.4.( X.o._ ..%.4."
};
