/* XPM */
static char *TApplicationFileIO[] = {
/* columns rows colors chars-per-pixel */
"24 24 205 2",
"   c black",
".  c #EF970A",
"X  c #EF970C",
"o  c #EF980E",
"O  c #EF990E",
"+  c #EF9810",
"@  c #EF9912",
"#  c #EF9A12",
"$  c #F09B15",
"%  c #F09C16",
"&  c #F09C18",
"*  c #F09D18",
"=  c #F09D1B",
"-  c #F09E1A",
";  c #F09E1B",
":  c #F09D1C",
">  c #F09E1C",
",  c #F09F1E",
"<  c #F09F1F",
"1  c #F0A01F",
"2  c #F0A020",
"3  c #F0A120",
"4  c #F1A124",
"5  c #F1A125",
"6  c #F1A224",
"7  c #F1A328",
"8  c #F1A329",
"9  c #F1A32A",
"0  c #F1A429",
"q  c #F1A42A",
"w  c #F1A52F",
"e  c #F1A62C",
"r  c #F1A62D",
"t  c #F1A62E",
"y  c #F1A62F",
"u  c #F1A72F",
"i  c #F2A730",
"p  c #F2A732",
"a  c #F2A834",
"s  c #F2A934",
"d  c #F2A935",
"f  c #F2A836",
"g  c #F2A937",
"h  c #F2AA39",
"j  c #F2AB39",
"k  c #F2AA3A",
"l  c #F2AB3A",
"z  c #F2AB3B",
"x  c #F2AD3F",
"c  c #F3AD3F",
"v  c #F2AD40",
"b  c #F3AD40",
"n  c #F2AE40",
"m  c #F3AE40",
"M  c #F3AE41",
"N  c #F3AF45",
"B  c #F3AF46",
"V  c #F3B044",
"C  c #F3B046",
"Z  c #F3B047",
"A  c #F3B249",
"S  c #F3B24A",
"D  c #F3B24B",
"F  c #F3B24C",
"G  c #F3B34C",
"H  c #F3B34D",
"J  c #F4B34C",
"K  c #F4B550",
"L  c #F4B551",
"P  c #F4B552",
"I  c #F4B553",
"U  c #F4B652",
"Y  c #F4B653",
"T  c #F4B756",
"R  c #F4B757",
"E  c #F4B758",
"W  c #F4B857",
"Q  c #F4B858",
"!  c #F4B859",
"~  c #F5B95B",
"^  c #F5BA5D",
"/  c #F4BA5E",
"(  c #F5BA5E",
")  c #F5BA5F",
"_  c #F5BB5E",
"`  c #F5BB5F",
"'  c #F4BB60",
"]  c #F5BB60",
"[  c #F5BC63",
"{  c #F5BD63",
"}  c #F5BD64",
"|  c #F5BD65",
" . c #F5BD66",
".. c #F5BE65",
"X. c #F5BE66",
"o. c #F5BE67",
"O. c #F6BF69",
"+. c #F5C06A",
"@. c #F5C06B",
"#. c #F5C06C",
"$. c #F6C06C",
"%. c #F6C16D",
"&. c #F6C26F",
"*. c #F5C370",
"=. c #F5C372",
"-. c #F6C271",
";. c #F6C371",
":. c #F6C272",
">. c #F6C372",
",. c #F6C373",
"<. c #F5C474",
"1. c #F6C576",
"2. c #F6C578",
"3. c #F6C678",
"4. c #F6C679",
"5. c #F6C67A",
"6. c #F7C87E",
"7. c #F7C87F",
"8. c #F7C97F",
"9. c #808080",
"0. c #F6C880",
"q. c #F7C880",
"w. c #F7C980",
"e. c #F7C981",
"r. c #F7C982",
"t. c #F7CB83",
"y. c #F7CB85",
"u. c #F7CB86",
"i. c #F7CB87",
"p. c #F7CC86",
"a. c #F7CC87",
"s. c #F7CC88",
"d. c #F7CE8C",
"f. c #F7CF8E",
"g. c #F8CD8C",
"h. c #F8CE8C",
"j. c #F8CE8D",
"k. c #F8CF8D",
"l. c #F7D092",
"z. c #F7D192",
"x. c #F8D092",
"c. c #F8D192",
"v. c #F8D193",
"b. c #F8D194",
"n. c #F8D398",
"m. c #F8D39A",
"M. c #F8D499",
"N. c #F8D49A",
"B. c #F9D49A",
"V. c #F8D69F",
"C. c #F9D69F",
"Z. c #F8D7A1",
"A. c #F9D6A0",
"S. c #F9D7A0",
"D. c #F9D7A1",
"F. c #F9D8A5",
"G. c #F9D9A6",
"H. c #F9D9A7",
"J. c #F9DAA7",
"K. c #F9DBAA",
"L. c #F9DBAC",
"P. c #FADBAC",
"I. c #FADCAC",
"U. c #FADCAD",
"Y. c #FADDB1",
"T. c #FADEB2",
"R. c #FADEB3",
"E. c #FADFB3",
"W. c #FAE0B7",
"Q. c #FAE1B8",
"!. c #FAE1B9",
"~. c #FBE1B8",
"^. c #FBE1B9",
"/. c #FBE3BC",
"(. c #FBE3BE",
"). c #FBE3BF",
"_. c #FBE4BF",
"`. c #FBE5C2",
"'. c #FBE6C4",
"]. c #FBE6C5",
"[. c #FBE7C7",
"{. c #FBE7C8",
"}. c #FCE8CA",
"|. c #FCE9CA",
" X c #FCE9CD",
".X c #FCE9CE",
"XX c #FCEBCF",
"oX c #FCEAD0",
"OX c #FCECD2",
"+X c #FCECD3",
"@X c #FCEDD5",
"#X c #FCEED7",
"$X c #FCEFD8",
"%X c #FDF0DC",
"&X c #FDF1DD",
"*X c #FDF3E1",
"=X c #FDF3E2",
"-X c OldLace",
";X c #FEF7E9",
":X c #FEF7EA",
">X c #FEF7ED",
",X c #FEF8ED",
"<X c #FEF8EE",
"1X c #FEF9F2",
"2X c #FEFBF5",
/* pixels */
", + + % = - 6 6 6 u i h z M B H Y W ` ] O.>.1.7.",
"X           %           s   c A J Y 9.        8.",
"+   . O + % = < 4   i s z   B H Y !   ..#.1.4.d.",
"%   O + % = < 4 q   s z M   H Y ! ]   #.=.5.e.j.",
"=       9.< 4 q y   z M B   Y ! ` X.      9.g.v.",
",   % - 6 6 q y s   M B H   ! ] X.#.  5.7.y.j.M.",
"<   = < 6 q u s z   B H Y   ` ..#.=.  7.d.g.v.D.",
"4   < 6 6 u s           !         4.9.        F.",
"8 , 4 8 y s h M B H Y E ` ..O.<.5.e.p.j.v.B.A.P.",
"y                     ' ..9.              9.K.T.",
"y 9.                9...9.                  9.^.",
"s y s h M     Y ! ` ..O.    9.i.j.v.M.C.9.    ).",
"h s h z B     W ` ..#.>.    i.j.v.B.C.G.P.    ].",
"c h c A F     ` ..#.>.4.    j.v.M.V.H.P.R.    [.",
"N c B H Y     ..O.>.1.7.    v.M.D.K.P.T.^.    XX",
"A B A Y !     O.>.4.8.i.    M.A.F.P.T.^.`.    @X",
"Y A Y Y `     >.1.8.i.g.    A.F.U.R././.[.    %X",
"Y Y E ` ..    4.8.y.d.v.    F.U.W.W./.[.{.    &X",
"! Y ' ..O.    8.y.d.z.M.    U.R.W./.].{.OX    =X",
"' ` ..O.>.    i.d.v.M.A.    E.W./.].{.OX@X    -X",
"O.] O.>.4.    j.v.b.A.F.    9._.].{.XX@X9.    :X",
"#.9.                9.U.9.                  9.<X",
"=.                    E.W.9.              9.<X1X",
"7.7.i.f.v.b.V.F.K.E.W./.`.{.XX@X@X&X*X-X;X<X1X2X"
};
