/* XPM */
static char *TCGShader[] = {
/* columns rows colors chars-per-pixel */
"24 24 210 2",
"   c black",
".  c #202040",
"X  c #204040",
"o  c #402000",
"O  c gray25",
"+  c #406040",
"@  c #606040",
"#  c #606080",
"$  c #608080",
"%  c #80A040",
"&  c #A0A040",
"*  c #A0C040",
"=  c #A0E040",
"-  c #EE9403",
";  c #EF9506",
":  c #EF9507",
">  c #EF960A",
",  c #EF970A",
"<  c #EF970C",
"1  c #EF980E",
"2  c #EF990E",
"3  c #EF9810",
"4  c #EF9912",
"5  c #EF9A12",
"6  c #F09B15",
"7  c #F09C16",
"8  c #F09C18",
"9  c #F09D18",
"0  c #F09D1B",
"q  c #F09D1C",
"w  c #F09E1C",
"e  c #F09F1E",
"r  c #F09F20",
"t  c #F0A01F",
"y  c #F0A020",
"u  c #F0A120",
"i  c #F1A124",
"p  c #F1A125",
"a  c #F1A328",
"s  c #F1A42A",
"d  c #F1A62C",
"f  c #F1A62D",
"g  c #F1A62F",
"h  c #F1A72F",
"j  c #F2A730",
"k  c #F2A732",
"l  c #F2A834",
"z  c #F2A935",
"x  c #F2A836",
"c  c #F2A937",
"v  c #F2AB39",
"b  c #F2AB3A",
"n  c #F2AB3B",
"m  c #F3AD3F",
"M  c #F2AD40",
"N  c #F2AE40",
"B  c #F3AE40",
"V  c #F3AE41",
"C  c #F3AF45",
"Z  c #F3B045",
"A  c #F3B046",
"S  c #F3B047",
"D  c #F3B249",
"F  c #F3B24A",
"G  c #F3B34B",
"H  c #F3B24C",
"J  c #F3B34C",
"K  c #F3B34D",
"L  c #F4B34C",
"P  c #F3B551",
"I  c #F4B550",
"U  c #F4B551",
"Y  c #F4B552",
"T  c #F4B652",
"R  c #F4B653",
"E  c #F4B756",
"W  c #F4B757",
"Q  c #F4B758",
"!  c #F4B857",
"~  c #F4B858",
"^  c #F4B859",
"/  c #F5B95B",
"(  c #F5BA5D",
")  c #F4BA5E",
"_  c #F5BA5E",
"`  c #F5BA5F",
"'  c #F5BB5F",
"]  c #F4BB60",
"[  c #F5BB60",
"{  c #F5BC63",
"}  c #F5BD63",
"|  c #F5BD64",
" . c #F5BD66",
".. c #F5BE66",
"X. c #F5BE67",
"o. c #F5BF6A",
"O. c #F6BF69",
"+. c #C0E040",
"@. c #F5C06A",
"#. c #F5C06B",
"$. c #F5C06C",
"%. c #F5C16D",
"&. c #F6C06C",
"*. c #F6C16D",
"=. c #F6C26F",
"-. c #F5C370",
";. c #F6C270",
":. c #F6C271",
">. c #F6C371",
",. c #F6C373",
"<. c #F5C474",
"1. c #F6C576",
"2. c #F6C577",
"3. c #F6C578",
"4. c #F6C678",
"5. c #F6C679",
"6. c #F6C67A",
"7. c #F6C87E",
"8. c #F7C87E",
"9. c #F7C87F",
"0. c #808080",
"q. c #80A080",
"w. c #A0A080",
"e. c #A0A0A4",
"r. c #A0C080",
"t. c #C0C080",
"y. c #C0E080",
"u. c #F6C880",
"i. c #F7C980",
"p. c #F7C981",
"a. c #F7C982",
"s. c #F7CB83",
"d. c #F7CB84",
"f. c #F7CB85",
"g. c #F7CB86",
"h. c #F7CB87",
"j. c #F7CC87",
"k. c #F7CC88",
"l. c #F7CD8B",
"z. c #F7CE8C",
"x. c #F7CF8E",
"c. c #F8CD8C",
"v. c #F8CE8C",
"b. c #F8CF8D",
"n. c #F7D092",
"m. c #F7D192",
"M. c #F8D091",
"N. c #F8D092",
"B. c #F8D192",
"V. c #F8D193",
"C. c #F8D194",
"Z. c #F8D398",
"A. c #F8D399",
"S. c #F8D499",
"D. c #F8D49A",
"F. c #F9D49A",
"G. c #F8D69F",
"H. c #F9D69E",
"J. c #F9D69F",
"K. c #F8D7A1",
"L. c #F9D6A0",
"P. c #F9D8A5",
"I. c #F9D9A5",
"U. c #F9D9A6",
"Y. c #F9D9A7",
"T. c #F9DBAA",
"R. c #F9DBAC",
"E. c #FADBAC",
"W. c #FADCAC",
"Q. c #FADDB1",
"!. c #FADEB2",
"~. c #FADEB3",
"^. c #FAE0B7",
"/. c #FAE1B8",
"(. c #FBE1B8",
"). c #FBE3BC",
"_. c #FBE3BE",
"`. c #FBE3BF",
"'. c #C0C0C0",
"]. c #C0DCC0",
"[. c #FBE5C2",
"{. c #FBE6C4",
"}. c #FBE7C7",
"|. c #FBE7C8",
" X c #FCE9CA",
".X c #FCE9CD",
"XX c #FCE9CE",
"oX c #FCEBCF",
"OX c #FCECD2",
"+X c #FCECD3",
"@X c #FCEDD5",
"#X c #FCEED7",
"$X c #FCEFD8",
"%X c #FDEFDA",
"&X c #FDF0DC",
"*X c #FDF1DD",
"=X c #FDF2DF",
"-X c #FDF3E1",
";X c #FDF3E2",
":X c #FDF4E4",
">X c OldLace",
",X c #FEF6E8",
"<X c #FEF7E9",
"1X c #FEF7EA",
"2X c #FEF7ED",
"3X c #FEF8ED",
"4X c #FEF8EE",
"5X c #FEF9F2",
"6X c #FFFBF0",
"7X c #FEFBF5",
/* pixels */
"e 3 3 7 7 w t u a f l l n V S L T ! ( @.@.@.4.d.",
"< - : , 2 6 7 w t a s f l n m D L T ! } @.@.>.9.",
"3 : , 2 6 7 t t i s h l n V S L T ! ( @.@.>.4.j.",
"7 , 2                   V D K R ! ( @.*.>.4.s.M.",
"8 2   O '.5X5X4X5X4X'..   H P ^ ' @.@.>.4.8.j.B.",
"e   O 5X4X'.e.e.e.5X4X'.  P ^ [ @.>.>.4.8.j.b.S.",
"e   0.5X'.5X'.e.e.% 5X5XO ^                 B.I.",
"r   e.5X].O       O '.e.@     O @ @ O . + O   W.",
"a   '.].e.  v m `   '.].#   0.r.* & t.r.y.w.  !.",
"j   '.].e.  B S Q           y.y.'.].e.t.+.w.  (.",
"j   '.].e.  S L Q ) [  .>.. +.y..   . w.y.w.  ).",
"x   '.'.e.  L Y ]   . .   O +.w.  A.  0.y.r.  `.",
"v   '.'.e.  / / O.  '.].% O +.e.  L.  @ +.r.  {.",
"m   '.'.e.        . '.].0.@ +.w.  E.  # +.*    X",
"C   e.'.'.0.# # # e.].'.0.@ +.+.O     e.+.r.  oX",
"L   O '.'.'.'.'.'.'.e.0.O . r.+.+.y.y.& +.r.  @X",
"I L   O @ # 0.0.% e.e.O     O 0.w.w.w.e.+.r.  =X",
"R I /     . O O . .     ~.  0.0.O X o @ +.r.  =X",
"/ R ` ..o.o.C.c.d.b.n.A.R.  r.+.@  XX w.+.%   >X",
"` _ ..O.9.o.a.c.b.n.A.J.R.  0.* = +.+.* % O   <X",
"o.o.o.o.9.9.h.c.n.A.J.U.E.  o @ $ # e.@ O   7X5X",
"o.o.o.6.9.h.c.N.A.J.U.E.~.(.              7X2X5X",
"o.6.o.h.a.h.N.A.J.U.E.!.(.[.{. X=X=X%X;X:X1X2X5X",
"g.a.h.c.N.A.L.P.E.!.~._.[.{.XX+X$X=X;X:X1X2X5X7X"
};
