/* XPM */
static char *TCollisionManager[] = {
/* columns rows colors chars-per-pixel */
"24 24 214 2",
"   c black",
".  c #EE9403",
"X  c #EF9506",
"o  c #EF9507",
"O  c #EF970C",
"+  c #EF9810",
"@  c #EF9912",
"#  c #EF9A12",
"$  c #F09B15",
"%  c #F09C18",
"&  c #F09D18",
"*  c #F09D1C",
"=  c #F09E1C",
"-  c #F09F1E",
";  c #F09F1F",
":  c #F09F20",
">  c #F0A020",
",  c #F0A120",
"<  c #F1A124",
"1  c #F1A125",
"2  c #F0A224",
"3  c #F1A328",
"4  c #F1A329",
"5  c #F1A429",
"6  c #F1A42A",
"7  c #F1A62C",
"8  c #F1A62D",
"9  c #F1A62E",
"0  c #F1A62F",
"q  c #F1A72F",
"w  c #F2A730",
"e  c #F2A732",
"r  c #F2A834",
"t  c #F2A934",
"y  c #F2A935",
"u  c #F2A836",
"i  c #F2A937",
"p  c #F2AA39",
"a  c #F2AB39",
"s  c #F2AA3A",
"d  c #F2AB3A",
"f  c #F2AB3B",
"g  c #F2AD3F",
"h  c #F3AD3F",
"j  c #F2AD40",
"k  c #F3AD40",
"l  c #F2AE40",
"z  c #F3AE40",
"x  c #F3AE41",
"c  c #F3AF45",
"v  c #F3AF46",
"b  c #F3B044",
"n  c #F3B045",
"m  c #F3B046",
"M  c #F3B047",
"N  c #F3B249",
"B  c #F3B24A",
"V  c #F3B24B",
"C  c #F3B34B",
"Z  c #F3B24C",
"A  c #F3B34C",
"S  c #F3B34D",
"D  c #F4B34C",
"F  c #F3B551",
"G  c #F4B550",
"H  c #F4B551",
"J  c #F4B552",
"K  c #F4B553",
"L  c #F4B652",
"P  c #F4B653",
"I  c #F4B756",
"U  c #F4B757",
"Y  c #F4B758",
"T  c #F4B857",
"R  c #F4B858",
"E  c #F4B859",
"W  c #F5B95B",
"Q  c #F5BA5D",
"!  c #F4BA5E",
"~  c #F5BA5E",
"^  c #F5BA5F",
"/  c #F5BB5E",
"(  c #F5BB5F",
")  c #F4BB60",
"_  c #F5BB60",
"`  c #F5BC63",
"'  c #F5BD63",
"]  c #F5BD64",
"[  c #F5BD65",
"{  c #F5BD66",
"}  c #F5BE65",
"|  c #F5BE66",
" . c #F5BE67",
".. c #F5BF6A",
"X. c #F6BF69",
"o. c #F5C06A",
"O. c #F5C06B",
"+. c #F5C06C",
"@. c #F5C16D",
"#. c #F6C06C",
"$. c #F6C16D",
"%. c #F6C26F",
"&. c #F5C370",
"*. c #F5C372",
"=. c #F6C270",
"-. c #F6C271",
";. c #F6C371",
":. c #F6C272",
">. c #F6C372",
",. c #F6C373",
"<. c #F5C474",
"1. c #F6C576",
"2. c #F6C577",
"3. c #F6C578",
"4. c #F6C579",
"5. c #F6C678",
"6. c #F6C679",
"7. c #F6C67A",
"8. c #F6C87E",
"9. c #F6C97F",
"0. c #F7C87E",
"q. c #F7C87F",
"w. c #F7C97F",
"e. c #808080",
"r. c #F6C880",
"t. c #F7C880",
"y. c #F7C980",
"u. c #F7C981",
"i. c #F7C982",
"p. c #F7CB83",
"a. c #F7CB84",
"s. c #F7CB85",
"d. c #F7CB86",
"f. c #F7CB87",
"g. c #F7CC86",
"h. c #F7CC87",
"j. c #F7CC88",
"k. c #F7CD8B",
"l. c #F7CE8C",
"z. c #F7CF8E",
"x. c #F8CD8C",
"c. c #F8CE8C",
"v. c #F8CE8D",
"b. c #F8CF8D",
"n. c #F7D092",
"m. c #F7D192",
"M. c #F8D091",
"N. c #F8D092",
"B. c #F8D192",
"V. c #F8D193",
"C. c #F8D194",
"Z. c #F8D398",
"A. c #F8D399",
"S. c #F8D39A",
"D. c #F8D499",
"F. c #F8D49A",
"G. c #F9D49A",
"H. c #F8D69F",
"J. c #F9D69E",
"K. c #F9D69F",
"L. c #F8D7A1",
"P. c #F9D6A0",
"I. c #F9D7A0",
"U. c #F9D7A1",
"Y. c #F9D8A5",
"T. c #F9D9A5",
"R. c #F9D9A6",
"E. c #F9D9A7",
"W. c #F9DAA7",
"Q. c #F9DBAA",
"!. c #F9DBAC",
"~. c #FADBAC",
"^. c #FADCAB",
"/. c #FADCAC",
"(. c #FADCAD",
"). c #FADDB1",
"_. c #FADEB2",
"`. c #FADEB3",
"'. c #FADFB3",
"]. c #FADFB4",
"[. c #FAE0B7",
"{. c #FAE1B8",
"}. c #FBE1B8",
"|. c #FBE1B9",
" X c #FBE1BA",
".X c #FBE3BC",
"XX c #FBE3BE",
"oX c #FBE3BF",
"OX c #FBE4BF",
"+X c #FBE5C2",
"@X c #FBE6C4",
"#X c #FBE6C5",
"$X c #FBE7C7",
"%X c #FBE7C8",
"&X c #FCE9CA",
"*X c #FCE9CD",
"=X c #FCE9CE",
"-X c #FCECD2",
";X c #FCECD3",
":X c #FCEED7",
">X c #FCEFD8",
",X c #FDF0DC",
"<X c #FDF1DD",
"1X c #FDF3E1",
"2X c #FDF3E2",
"3X c OldLace",
"4X c #FEF6E8",
"5X c #FEF7E9",
"6X c #FEF7EA",
"7X c #FEF7ED",
"8X c #FEF8ED",
"9X c #FEF8EE",
"0X c #FEF9F2",
"qX c #FEFBF5",
/* pixels */
"- + + $ & - > > 4 9 e p p x M D P U ( ' } +.2.p.",
"O . o           > 1 4 9 y f x M S P Y ' ..+.,.p.",
"+ o   e.e.e.e.e.  4 w y f x M S P Y ( } $.2.7.g.",
"$   e.e.      e.e.  y f x M S P Y _ } ..,.7.i.v.",
"&   e.  e.e.e.  e.  p x M V P Y ( } +.,.2.p.k.C.",
"-   e.  e.e.e.e.e.  x M S P Y ( } ..2.7.w.g.b.A.",
">   e.  e.e.e.  e.  M A P Y ( } ..,.7.p.g.b.C.K.",
"1   e.e.      e.e.  A P Y ( } +.,.7.w.g.b.C.A.R.",
"1 >   e.e.e.e.e.  A P Y ( } ..<.7.i.a.v.C.A.J.^.",
"8 1 4           V       } +.,.7.i.a.b.C.H.K.R.[.",
"e 4 9 y p x v A P   } } ..,.7.q.a.v.C.A.K.R.~.|.",
"y 8 e p g M A P Y   }   ,.7.q.d.v.C.A.K.R.~.[.oX",
"f e f g v A F U ( } ..,.  w.  v.C.A.K.R./.'.[.@X",
"g f g M A P Y ( } ..,.7.w.w.  V.Z.K.Q.~.].|.+X&X",
"c h n C P P ( } ..,.2.w.      A.          +X+X=X",
"C c C P U ( ' ..,.2.w.g.v.V.A.  e.e.e.e.e.  &X-X",
"D C P P ( } ..,.2.q.a.v.V.C.  e.  e.e.e.  e.  ,X",
"P P Y ( } ..,.2.q.a.v.V.A.K.  e.    e.    e.  ,X",
"Y P ( } ..,.2.q.a.v.V.A.K.R.  e.  e.  e.  e.  2X",
"' ( } ..+.2.q.s.k.V.A.H.W.^.  e.  e.e.e.  e.  3X",
"} ' ..,.7.w.s.k.V.Z.H.R./._.  e.  e.e.e.  e.  6X",
"+...,.2.w.s.v.M.Z.H.R.~._.[.+X  e.e.e.e.e.  6X9X",
"+.,.7.q.p.k.M.Z.H.R./._.|.oX+X&X          3X9X0X",
"i.q.s.l.M.Z.H.Y.Q._.[.oX+X+X*X-X:X<X2X3X6X9X0XqX"
};
