/* XPM */
static char *TGLAnimationControler[] = {
/* columns rows colors chars-per-pixel */
"24 24 214 2",
"   c black",
".  c #EE9403",
"X  c #EF9506",
"o  c #EF9507",
"O  c #EF970A",
"+  c #EF970C",
"@  c #EF980E",
"#  c #EF9810",
"$  c #EF9912",
"%  c #EF9A12",
"&  c #F09B15",
"*  c #F09B16",
"=  c #F09C16",
"-  c #F09C18",
";  c #F09D1A",
":  c #F09D1B",
">  c #F09E1A",
",  c #F09E1B",
"<  c #F09D1C",
"1  c #F09F1E",
"2  c #F09F1F",
"3  c #F0A01F",
"4  c #F0A020",
"5  c #F1A124",
"6  c #F1A125",
"7  c #F0A224",
"8  c #F1A224",
"9  c #F1A328",
"0  c #F1A329",
"q  c #F1A32A",
"w  c #F1A429",
"e  c #F1A42A",
"r  c #F1A52F",
"t  c #F1A62C",
"y  c #F1A62D",
"u  c #F1A62E",
"i  c #F1A62F",
"p  c #F1A72F",
"a  c #F2A730",
"s  c #F2A732",
"d  c #F2A834",
"f  c #F2A934",
"g  c #F2A935",
"h  c #F2A836",
"j  c #F2AA39",
"k  c #F2AB39",
"l  c #F2AA3A",
"z  c #F2AB3A",
"x  c #F2AB3B",
"c  c #F2AD3F",
"v  c #F3AD3F",
"b  c #F2AD40",
"n  c #F3AD40",
"m  c #F3AD41",
"M  c #F2AE40",
"N  c #F3AE40",
"B  c #F3AF45",
"V  c #F3AF46",
"C  c #F3B044",
"Z  c #F3B045",
"A  c #F3B046",
"S  c #F3B047",
"D  c #F3B249",
"F  c #F3B24A",
"G  c #F3B24B",
"H  c #F3B34B",
"J  c #F3B24C",
"K  c #F3B34C",
"L  c #F3B34D",
"P  c #F3B551",
"I  c #F4B550",
"U  c #F4B551",
"Y  c #F4B552",
"T  c #F4B653",
"R  c #F4B756",
"E  c #F4B757",
"W  c #F4B758",
"Q  c #F4B857",
"!  c #F4B858",
"~  c #F4B859",
"^  c #F5B95B",
"/  c #F4BA5E",
"(  c #F5BA5E",
")  c #F5BA5F",
"_  c #F5BB5E",
"`  c #F5BB5F",
"'  c #F4BB60",
"]  c #F5BB60",
"[  c #F5BD63",
"{  c #F5BD64",
"}  c #F5BD65",
"|  c #F5BE65",
" . c #F5BE66",
".. c #F5BE67",
"X. c #F5BF6A",
"o. c #F6BF69",
"O. c #F5C06A",
"+. c #F5C06B",
"@. c #F5C06C",
"#. c #F5C16D",
"$. c #F6C06C",
"%. c #F6C16D",
"&. c #F6C26F",
"*. c #F5C370",
"=. c #F5C372",
"-. c #F6C270",
";. c #F6C271",
":. c #F6C371",
">. c #F6C272",
",. c #F6C372",
"<. c #F6C373",
"1. c #F5C474",
"2. c #F6C576",
"3. c #F6C577",
"4. c #F6C578",
"5. c #F6C579",
"6. c #F6C678",
"7. c #F6C679",
"8. c #F6C67A",
"9. c #F6C87E",
"0. c #F7C87E",
"q. c #F7C87F",
"w. c #F7C97F",
"e. c #808080",
"r. c #F6C880",
"t. c #F7C880",
"y. c #F7C980",
"u. c #F7C981",
"i. c #F7C982",
"p. c #F7CB83",
"a. c #F7CB84",
"s. c #F7CB85",
"d. c #F7CB86",
"f. c #F7CB87",
"g. c #F7CC86",
"h. c #F7CC87",
"j. c #F7CC88",
"k. c #F7CD8B",
"l. c #F7CE8C",
"z. c #F7CF8E",
"x. c #F8CD8C",
"c. c #F8CE8C",
"v. c #F8CE8D",
"b. c #F8CF8D",
"n. c #F7D092",
"m. c #F7D192",
"M. c #F8D091",
"N. c #F8D192",
"B. c #F8D193",
"V. c #F8D194",
"C. c #F8D398",
"Z. c #F8D399",
"A. c #F8D39A",
"S. c #F8D499",
"D. c #F8D49A",
"F. c #F9D49A",
"G. c #F8D69F",
"H. c #F9D69E",
"J. c #F9D69F",
"K. c #F8D7A1",
"L. c #F9D6A0",
"P. c #F9D7A0",
"I. c #F9D7A1",
"U. c #F9D8A5",
"Y. c #F9D9A6",
"T. c #F9D9A7",
"R. c #F9DAA7",
"E. c #F9DBAA",
"W. c #F9DBAC",
"Q. c #FADBAC",
"!. c #FADCAC",
"~. c #FADCAD",
"^. c #FADEB2",
"/. c #FADEB3",
"(. c #FADFB3",
"). c #FADFB4",
"_. c #FAE0B7",
"`. c #FAE1B8",
"'. c #FAE1B9",
"]. c #FBE1B9",
"[. c #FBE1BA",
"{. c #FBE3BC",
"}. c #FBE3BE",
"|. c #FBE3BF",
" X c #FBE4BF",
".X c #FBE6C4",
"XX c #FBE6C5",
"oX c #FBE7C7",
"OX c #FBE7C8",
"+X c #FCE9CA",
"@X c #FCE9CD",
"#X c #FCE9CE",
"$X c #FCEBCF",
"%X c #FCEAD0",
"&X c #FCEBD0",
"*X c #FCECD3",
"=X c #FCEDD5",
"-X c #FCEED6",
";X c #FCEED7",
":X c #FCEFD8",
">X c #FDEFDA",
",X c #FDF0DA",
"<X c #FDF1DD",
"1X c #FDF2DF",
"2X c #FDF3E2",
"3X c #FDF4E4",
"4X c OldLace",
"5X c #FEF6E8",
"6X c #FEF7EA",
"7X c #FEF7ED",
"8X c #FEF8ED",
"9X c #FEF8EE",
"0X c #FEF9F2",
"qX c #FEFBF5",
/* pixels */
"1 # #         4   i f   x   S     E     X.@.3.u.",
"+ . O   # #   1     w   f   N   L   ~   X.@.<.w.",
"# X O         4   w     x   S   Y ~ _   %.3.7.k.",
"* O @   - -   5   p f   N   L   ~ ]  .  <.8.y.b.",
"- @ #   3 3   w   f z   S   Y   `  .@.  7.u.j.B.",
"1 # * , 4 5 w i f f z z S S ~ ]  .@.3.7.u.j.b.Z.",
"4 * - 4 8 w p f z x         ~  .@.:.7.u.g.b.B.I.",
"5 - 4 8 w p f z N   e.    e.  @.:.7.u.g.b.B.Z.T.",
"0 2 5 0 i f z c S   e.e.e.e.  <.7.y.f.v.B.Z.I.Q.",
"i 7 0 i f z c B L L         @.7.y.f.v.B.Z.I.T.^.",
"i 0 a f z c B L Y ~ _         w.a.v.B.V.I.T.~.].",
"f i s z N B L Y E _  .    7.    v.B.H.L.E.~./.}.",
"z a z c B L P E _         w.s.v.B.J.L.Y.~.).]..X",
"c z N B L Y E _  .X.<.    s.v.B.V.L.E.Q./.].|.OX",
"B c B L Y E _  .X.<.7.      B.Z.J.Y.~.).]. X.X@X",
"S B L Y E _ [ X.<.7.    v.  Z.P.Y.~./.]. X.X+X-X",
"Y S Y E _  .X.<.7.  s.v.B.B.    Q.(.]. X.X@X$X;X",
"E Y E _ [ X.<.3.    l.B.Z.P.T.  ^.'. X.X+X$X-X<X",
"~ E _  .X.<.3.w.g.l.m.Z.P.T.Q.^.'.}..X+X$X;X;X3X",
"[ _ [ X.    w.s.      H.      '.}.  +X$X-X;X2X3X",
" .[ X.  3.w.  k.V.  P.T.  ^.'.  .X  $X-X;X2X3X6X",
"@.X.<.  w.s.k.B.V.  T.Q.      .X+X  -X;X2X3X4X8X",
":.<.3.  a.k.  V.H.  Q.^.  |..X  $X  <X1X3X4X8X0X",
"u.w.s.v.    P.T.E.  '.}.  .X@X  ;X        8X0XqX"
};
