/* XPM */
static char *TGLAsmShader[] = {
/* columns rows colors chars-per-pixel */
"24 24 156 2",
"   c #070B0E",
".  c #0D171D",
"X  c #100F0A",
"o  c #171612",
"O  c #14222B",
"+  c #1A2D39",
"@  c #211B0F",
"#  c #222018",
"$  c #312713",
"%  c #312A1B",
"&  c #322C21",
"*  c #37342A",
"=  c #3F3B32",
"-  c #213847",
";  c #213948",
":  c #284456",
">  c #2E4E64",
",  c #2F5066",
"<  c #355A73",
"1  c #3B657F",
"2  c #413216",
"3  c #42341A",
"4  c #413A27",
"5  c #453F2C",
"6  c #413E33",
"7  c #494536",
"8  c #4F4B39",
"9  c #5E4A27",
"0  c #624B23",
"q  c #62502B",
"w  c #675838",
"e  c #735B2E",
"r  c #74623D",
"t  c #5D5A47",
"y  c #655C44",
"u  c #3B6682",
"i  c #42718F",
"p  c #427191",
"a  c #497C9D",
"s  c #497DA0",
"d  c #4F86AB",
"f  c #4F88AE",
"g  c #5089AF",
"h  c #5089B0",
"j  c #5692BB",
"k  c #5795C0",
"l  c #5C9DC7",
"z  c #5C9EC9",
"x  c #63A8D5",
"c  c #63AADA",
"v  c #A67B30",
"b  c #857658",
"n  c #8A7D56",
"m  c #947944",
"M  c #988256",
"N  c #968662",
"B  c #988663",
"V  c #A38952",
"C  c #A58E5E",
"Z  c #B48C42",
"A  c #B19050",
"S  c #B5975F",
"D  c #A18F66",
"F  c #A69263",
"G  c #A1906B",
"H  c #A0947D",
"J  c #AC9B74",
"K  c #B19C6C",
"L  c #EE9405",
"P  c #EF960A",
"I  c #EF980E",
"U  c #EF9912",
"Y  c #F09B15",
"T  c #F09D1B",
"R  c #F09F20",
"E  c #F0A01E",
"W  c #F0A224",
"Q  c #F1A52B",
"!  c #F2A732",
"~  c #F1A934",
"^  c #F2AB3B",
"/  c #F3B03D",
"(  c #C79644",
")  c #D5A85E",
"_  c #DAAC5A",
"`  c #C4A66A",
"'  c #CFB27F",
"]  c #D6B375",
"[  c #DAB877",
"{  c #DCB87D",
"}  c #E7B259",
"|  c #EEB658",
" . c #F2AE40",
".. c #F3B044",
"X. c #F3B44B",
"o. c #F4B84E",
"O. c #F3B652",
"+. c #F4B955",
"@. c #F4B95B",
"#. c #E4B669",
"$. c #E1B974",
"%. c #F4BC63",
"&. c #F5BF69",
"*. c #ECC074",
"=. c #F5C267",
"-. c #F5C16C",
";. c #F5C373",
":. c #F6C679",
">. c #F7C977",
",. c #F6C87E",
"<. c #AA9E88",
"1. c #ADA085",
"2. c #B4A483",
"3. c #C6B289",
"4. c #CEB382",
"5. c #C4B69B",
"6. c #CABB9C",
"7. c #D9B980",
"8. c #DBBF8E",
"9. c #CDBEA4",
"0. c #DDC69E",
"q. c #D5C3A1",
"w. c #D6C8AF",
"e. c #DFC9A6",
"r. c #DFCBAB",
"t. c #DCCCB1",
"y. c #E5CC9F",
"u. c #EACE9E",
"i. c #F6CA83",
"p. c #F6CD8A",
"a. c #F8CD87",
"s. c #F8CD8C",
"d. c #F6D08F",
"f. c #F8D18A",
"g. c #F6D093",
"h. c #F6D49B",
"j. c #F8D192",
"k. c #F8D49B",
"l. c #E3CDA5",
"z. c #F8D7A1",
"x. c #F8D8A5",
"c. c #F9DBAB",
"v. c #F9DEB2",
"b. c #FAE0B7",
"n. c #FAE2BB",
"m. c #EEDEC5",
"M. c #FAE5C4",
"N. c #F9E7C9",
"B. c #FBE9CC",
"V. c #FBECD3",
"C. c #FCEED9",
"Z. c #FDF1DC",
"A. c #FDF4E3",
"S. c #FEF6E9",
"D. c #FEF8ED",
"F. c #FEF9F3",
/* pixels */
"T I U U E E E W W Q ! ~ ^  . .X.O.+.| %.&.&.&.s.",
"I L L P U U U E T W Q ! ~ ^  ...X.O.@.@.&.;.&.i.",
"U L P I U U T W W Q Q ~ ^  ...O.O.@.@.&.&.;.:.s.",
"Y P I U U T E W Q ! ~ ^  ...X.O.@.@.&.-.;.:.i.s.",
"T I I E E T W Q ~ ~ ^ ..X.X.| @.%.=.-.;.:.i.a.j.",
"T U E W Q ~ ~ /  .X.o.+.@.%.&.&.;.>.,.a.a.s.s.k.",
"W T Q ~ / ..o.o.+.@.@.=.-.;.:.,.f.f.j.j.h.h.k.x.",
"Q W / v 2 $ e _ -.m % % r [ M % % B b & % B z.c.",
"~ / o.3 a d < r w : f d < y + f h + , h h & v.v.",
"/ / Z + x j l X + c a i x , ; x c , s c c   l.M.",
"/ o.q 1 x > c : . z j i , t ; c h p k j c   q.v.",
"o.o.@ j j < c u 8 O < f x u ; c u h c u c   9.M.",
"o.Z + x x x x l , c u : c s ; c , c h < c   5.N.",
"o.0 1 x - X < x , a c c f O ; c ; k p < c   5.N.",
"O.( 0   * n 7   5 %     # y 7   5 o * =   = 9.B.",
"o.o.} A V S ` C F K G B G J 3.2.1.2.<.<.<.<.w.V.",
"+.o.| _ ) #.&.[ ] $.7.4.4.8.l.u.0.e.l.t.t.t.m.C.",
"+.O.| %.&.&.;.i.i.i.g.g.h.z.c.v.v.v.M.M.N.B.C.Z.",
"@.O.%.%.&.&.;.i.i.g.g.k.z.x.c.v.v.M.M.N.B.C.C.A.",
"%.@.%.&.;.;.i.i.s.j.j.z.x.c.v.v.M.M.N.B.C.C.Z.A.",
"&.&.&.&.,.,.i.s.g.j.z.x.c.v.v.M.M.N.B.C.C.Z.A.D.",
"&.&.&.,.i.i.s.g.k.z.x.c.v.v.M.M.B.N.C.C.Z.A.S.D.",
"&.,.&.i.i.s.g.g.z.x.v.v.v.M.M.B.B.C.C.Z.A.A.D.F.",
"i.i.i.s.g.g.z.x.c.v.v.v.M.N.B.V.C.C.A.A.D.D.F.F."
};
