/* XPM */
static char *TGLBumpShader[] = {
/* columns rows colors chars-per-pixel */
"24 24 65 1",
"  c #1E1E1E",
". c #272727",
"X c gray27",
"o c #4C4C4C",
"O c #535353",
"+ c #5B5B5B",
"@ c #636363",
"# c #6A6A6A",
"$ c #747474",
"% c #7B7B7B",
"& c #EE9405",
"* c #EF960A",
"= c #EF980E",
"- c #EF9911",
"; c #F09B15",
": c #F09D1B",
"> c #F09F20",
", c #F0A01F",
"< c #F0A123",
"1 c #F1A42B",
"2 c #F2A731",
"3 c #F2A834",
"4 c #F2AB3A",
"5 c #F2AD41",
"6 c #F3B046",
"7 c #F3B24B",
"8 c #F4B553",
"9 c #F4B95B",
"0 c #F4BC64",
"q c #F5BF69",
"w c #F5C06C",
"e c #F5C373",
"r c #F6C579",
"t c #F6C87E",
"y c #838383",
"u c #8B8B8B",
"i c #939393",
"p c #9B9B9B",
"a c #A4A4A4",
"s c #ABABAB",
"d c #B3B3B3",
"f c #BCBCBC",
"g c #F6CA83",
"h c #F7CD8B",
"j c #F8CF8D",
"k c #F8D093",
"l c #F8D49A",
"z c #F8D7A1",
"x c #F9D9A6",
"c c #F9DBAC",
"v c #FADEB2",
"b c #FAE0B7",
"n c #FAE2BC",
"m c #C2C2C2",
"M c #C9C9C9",
"N c #FBE6C4",
"B c #FBE7C8",
"V c #FCE9CC",
"C c #FCECD3",
"Z c #FCEFD9",
"A c #FDF1DC",
"S c #FDF4E3",
"D c #FEF6E9",
"F c #FEF8ED",
"G c #FEF9F3",
/* pixels */
":=--::,<112345578990qwrg",
"=&**=-;:,<O.345777990wwg",
"-&*=-;:,<osa@5@#8900werh",
";*=-;:,<1Oasai#+#00qetgh",
";=-;::<123+iadd##0wwrghk",
":-;:<<113456Oami+@O$tgjl",
"<-:<<113456789O%iffpOjkz",
"<:,<11345578890$sfdmp#lx",
"1:>1234###8990XudfdmmOzc",
"1<123##uiu$++%upfMdmm#xv",
"2113$ysmfdspusssdspmi$cb",
"3124%dmMMMmdadfdfd$#X#vn",
"434%ufffMMMmfdmmmda+cbbN",
"445upsfmfasdmffMffaOvbNB",
"555uadMMddspussmmfiXbnNV",
"657upddMMMMmi$dfdp#bNNVC",
"8X@+ipmdmMmma%ssy@@nNBVA",
"9pm@yysffffa@pd@#vNNVCCA",
"9$muiuupsaiioap@OnNBVCAA",
"0 uf#ypudda%+ddu#NBCCAAD",
"00wo+@$yii%%audMf$CCAADD",
"wqert@piyusMmp$ss$CAASDF",
"eertgh@O@#$yi@NBVCAAADFG",
"gtghkllzcvbnNBBCCAADDFGG"
};
