/* XPM */
static char *TGLCelShader[] = {
/* columns rows colors chars-per-pixel */
"24 24 103 2",
"   c black",
".  c #291B04",
"X  c #2E200A",
"o  c #322105",
"O  c #392405",
"+  c #3E2B0E",
"@  c #422F12",
"#  c #4F3205",
"$  c #503305",
"%  c #51360C",
"&  c #5B3D0C",
"*  c #563D15",
"=  c #5D4520",
"-  c #69450C",
";  c #624414",
":  c #664A1E",
">  c #684817",
",  c #6B4F22",
"<  c #7E5B22",
"1  c #7C5C2A",
"2  c #8B5D12",
"3  c #8B6222",
"4  c #8A652C",
"5  c #8A6934",
"6  c #8A6B3A",
"7  c #906623",
"8  c #936929",
"9  c #9C6D22",
"0  c #986F2D",
"q  c #936F35",
"w  c #9F722B",
"e  c #977030",
"r  c #997031",
"t  c #9A753A",
"y  c #A96D0D",
"u  c #A56F1A",
"i  c #A6711D",
"p  c #B67E24",
"a  c #B57F28",
"s  c #B98024",
"d  c #B68231",
"f  c #BA8A40",
"g  c #B99152",
"h  c #DE8C0A",
"j  c #C58622",
"k  c #C68927",
"l  c #C38A2E",
"z  c #CB933C",
"x  c #EE9405",
"c  c #ED960C",
"v  c #E19111",
"b  c #EE9811",
"n  c #E99C1F",
"m  c #F09B15",
"M  c #F09D1B",
"N  c #E09B2C",
"B  c #E09E37",
"V  c #F09F20",
"C  c #F0A01F",
"Z  c #F0A123",
"A  c #F1A42B",
"S  c #F2A731",
"D  c #F2A834",
"F  c #F2AB3B",
"G  c #C39651",
"H  c #E2A747",
"J  c #F2AD40",
"K  c #F3B045",
"L  c #F3B24B",
"P  c #F3B552",
"I  c #F4B758",
"U  c #F4B857",
"Y  c #F4B95C",
"T  c #F4BC64",
"R  c #F5BF69",
"E  c #F5C06C",
"W  c #F5C372",
"Q  c #F6C579",
"!  c #F6C87E",
"~  c #B4B4B4",
"^  c #F6CA83",
"/  c #F7CD8B",
"(  c #F8CE8C",
")  c #F8D093",
"_  c #F8D49A",
"`  c #F8D6A0",
"'  c #F9D9A6",
"]  c #F9DBAC",
"[  c #FADEB2",
"{  c #FAE0B7",
"}  c #FAE2BB",
"|  c #C8C8C8",
" . c #FBE6C4",
".. c #FBE7C8",
"X. c #FCE9CC",
"o. c #FCEDD4",
"O. c #FCEFD9",
"+. c #FDF1DD",
"@. c #FDF4E3",
"#. c #FEF6E9",
"$. c #FEF8ED",
"%. c #FEF9F3",
"&. c gray100",
/* pixels */
"M b b m M M V Z A A S D F J K L P U Y T R E Q ^ ",
"c x x c c b m M V Z A S D F J K L P I T R E W ! ",
"b x h $ O o - C Z A A D F w 8 L U I T T E W Q / ",
"m c $ y m M & u A N a B J 0 4 U I Y T E W Q ! ( ",
"m c . b n C Z A k + 7 @ z q 4 I T T E W Q ^ / ) ",
"M v O M V Z A A > 3 d 4 , r 5 T T E W Q ^ ^ ( _ ",
"V m . n Z A s 9 * < e e d t 5 T E E Q ^ ^ ( ) ` ",
"Z M 2 % j s X l 8 : H 1 t t 6 E W Q ^ ^ ( ) _ ' ",
"A n Z i ; > l J K e = 5 Y G g W Q ! ^ ( ) _ ` ] ",
"A Z A S S F J K L P I Y R E W Q ! / ( ) _ ' ' [ ",
"A A A D F F K L P I T T E W Q ! ^ ( ) _ ` ' ] } ",
"D A D F J K L P I Y T E W Q ! ^ ( ) _ _ ' ] [ } ",
"F D D J K L P I Y T E W Q ! ^ ( ) _ ` ' ] [ }  .",
"J F J K L P I Y T E W Q ! ^ ( ) _ ` ' ] [ } } ..",
"K F                                          .X.",
"K K   ~ ~ ~ ~ ~ ~ ~ ~ ~ | | | | | | &.&.&.  ..o.",
"P L   ~ ~ ~ ~ ~ ~ ~ ~ ~ | | | | | | &.&.&.  X.O.",
"U P   ~ ~ ~ ~ ~ ~ ~ ~ ~ | | | | | | &.&.&.  O.+.",
"Y I   ~ ~ ~ ~ ~ ~ ~ ~ ~ | | | | | | &.&.&.  O.@.",
"Y Y   ~ ~ ~ ~ ~ ~ ~ ~ ~ | | | | | | &.&.&.  +.@.",
"R T   ~ ~ ~ ~ ~ ~ ~ ~ ~ | | | | | | &.&.&.  @.#.",
"E R                                         #.$.",
"E W Q ! ^ / ) _ _ ' ] [ } }  ...X.O.O.+.@.#.$.%.",
"! ! ^ / ) _ _ ' ' [ { }  ...X.o.O.O.@.@.#.$.%.%."
};
