/* XPM */
static char *TGLCustomHDS[] = {
/* columns rows colors chars-per-pixel */
"24 24 213 2",
"   c black",
".  c #EF960A",
"X  c #EF970C",
"o  c #EF980E",
"O  c #EF990E",
"+  c #EF9810",
"@  c #EF9912",
"#  c #EF9A12",
"$  c #F09B15",
"%  c #F09C16",
"&  c #F09C18",
"*  c #F09D18",
"=  c #F09D1B",
"-  c #F09D1C",
";  c #F09E1C",
":  c #F09F1E",
">  c #F0A01F",
",  c #F0A020",
"<  c #F0A120",
"1  c #F1A124",
"2  c #F1A125",
"3  c #F0A224",
"4  c #F1A224",
"5  c #F1A328",
"6  c #F1A329",
"7  c #F1A429",
"8  c #F1A52F",
"9  c #F1A62C",
"0  c #F1A62D",
"q  c #F1A62E",
"w  c #F1A62F",
"e  c #F2A730",
"r  c #F2A732",
"t  c #F2A834",
"y  c #F2A934",
"u  c #F2A935",
"i  c #F2A836",
"p  c #F2A937",
"a  c #F2AA39",
"s  c #F2AB39",
"d  c #F2AA3A",
"f  c #F2AB3A",
"g  c #F2AB3B",
"h  c #F2AD3F",
"j  c #F3AD3F",
"k  c #F2AD40",
"l  c #F3AD40",
"z  c #F2AE40",
"x  c #F3AE40",
"c  c #F3AE41",
"v  c #F3AF45",
"b  c #F3AF46",
"n  c #F3B044",
"m  c #F3B045",
"M  c #F3B046",
"N  c #F3B047",
"B  c #F3B249",
"V  c #F3B24B",
"C  c #F3B34B",
"Z  c #F3B24C",
"A  c #F3B34C",
"S  c #F3B34D",
"D  c #F4B34C",
"F  c #F3B551",
"G  c #F4B550",
"H  c #F4B551",
"J  c #F4B552",
"K  c #F4B756",
"L  c #F4B757",
"P  c #F4B758",
"I  c #F4B857",
"U  c #F4B858",
"Y  c #F4B859",
"T  c #F5B95B",
"R  c #F5BA5D",
"E  c #F4BA5E",
"W  c #F5BA5E",
"Q  c #F5BA5F",
"!  c #F5BB5E",
"~  c #F5BB5F",
"^  c #F4BB60",
"/  c #F5BB60",
"(  c #F5BC63",
")  c #F5BD64",
"_  c #F5BD65",
"`  c #F5BD66",
"'  c #F5BE65",
"]  c #F5BE66",
"[  c #F5BE67",
"{  c #F5BF6A",
"}  c #F6BF69",
"|  c #F5C06A",
" . c #F5C06B",
".. c #F5C06C",
"X. c #F5C16D",
"o. c #F6C16D",
"O. c #F6C26F",
"+. c #F5C370",
"@. c #F5C372",
"#. c #F6C270",
"$. c #F6C271",
"%. c #F6C371",
"&. c #F6C272",
"*. c #F6C372",
"=. c #F6C373",
"-. c #F5C474",
";. c #F6C576",
":. c #F6C577",
">. c #F6C578",
",. c #F6C579",
"<. c #F6C678",
"1. c #F6C679",
"2. c #F6C67A",
"3. c #F6C87E",
"4. c #F6C97F",
"5. c #F7C87E",
"6. c #F7C87F",
"7. c #F7C97F",
"8. c #808080",
"9. c #F6C880",
"0. c #F7C980",
"q. c #F7C981",
"w. c #F7C982",
"e. c #F7CB83",
"r. c #F7CB84",
"t. c #F7CB85",
"y. c #F7CB86",
"u. c #F7CB87",
"i. c #F7CC86",
"p. c #F7CC87",
"a. c #F7CC88",
"s. c #F7CD8B",
"d. c #F7CE8C",
"f. c #F7CF8E",
"g. c #F8CE8C",
"h. c #F8CE8D",
"j. c #F8CF8D",
"k. c #F7D092",
"l. c #F8D091",
"z. c #F8D092",
"x. c #F8D192",
"c. c #F8D193",
"v. c #F8D194",
"b. c #F8D398",
"n. c #F8D399",
"m. c #F8D39A",
"M. c #F8D499",
"N. c #F8D49A",
"B. c #F9D49A",
"V. c #F8D69F",
"C. c #F9D69E",
"Z. c #F9D69F",
"A. c #F8D7A1",
"S. c #F9D6A0",
"D. c #F9D7A0",
"F. c #F9D7A1",
"G. c #F9D8A5",
"H. c #F9D9A5",
"J. c #F9D9A6",
"K. c #F9D9A7",
"L. c #F9DAA7",
"P. c #F9DBAA",
"I. c #F9DBAC",
"U. c #FADBAC",
"Y. c #FADCAC",
"T. c #FADCAD",
"R. c #FADDB1",
"E. c #FADEB2",
"W. c #FADEB3",
"Q. c #FADFB3",
"!. c #FADFB4",
"~. c #FAE0B7",
"^. c #FAE1B8",
"/. c #FAE1B9",
"(. c #FBE1B8",
"). c #FBE1B9",
"_. c #FBE1BA",
"`. c #FBE3BC",
"'. c #FBE3BE",
"]. c #FBE3BF",
"[. c #FBE4BF",
"{. c #FBE5C2",
"}. c #FBE6C4",
"|. c #FBE6C5",
" X c #FBE7C7",
".X c #FBE7C8",
"XX c #FCE9CA",
"oX c #FCE9CD",
"OX c #FCE9CE",
"+X c #FCEACF",
"@X c #FCEBCF",
"#X c #FCECD2",
"$X c #FCECD3",
"%X c #FCEDD5",
"&X c #FCEED7",
"*X c #FCEFD8",
"=X c #FDEFDA",
"-X c #FDF0DA",
";X c #FDF0DC",
":X c #FDF1DD",
">X c #FDF2DF",
",X c #FDF3E1",
"<X c #FDF3E2",
"1X c #FDF4E4",
"2X c OldLace",
"3X c #FEF6E8",
"4X c #FEF7E9",
"5X c #FEF7EA",
"6X c #FEF7ED",
"7X c #FEF8ED",
"8X c #FEF8EE",
"9X c #FEF9F2",
"0X c #FEFBF5",
/* pixels */
": + + % = : > 4 2 q y y g c N D J K ! ( { { :.q.",
"X     . O     =         8.g c 8.        { { =.7.",
"+     O +     >           8.N           O.:.2.s.",
"%     + %     1     y g     S     ( ' { =.2.0.j.",
"=             7     f c     J         8.2.0.p.v.",
":             w     c N     Y 8.        0.p.j.m.",
">     > 1     y     N S     ~ ' { :.    p.j.x.D.",
"1     1 7     f           8.'           g.x.m.P.",
"6     6 w     c         8.{ {         8.v.B.D.U.",
"7 1 7 w y f c N N J P ! ' { =.2.0.p.g.v.m.F.J.W.",
"y 6 w y f g N N K Y ! ' { =.2.7.p.g.x.m.F.J.Y._.",
"y w y f c N S J Y ! ' { =.2.7.y.g.x.m.S.K.Y.!.].",
"f y f c N S F U / ' { %.2.7.y.s.x.B.F.J.Y.Q._.|.",
"g f c b N J Y ! ' { =.:.7.y.g.x.m.S.K.Y.W._.[.|.",
"N g b N J P ! ' { =.2.7.y.g.x.m.Z.J.Y.Q._.[.|.oX",
"C N N K U ! ( { =.2.7.y.g.x.m.S.J.Y.W._.[.|.XX&X",
"J 8.    !   {   :.8.    x.  D.J.8.  8.].  oX  *X",
"K   K ! '   =.  7.  d.x.m.    U.  ^.  ].      :X",
"Y   ! ' {   2.  y.8.  8.C.  U.W.  ].  XX  8.  <X",
"(   ' { =.  7.  s.x.m.  J.  Q.^.  |.  #X  *X  2X",
"' 8.    :.8.  8.x.    8.U.8.  {.8.  8.&X  :X  5X",
"{ { =.:.7.y.s.x.b.C.J.U.W.^.].{.XXoX&X*X<X2X5X8X",
"%.=.:.7.y.s.x.v.C.J.U.W.^.].{.XX@X&X*X>X<X2X8X9X",
"q.7.y.s.x.b.S.J.P.W.^.^.{.XXoX#X*X*X<X2X5X8X9X0X"
};
