/* XPM */
static char *TGLCustomPFXManager[] = {
/* columns rows colors chars-per-pixel */
"24 24 208 2",
"   c black",
".  c #0080FF",
"X  c #EF970A",
"o  c #EF970C",
"O  c #EF980E",
"+  c #EF9810",
"@  c #EF9912",
"#  c #EF9A12",
"$  c #F09B15",
"%  c #F09B16",
"&  c #F09C16",
"*  c #F09C18",
"=  c #F09D18",
"-  c #F09D1A",
";  c #F09D1B",
":  c #F09E1A",
">  c #F09E1B",
",  c #F09D1C",
"<  c #F09E1C",
"1  c #F09F1E",
"2  c #F09F1F",
"3  c #F09F20",
"4  c #F0A01F",
"5  c #F0A020",
"6  c #F0A120",
"7  c #F1A124",
"8  c #F1A125",
"9  c #F0A224",
"0  c #F1A224",
"q  c #F1A328",
"w  c #F1A329",
"e  c #F1A32A",
"r  c #F1A429",
"t  c #F1A42A",
"y  c #F1A52F",
"u  c #F1A62C",
"i  c #F1A62D",
"p  c #F1A62E",
"a  c #F1A62F",
"s  c #F1A72F",
"d  c #F2A730",
"f  c #F2A732",
"g  c #F2A834",
"h  c #F2A934",
"j  c #F2A935",
"k  c #F2A836",
"l  c #F2A937",
"z  c #F2AA39",
"x  c #F2AB39",
"c  c #F2AA3A",
"v  c #F2AB3A",
"b  c #F2AB3B",
"n  c #F2AD3F",
"m  c #F3AD3F",
"M  c #F2AD40",
"N  c #F3AD40",
"B  c #F3AD41",
"V  c #F2AE40",
"C  c #F2AE41",
"Z  c #F3AE41",
"A  c #F3AF45",
"S  c #F3AF46",
"D  c #F3B044",
"F  c #F3B045",
"G  c #F3B046",
"H  c #F3B047",
"J  c #F3B249",
"K  c #F3B24A",
"L  c #F3B24B",
"P  c #F3B34B",
"I  c #F3B24C",
"U  c #F3B34C",
"Y  c #F3B34D",
"T  c #F4B34C",
"R  c #F3B551",
"E  c #F4B550",
"W  c #F4B551",
"Q  c #F4B552",
"!  c #F4B553",
"~  c #F4B653",
"^  c #F4B756",
"/  c #F4B757",
"(  c #F4B758",
")  c #F4B857",
"_  c #F4B858",
"`  c #F4B859",
"'  c #F5B95B",
"]  c #F5BA5D",
"[  c #F4BA5E",
"{  c #F5BA5E",
"}  c #F5BA5F",
"|  c #F5BB5E",
" . c #F5BB5F",
".. c #F5BB60",
"X. c #F5BC63",
"o. c #F5BD63",
"O. c #F5BD64",
"+. c #F5BD65",
"@. c #F5BD66",
"#. c #F5BE65",
"$. c #F5BE66",
"%. c #F5BE67",
"&. c #F5BF6A",
"*. c #F6BF69",
"=. c #F5C06A",
"-. c #F5C06B",
";. c #F5C06C",
":. c #F6C16D",
">. c #F6C26F",
",. c #F5C370",
"<. c #F6C270",
"1. c #F6C271",
"2. c #F6C371",
"3. c #F6C372",
"4. c #F6C373",
"5. c #F6C576",
"6. c #F6C577",
"7. c #F6C578",
"8. c #F6C579",
"9. c #F6C679",
"0. c #F6C67A",
"q. c #F6C87E",
"w. c #F7C87E",
"e. c #F7C87F",
"r. c #F7C97F",
"t. c #808080",
"y. c #F7C880",
"u. c #F7C980",
"i. c #F7C982",
"p. c #F7CB83",
"a. c #F7CB84",
"s. c #F7CB85",
"d. c #F7CB86",
"f. c #F7CC86",
"g. c #F7CC87",
"h. c #F7CD8B",
"j. c #F7CE8C",
"k. c #F8CE8C",
"l. c #F8CE8D",
"z. c #F8CF8D",
"x. c #F8D092",
"c. c #F8D193",
"v. c #F8D194",
"b. c #F8D398",
"n. c #F8D39A",
"m. c #F8D499",
"M. c #F8D49A",
"N. c #F9D49A",
"B. c #F8D69F",
"V. c #F8D7A1",
"C. c #F9D6A0",
"Z. c #F9D7A0",
"A. c #F9D8A5",
"S. c #F9D9A6",
"D. c #F9D9A7",
"F. c #F9DAA7",
"G. c #F9DBAA",
"H. c #F9DBAC",
"J. c #FADBAC",
"K. c #FADCAD",
"L. c #FADDB1",
"P. c #FADEB3",
"I. c #FADFB3",
"U. c #FAE0B7",
"Y. c #FAE1B8",
"T. c #FBE1B9",
"R. c #FBE1BA",
"E. c #FBE3BC",
"W. c #FBE3BE",
"Q. c #FBE3BF",
"!. c #FBE4BF",
"~. c #FBE5C2",
"^. c #FBE6C4",
"/. c #FBE6C5",
"(. c #FBE7C7",
"). c #FBE7C8",
"_. c #FCE8CA",
"`. c #FCE9CA",
"'. c #FCE9CD",
"]. c #FCE9CE",
"[. c #FCEACF",
"{. c #FCEBCF",
"}. c #FCEAD0",
"|. c #FCEBD0",
" X c #FCECD2",
".X c #FCECD3",
"XX c #FCEDD5",
"oX c #FCEED6",
"OX c #FCEED7",
"+X c #FCEFD8",
"@X c #FDEFDA",
"#X c #FDF0DA",
"$X c #FDF0DC",
"%X c #FDF1DD",
"&X c #FDF2DF",
"*X c #FDF3E1",
"=X c #FDF3E2",
"-X c #FDF4E4",
";X c OldLace",
":X c #FEF6E8",
">X c #FEF7E9",
",X c #FEF7EA",
"<X c #FEF7ED",
"1X c #FEF8ED",
"2X c #FEF8EE",
"3X c #FEF9F2",
"4X c #FEFBF5",
"5X c gray100",
/* pixels */
"1 + + & - 4 4 7 r s f g b A G T ~ ^ ] o.*.;.6.e.",
"o t.    O   &   1 t.    g       Y t.  t.#.  a.  ",
"+   X O +   -   7   s g b C   Y ~    .  >.      ",
"&   O + &   3   r t.  t.C G   ` `   #.  4.      ",
"-   + & 1   7   f g b   G Y   ` o.  ;.  0.  g.  ",
"1 t.    4 t.  t.h     t.Y Y    .#.t.  t.p.  g.  ",
"3 % - 4 7 r s g b C G P ~ `  .#.;.1.0.p.d.l.x.C.",
"7 - 4 7 r s g b C G P ~     t.;.      d.  x.  G.",
"w 1 7 w s g b C G L ~ (   #.  4.  e.d.l.  N.  G.",
"s 7 r s g b b S L ~ ( ..    t.0.    l.v.N.  G.I.",
"s w s g b b S P ~ ` ] #.  1.0.r.  l.x.N.  D.  U.",
"g s g b C H L ~ ^ ] #.&.  0.r.d.  v.N.C.  K.  W.",
"b f b b S P R / . . . . . . . l.v.N.Z.D.K.I.T./.",
"m b m H L ~ ` . . . 5X5X5X. . . v.C.G.J.I.T.!.(.",
"A m H L ~ ^ . . . 5X5X. 5X5X. . . D.K.I.T.!./.].",
"L A L ~ ` ] . . . 5X. . . 5X. . . J.I.T.!./.].|.",
"T L ~ ^ ] . . . . . . . 5X5X. . . . U.!./.`.{.+X",
"/ ~ ` ] #.. . . . . . 5X5X. . . . . W.(.`.|.oX%X",
"` / ] #.&.. . . . . . 5X. . . . . . ~.`.|.oX+X-X",
" .] #.&.1.5.. . . . . 5X. . . . . (.`.].oX+X%X;X",
"#.o.&.1.0.q.. . . . . . . . . . . `.|.oX+X%X;X,X",
";.&.1.5.r.p.h.. . . . 5X. . . . `.].oX+X*X;X,X<X",
"3.1.0.r.d.j.x.v.. . . . . . . `.].oX+X*X-X,X<X3X",
"p.r.d.j.x.v.C.D.G.P.I.E.~.(.].|.oX%X%X;X,X<X3X4X"
};
