/* XPM */
static char *TGLDCEManager[] = {
/* columns rows colors chars-per-pixel */
"24 24 136 2",
"   c #000000",
".  c #080603",
"X  c #0B0803",
"o  c #0C0C0C",
"O  c #1E1505",
"+  c #1B150D",
"@  c #221807",
"#  c #261D0D",
"$  c #2A1E0B",
"%  c #2E200A",
"&  c #2E2312",
"*  c #3A2E1B",
"=  c #412E10",
"-  c #413117",
";  c #503A17",
":  c #66491B",
">  c #72511F",
",  c #686868",
"<  c #747474",
"1  c #0D0CFB",
"2  c #2A25F1",
"3  c #392FE3",
"4  c #3731EF",
"5  c #3930E5",
"6  c #3A32EA",
"7  c #3B3BFF",
"8  c #88590F",
"9  c #815919",
"0  c #8C601B",
"q  c #946720",
"w  c #916B2D",
"e  c #A7782C",
"r  c #AC7C32",
"t  c #A87D39",
"y  c #A57F45",
"u  c #FF0402",
"i  c #FE0803",
"p  c #FE1309",
"a  c #FF1A1A",
"s  c #FC260E",
"d  c #FC2E13",
"f  c #F76F26",
"g  c #F86120",
"h  c #F86428",
"j  c #8269BB",
"k  c #8E7ED4",
"l  c #DE941D",
"z  c #DF9B2B",
"x  c #EE9405",
"c  c #EF970A",
"v  c #EF980E",
"b  c #E6981F",
"n  c #EF9911",
"m  c #F09B15",
"M  c #F09D1B",
"N  c #F58B33",
"B  c #F0A01F",
"V  c #ECA93F",
"C  c #F0A123",
"Z  c #F1A42B",
"A  c #F2A731",
"S  c #F2A834",
"D  c #F2AB3B",
"F  c #C19B5F",
"G  c #D29A42",
"H  c #F68F41",
"J  c #F9804A",
"K  c #F59542",
"L  c #F69748",
"P  c #F7984D",
"I  c #F79B52",
"U  c #F79D58",
"Y  c #E1A444",
"T  c #EEB65B",
"R  c #F2AE42",
"E  c #F7A05D",
"W  c #F3B046",
"Q  c #F3B24B",
"!  c #F4B553",
"~  c #F4B758",
"^  c #F4B857",
"/  c #F4B95B",
"(  c #F6B364",
")  c #F4BC64",
"_  c #F5BF69",
"`  c #F5C06C",
"'  c #F5C372",
"]  c #F6C578",
"[  c #F6C87E",
"{  c #989898",
"}  c #B59DBE",
"|  c #BBA3BC",
" . c #8F81DB",
".. c #A394D5",
"X. c #CAA496",
"o. c #CAA69B",
"O. c #DCA480",
"+. c #CBA9A1",
"@. c #CBADAB",
"#. c #CCAFB1",
"$. c #D6BEBE",
"%. c #C5B2CC",
"&. c #EFC589",
"*. c #EAC392",
"=. c #EAC698",
"-. c #EBC99E",
";. c #F6CA83",
":. c #F7CD8B",
">. c #F8CE8C",
",. c #F8D093",
"<. c #F8D49A",
"1. c #E1C1A9",
"2. c #ECCEAB",
"3. c #EDD1B0",
"4. c #EAD2BE",
"5. c #F8D6A0",
"6. c #F9D9A6",
"7. c #F9DBAC",
"8. c #F1D8BC",
"9. c #FADEB2",
"0. c #FAE0B7",
"q. c #FAE2BB",
"w. c #D1D1FF",
"e. c #F1DDC6",
"r. c #FBE6C4",
"t. c #FBE7C8",
"y. c #FCE9CC",
"u. c #FCECD3",
"i. c #FCEFD9",
"p. c #FDF1DC",
"a. c #FDF4E3",
"s. c #FEF6E9",
"d. c #FEF8ED",
"f. c #F2F2FF",
"g. c #FEF9F3",
"h. c gray100",
/* pixels */
"M v n n M M C C Z Z A S D R W Q ! ! / ) _ ` ' ;.",
"v x c       o , b C Z 9 @   X ; G !           [ ",
"n x c     n 8   < Z 0   * R r   # ~     ` ' ] :.",
"n c v     M l   O h.%   e W Q ! ^ )     ' [ ;.>.",
"M v h.    M C     S .   V Q ! T ) )           <.",
"M n h.    C Z     D     Y Q ~ / ) `     ;.;.:.<.",
"C h.M     Z z   $ R $   t ~ ) ) ` '     ;.>.,.5.",
"C h.M     A q   > R w   - T y   + ]     >.,.<.6.",
"Z h.Z       X : W Q ! { &   . * F ;.          7.",
"Z h.Z Z S f R R Q ! ~ h.) ` ' ] ;.;.:.,.<.5.6.9.",
"Z h.Z S g i h Q ! ~ / h.` ' ] ;.;.:.,.<.5.6.7.q.",
"S h.S N s u d K ~ / ) h.' ] [ ;.:.,.<.5.6.7.0.q.",
"D h.D D N p H ^ / ) ` h.] [ ;.>.,.<.5.6.7.9.q.r.",
"D h.D W K a P ( ) ` ' h.[ ;.>.,.<.5.6.7.9.q.q.y.",
"R h.W Q K p P ) ` ' ] h.;.:.,.<.<.6.7.9.q.q.r.y.",
"Q h.Q ! L p I _ ' ] [ h.>.,.<.5.6.7.9.q.r.r.y.y.",
"! h.! ^ P p U ' ] [ ;.h.,.<.<.7.7.9.q.q.t.y.y.p.",
"! h.~ / I p E ] [ ;.:.h.>.$.| 7.9.0.q.r.y.y.u.p.",
"~ ! h.) ( J ( | o.+.w.@.@.| 2 k 8.q.r.y.y.u.p.p.",
") / h.` _ _ j 3 5 5 7 6 6 6 1 1 ..r.y.y.u.p.p.s.",
"_ ) _ h.] [ &.*.=.-.f.2.3.$.4  .e.y.y.u.p.p.s.s.",
"_ _ _ ] h.h.:.h.h.h.6.7.9.4.%.r.y.y.i.p.p.a.s.d.",
"] _ ] [ ;.:.h.<.<.6.7.9.9.r.r.t.y.u.p.p.p.s.d.g.",
";.;.;.:.,.<.5.5.7.9.9.q.r.t.t.u.i.p.p.s.s.d.g.g."
};
