/* XPM */
static char *TGLEParticleMasksManager[] = {
/* columns rows colors chars-per-pixel */
"24 24 243 2",
"   c #346F3E",
".  c #3B6E3F",
"X  c #297242",
"o  c #2A7141",
"O  c #2B7141",
"+  c #2A7142",
"@  c #2B7142",
"#  c #2A7241",
"$  c #2B7241",
"%  c #2A7242",
"&  c #2B7242",
"*  c #2C7142",
"=  c #2E7040",
"-  c #2E7041",
";  c #2F7141",
":  c #2E7042",
">  c #2F7244",
",  c #386F41",
"<  c #307142",
"1  c #3A7145",
"2  c #49693B",
"3  c #707D42",
"4  c #49ACB9",
"5  c #68AFCE",
"6  c #6FBADB",
"7  c #75B4DA",
"8  c #71B8D9",
"9  c #75BDDF",
"0  c #78BADF",
"q  c #77BDE1",
"w  c #79BCE2",
"e  c #79BEE3",
"r  c #7ABDE3",
"t  c #7ABEE3",
"y  c #7ABEE4",
"u  c #7ABFE4",
"i  c #7BBEE4",
"p  c #7BBFE5",
"a  c #EE9403",
"s  c #EF9506",
"d  c #EF9507",
"f  c #EF960A",
"g  c #EF970A",
"h  c #EF970C",
"j  c #EF980E",
"k  c #EF990E",
"l  c #EF9810",
"z  c #EF9912",
"x  c #EF9A12",
"c  c #F09B15",
"v  c #F09B16",
"b  c #F09C16",
"n  c #F09C18",
"m  c #F09D18",
"M  c #F09D1A",
"N  c #F09D1B",
"B  c #F09E1A",
"V  c #F09E1B",
"C  c #F09D1C",
"Z  c #F09E1C",
"A  c #F09F1E",
"S  c #F09F1F",
"D  c #F09F20",
"F  c #F0A01F",
"G  c #F0A020",
"H  c #F0A120",
"J  c #F1A124",
"K  c #F1A125",
"L  c #F0A224",
"P  c #F1A224",
"I  c #F1A328",
"U  c #F1A329",
"Y  c #F1A32A",
"T  c #F1A429",
"R  c #F1A42A",
"E  c #F1A52F",
"W  c #F1A62C",
"Q  c #F1A62D",
"!  c #F1A62E",
"~  c #F1A62F",
"^  c #F1A72F",
"/  c #F2A730",
"(  c #F2A732",
")  c #F2A834",
"_  c #F2A934",
"`  c #F2A935",
"'  c #F2A836",
"]  c #F2A937",
"[  c #F2AA39",
"{  c #F2AB39",
"}  c #F2AA3A",
"|  c #F2AB3A",
" . c #F2AB3B",
".. c #F2AD3F",
"X. c #F3AD3F",
"o. c #F2AD40",
"O. c #F3AD40",
"+. c #F2AE40",
"@. c #F3AE41",
"#. c #F3AF45",
"$. c #F3AF46",
"%. c #F3B044",
"&. c #F3B045",
"*. c #F3B046",
"=. c #F3B047",
"-. c #F3B249",
";. c #F3B24B",
":. c #F3B24C",
">. c #F3B34C",
",. c #F3B34D",
"<. c #F4B34C",
"1. c #F3B551",
"2. c #F4B550",
"3. c #F4B551",
"4. c #F4B552",
"5. c #F4B653",
"6. c #F4B756",
"7. c #F4B757",
"8. c #F4B758",
"9. c #F4B858",
"0. c #F4B859",
"q. c #F5B95B",
"w. c #F5BA5D",
"e. c #F5BA5E",
"r. c #F5BA5F",
"t. c #F5BB5E",
"y. c #F5BB60",
"u. c #F5BC63",
"i. c #F5BD65",
"p. c #F5BD66",
"a. c #F5BE66",
"s. c #F5BE67",
"d. c #F6BF69",
"f. c #F5C06B",
"g. c #F5C06C",
"h. c #F6C16D",
"j. c #F6C26F",
"k. c #F5C370",
"l. c #F6C270",
"z. c #F6C271",
"x. c #F6C371",
"c. c #F6C272",
"v. c #F6C372",
"b. c #F6C373",
"n. c #F6C576",
"m. c #F6C577",
"M. c #F6C578",
"N. c #F6C678",
"B. c #F6C679",
"V. c #F6C67A",
"C. c #F6C87E",
"Z. c #F6C97F",
"A. c #F7C87E",
"S. c #F7C87F",
"D. c #F6C880",
"F. c #F7C980",
"G. c #F7C982",
"H. c #F7CB83",
"J. c #F7CB84",
"K. c #F7CB85",
"L. c #F7CB86",
"P. c #F7CC86",
"I. c #F7CC87",
"U. c #F7CC88",
"Y. c #F7CD8B",
"T. c #F7CE8C",
"R. c #F7CF8E",
"E. c #F8CE8C",
"W. c #F8CE8D",
"Q. c #F7D092",
"!. c #F7D192",
"~. c #F8D091",
"^. c #F8D092",
"/. c #F8D192",
"(. c #F8D193",
"). c #F8D194",
"_. c #F8D398",
"`. c #F8D399",
"'. c #F8D39A",
"]. c #F8D499",
"[. c #F8D49A",
"{. c #F8D69F",
"}. c #F9D69E",
"|. c #F9D69F",
" X c #F8D7A1",
".X c #F9D6A0",
"XX c #F9D8A5",
"oX c #F9D9A6",
"OX c #F9D9A7",
"+X c #F9DBAA",
"@X c #F9DBAC",
"#X c #FADBAC",
"$X c #FADCAC",
"%X c #FADCAD",
"&X c #FADDB1",
"*X c #FADEB2",
"=X c #FADEB3",
"-X c #FADFB3",
";X c #FAE0B7",
":X c #FAE1B8",
">X c #FAE1B9",
",X c #FBE1B8",
"<X c #FBE1B9",
"1X c #FBE3BC",
"2X c #FBE3BE",
"3X c #FBE3BF",
"4X c #FBE4BF",
"5X c #FBE5C2",
"6X c #FBE6C4",
"7X c #FBE6C5",
"8X c #FBE7C7",
"9X c #FBE7C8",
"0X c #FCE8CA",
"qX c #FCE9CA",
"wX c #FCE9CD",
"eX c #FCE9CE",
"rX c #FCEACF",
"tX c #FCEBCF",
"yX c #FCEAD0",
"uX c #FCEBD0",
"iX c #FCECD2",
"pX c #FCECD3",
"aX c #FCEDD5",
"sX c #FCEED6",
"dX c #FCEED7",
"fX c #FCEFD8",
"gX c #FDEFDA",
"hX c #FDF0DA",
"jX c #FDF0DC",
"kX c #FDF1DD",
"lX c #FDF2DF",
"zX c #FDF3E1",
"xX c #FDF3E2",
"cX c #FDF4E4",
"vX c OldLace",
"bX c #FEF6E8",
"nX c #FEF7E9",
"mX c #FEF7EA",
"MX c #FEF7ED",
"NX c #FEF8ED",
"BX c #FEF8EE",
"VX c #FEF9F2",
"CX c #FEFBF5",
/* pixels */
"A l l b M A F K K ^ / [  .@.$.,.5.7.r.y.d.g.n.L.",
"h a d g k l b M H K T / 4 4 4 4 4 4 4 4 4 4 4 D.",
"l d g k l M M F K T / ) 4 4 9 p p 9 p p p p 4 U.",
"b g k l b M F K T ^ )  .4 6 ,.5.0.: i.g.b.p 4 R.",
"M k l b M H K T ^ ) [ @.4 p 1.0.y.: 3 b.N.r 4 ).",
"A l b M H K T ^ ) [ @.$.4 p 0.y.X : X N.F.p 4 [.",
"D v M F K T ^ ) ) ) @...4 p 0.y.X L.X 3 L.p 4 .X",
"K M F K T ^ ) = = X   ;.4 p 0.X X X = : E.r 4 @X",
"U D K U ^ ) [ X t.,.1.q.4 9 L.X X X X < L.r 4 @X",
"^ H T ^ ) [ ..X t.1.q.r.4 8 L.X L.L.L.X L.w 4 =X",
"^ U ^ ) [ O.#.X t.q.r.i.4 5 L.L.L.E.^.L.L.0 4 -X",
") ^ ) [ @.&.<.X t.t.i.f.4 p p p p p p 7 0 r 4 3X",
"[ ) [ ..#.X 1.X r.2 g.c.4 4 4 4 4 4 4 4 4 4 4 5X",
"X.[ O.&.<.5.X X X g.c.N.S.L.E.^.`.{.oX#X=X-X3X0X",
"#.@.$.,.5.7.t.X f.x.N.S.P.E.^.[..X@X&X=X3X3X5XtX",
";.@.<.,.<.r.t.t.f.f.N.S.E.).^..XXX%X=X-X5X5XtXuX",
",.7.X = X ,.X X   Q.% Q.!.P.% @X+X-X;X5X6XqXtXfX",
"7.7.X r.. f.X A.S.P.% X P.% % @X-X;X4X6XqXuXsXkX",
"0.h.= X X x.= X X T.Q.X % % @X-X;X4X6XqXuXsXhXxX",
"y.h.% x.c.n.X ^.^.^.[.X 1 % -X;X4X6XqXtXsXhXkXvX",
"d.g.= k.n.S.X ^.Q.`.X > -XX X 4X5X0XtXsXfXxXxXmX",
"g.g., C.S.P.  ^.`.{.= @X-X6XX 6XqXtXsXhXxXxXmXMX",
"x.c.m.C.H.Y.!.].{.XX@X-X;X4X6XqXuXsXfXkXxXmXMXVX",
"G.S.K.T.Q.].{.XX@X-X-X1X6X6XwXiXfXgXxXvXmXMXVXCX"
};
