/* XPM */
static char *TGLFPSMovementManager[] = {
/* columns rows colors chars-per-pixel */
"24 24 134 2",
"   c #000000",
".  c #080603",
"X  c #0C0906",
"o  c #1B160D",
"O  c #1F1A12",
"+  c #241B0B",
"@  c #2A1E0C",
"#  c #271F12",
"$  c #362914",
"%  c #3A2F1E",
"&  c #362E21",
"*  c #594629",
"=  c #64502F",
"-  c #7F6131",
";  c #786342",
":  c #0D0CFB",
">  c #2A25F1",
",  c #392FE3",
"<  c #3731EF",
"1  c #3930E5",
"2  c #3A32EA",
"3  c #3B3BFF",
"4  c #AF7B2B",
"5  c #AF7F33",
"6  c #FF0402",
"7  c #FE0803",
"8  c #FE1309",
"9  c #FF1A1A",
"0  c #FC260E",
"q  c #FC2E13",
"w  c #F76F26",
"e  c #F86120",
"r  c #F86428",
"t  c #8269BB",
"y  c #8E7ED4",
"u  c #BB8631",
"i  c #BF8C3C",
"p  c #BC8D44",
"a  c #BD9453",
"s  c #EE9405",
"d  c #EF970A",
"f  c #EF980E",
"g  c #EF9911",
"h  c #F09B15",
"j  c #F09D1B",
"k  c #F58B33",
"l  c #F09F20",
"z  c #F0A01F",
"x  c #F0A123",
"c  c #F1A42C",
"v  c #F2A531",
"b  c #F3A63E",
"n  c #F2A834",
"m  c #F2AA3A",
"M  c #C8994D",
"N  c #C29753",
"B  c #CC9E55",
"V  c #C59E61",
"C  c #C29F69",
"Z  c #C6A166",
"A  c #C9A263",
"S  c #C3A679",
"D  c #D9B170",
"F  c #F68F41",
"G  c #F9804A",
"H  c #F59543",
"J  c #F69748",
"K  c #F7984D",
"L  c #F79B52",
"P  c #F79D58",
"I  c #F2AE42",
"U  c #F7A05D",
"Y  c #F3B046",
"T  c #F3B24B",
"R  c #F4B553",
"E  c #F4B658",
"W  c #F4B857",
"Q  c #F4B95C",
"!  c #F6B364",
"~  c #F5BC64",
"^  c #F5BF69",
"/  c #F5C06B",
"(  c #F5C372",
")  c #F6C578",
"_  c #F6C87E",
"`  c #B59DBE",
"'  c #BBA3BC",
"]  c #8F81DB",
"[  c #A394D5",
"{  c #CAA496",
"}  c #CAA69B",
"|  c #DCA480",
" . c #CBA9A1",
".. c #CBADAB",
"X. c #CCAFB1",
"o. c #D6BEBE",
"O. c #C5B2CC",
"+. c #EFC589",
"@. c #EAC392",
"#. c #EAC698",
"$. c #EBC99E",
"%. c #F6CA84",
"&. c #F7CD8B",
"*. c #F8CE8C",
"=. c #F7D092",
"-. c #F8D092",
";. c #F8D39A",
":. c #E1C1A9",
">. c #ECCEAB",
",. c #EDD1B0",
"<. c #EAD2BE",
"1. c #F7D9AE",
"2. c #F8D6A0",
"3. c #F9D9A6",
"4. c #F9DBAC",
"5. c #F1D8BC",
"6. c #FADEB2",
"7. c #FAE0B7",
"8. c #FAE2BB",
"9. c #D1D1FF",
"0. c #F1DDC6",
"q. c #FFD1D1",
"w. c #FAE5C4",
"e. c #FBE7C8",
"r. c #FCE9CC",
"t. c #FCECD3",
"y. c #FCEFD9",
"u. c #FDF1DC",
"i. c #FDF4E3",
"p. c #FEF6E9",
"a. c #FEF8ED",
"s. c #F2F2FF",
"d. c #FEF9F3",
"f. c gray100",
/* pixels */
"j f g g j j z x c c c m m I I T R W Q ~ ^ ^ ( _ ",
"f s d           j         @ u Y i $   . $ N ( %.",
"g s d     h j x x     n 4   + T +   M N   o ) &.",
"g d f     j l x c     m I     W .   B ^ ( ) %.=.",
"j f g           c     I 5   @ Q -   . = A _ &.-.",
"j g h     x c c n         @ p Q ~ a * X   ; *.;.",
"x g j     c c n m     T R Q ~ ~ ^ ) ) D   . -.2.",
"x j z     c v w b     R Q Q ~ ^ #   Z C   O ;.3.",
"c l x     n e 6 r     E ~ ~ ^ ) B & .   & S ;.6.",
"c x c c n k 0 6 q H E Q ~ ^ ( ) %.%.*.-.;.2.3.6.",
"c c c m m m k 8 H E Q ^ ^ ( ) _ &.*.;.;.2.3.4.6.",
"n c c m f.f.q.9 q.f.~ ^ ( ) _ %.*.-.;.;.3.6.6.w.",
"m c m f.I T H 8 K f.^ ( ) _ %.*.-.;.2.3.4.6.8.w.",
"I m f.f.T R J 8 L ^ f.f._ &.*.-.;.2.3.4.6.8.8.e.",
"I f.I T T Q K 8 P ( ) _ f.*.-.;.;.3.4.6.8.8.w.r.",
"Y f.Y W W ~ L 8 U ) _ %.f.-.;.:.' 6.6.8.8.w.r.r.",
"R f.R W Q ~ ! G D } }  .9...X.` > y 5.8.w.e.r.y.",
"W f.Q Q ~ ^ ( ) t , 1 1 3 < 2 < : : [ w.r.t.y.u.",
"Q f.Q ~ ^ ( ) _ +.@.#.$.s.>.,.o.< y 0.e.r.y.y.i.",
"Q f.f.^ ^ ) _ %.&.-.;.f.f.3.6.<.O.0.r.t.y.y.u.i.",
"~ ~ ^ f.) _ %.*.-.;.f.3.4.6.8.8.w.e.r.y.y.u.i.a.",
"^ ^ ( f._ %.*.-.;.f.3.3.6.8.8.w.e.r.y.u.u.i.p.a.",
"( ( ) _ f.f.f.f.f.f.4.4.7.8.w.r.r.y.y.u.i.i.a.d.",
"_ _ %.*.-.;.;.3.3.6.7.8.w.r.r.t.y.u.i.i.p.a.d.d."
};
