/* XPM */
static char *TGLGizmo[] = {
/* columns rows colors chars-per-pixel */
"24 24 159 2",
"   c black",
".  c #110E09",
"X  c #211D15",
"o  c #31291B",
"O  c #322D26",
"+  c #322F28",
"@  c #41331C",
"#  c #423522",
"$  c #42392B",
"%  c #433C33",
"&  c #43403A",
"*  c #534939",
"=  c #735B35",
"-  c #544E45",
";  c #54514A",
":  c #645742",
">  c #736244",
",  c #756C5C",
"<  c #6F73F9",
"1  c #7778EF",
"2  c #7F7CE6",
"3  c #7778F0",
"4  c #77F94A",
"5  c #7CF54A",
"6  c #79F84B",
"7  c #836639",
"8  c #83683C",
"9  c #846C46",
"0  c #846E4C",
"q  c #847151",
"w  c #947648",
"e  c #857863",
"r  c #867B69",
"t  c #FD5751",
"y  c #FD5B53",
"u  c #FD655C",
"i  c #FD685A",
"p  c #FC705C",
"a  c #FD6D65",
"s  c #FD7167",
"d  c #FD7A6C",
"f  c #817DE1",
"g  c #C0769A",
"h  c #A48452",
"j  c #A5895D",
"k  c #B48E53",
"l  c #B5935D",
"z  c #B59564",
"x  c #B6996B",
"c  c #82F149",
"v  c #BBCE41",
"b  c #EE9405",
"n  c #EF960A",
"m  c #EF980E",
"M  c #EF9911",
"N  c #F09B15",
"B  c #F09D1B",
"V  c #F09F20",
"C  c #F0A01F",
"Z  c #E5AE32",
"A  c #EDAE3C",
"S  c #E7B23C",
"D  c #F0A123",
"F  c #F1A42B",
"G  c #F2A731",
"H  c #F2A834",
"J  c #F2AB3A",
"K  c #C49A56",
"L  c #C59C5A",
"P  c #D4A457",
"I  c #DBBE48",
"U  c #C6A065",
"Y  c #C6AA7D",
"T  c #D8A36B",
"R  c #FA8B66",
"E  c #FD8375",
"W  c #FD8B7A",
"Q  c #F89F66",
"!  c #FB9774",
"~  c #E8A94D",
"^  c #EBB445",
"/  c #EBB74C",
"(  c #ECBA54",
")  c #F2AD41",
"_  c #F3B045",
"`  c #F3B24B",
"'  c #F4B553",
"]  c #F4B95B",
"[  c #E9AF60",
"{  c #ECB463",
"}  c #E4B173",
"|  c #E6B870",
" . c #F8AA6A",
".. c #F4BC64",
"X. c #F3BD69",
"o. c #F0BD71",
"O. c #F8BC7A",
"+. c #C8C238",
"@. c #F5C06C",
"#. c #F5C372",
"$. c #F6C579",
"%. c #F6C87E",
"&. c #978E80",
"*. c #A89E8E",
"=. c #AD94B2",
"-. c #A993B9",
";. c #B7A383",
":. c #B7A588",
">. c #B8A68C",
",. c #8D81CF",
"<. c #9687C8",
"1. c #9788C8",
"2. c #9B8AC7",
"3. c #9889CA",
"4. c #9185D0",
"5. c #C69D87",
"6. c #C39D8E",
"7. c #C49F92",
"8. c #C7AE85",
"9. c #C8A18E",
"0. c #C9B89D",
"q. c #D8AC83",
"w. c #D7B98A",
"e. c #FD9788",
"r. c #FC9A83",
"t. c #FBA380",
"y. c #FABF92",
"u. c #CAC3B6",
"i. c #DACAAF",
"p. c #DBD0BD",
"a. c #E7C083",
"s. c #E7C388",
"d. c #E8C894",
"f. c #F6CA83",
"g. c #F7CD8B",
"h. c #F9C08A",
"j. c #F8CE8C",
"k. c #F8D193",
"l. c #F8D49A",
"z. c #E9D2AD",
"x. c #FACDA3",
"c. c #F8D6A0",
"v. c #FAD1A8",
"b. c #F9D9A6",
"n. c #F9DBAC",
"m. c #FADEB2",
"M. c #FAE0B7",
"N. c #FAE2BB",
"B. c #EBDDC7",
"V. c #FBE6C4",
"C. c #FBE7C8",
"Z. c #FCE9CC",
"A. c #FCECD4",
"S. c #FCEFD9",
"D. c #FDF1DD",
"F. c #FDF4E3",
"G. c #FEF6E9",
"H. c #FEF8ED",
"J. c #FEF9F3",
/* pixels */
"B m M M B B C D F F H H A J _ ` ' ' ] X.X.@.$.f.",
"m b n n m M N B C D F +.c v _ _ ` ' ] ] @.@.#.%.",
"M b n m M N B C D F Z c 6 c I ` ' ] ] ..@.#.$.g.",
"N n m M N B C D F F H S 6 ^ ` ' ] ] X.@.@.%.%.j.",
"N m M N B B D F H H J ^ 6 ` ' ] ] X.@.#.$.f.f.k.",
"B M N B D D F F H J J ^ 6 ' ] ] ..@.$.$.%.g.g.l.",
"D M B D D F F H J J _ / 6 ] ] X.X.#.$.f.f.g.k.c.",
"D B C D F F H J _ _ ` ( 6 ] ..@.#.$.%.g.g.k.l.b.",
"F V V F F H J ) _ ` ' ( 6 ..X.#.$.%.f.g.k.l.b.n.",
"F D F F H J ) _ ` ' { 2.g y  .$.%.f.g.k.l.b.b.m.",
"F F G H J ) _ ` ' 9.1 -.o. .t R f.g.k.l.c.b.n.M.",
"H F H J ) ) ` [ 1.2 q.@.#.$.O.i i y.l.c.b.n.M.N.",
"J H J ~ ,.` 6.2 =.X.X.#.$.%.f.j.! t t.b.x.v.M.V.",
") J J T 2 3.f Y ..X.#.$.%.f.j.k.l.y.u d r.W V.C.",
"_ ) ) 5.< 4.} ..X.#.#.f.f.j.k.l.c.b.v.d y a V.Z.",
"` ) ` ' 7.3.-.X.#.$.f.f.j.k.l.c.b.n.v.s E e.Z.A.",
"' ` ' ' ] ..X.L w %.f.j.k.k.l.b.n.M.N.N.C.C.A.A.",
"' ' ] ] P L L | U l x x Y d.8.M.;.z.N.0.i.A.A.D.",
"] ] ] P @ =   l 9 0 > . $ = * + e O , , - *.D.D.",
"] ] ..7 k #.o z 0 s.$ Y $ n.:.e N.& O Z.B.& D.G.",
"@...@.> h %.o z q $ Y l.+ M.>., A.+ + A.p.; F.G.",
"@.@.@.| # # . x q X $ & & N.>.j A.& x & & u.G.H.",
"@.@.#.h 9 j o l.l.b.n.M.N.N.V.Z.A.A.S.D.F.G.G.J.",
"%.%.%.y.0 q w.b.n.n.N.N.N.C.Z.A.A.D.F.F.G.H.J.J."
};
