/* XPM */
static char *TGLMultiMaterialShader[] = {
/* columns rows colors chars-per-pixel */
"24 24 234 2",
"   c black",
".  c navy",
"X  c blue",
"o  c #008000",
"O  c green",
"+  c cyan",
"@  c #800000",
"#  c red",
"$  c #800080",
"%  c magenta",
"&  c #808000",
"*  c #EE9403",
"=  c #EF9506",
"-  c #EF9507",
";  c #EF960A",
":  c #EF970A",
">  c #EF970C",
",  c #EF980E",
"<  c #EF990E",
"1  c #EF9810",
"2  c #EF9912",
"3  c #EF9A12",
"4  c #F09B15",
"5  c #F09B16",
"6  c #F09C16",
"7  c #F09C18",
"8  c #F09D18",
"9  c #F09D1A",
"0  c #F09D1B",
"q  c #F09E1A",
"w  c #F09E1B",
"e  c #F09D1C",
"r  c #F09E1C",
"t  c #F09F1E",
"y  c #F09F1F",
"u  c #F09F20",
"i  c #F0A01F",
"p  c #F0A020",
"a  c #F0A120",
"s  c #F1A124",
"d  c #F1A125",
"f  c #F0A224",
"g  c #F1A224",
"h  c #F1A328",
"j  c #F1A329",
"k  c #F1A32A",
"l  c #F1A429",
"z  c #F1A42A",
"x  c #F1A52F",
"c  c #F1A62C",
"v  c #F1A62D",
"b  c #F1A62E",
"n  c #F1A62F",
"m  c #F1A72F",
"M  c #F2A730",
"N  c #F2A732",
"B  c #F2A834",
"V  c #F2A934",
"C  c #F2A935",
"Z  c #F2A836",
"A  c #F2A937",
"S  c #F2AA39",
"D  c #F2AB39",
"F  c #F2AA3A",
"G  c #F2AB3A",
"H  c #F2AB3B",
"J  c #F2AD3F",
"K  c #F3AD3F",
"L  c #F2AD40",
"P  c #F3AD40",
"I  c #F3AE40",
"U  c #F3AE41",
"Y  c #F3AF45",
"T  c #F3AF46",
"R  c #F3B044",
"E  c #F3B046",
"W  c #F3B047",
"Q  c #F3B249",
"!  c #F3B24A",
"~  c #F3B24B",
"^  c #F3B24C",
"/  c #F3B34C",
"(  c #F3B34D",
")  c #F4B34C",
"_  c #F4B550",
"`  c #F4B551",
"'  c #F4B552",
"]  c #F4B652",
"[  c #F4B653",
"{  c #F4B756",
"}  c #F4B757",
"|  c #F4B857",
" . c #F4B858",
".. c #F4B859",
"X. c #F5B95B",
"o. c #F5BA5D",
"O. c #F4BA5E",
"+. c #F5BA5E",
"@. c #F5BB5F",
"#. c #F4BB60",
"$. c #F5BB60",
"%. c #F5BC63",
"&. c #F5BD63",
"*. c #F5BD64",
"=. c #F5BD66",
"-. c #F5BE66",
";. c #F5BE67",
":. c #F5BF6A",
">. c #F6BF69",
",. c yellow",
"<. c #F5C06A",
"1. c #F5C06B",
"2. c #F5C06C",
"3. c #F5C16D",
"4. c #F6C06C",
"5. c #F6C16D",
"6. c #F6C26F",
"7. c #F5C370",
"8. c #F6C270",
"9. c #F6C271",
"0. c #F6C371",
"q. c #F6C372",
"w. c #F6C373",
"e. c #F5C474",
"r. c #F6C576",
"t. c #F6C577",
"y. c #F6C578",
"u. c #F6C678",
"i. c #F6C679",
"p. c #F6C67A",
"a. c #F6C87E",
"s. c #F7C87E",
"d. c #F7C87F",
"f. c #F6C880",
"g. c #F7C880",
"h. c #F7C980",
"j. c #F7C981",
"k. c #F7C982",
"l. c #F7CB83",
"z. c #F7CB84",
"x. c #F7CB85",
"c. c #F7CB86",
"v. c #F7CB87",
"b. c #F7CC86",
"n. c #F7CC87",
"m. c #F7CC88",
"M. c #F7CD8B",
"N. c #F7CE8C",
"B. c #F7CF8E",
"V. c #F8CD8C",
"C. c #F8CE8C",
"Z. c #F8CE8D",
"A. c #F8CF8D",
"S. c #F7D092",
"D. c #F8D091",
"F. c #F8D092",
"G. c #F8D192",
"H. c #F8D193",
"J. c #F8D194",
"K. c #F8D398",
"L. c #F8D399",
"P. c #F8D499",
"I. c #F8D49A",
"U. c #F9D49A",
"Y. c #F8D69F",
"T. c #F9D69E",
"R. c #F9D69F",
"E. c #F8D7A1",
"W. c #F9D6A0",
"Q. c #F9D7A0",
"!. c #F9D7A1",
"~. c #F9D8A5",
"^. c #F9D9A5",
"/. c #F9D9A6",
"(. c #F9D9A7",
"). c #F9DAA7",
"_. c #F9DBAA",
"`. c #F9DBAC",
"'. c #FADBAC",
"]. c #FADCAB",
"[. c #FADCAC",
"{. c #FADCAD",
"}. c #FADDB1",
"|. c #FADEB2",
" X c #FADEB3",
".X c #FADFB3",
"XX c #FADFB4",
"oX c #FAE0B7",
"OX c #FAE1B8",
"+X c #FAE1B9",
"@X c #FBE1B8",
"#X c #FBE1B9",
"$X c #FBE1BA",
"%X c #FBE3BC",
"&X c #FBE3BE",
"*X c #FBE3BF",
"=X c #FBE4BF",
"-X c #C0C0C0",
";X c #FBE5C2",
":X c #FBE6C4",
">X c #FBE6C5",
",X c #FBE7C7",
"<X c #FBE7C8",
"1X c #FCE8CA",
"2X c #FCE9CA",
"3X c #FCE9CD",
"4X c #FCE9CE",
"5X c #FCEACF",
"6X c #FCEBCF",
"7X c #FCEAD0",
"8X c #FCEBD0",
"9X c #FCECD2",
"0X c #FCECD3",
"qX c #FCEDD5",
"wX c #FCEED6",
"eX c #FCEED7",
"rX c #FCEFD8",
"tX c #FDEFDA",
"yX c #FDF0DA",
"uX c #FDF0DC",
"iX c #FDF1DD",
"pX c #FDF2DF",
"aX c #FDF3E1",
"sX c #FDF3E2",
"dX c #FDF4E4",
"fX c OldLace",
"gX c #FEF6E8",
"hX c #FEF7E9",
"jX c #FEF7EA",
"kX c #FEF7ED",
"lX c #FEF8ED",
"zX c #FEF8EE",
"xX c #FEF9F2",
"cX c #FEFBF5",
/* pixels */
"t 1 1 6 9 t i d d m M S H U Q ^ ' ..O.$.1.4.r.x.",
"> * - : < 1 6 9 a d l M B S U T ( [ ..@.1.5.0.k.",
"1 - : < 1 9 9 i d l M B S U T ( [ ..$.*.5.r.u.M.",
"6 : < 1 6 9 i d l m B -X-XQ ( [ ..$.*.5.0.u.k.N.",
"9 < 1 6 9 a d l m + + + + + + ..$.*.4.q.u.k.x.S.",
"t 1 6 9 a d l m + + + + + + + + *.4.r.p.d.M.M.R.",
"u 5 9 i d l m -X+ + + + + + + + + q.p.d.x.B.D.W.",
"d 9 i d l m B + + + + + + + + + + p.d.b.B.J.K.].",
"j u d j m B S + X X X + + O O O + k.x.M.J.R.Q.].",
"m a l m B G % X X X X   o O O O O ,.M.J.L.W./.|.",
"m j m B S % % X X X .     o O O O ,.,.L.Q./.{.oX",
"B m B S U % % % X X         O O ,.,.,.W./.{.oX=X",
"S B S K % % % % % .         o O ,.,.,.-X].|.+X:X",
"K S U T % % % % % $ @     @ & ,.,.,.,.,. X+X:X<X",
"T K T ^ % % % % % % # # # # ,.,.,.,.,.-X$X=X:X3X",
"Q T Q ' | % % % % % # # # # ,.,.,.,.,.$X=X,X3X8X",
"( ~ ' | O.% % % % % # # # ,.,.,.,.,.,.*X:X1X6XyX",
"| ' ..O.$.5.% % % % % # # ,.,.,.,.,.*X:X1X8XwXiX",
"..| O.*.1.0.u.d.% % -XL.R.-X,.-X+X*X:X1X9XqXyXaX",
"$.@.*.1.0.r.d.x.N.D.K.R./.].|.+X*X:X1X6XqXyXpXfX",
":.$.1.0.r.d.x.M.S.K.R./.].|.+X*X:X1X3XqXyXiXfXhX",
"5.:.0.u.d.x.M.D.K.R./.'.|.+X*X:X1X9XqXyXiXfXhXkX",
"0.0.r.d.x.M.D.L.R./.].|.+X*X:X1X6XqXyXpXaXhXkXxX",
"k.a.x.N.D.K.R./.].|.XX*X;X,X3X9XqXiXaXfXhXkXxXcX"
};
