/* XPM */
static char *TGLODEJointlist[] = {
/* columns rows colors chars-per-pixel */
"24 24 207 2",
"   c black",
".  c #202040",
"X  c #006000",
"o  c gray25",
"O  c #606040",
"+  c #00A000",
"@  c #40C000",
"#  c #C04000",
"$  c #E06040",
"%  c #EE9403",
"&  c #EF970A",
"*  c #EF970C",
"=  c #EF980E",
"-  c #EF990E",
";  c #EF9810",
":  c #EF9912",
">  c #EF9A12",
",  c #F09B15",
"<  c #F09B16",
"1  c #F09C16",
"2  c #F09C18",
"3  c #F09D18",
"4  c #F09D1A",
"5  c #F09D1B",
"6  c #F09E1A",
"7  c #F09E1B",
"8  c #F09D1C",
"9  c #F09E1C",
"0  c #F09F1E",
"q  c #F09F1F",
"w  c #F09F20",
"e  c #F0A01F",
"r  c #F0A020",
"t  c #F0A120",
"y  c #F1A124",
"u  c #F1A125",
"i  c #F0A224",
"p  c #F1A224",
"a  c #F1A328",
"s  c #F1A329",
"d  c #F1A32A",
"f  c #F1A429",
"g  c #F1A42A",
"h  c #F1A52F",
"j  c #F1A62C",
"k  c #F1A62D",
"l  c #F1A62E",
"z  c #F1A62F",
"x  c #F1A72F",
"c  c #F2A730",
"v  c #F2A732",
"b  c #F2A834",
"n  c #F2A934",
"m  c #F2A935",
"M  c #F2A836",
"N  c #F2A937",
"B  c #F2AA39",
"V  c #F2AB39",
"C  c #F2AA3A",
"Z  c #F2AB3A",
"A  c #F2AB3B",
"S  c #F2AD3F",
"D  c #F3AD3F",
"F  c #F2AD40",
"G  c #F3AD40",
"H  c #F3AD41",
"J  c #F2AE40",
"K  c #F3AE40",
"L  c #F3AE41",
"P  c #F3AF45",
"I  c #F3AF46",
"U  c #F3B044",
"Y  c #F3B045",
"T  c #F3B046",
"R  c #F3B047",
"E  c #F3B249",
"W  c #F3B24A",
"Q  c #F3B24B",
"!  c #F3B34B",
"~  c #F3B24C",
"^  c #F3B34C",
"/  c #F3B34D",
"(  c #F4B34C",
")  c #F3B551",
"_  c #F4B550",
"`  c #F4B551",
"'  c #F4B552",
"]  c #F4B553",
"[  c #F4B653",
"{  c #F4B756",
"}  c #F4B757",
"|  c #F4B758",
" . c #F4B857",
".. c #F4B858",
"X. c #F4B859",
"o. c #F5B95B",
"O. c #F5BA5D",
"+. c #F4BA5E",
"@. c #F5BA5E",
"#. c #F5BA5F",
"$. c #F5BB5E",
"%. c #F5BB5F",
"&. c #F4BB60",
"*. c #F5BB60",
"=. c #F5BC63",
"-. c #F5BD65",
";. c #F5BD66",
":. c #F5BE65",
">. c #F5BE66",
",. c #F6BF69",
"<. c #F5C06C",
"1. c #F6C06C",
"2. c #F6C16D",
"3. c #F6C26F",
"4. c #F5C370",
"5. c #F6C372",
"6. c #F6C373",
"7. c #F5C474",
"8. c #F6C576",
"9. c #F6C679",
"0. c #F6C67A",
"q. c #F7C87F",
"w. c #F7C97F",
"e. c #F6C880",
"r. c #F7C880",
"t. c #F7C980",
"y. c #F7C981",
"u. c #F7C982",
"i. c #F7CB83",
"p. c #F7CB85",
"a. c #F7CB86",
"s. c #F7CB87",
"d. c #F7CC86",
"f. c #F7CC87",
"g. c #F7CC88",
"h. c #F7CE8C",
"j. c #F7CF8E",
"k. c #F8CD8C",
"l. c #F8CE8C",
"z. c #F8CE8D",
"x. c #F8CF8D",
"c. c #F7D092",
"v. c #F7D192",
"b. c #F8D091",
"n. c #F8D092",
"m. c #F8D192",
"M. c #F8D193",
"N. c #F8D194",
"B. c #F8D398",
"V. c #F8D399",
"C. c #F8D499",
"Z. c #F8D49A",
"A. c #F9D49A",
"S. c #F8D69F",
"D. c #F9D69E",
"F. c #F9D69F",
"G. c #F8D7A1",
"H. c #F9D6A0",
"J. c #F9D7A0",
"K. c #F9D7A1",
"L. c #F9D8A5",
"P. c #F9D9A5",
"I. c #F9D9A6",
"U. c #F9D9A7",
"Y. c #F9DAA7",
"T. c #F9DBAA",
"R. c #F9DBAC",
"E. c #FADBAC",
"W. c #FADCAB",
"Q. c #FADCAC",
"!. c #FADCAD",
"~. c #FADDB1",
"^. c #FADEB2",
"/. c #FADEB3",
"(. c #FADFB3",
"). c #FADFB4",
"_. c #FAE0B7",
"`. c #FAE1B8",
"'. c #FAE1B9",
"]. c #FBE1B8",
"[. c #FBE1B9",
"{. c #FBE1BA",
"}. c #FBE3BC",
"|. c #FBE3BE",
" X c #FBE3BF",
".X c #FBE4BF",
"XX c #FBE5C2",
"oX c #FBE6C4",
"OX c #FBE6C5",
"+X c #FBE7C7",
"@X c #FBE7C8",
"#X c #FCE9CA",
"$X c #FCE9CD",
"%X c #FCE9CE",
"&X c #FCEBCF",
"*X c #FCECD2",
"=X c #FCECD3",
"-X c #FCEDD5",
";X c #FCEED6",
":X c #FCEED7",
">X c #FCEFD8",
",X c #FDF0DC",
"<X c #FDF1DD",
"1X c #FDF3E1",
"2X c #FDF3E2",
"3X c #FEF9F2",
"4X c #FEFBF5",
/* pixels */
"0 ; ; 1 1 e e y g j c N A L R ( ] X.#.%.,.6.8.p.",
"* %           4 w       o . L R             6.u.",
";   & - ; 1 4   y   j N A L . /   X.%.:.<.8.9.g.",
"1   - ; 1 e w   g   N A L R   [   %.>.<.6.9.t.h.",
"4   ; 1 0 e y   j   N L R Q   X.          u.g.M.",
"0   1 4 w w g   N   L I / [ o %.  <.6.9.u.g.x.V.",
"w   4 e p g c   N   Q Q ] X.. :.  4.9.u.a.x.M.K.",
"y 4   . o .   A I   o o .   :.<.  o o o o   V.T.",
"s q y g x c A A R ! [ X.%.:.<.6.9.t.f.h.M.A.K.W.",
"j i g j N A L R Q [ X.O O O 6.9.t.f.h.M.F.K.L.(.",
"x s j N N L I Q [ X.O X @ + O w.f.h.b.V.F.L.!.[.",
"N j N A A R Q [ ] %.X + + @ + O x.M.V.H.L.!.). X",
"N N N L R ! '  .#.O X + + + + O M.V.K.L.W.(.'.oX",
"L N L R ! [ X.#.O # X X + + X # O H.T.E.).[. X#X",
"R A I ! [ ] #.O # $ # X X X # $ # O W.^.[.XX+X$X",
"Q R Q '  .#.O # $ # O O O O O # $ # O [.XXXX#X=X",
"( ! [ ] #.O # $ # O a.x.b.V.K.L.# $ # O +X#X&X:X",
" .[ O O O # $ # O a.h.b.V.D.L.W.(.# $ # O O :X<X",
"X.O X @ + $ # O a.h.v.V.D.L.W.(.'.O # X @ + O 1X",
"O X + + @ + O a.j.b.V.K.Y.W.).'. XO X + + @ + O ",
"O X + + + + O h.b.V.F.L.W.^.'. X+XO X + + + + O ",
"O X X + + X O b.V.F.L.W.^.'. XoX#XO X X + + X O ",
"4.O X X X O b.V.F.L.W.^.'. XoX#X&X=XO X X X O 3X",
"u.w.O O O V.F.L.T.^.). XXX+X$X*X=X<X1XO O O 3X4X"
};
