/* XPM */
static char *TGLOutlineShader[] = {
/* columns rows colors chars-per-pixel */
"24 24 207 2",
"   c #042E2C",
".  c #092C2B",
"X  c #043634",
"o  c #043B3C",
"O  c #3B2B24",
"+  c #3B4339",
"@  c #044244",
"#  c #044A4C",
"$  c #094142",
"%  c #045254",
"&  c #04595B",
"*  c #09595A",
"=  c #1C4D4B",
"-  c #1C504B",
";  c #046464",
":  c #046A6C",
">  c #0C6E6C",
",  c #157573",
"<  c #147A7C",
"1  c #266F6A",
"2  c #2F7570",
"3  c #662314",
"4  c #662C1D",
"5  c #5F4236",
"6  c #6B4B3C",
"7  c #4C4D43",
"8  c #455852",
"9  c #47736C",
"0  c #556B61",
"q  c #65594E",
"w  c #6C5447",
"e  c #744E41",
"r  c #735A4F",
"t  c #63766C",
"y  c #776E64",
"u  c #757367",
"i  c #7F786C",
"p  c #3F827D",
"a  c #1C8284",
"s  c #228382",
"d  c #248A8C",
"f  c #2C8E8C",
"g  c #349694",
"h  c #3C9C9C",
"j  c #459692",
"k  c #549F9B",
"l  c #4CA6A4",
"z  c #4CAAAC",
"x  c #54AAAC",
"c  c #5CA2A3",
"v  c #6E9B95",
"b  c #74948D",
"n  c #63A7A3",
"m  c #64B2B4",
"M  c #6CB6B4",
"N  c #74BABC",
"B  c #7CBEBC",
"V  c #951F0A",
"C  c #95220D",
"Z  c #952A15",
"A  c #A6260E",
"S  c #B0260E",
"D  c #B1280F",
"F  c #B12A11",
"G  c #9B402C",
"H  c #A0442E",
"J  c #A04D38",
"K  c #A1503C",
"L  c #BF4028",
"P  c #BF4932",
"I  c #B94F3A",
"U  c #B5503A",
"Y  c #824F41",
"T  c #815245",
"R  c #817065",
"E  c #AC5441",
"W  c #B25844",
"Q  c #AA6856",
"!  c #B76A5A",
"~  c #A06D60",
"^  c #BB7465",
"/  c #D12A0D",
"(  c #DB2709",
")  c #DB2B0D",
"_  c #D22F13",
"`  c #D33216",
"'  c #D33519",
"]  c #DD361A",
"[  c #C13C23",
"{  c #CA3B22",
"}  c #D43F26",
"|  c #C54229",
" . c #C9432A",
".. c #C94B34",
"X. c #D84126",
"o. c #DD442A",
"O. c #D04830",
"+. c #D14F39",
"@. c #DB4E36",
"#. c #D3523A",
"$. c #DA5139",
"%. c #E24F37",
"&. c #E0553D",
"*. c #EA5D31",
"=. c #E9601A",
"-. c #EB691C",
";. c #ED7A3A",
":. c #C75A46",
">. c #CD5B47",
",. c #D95842",
"<. c #C06A59",
"1. c #CC6A56",
"2. c #C67060",
"3. c #E15A43",
"4. c #ED7C43",
"5. c #968074",
"6. c #A48072",
"7. c #EE9405",
"8. c #EF960A",
"9. c #EF980E",
"0. c #EF9911",
"q. c #F09B15",
"w. c #F09D1B",
"e. c #EE8527",
"r. c #EE8A29",
"t. c #EE8235",
"y. c #EE8439",
"u. c #F09F20",
"i. c #F09534",
"p. c #F09639",
"a. c #F0983E",
"s. c #F0A01F",
"d. c #F0A123",
"f. c #F0A42B",
"g. c #F1A432",
"h. c #F2A834",
"j. c #F2AB3B",
"k. c #DF8978",
"l. c #F0934C",
"z. c #F19A43",
"x. c #F29873",
"c. c #F1A243",
"v. c #F1A04B",
"b. c #F2AE41",
"n. c #F3AD4D",
"m. c #F3AB52",
"M. c #F3B046",
"N. c #F3B24B",
"B. c #F4B553",
"V. c #F4B95B",
"C. c #F4AE7C",
"Z. c #F4B56C",
"A. c #F4BC63",
"S. c #F5BE69",
"D. c #F5C06C",
"F. c #F5C372",
"G. c #F6C579",
"H. c #F6C87E",
"J. c #87ADA8",
"K. c #82B5B2",
"L. c #90BEBA",
"P. c #ABBFBE",
"I. c #B2AAA5",
"U. c #BCB8B3",
"Y. c #84C2C4",
"T. c #94CECC",
"R. c #98C1C2",
"E. c #9CCECC",
"W. c #A4D2D4",
"Q. c #B4DCDC",
"!. c #F4AD80",
"~. c #F4AE88",
"^. c #F5B68A",
"/. c #F6BE95",
"(. c #F6BE98",
"). c #F6C682",
"_. c #F6C78B",
"`. c #F6CA83",
"'. c #F7CC8A",
"]. c #F8CE8C",
"[. c #F7C792",
"{. c #F7C39F",
"}. c #F7CA91",
"|. c #F7CA98",
" X c #F8D092",
".X c #F8D49B",
"XX c #E6D8AE",
"oX c #F8D5A1",
"OX c #F9D9A6",
"+X c #F9DBAC",
"@X c #F9D7B2",
"#X c #FADEB2",
"$X c #FADBB8",
"%X c #FAE0B7",
"&X c #FAE2BC",
"*X c #CCE6E4",
"=X c #D4EAEC",
"-X c #FBE6C4",
";X c #FBE7C8",
":X c #FCE9CC",
">X c #FCECD3",
",X c #FCEFD9",
"<X c #FDF1DC",
"1X c #FDF4E3",
"2X c #FEF6E9",
"3X c #FEF8ED",
"4X c #FEF9F3",
/* pixels */
"w.9.0.0.w.w.s.d.f.f.g.h.j.M.M.N.B.B.A.A.S.F.G.`.",
"9.7.8.8.9.0.q.w.u.d.f.g.h.j.j.M.N.B.B.A.A.D.F.H.",
"0.7.8.9.0.q.w.w.d.f.f.h.j.M.M.N.B.B.V.S.D.F.G.'.",
"q.8.9.0.q.w.s.d.f.f.h.j.j.N.N.B.B.A.S.S.F.H.`.].",
"q.9.0.q.w.w.d.f.f.g.i.i.p.a.z.v.B.A.S.F.G.H.'. X",
"w.0.q.w.d.d.f.f.r.&.+. .| L | X.;.Z.F.H.H.'.]..X",
"d.0.w.d.d.f.f.-.] >.I.R.L.n j w [ l.G.H.'.]. XoX",
"d.w.s.d.f.f.e.$.1.! K P.Y.m h , 5 / 4.H.]. X.XOX",
"f.s.d.f.f.h.=.<.#.5.G ~ B z g < * 4 ) *. X.XoX+X",
"f.d.f.g.h.g.$.^ ..K.0 F J.h a : @ . G o.].oXOX%X",
"f.f.f.h.j.i.,.O.i E.s Z T g , & o   7 ) C.OX+X%X",
"g.f.g.j.b.p.)  .c E.a + S p ; @   X 8 ) !.@X%X&X",
"j.h.j.j.M.c.o.R M Q.s * C e % X   o q ( ^.#X&X-X",
"j.j.j.M.N.t...k B W.d ; O S -   o & J ' /.&X&X;X",
"M.j.N.N.n.3.u x W.T.f : $ C 6 o # 2 { _ (.&X-X:X",
"N.M.N.B.y...j m Q.Y.f ; @ O S - 1 E I x.@X-X:X>X",
"N.N.N.B.&.y l N *XM f : & . V Y  .) ~.&X;X:X:X,X",
"B.B.V.m.O.J v N =Xm f > & o 3 A ( 2.&X-X:X:X,X<X",
"V.V.V.V.l.%.} 6.U.b t 0 9 r / _ U $X-X:X:X,X,X1X",
"V.V.D.D.F.Z.k.:. . ._ ` | P W Q {.-X:X:X,X,X<X1X",
"A.A.D.D.G.H.'._._.].[.|.oX+X%X&X-X:X>X,X,X<X1X3X",
"D.D.F.G.H.`.].]..X.XOX+X#X%X-X-X:X:X>X,X<X1X2X3X",
"D.F.G.H.`.]. X.X.XOX+X#X$X&X-X:X:X>X,X<X1X3X3X3X",
"XXH.`.]. X.X.XoX+X#X%X%X-X:X:X>X,X,X<X1X2X3X4X4X"
};
