/* XPM */
static char *TGLPointLightPFXManager[] = {
/* columns rows colors chars-per-pixel */
"24 24 211 2",
"   c black",
".  c #0080FF",
"X  c #EF970A",
"o  c #EF970C",
"O  c #EF980E",
"+  c #EF9810",
"@  c #EF9912",
"#  c #EF9A12",
"$  c #F09B15",
"%  c #F09B16",
"&  c #F09C16",
"*  c #F09C18",
"=  c #F09D18",
"-  c #F09D1A",
";  c #F09D1B",
":  c #F09E1A",
">  c #F09E1B",
",  c #F09D1C",
"<  c #F09E1C",
"1  c #F09F1E",
"2  c #F09F1F",
"3  c #F09F20",
"4  c #F0A01F",
"5  c #F0A020",
"6  c #F0A120",
"7  c #F1A124",
"8  c #F1A125",
"9  c #F0A224",
"0  c #F1A224",
"q  c #F1A328",
"w  c #F1A329",
"e  c #F1A32A",
"r  c #F1A429",
"t  c #F1A42A",
"y  c #F1A52F",
"u  c #F1A62C",
"i  c #F1A62D",
"p  c #F1A62E",
"a  c #F1A62F",
"s  c #F1A72F",
"d  c #F2A730",
"f  c #F2A732",
"g  c #F2A834",
"h  c #F2A934",
"j  c #F2A935",
"k  c #F2A836",
"l  c #F2A937",
"z  c #F2AA39",
"x  c #F2AB39",
"c  c #F2AA3A",
"v  c #F2AB3A",
"b  c #F2AB3B",
"n  c #F2AD3F",
"m  c #F3AD3F",
"M  c #F2AD40",
"N  c #F3AD40",
"B  c #F3AD41",
"V  c #F2AE40",
"C  c #F2AE41",
"Z  c #F3AE41",
"A  c #F3AF45",
"S  c #F3AF46",
"D  c #F3B044",
"F  c #F3B045",
"G  c #F3B046",
"H  c #F3B047",
"J  c #F3B249",
"K  c #F3B24A",
"L  c #F3B24B",
"P  c #F3B34B",
"I  c #F3B24C",
"U  c #F3B34C",
"Y  c #F3B34D",
"T  c #F4B34C",
"R  c #F3B551",
"E  c #F4B550",
"W  c #F4B551",
"Q  c #F4B552",
"!  c #F4B553",
"~  c #F4B653",
"^  c #F4B756",
"/  c #F4B757",
"(  c #F4B758",
")  c #F4B857",
"_  c #F4B858",
"`  c #F4B859",
"'  c #F5B95B",
"]  c #F5BA5D",
"[  c #F4BA5E",
"{  c #F5BA5E",
"}  c #F5BA5F",
"|  c #F5BB5E",
" . c #F5BB5F",
".. c #F5BB60",
"X. c #F5BC63",
"o. c #F5BD63",
"O. c #F5BD64",
"+. c #F5BD65",
"@. c #F5BD66",
"#. c #F5BE65",
"$. c #F5BE66",
"%. c #F5BE67",
"&. c #F5BF6A",
"*. c #F6BF69",
"=. c #F5C06A",
"-. c #F5C06B",
";. c #F5C06C",
":. c #F6C16D",
">. c #F6C26F",
",. c #F5C370",
"<. c #F6C270",
"1. c #F6C271",
"2. c #F6C371",
"3. c #F6C372",
"4. c #F6C373",
"5. c #F5C474",
"6. c #F6C576",
"7. c #F6C577",
"8. c #F6C578",
"9. c #F6C579",
"0. c #F6C679",
"q. c #F6C67A",
"w. c #F6C87E",
"e. c #F7C87E",
"r. c #F7C87F",
"t. c #F7C97F",
"y. c #808080",
"u. c #F7C880",
"i. c #F7C980",
"p. c #F7C982",
"a. c #F7CB83",
"s. c #F7CB84",
"d. c #F7CB85",
"f. c #F7CB86",
"g. c #F7CC86",
"h. c #F7CC87",
"j. c #F7CC88",
"k. c #F7CD8B",
"l. c #F7CE8C",
"z. c #F7CF8E",
"x. c #F8CE8C",
"c. c #F8CE8D",
"v. c #F8CF8D",
"b. c #F8D092",
"n. c #F8D193",
"m. c #F8D194",
"M. c #F8D398",
"N. c #F8D39A",
"B. c #F8D499",
"V. c #F8D49A",
"C. c #F9D49A",
"Z. c #F8D69F",
"A. c #F8D7A1",
"S. c #F9D6A0",
"D. c #F9D7A0",
"F. c #F9D8A5",
"G. c #F9D9A6",
"H. c #F9D9A7",
"J. c #F9DAA7",
"K. c #F9DBAA",
"L. c #F9DBAC",
"P. c #FADBAC",
"I. c #FADCAD",
"U. c #FADDB1",
"Y. c #FADEB3",
"T. c #FADFB3",
"R. c #FAE0B7",
"E. c #FAE1B8",
"W. c #FBE1B9",
"Q. c #FBE1BA",
"!. c #FBE3BC",
"~. c #FBE3BE",
"^. c #FBE3BF",
"/. c #FBE4BF",
"(. c #FBE5C2",
"). c #FBE6C4",
"_. c #FBE6C5",
"`. c #FBE7C7",
"'. c #FBE7C8",
"]. c #FCE8CA",
"[. c #FCE9CA",
"{. c #FCE9CD",
"}. c #FCE9CE",
"|. c #FCEACF",
" X c #FCEBCF",
".X c #FCEAD0",
"XX c #FCEBD0",
"oX c #FCECD2",
"OX c #FCECD3",
"+X c #FCEDD5",
"@X c #FCEED6",
"#X c #FCEED7",
"$X c #FCEFD8",
"%X c #FDEFDA",
"&X c #FDF0DA",
"*X c #FDF0DC",
"=X c #FDF1DD",
"-X c #FDF2DF",
";X c #FDF3E1",
":X c #FDF3E2",
">X c #FDF4E4",
",X c OldLace",
"<X c #FEF6E8",
"1X c #FEF7E9",
"2X c #FEF7EA",
"3X c #FEF7ED",
"4X c #FEF8ED",
"5X c #FEF8EE",
"6X c #FEF9F2",
"7X c #FEFBF5",
"8X c gray100",
/* pixels */
"1 + + & - 1 4 7 r s f v v Z S Y ~ /  ...-.>.7.a.",
"o     y.O + &   1 0 r   g y.    Y   /   #.      ",
"+   X   + & -   7 r a   b   H Y ~    .  >.7.  j.",
"&     y.&   0   e s g   Z   Y   `       3.q.  c.",
"-   + & 1 4 7   s g v   S   ~    .  ;.  0.a.  m.",
"1   & - 4 0 r       Z   Y y.  y.#.  7.  t.j.  C.",
"1 % - 4 7 e s g v Z S Y ~ `  .#.;.4.0.a.f.c.b.Z.",
"7 - 4 7 r s g v Z S L ~     y.;.      f.  b.  K.",
"7 1 0 e s g v Z S L ~ (   #.  4.  t.g.c.  C.  K.",
"s 0 e s g v n S P ~ (  .    y.0.    c.m.C.  H.Y.",
"a e s g v n A L ~ `  .#.  4.0.t.  z.b.C.  H.  !.",
"g s g v n S P ~ /  .#.&.  0.t.f.  b.C.Z.  I.  !.",
"v f v n A L R / . . . . . . . c.m.C.F.H.I.Y.!.`.",
"n v B S P ~ ( . . . . 8X. . . . m.Z.H.P.Y.T.!.`.",
"S m S Y ~ / . . 8X. . 8X. . 8X. . H.I.Y.Q.(.`.{.",
"H S H ~ /  .. . . 8X. . . 8X. . . I.Y.Q.^.).].+X",
"~ H ~ /  .. . . . . . 8X. . . . . . !.!.`.]. X&X",
"/ ~ /  .... . 8X8X. 8X8X8X. 8X8X. . !.`.].{.#X&X",
"` / | #.-.. . . . . . 8X. . . . . . (.].XX+X&X:X",
"..| #.-.4.7.. . . 8X. . . 8X. . . `.]. X+X&X-X,X",
"&...-.4.7.w.. . 8X. . 8X. . 8X. . ].XX+X&X;X,X1X",
";.#.4.7.t.a.k.. . . . 8X. . . . ].XX+X&X&X,X1X3X",
"2.4.0.t.f.c.b.m.. . . . . . . ].XX+X$X&X,X1X3X6X",
"a.t.f.l.b.m.Z.H.K.Y.T.!.(.`.{.XX$X&X;X,X1X3X6X7X"
};
