/* XPM */
static char *TGLSMOpenAL[] = {
/* columns rows colors chars-per-pixel */
"24 24 225 2",
"   c black",
".  c #EE9403",
"X  c #EF9507",
"o  c #EF960A",
"O  c #EF970C",
"+  c #EF980E",
"@  c #EF9810",
"#  c #EF9912",
"$  c #EF9A12",
"%  c #F09B15",
"&  c #F09C16",
"*  c #F09C18",
"=  c #F09D18",
"-  c #F09D1A",
";  c #F09D1B",
":  c #F09E1B",
">  c #F09D1C",
",  c #F09E1C",
"<  c #F09F1E",
"1  c #F09F1F",
"2  c #F09F20",
"3  c #F0A01F",
"4  c #F0A020",
"5  c #F0A120",
"6  c #F1A124",
"7  c #F1A125",
"8  c #F0A224",
"9  c #F1A224",
"0  c #F1A328",
"q  c #F1A329",
"w  c #F1A429",
"e  c #F1A42A",
"r  c #F1A52F",
"t  c #F1A62C",
"y  c #F1A62D",
"u  c #F1A62E",
"i  c #F1A62F",
"p  c #F1A72F",
"a  c #F2A730",
"s  c #F2A732",
"d  c #F2A834",
"f  c #F2A934",
"g  c #F2A935",
"h  c #F2A836",
"j  c #F2A937",
"k  c #F2AA39",
"l  c #F2AB39",
"z  c #F2AB3A",
"x  c #F2AB3B",
"c  c #F3AD3F",
"v  c #F2AD40",
"b  c #F3AD40",
"n  c #F3AD41",
"m  c #F2AE40",
"M  c #F3AE40",
"N  c #F3AE41",
"B  c #F3AF45",
"V  c #F3AF46",
"C  c #F3B044",
"Z  c #F3B046",
"A  c #F3B047",
"S  c #F3B249",
"D  c #F3B24A",
"F  c #F3B24B",
"G  c #F3B34B",
"H  c #F3B24C",
"J  c #F3B34C",
"K  c #F3B34D",
"L  c #F4B34C",
"P  c #F3B551",
"I  c #F4B550",
"U  c #F4B551",
"Y  c #F4B552",
"T  c #F4B553",
"R  c #F4B652",
"E  c #F4B653",
"W  c #F4B756",
"Q  c #F4B757",
"!  c #F4B758",
"~  c #F4B857",
"^  c #F4B858",
"/  c #F4B859",
"(  c #F5B95B",
")  c #F5BA5D",
"_  c #F4BA5E",
"`  c #F5BA5E",
"'  c #F5BA5F",
"]  c #F5BB5E",
"[  c #F5BB5F",
"{  c #F4BB60",
"}  c #F5BB60",
"|  c #F5BC63",
" . c #F5BD63",
".. c #F5BD64",
"X. c #F5BD65",
"o. c #F5BD66",
"O. c #F5BE66",
"+. c #F5BE67",
"@. c #F5BF6A",
"#. c #F6BF69",
"$. c #F5C06A",
"%. c #F5C06B",
"&. c #F5C06C",
"*. c #F5C16D",
"=. c #F6C06C",
"-. c #F6C16D",
";. c #F6C26F",
":. c #F5C370",
">. c #F5C372",
",. c #F6C270",
"<. c #F6C271",
"1. c #F6C371",
"2. c #F6C272",
"3. c #F6C372",
"4. c #F6C373",
"5. c #F5C474",
"6. c #F6C576",
"7. c #F6C577",
"8. c #F6C578",
"9. c #F6C579",
"0. c #F6C678",
"q. c #F6C679",
"w. c #F6C67A",
"e. c #F6C87E",
"r. c #F6C97F",
"t. c #F7C87E",
"y. c #F7C87F",
"u. c #F7C97F",
"i. c #808080",
"p. c #F6C880",
"a. c #F7C880",
"s. c #F7C980",
"d. c #F7C981",
"f. c #F7C982",
"g. c #F7CB83",
"h. c #F7CB84",
"j. c #F7CB85",
"k. c #F7CB86",
"l. c #F7CB87",
"z. c #F7CC86",
"x. c #F7CC87",
"c. c #F7CC88",
"v. c #F7CD8B",
"b. c #F7CE8C",
"n. c #F7CF8E",
"m. c #F8CD8C",
"M. c #F8CE8C",
"N. c #F8CE8D",
"B. c #F8CF8D",
"V. c #F7D092",
"C. c #F7D192",
"Z. c #F8D091",
"A. c #F8D092",
"S. c #F8D192",
"D. c #F8D193",
"F. c #F8D194",
"G. c #F8D398",
"H. c #F8D399",
"J. c #F8D499",
"K. c #F8D49A",
"L. c #F8D69F",
"P. c #F9D69E",
"I. c #F9D69F",
"U. c #F8D7A1",
"Y. c #F9D7A0",
"T. c #F9D7A1",
"R. c #F9D8A5",
"E. c #F9D9A5",
"W. c #F9D9A6",
"Q. c #F9D9A7",
"!. c #F9DAA7",
"~. c #F9DBAA",
"^. c #F9DBAC",
"/. c #FADBAC",
"(. c #FADCAB",
"). c #FADCAC",
"_. c #FADCAD",
"`. c #FADDB1",
"'. c #FADEB2",
"]. c #FADEB3",
"[. c #FADFB3",
"{. c #FADFB4",
"}. c #FAE0B7",
"|. c #FAE1B8",
" X c #FAE1B9",
".X c #FBE1B8",
"XX c #FBE1B9",
"oX c #FBE3BC",
"OX c #FBE3BF",
"+X c #FBE4BF",
"@X c #C0C0C0",
"#X c #FBE5C2",
"$X c #FBE6C4",
"%X c #FBE6C5",
"&X c #FBE7C7",
"*X c #FBE7C8",
"=X c #FCE9CA",
"-X c #FCE9CD",
";X c #FCE9CE",
":X c #FCEACF",
">X c #FCEBCF",
",X c #FCEBD0",
"<X c #FCECD2",
"1X c #FCEDD5",
"2X c #FCEED6",
"3X c #FCEED7",
"4X c #FCEFD8",
"5X c #FDEFDA",
"6X c #FDF0DA",
"7X c #FDF0DC",
"8X c #FDF1DD",
"9X c #FDF2DF",
"0X c #FDF3E1",
"qX c #FDF3E2",
"wX c #FDF4E4",
"eX c OldLace",
"rX c #FEF6E8",
"tX c #FEF7E9",
"yX c #FEF7EA",
"uX c #FEF7ED",
"iX c #FEF8ED",
"pX c #FEF8EE",
"aX c #FEF9F2",
"sX c #FEFBF5",
"dX c gray100",
/* pixels */
"< @ @ & - 1 1 6 w p s z z n V L R W '  .@.;.7.h.",
"O . X o @ @ & - 3 3 w p f z n V G R / ' o.&.4.u.",
"@ i.  i.@     i.6 i.  i.x i.  i.R / [ o.;.7.q.x.",
"&   +   &   1   p   f   M   K   /  .o.&.4.8.u.n.",
"-   @   <     i.p     i.A   R    .o.&.4.y.u.l.C.",
"<   &   3   w p f   M A K   /   o.&.5.8.t.x.M.P.",
"< i.  i.6   p f z i.    R   [   &.<.y.u.l.M.C.I.",
"6 - 1 6 w p f z M A F R / [ o.&.<.q.t.l.M.C.J.W.",
"q < 6 q p f z M V F R / ' o.@.5.q.u.x.Z.C.  I./.",
"p 6 w i.  i.c   F R / ' o.&.5.q.u.l.M.C.  I.~.'.",
"p q p   z   A   R / ' o.&.<.q.u.h.    J.I.~./.XX",
"d p f       L   ! ' o.@.<.q.u.      i.  ~.).{.  ",
"z s z   V   R   ' o.&.<.q.u.      i.@Xi.  '.  %X",
"c z M   H   ~       <.q.u.    .   @Xi..   XX+X*X",
"V c V F R ~ [ o.@.5.7.u.l.  . .     . dX  #X*X:X",
"F V F R ~ '  .@.5.7.u.l.M.  . .     dX.   %X    ",
"K H R W ' o.@.5.q.t.g.M.C.  i..     . dX  =X:X4X",
"~ K ~ '  .@.5.7.t.j.b.C.J.i.  i.  . dX.   ,X<X8X",
"/ ~ '  .@.,.6.u.j.b.C.J.I.W.      dX. dX  <X  wX",
" .'  .@.,.6.u.h.b.A.H.I.W.).'.      dX  3X4X0X  ",
"o.o.@.<.8.u.h.M.A.H.P.W.).'.XX+Xi.    <X8X8XwXyX",
"&.@.<.9.u.h.M.Z.H.I.W.).].}.OX%X:X,X3X4X  wXtXpX",
"5.&.q.y.g.v.Z.H.P.W./.'.XX+X%X=X:X<X4X0XwX  uXaX",
"u.u.g.b.Z.H.I.R.~.'.{.+X#X%X:X<X<X8XqXwXtXpXaXsX"
};
