/* XPM */
static char *TGLSMFMOD[] = {
/* columns rows colors chars-per-pixel */
"24 24 225 2",
"   c black",
".  c #EE9403",
"X  c #EF9507",
"o  c #EF960A",
"O  c #EF970C",
"+  c #EF980E",
"@  c #EF9810",
"#  c #EF9912",
"$  c #EF9A12",
"%  c #F09B15",
"&  c #F09C16",
"*  c #F09C18",
"=  c #F09D18",
"-  c #F09D1A",
";  c #F09D1B",
":  c #F09E1A",
">  c #F09E1B",
",  c #F09D1C",
"<  c #F09E1C",
"1  c #F09F1E",
"2  c #F09F1F",
"3  c #F09F20",
"4  c #F0A01F",
"5  c #F0A020",
"6  c #F0A120",
"7  c #F1A124",
"8  c #F1A125",
"9  c #F0A224",
"0  c #F1A224",
"q  c #F1A328",
"w  c #F1A329",
"e  c #F1A429",
"r  c #F1A42A",
"t  c #F1A52F",
"y  c #F1A62C",
"u  c #F1A62D",
"i  c #F1A62E",
"p  c #F1A62F",
"a  c #F1A72F",
"s  c #F2A730",
"d  c #F2A732",
"f  c #F2A834",
"g  c #F2A934",
"h  c #F2A935",
"j  c #F2A836",
"k  c #F2A937",
"l  c #F2AA39",
"z  c #F2AB39",
"x  c #F2AA3A",
"c  c #F2AB3A",
"v  c #F2AB3B",
"b  c #F2AD3F",
"n  c #F3AD3F",
"m  c #F2AD40",
"M  c #F3AD40",
"N  c #F3AD41",
"B  c #F2AE40",
"V  c #F3AE40",
"C  c #F3AE41",
"Z  c #F3AF45",
"A  c #F3AF46",
"S  c #F3B044",
"D  c #F3B045",
"F  c #F3B046",
"G  c #F3B047",
"H  c #F3B249",
"J  c #F3B24A",
"K  c #F3B24B",
"L  c #F3B34B",
"P  c #F3B24C",
"I  c #F3B34C",
"U  c #F3B34D",
"Y  c #F4B34C",
"T  c #F3B551",
"R  c #F4B550",
"E  c #F4B551",
"W  c #F4B552",
"Q  c #F4B652",
"!  c #F4B756",
"~  c #F4B757",
"^  c #F4B758",
"/  c #F4B857",
"(  c #F4B858",
")  c #F4B859",
"_  c #F5B95B",
"`  c #F5BA5D",
"'  c #F4BA5E",
"]  c #F5BA5E",
"[  c #F5BA5F",
"{  c #F5BB5E",
"}  c #F5BB5F",
"|  c #F5BB60",
" . c #F5BC63",
".. c #F5BD63",
"X. c #F5BD64",
"o. c #F5BD65",
"O. c #F5BD66",
"+. c #F5BE66",
"@. c #F5BE67",
"#. c #F5BF6A",
"$. c #F6BF69",
"%. c #F5C06A",
"&. c #F5C06B",
"*. c #F5C06C",
"=. c #F5C16D",
"-. c #F6C16D",
";. c #F6C26F",
":. c #F5C370",
">. c #F5C372",
",. c #F6C270",
"<. c #F6C271",
"1. c #F6C371",
"2. c #F6C272",
"3. c #F6C372",
"4. c #F6C373",
"5. c #F5C474",
"6. c #F6C576",
"7. c #F6C577",
"8. c #F6C578",
"9. c #F6C579",
"0. c #F6C678",
"q. c #F6C679",
"w. c #F6C67A",
"e. c #F6C87E",
"r. c #F6C97F",
"t. c #F7C87E",
"y. c #F7C87F",
"u. c #F7C97F",
"i. c #808080",
"p. c #F6C880",
"a. c #F7C880",
"s. c #F7C980",
"d. c #F7C981",
"f. c #F7C982",
"g. c #F7CB83",
"h. c #F7CB84",
"j. c #F7CB85",
"k. c #F7CB86",
"l. c #F7CB87",
"z. c #F7CC86",
"x. c #F7CC87",
"c. c #F7CC88",
"v. c #F7CD8B",
"b. c #F7CE8C",
"n. c #F7CF8E",
"m. c #F8CD8C",
"M. c #F8CE8C",
"N. c #F8CE8D",
"B. c #F8CF8D",
"V. c #F7D092",
"C. c #F7D192",
"Z. c #F8D091",
"A. c #F8D092",
"S. c #F8D192",
"D. c #F8D193",
"F. c #F8D194",
"G. c #F8D398",
"H. c #F8D399",
"J. c #F8D499",
"K. c #F8D49A",
"L. c #F8D69F",
"P. c #F9D69E",
"I. c #F9D69F",
"U. c #F8D7A1",
"Y. c #F9D7A0",
"T. c #F9D7A1",
"R. c #F9D8A5",
"E. c #F9D9A5",
"W. c #F9D9A6",
"Q. c #F9D9A7",
"!. c #F9DAA7",
"~. c #F9DBAA",
"^. c #F9DBAC",
"/. c #FADBAC",
"(. c #FADCAB",
"). c #FADCAC",
"_. c #FADCAD",
"`. c #FADDB1",
"'. c #FADEB2",
"]. c #FADEB3",
"[. c #FADFB3",
"{. c #FADFB4",
"}. c #FAE0B7",
"|. c #FAE1B8",
" X c #FAE1B9",
".X c #FBE1B8",
"XX c #FBE1B9",
"oX c #FBE3BC",
"OX c #FBE3BF",
"+X c #FBE4BF",
"@X c #C0C0C0",
"#X c #FBE5C2",
"$X c #FBE6C4",
"%X c #FBE6C5",
"&X c #FBE7C7",
"*X c #FBE7C8",
"=X c #FCE9CA",
"-X c #FCE9CD",
";X c #FCE9CE",
":X c #FCEACF",
">X c #FCEBCF",
",X c #FCEBD0",
"<X c #FCECD2",
"1X c #FCEDD5",
"2X c #FCEED6",
"3X c #FCEED7",
"4X c #FCEFD8",
"5X c #FDEFDA",
"6X c #FDF0DA",
"7X c #FDF0DC",
"8X c #FDF1DD",
"9X c #FDF2DF",
"0X c #FDF3E1",
"qX c #FDF3E2",
"wX c #FDF4E4",
"eX c OldLace",
"rX c #FEF6E8",
"tX c #FEF7E9",
"yX c #FEF7EA",
"uX c #FEF7ED",
"iX c #FEF8ED",
"pX c #FEF8EE",
"aX c #FEF9F2",
"sX c #FEFBF5",
"dX c gray100",
/* pixels */
"1 @ @ & : 1 2 7 r a s l l C G Y T ) } ..$.;.6.j.",
"O . X o @ @ & : 3 3 r s g v C H Y T ) } O.*.1.d.",
"@       @   i.2 i.  a i.  i.G     i.} O.;.6.7.v.",
"&   + @ &     i.    g   C   U   )   O.#.4.q.d.M.",
":     i.:   7   a   l   G   T   {   *.6.7.d.v.F.",
"1   & : 3   r a g   C   U   )   O.  6.7.d.z.M.K.",
"3   : 2 0   a g l   G i.  i.}     i.7.d.z.B.F.T.",
"7 : 2 7 r a g c N G L T ) } O.*.6.7.d.z.M.F.K.Q.",
"w 3 3 w a g x N G L T ) } O.*.4.7.d.z.M.F.  T.~.",
"a 7 w a g z N A L T ) } O.*.4.q.d.z.M.F.  T.Q.{.",
"a w a g x n A L T ) } O.#.4.q.u.k.    K.T.Q.~.XX",
"j a g l n G L T ^ | O.#.4.q.u.      i.  Q.~.}.  ",
"x d x n G L T ! } O.#.4.q.u.      i.@Xi.  '.  #X",
"n x n G L T ) } O.*.4.7.u.    .   @Xi..    X#X*X",
"N n G K T ) { O.#.4.q.u.k.  . .     . dX  #X#X,X",
"K G K T ~ } ..#.1.7.u.k.M.  . .     dX.   &X    ",
"Y Y T ~ } O.#.1.6.d.j.M.F.  i..     . dX  =X-X6X",
"~ T ~ } ..#.1.7.y.j.b.B.K.i.  i.  . dX.   ,X2X8X",
") ~ } ..#.1.7.d.z.M.B.K.T.E.      dX. dX  2X  qX",
"..} ..#.1.6.u.z.M.F.K.T.E.(.{.      dX  2X6X8X  ",
"O.O.#.1.7.u.k.v.B.K.T.Q.~.'. X#Xi.    2X6X8XwXyX",
"*.#.1.7.y.k.M.B.K.T.Q.~.{. XOX#X=X-X2X6X  wXtXpX",
"1.1.6.y.k.v.B.K.K.Q.Q.'.XXOX#X=X,X2X6X9XwX  uXaX",
"d.y.j.M.Z.H.T.Q.Q.'. XOX#X&X-X<X2X8XqXwXtXpXaXsX"
};
