/* XPM */
static char *TGLSLShader[] = {
/* columns rows colors chars-per-pixel */
"24 24 169 2",
"   c #070B0E",
".  c #0C0B07",
"X  c #0D161C",
"o  c #16130C",
"O  c #14212B",
"+  c #1A2D3A",
"@  c #242117",
"#  c #25221B",
"$  c #312713",
"%  c #312A1B",
"&  c #2D2A22",
"*  c #302D27",
"=  c #383324",
"-  c #213847",
";  c #213949",
":  c #284356",
">  c #284458",
",  c #2E4E63",
"<  c #2F5066",
"1  c #2F5068",
"2  c #355A73",
"3  c #513F1B",
"4  c #413C2E",
"5  c #4F4A3D",
"6  c #504835",
"7  c #614D29",
"8  c #645534",
"9  c #675738",
"0  c #6B5731",
"q  c #755A28",
"w  c #74603B",
"e  c #675D44",
"r  c #605C4B",
"t  c #6B6247",
"y  c #736D58",
"u  c #7D7154",
"i  c #797164",
"p  c #3B6681",
"a  c #426F8D",
"s  c #42718F",
"d  c #427292",
"f  c #497B9C",
"g  c #497DA0",
"h  c #4F86AB",
"j  c #4F88AE",
"k  c #5089AF",
"l  c #508AB2",
"z  c #5693BB",
"x  c #5C9DC5",
"c  c #5C9EC8",
"v  c #63A8D5",
"b  c #63AADB",
"n  c #836A36",
"m  c #96753C",
"M  c #85734E",
"N  c #857352",
"B  c #8E7E59",
"V  c #817764",
"C  c #867D6D",
"Z  c #B68833",
"A  c #9B824D",
"S  c #95815A",
"D  c #98845F",
"F  c #88816D",
"G  c #968661",
"H  c #92876F",
"J  c #96896B",
"K  c #938A74",
"L  c #99907D",
"P  c #A58C57",
"I  c #A78E5C",
"U  c #BA9653",
"Y  c #A28E61",
"T  c #A3926D",
"R  c #A29473",
"E  c #B59B65",
"W  c #B7A27C",
"Q  c #BFA97C",
"!  c #EE9405",
"~  c #EF960A",
"^  c #EF980E",
"/  c #EF9912",
"(  c #F09B15",
")  c #F09D1B",
"_  c #F09F20",
"`  c #F0A01E",
"'  c #F0A123",
"]  c #F1A52B",
"[  c #F1A92D",
"{  c #F2A732",
"}  c #F1A934",
"|  c #F2AC3A",
" . c #C89F52",
".. c #CDA45D",
"X. c #D4A659",
"o. c #DEAD55",
"O. c #DFAE59",
"+. c #C2A76E",
"@. c #CFAE76",
"#. c #CBAD78",
"$. c #D3AA64",
"%. c #D9B066",
"&. c #DFB66F",
"*. c #DBB778",
"=. c #E2AF58",
"-. c #EFB655",
";. c #F2AE41",
":. c #F3B145",
">. c #F3B34C",
",. c #F4B84C",
"<. c #F4B654",
"1. c #F4B854",
"2. c #F4B95B",
"3. c #E6BD78",
"4. c #F4BC63",
"5. c #F5BF69",
"6. c #E9C377",
"7. c #F5C164",
"8. c #F5C16B",
"9. c #F5C372",
"0. c #F6C579",
"q. c #F7C976",
"w. c #F6C87D",
"e. c #B4A687",
"r. c #B2A68C",
"t. c #B5AB99",
"y. c #C2AD83",
"u. c #CFB891",
"i. c #CDBD9D",
"p. c #D1B480",
"a. c #D1BC96",
"s. c #DAC38A",
"d. c #DCC295",
"f. c #CDC0A7",
"g. c #D1C3AB",
"h. c #DDD3BF",
"j. c #E3C482",
"k. c #E1C38E",
"l. c #E7CA96",
"z. c #EBCC90",
"x. c #F6CA83",
"c. c #F6CD8B",
"v. c #F8CE85",
"b. c #F8CD8C",
"n. c #F8D08E",
"m. c #F6D093",
"M. c #F7D59C",
"N. c #F8D192",
"B. c #F8D49B",
"V. c #E0CAA6",
"C. c #E4D2B3",
"Z. c #EED9B5",
"A. c #EEDBBB",
"S. c #F9D7A0",
"D. c #F8D8A4",
"F. c #F9DBAB",
"G. c #F4DFB7",
"H. c #F9DDB2",
"J. c #FAE0B7",
"K. c #FAE2BB",
"L. c #FAE5C3",
"P. c #FBE9CC",
"I. c #FBECD3",
"U. c #FDEFDA",
"Y. c #FCF0DC",
"T. c #FDF4E3",
"R. c #FEF6E9",
"E. c #FEF8ED",
"W. c #FEF9F3",
/* pixels */
") ^ / / ( ` ` ' ] ] { } | ;.:.>.<.<.2.4.5.5.9.x.",
"^ ! ~ ~ ^ ^ ( ) ` ' ] { } | ;.:.>.<.<.4.5.5.9.x.",
"/ ! ~ ^ ^ ( ` ` ' ] ] } | ;.:.>.<.<.2.4.5.0.0.x.",
"/ ~ ^ / ( ` ` ` ] [ } | ;.:.>.<.2.4.5.8.0.0.x.b.",
") / ( ` ` ` [ [ { | | :.>.>.<.2.4.7.9.9.0.w.x.m.",
"' ` [ [ } } } | ;.;.:.>.<.2.5.5.9.9.0.x.v.b.m.B.",
"[ [ | | ,.,.,.,.>.1.1.2.5.5.5.x.v.v.n.n.N.N.B.S.",
":.Z 3 $ $ n  .7 $ m 5.8.%.w % & S z.N % D B.S.F.",
"q O s h k < 9 2 h % q.6.9 2 k k , r 1 k + W F.H.",
"X c z 2 h v < h v . j.M < b s k b O 2 b ; R H.H.",
"< v : X : > O h v   s.G > v k p ; r 2 b ; H A.L.",
"2 v ; 2 v v 2 h v   t R 4 > p z b , 2 b ; r V A.",
"+ v f + p v 2 h v 2 2 ; g b < 2 b 1 2 b d 2 , C ",
"7 , z b c s X j b v v 2 O l b b g   2 b b b l * ",
"o.0 o o . = e @       6 N #     & y 5       # i ",
"1.o.U A P I E +.Y B B T Q y.R J R r.i.r.L F L t.",
"2.-.=.X...$.&.3.*.@.#.p.k.l.d.u.a.V.Z.C.g.f.g.h.",
"1.1.2.4.8.8.0.w.x.x.m.m.B.D.D.H.H.G.L.L.P.P.U.Y.",
"2.1.2.4.5.9.0.w.w.b.N.B.S.D.F.H.K.L.L.L.I.I.U.T.",
"4.2.5.8.8.0.w.x.b.N.B.S.D.F.H.G.L.L.L.I.I.U.Y.T.",
"5.4.5.8.0.w.x.b.N.B.B.D.H.H.H.L.L.L.I.I.U.Y.T.E.",
"8.5.9.0.w.x.b.m.B.S.D.F.H.H.L.L.P.I.I.U.Y.T.R.E.",
"8.9.0.w.w.c.m.B.B.D.H.H.H.L.L.P.I.I.U.Y.T.T.E.W.",
"x.w.x.b.m.B.M.D.F.H.H.K.L.L.P.I.U.U.T.T.E.E.W.W."
};
