/* XPM */
static char *TGLSoundLibrary[] = {
/* columns rows colors chars-per-pixel */
"24 24 206 2",
"   c black",
".  c #EE9403",
"X  c #EF9506",
"o  c #EF9507",
"O  c #EF960A",
"+  c #EF970A",
"@  c #EF970C",
"#  c #EF980E",
"$  c #EF9810",
"%  c #EF9912",
"&  c #EF9A12",
"*  c #F09B15",
"=  c #F09C16",
"-  c #F09C18",
";  c #F09D18",
":  c #F09D1B",
">  c #F09D1C",
",  c #F09E1C",
"<  c #F09F1E",
"1  c #F09F20",
"2  c #F0A020",
"3  c #F0A120",
"4  c #F1A124",
"5  c #F1A125",
"6  c #F1A328",
"7  c #F1A42A",
"8  c #F1A62C",
"9  c #F1A62D",
"0  c #F1A62F",
"q  c #F1A72F",
"w  c #F2A730",
"e  c #F2A732",
"r  c #F2A834",
"t  c #F2A935",
"y  c #F2A836",
"u  c #F2A937",
"i  c #F2AB3A",
"p  c #F2AB3B",
"a  c #F3AD3F",
"s  c #F2AE40",
"d  c #F3AE40",
"f  c #F3AE41",
"g  c #F3AF45",
"h  c #F3B044",
"j  c #F3B046",
"k  c #F3B047",
"l  c #F3B249",
"z  c #F3B24A",
"x  c #F3B24B",
"c  c #F3B24C",
"v  c #F3B34C",
"b  c #F3B34D",
"n  c #F4B34C",
"m  c #F4B550",
"M  c #F4B551",
"N  c #F4B552",
"B  c #F4B553",
"V  c #F4B652",
"C  c #F4B653",
"Z  c #F4B756",
"A  c #F4B757",
"S  c #F4B858",
"D  c #F4B859",
"F  c #F5B95B",
"G  c #F5BA5D",
"H  c #F4BA5E",
"J  c #F5BA5E",
"K  c #F5BB5E",
"L  c #F5BB5F",
"P  c #F4BB60",
"I  c #F5BB60",
"U  c #F5BC63",
"Y  c #F5BD63",
"T  c #F5BD64",
"R  c #F5BD65",
"E  c #F5BD66",
"W  c #F5BE65",
"Q  c #F5BE66",
"!  c #F5BE67",
"~  c #F5BF6A",
"^  c #F6BF69",
"/  c #F5C06A",
"(  c #F5C06B",
")  c #F5C06C",
"_  c #F5C16D",
"`  c #F6C06C",
"'  c #F6C16D",
"]  c #F6C26F",
"[  c #F5C370",
"{  c #F6C270",
"}  c #F6C271",
"|  c #F6C371",
" . c #F6C372",
".. c #F6C373",
"X. c #F5C474",
"o. c #F6C576",
"O. c #F6C577",
"+. c #F6C578",
"@. c #F6C579",
"#. c #F6C678",
"$. c #F6C679",
"%. c #F6C67A",
"&. c #F6C87E",
"*. c #F6C97F",
"=. c #F7C87E",
"-. c #F7C87F",
";. c #F7C97F",
":. c #808080",
">. c #F6C880",
",. c #F7C880",
"<. c #F7C980",
"1. c #F7C981",
"2. c #F7C982",
"3. c #F7CB83",
"4. c #F7CB84",
"5. c #F7CB85",
"6. c #F7CB86",
"7. c #F7CB87",
"8. c #F7CC86",
"9. c #F7CC87",
"0. c #F7CC88",
"q. c #F7CD8B",
"w. c #F7CE8C",
"e. c #F7CF8E",
"r. c #F8CD8C",
"t. c #F8CE8C",
"y. c #F8CE8D",
"u. c #F8CF8D",
"i. c #F7D092",
"p. c #F7D192",
"a. c #F8D091",
"s. c #F8D092",
"d. c #F8D192",
"f. c #F8D193",
"g. c #F8D194",
"h. c #F8D398",
"j. c #F8D399",
"k. c #F8D499",
"l. c #F8D49A",
"z. c #F9D49A",
"x. c #F8D69F",
"c. c #F9D69E",
"v. c #F9D69F",
"b. c #F8D7A1",
"n. c #F9D7A0",
"m. c #F9D7A1",
"M. c #F9D8A5",
"N. c #F9D9A5",
"B. c #F9D9A6",
"V. c #F9D9A7",
"C. c #F9DAA7",
"Z. c #F9DBAA",
"A. c #F9DBAC",
"S. c #FADBAC",
"D. c #FADCAB",
"F. c #FADCAC",
"G. c #FADCAD",
"H. c #FADDB1",
"J. c #FADEB2",
"K. c #FADEB3",
"L. c #FADFB3",
"P. c #FAE0B7",
"I. c #FAE1B8",
"U. c #FAE1B9",
"Y. c #FBE1B8",
"T. c #FBE1B9",
"R. c #FBE1BA",
"E. c #FBE3BC",
"W. c #FBE3BE",
"Q. c #FBE3BF",
"!. c #FBE4BF",
"~. c #C0C0C0",
"^. c #FBE5C2",
"/. c #FBE6C4",
"(. c #FBE6C5",
"). c #FBE7C7",
"_. c #FBE7C8",
"`. c #FCE8CA",
"'. c #FCE9CA",
"]. c #FCE9CD",
"[. c #FCEACF",
"{. c #FCEBCF",
"}. c #FCEAD0",
"|. c #FCEBD0",
" X c #FCECD2",
".X c #FCECD3",
"XX c #FCEDD5",
"oX c #FCEED7",
"OX c #FCEFD8",
"+X c #FDEFDA",
"@X c #FDF0DA",
"#X c #FDF0DC",
"$X c #FDF1DD",
"%X c #FDF2DF",
"&X c #FDF3E1",
"*X c #FDF4E4",
"=X c OldLace",
"-X c #FEF6E8",
";X c #FEF7E9",
":X c #FEF7EA",
">X c #FEF7ED",
",X c #FEF8ED",
"<X c #FEF8EE",
"1X c #FEF9F2",
"2X c #FEFBF5",
"3X c gray100",
/* pixels */
"< $ $ = - < 3 5 7 9 e i i d g n C A J I / ' O.>.",
"@ . o + # $ = - 3 5 7 9 y i d g n C D L ! '  .>.",
"$ o + :.          :.9 y p d l b C D L E ' [ $.r.",
"= :.    ' . ' . '     :.d g b C D I E ' O.$.3.w.",
"-   :.' . ' . ' . ' :.  l b C A P E ' ..$.;.7.f.",
"<     :.' . ' . ' :.    b C A P E ^ ..@.3.r.w.l.",
"<   . :.          :..   C D P E '  .@.3.6.w.f.n.",
"5   :.. . Q.. Q.. . ~.  A J E '  .@.;.6.w.  h.Z.",
"6   . ~.Q.. Q.Q.Q.~..   J E '  .$.3.6.w.  l.n.S.",
"9   :.. . Q.. Q.. . ~.  E '  .$.:.    p.l.n.M.L.",
"9   . ~.Q.. Q.Q.Q.~..   '  .$.      :.  n.M.G.  ",
"y   :.. . Q.. Q.. . ~.   .$.      :.~.:.  G.  /.",
"p   . ~.Q.. Q.Q.Q.~..   $.    .   ~.:..   L.T./.",
"a   :.. . Q.. Q.. . ~.  &.  . .     . 3X  T.!.`.",
"g :.  :.Q.. Q.Q.Q.:.  :.6.  . .     3X.   !.    ",
"n h n :.          :.;.6.w.  :..     . 3X  (.`.oX",
"n l C A J I ' [ O.;.5.w.p.:.  :.  . 3X.   `.|.oX",
"Z C D J E / [ $.&.3.w.p.l.v.      3X. 3X  |.  $X",
"D D J I / [ $.>.6.w.i.l.v.N.G.      3X  |.oXoX  ",
"I J E /  .O.&.6.r.p.l.n.N.D.L.T.:.    ].oXoX&X=X",
"E I ~  .$.;.3.w.i.h.v.M.F.J.Y.!./.`.|.oX  %X*X=X",
"' ~  .O.&.6.w.a.h.v.M.F.J.Y.Q.(.`.{.oXoX%X  =X1X",
"[  .O.=.6.r.a.h.v.M.Z.J.Y.Q.(.`.{.oX$X%X*X=X<X1X",
"3.;.6.r.a.h.v.M.Z.J.P.Q.^.).].}.oXoX*X=X=X<X1X2X"
};
