/* XPM */
static char *TGLSimpleNavigation[] = {
/* columns rows colors chars-per-pixel */
"24 24 118 2",
"   c #291B05",
".  c #2A1D0A",
"X  c #2A200F",
"o  c #2A2214",
"O  c #2B241A",
"+  c #2B2720",
"@  c #2B2823",
"#  c #6D470A",
"$  c #6E4C14",
"%  c #6E4F1D",
"&  c #6F501F",
"*  c #774F0F",
"=  c #775114",
"-  c #78541C",
";  c #6F5123",
":  c #6F562E",
">  c #6F5731",
",  c #785825",
"<  c #795B2D",
"1  c #715F42",
"2  c #716045",
"3  c #71634C",
"4  c #7A6442",
"5  c #7B6749",
"6  c #7B694D",
"7  c #726551",
"8  c #736A5D",
"9  c #7B6C53",
"0  c #7C6E59",
"q  c #736C61",
"w  c #7C7262",
"e  c #925E0B",
"r  c #9F660C",
"t  c #936113",
"y  c #936418",
"u  c #956D2D",
"i  c #957136",
"p  c #96723A",
"a  c #A16D1C",
"s  c #BD7E1C",
"d  c #A2752E",
"f  c #967644",
"g  c #96794B",
"h  c #A37E43",
"j  c #BE8429",
"k  c #BF8A37",
"l  c #BF8E3F",
"z  c #98805A",
"x  c #988462",
"c  c #988668",
"v  c #9A8F7C",
"b  c #A48554",
"n  c #BF8E40",
"m  c #A58B62",
"M  c #A68F6A",
"N  c #A7977F",
"B  c #A7987F",
"V  c #CA810F",
"C  c #CB881E",
"Z  c #CB8D2A",
"A  c #CC9133",
"S  c #EE9405",
"D  c #EF960A",
"F  c #EF980E",
"G  c #EF9911",
"H  c #F09B15",
"J  c #F09D1A",
"K  c #F0A122",
"L  c #F1A52C",
"P  c #F2A834",
"I  c #F2AB3B",
"U  c #C0944F",
"Y  c #CD9944",
"T  c #CE9A4A",
"R  c #CFA562",
"E  c #C3A473",
"W  c #C3A678",
"Q  c #D0AD76",
"!  c #F2AD40",
"~  c #F3B046",
"^  c #F3B24C",
"/  c #F4B553",
"(  c #F4B758",
")  c #F4B857",
"_  c #F4B95C",
"`  c #F5BC63",
"'  c #F5BF69",
"]  c #F5C06C",
"[  c #F5C372",
"{  c #F6C578",
"}  c #F7C87E",
"|  c #9A9182",
" . c #A99F91",
".. c #A9A091",
"X. c #C3A982",
"o. c #D1B381",
"O. c #D2B78C",
"+. c #D3BA94",
"@. c #D4BE9C",
"#. c #C6BBA9",
"$. c #D4C2A5",
"%. c #D5CAB8",
"&. c #F6CA83",
"*. c #F7CD8B",
"=. c #F7D092",
"-. c #F8D092",
";. c #F8D49A",
":. c #F8D6A0",
">. c #F9D9A6",
",. c #FADBAC",
"<. c #FADEB2",
"1. c #FAE2BB",
"2. c #FBE6C4",
"3. c #FDF1DE",
"4. c #FDF4E3",
"5. c #FEF6E9",
"6. c #FEF8ED",
"7. c #FEF9F3",
/* pixels */
"J F G G J J K s y $ .   . . & u U / _ ` ' ] { &.",
"F S S F D V #         . . . . . . ; T _ ' ] [ } ",
"G S D F r       * a Z Z A A d , . o . h ] { { *.",
"H D F e     * C L L P I ! ~ ^ / T < o o f { } *.",
"J F r     e K L P P I ! ~ ^ / _ _ ' f o o b &.-.",
"J V     t K L L P I ! ~ ^ / _ _ ' ] [ g O O Q ;.",
"K #     C L L P I I ~ ^ / ) _ ' ] [ { g o O 2 >.",
"s       . = j I ! ~ ~ / ) _ ' ] [ g o O o O O X.",
"y       .   . ; k ^ n i p n [ g o O o O O O O c ",
"$   = $ . . . . o . X . o o o o o o O O 6 x O 3 ",
".   Z Z - . . . . . o o o o o o o O O W ;.O.O @ ",
". . Z I I d X . X o : ' [ o o O O 5 o.;.,.+.O @ ",
".   Z ! ~ ^ Y < . o > R { o O O m ;.;.>.,.@.O @ ",
". . A ~ ~ / ( _ h o o o o o o E ;.:.,.,.<.@.@ + ",
"% . d ^ / ) _ ` ] f o o O o z ;.;.>.,.<.1.N @ 8 ",
"u . , ) ) ` ` ] [ R o O o O o.:.>.,.<.1.1.w @ | ",
"n . . T ` ' ' ] { &.o O O O ;.>.,.<.1.2.$.+ @ #.",
"_ ; . < ` ' [ { } &.o O O O >.,.<.1.1.2.w @ q 3.",
"_ T X o p [ { } *.*.O O O 3 ,.<.1.1.2.v @ @ %.4.",
"_ _ h o o g } &.*.=.2 O O 9 <.1.1.2.v @ @  .3.4.",
"` ` ] f o o 4 Q =.;.6 O O 0 1.1.$.w @ @ | 3.4.6.",
"] ' ] { b O o O 6 M 9 O + 0 N w @ @ @  .4.4.5.6.",
"[ [ { } &.Q 1 O O O O + + + @ @ @ q %.3.4.5.6.7.",
"&.} &.*.=.;.:.X.c 7 @ O @ @ 8 v #.3.4.4.5.6.7.7."
};
