/* XPM */
static char *TGLSMBASS[] = {
/* columns rows colors chars-per-pixel */
"24 24 228 2",
"   c black",
".  c #EE9403",
"X  c #EF9507",
"o  c #EF960A",
"O  c #EF970C",
"+  c #EF980E",
"@  c #EF9810",
"#  c #EF9912",
"$  c #EF9A12",
"%  c #F09B15",
"&  c #F09C16",
"*  c #F09C18",
"=  c #F09D18",
"-  c #F09D1A",
";  c #F09D1B",
":  c #F09E1B",
">  c #F09D1C",
",  c #F09E1C",
"<  c #F09F1E",
"1  c #F09F1F",
"2  c #F09F20",
"3  c #F0A01F",
"4  c #F0A020",
"5  c #F0A120",
"6  c #F1A124",
"7  c #F1A125",
"8  c #F0A224",
"9  c #F1A224",
"0  c #F1A328",
"q  c #F1A329",
"w  c #F1A429",
"e  c #F1A42A",
"r  c #F1A52F",
"t  c #F1A62C",
"y  c #F1A62D",
"u  c #F1A62E",
"i  c #F1A62F",
"p  c #F1A72F",
"a  c #F2A730",
"s  c #F2A732",
"d  c #F2A834",
"f  c #F2A934",
"g  c #F2A935",
"h  c #F2A836",
"j  c #F2A937",
"k  c #F2AA39",
"l  c #F2AB39",
"z  c #F2AA3A",
"x  c #F2AB3A",
"c  c #F2AB3B",
"v  c #F2AD3F",
"b  c #F3AD3F",
"n  c #F2AD40",
"m  c #F3AD40",
"M  c #F3AD41",
"N  c #F2AE40",
"B  c #F3AE40",
"V  c #F3AE41",
"C  c #F3AF45",
"Z  c #F3AF46",
"A  c #F3B044",
"S  c #F3B045",
"D  c #F3B046",
"F  c #F3B047",
"G  c #F3B249",
"H  c #F3B24A",
"J  c #F3B24B",
"K  c #F3B34B",
"L  c #F3B24C",
"P  c #F3B34C",
"I  c #F3B34D",
"U  c #F4B34C",
"Y  c #F3B551",
"T  c #F4B550",
"R  c #F4B551",
"E  c #F4B552",
"W  c #F4B553",
"Q  c #F4B652",
"!  c #F4B653",
"~  c #F4B756",
"^  c #F4B757",
"/  c #F4B758",
"(  c #F4B857",
")  c #F4B858",
"_  c #F4B859",
"`  c #F5B95B",
"'  c #F5BA5D",
"]  c #F4BA5E",
"[  c #F5BA5E",
"{  c #F5BA5F",
"}  c #F5BB5E",
"|  c #F5BB5F",
" . c #F4BB60",
".. c #F5BB60",
"X. c #F5BC63",
"o. c #F5BD63",
"O. c #F5BD64",
"+. c #F5BD65",
"@. c #F5BD66",
"#. c #F5BE66",
"$. c #F5BE67",
"%. c #F5BF6A",
"&. c #F6BF69",
"*. c #F5C06A",
"=. c #F5C06B",
"-. c #F5C06C",
";. c #F5C16D",
":. c #F6C06C",
">. c #F6C16D",
",. c #F6C26F",
"<. c #F5C370",
"1. c #F5C372",
"2. c #F6C270",
"3. c #F6C271",
"4. c #F6C371",
"5. c #F6C272",
"6. c #F6C372",
"7. c #F6C373",
"8. c #F5C474",
"9. c #F6C576",
"0. c #F6C577",
"q. c #F6C578",
"w. c #F6C579",
"e. c #F6C678",
"r. c #F6C679",
"t. c #F6C67A",
"y. c #F6C87E",
"u. c #F6C97F",
"i. c #F7C87E",
"p. c #F7C87F",
"a. c #F7C97F",
"s. c #808080",
"d. c #F6C880",
"f. c #F7C880",
"g. c #F7C980",
"h. c #F7C981",
"j. c #F7C982",
"k. c #F7CB83",
"l. c #F7CB84",
"z. c #F7CB85",
"x. c #F7CB86",
"c. c #F7CB87",
"v. c #F7CC86",
"b. c #F7CC87",
"n. c #F7CC88",
"m. c #F7CD8B",
"M. c #F7CE8C",
"N. c #F7CF8E",
"B. c #F8CD8C",
"V. c #F8CE8C",
"C. c #F8CE8D",
"Z. c #F8CF8D",
"A. c #F7D092",
"S. c #F7D192",
"D. c #F8D091",
"F. c #F8D092",
"G. c #F8D192",
"H. c #F8D193",
"J. c #F8D194",
"K. c #F8D398",
"L. c #F8D399",
"P. c #F8D499",
"I. c #F8D49A",
"U. c #F8D69F",
"Y. c #F9D69E",
"T. c #F9D69F",
"R. c #F8D7A1",
"E. c #F9D7A0",
"W. c #F9D7A1",
"Q. c #F9D8A5",
"!. c #F9D9A5",
"~. c #F9D9A6",
"^. c #F9D9A7",
"/. c #F9DAA7",
"(. c #F9DBAA",
"). c #F9DBAC",
"_. c #FADBAC",
"`. c #FADCAB",
"'. c #FADCAC",
"]. c #FADCAD",
"[. c #FADDB1",
"{. c #FADEB2",
"}. c #FADEB3",
"|. c #FADFB3",
" X c #FADFB4",
".X c #FAE0B7",
"XX c #FAE1B8",
"oX c #FAE1B9",
"OX c #FBE1B8",
"+X c #FBE1B9",
"@X c #FBE3BC",
"#X c #FBE3BF",
"$X c #FBE4BF",
"%X c #C0C0C0",
"&X c #FBE5C2",
"*X c #FBE6C4",
"=X c #FBE6C5",
"-X c #FBE7C7",
";X c #FBE7C8",
":X c #FCE9CA",
">X c #FCE9CD",
",X c #FCE9CE",
"<X c #FCEACF",
"1X c #FCEBCF",
"2X c #FCEBD0",
"3X c #FCECD2",
"4X c #FCEDD5",
"5X c #FCEED6",
"6X c #FCEED7",
"7X c #FCEFD8",
"8X c #FDEFDA",
"9X c #FDF0DA",
"0X c #FDF0DC",
"qX c #FDF1DD",
"wX c #FDF2DF",
"eX c #FDF3E1",
"rX c #FDF3E2",
"tX c #FDF4E4",
"yX c OldLace",
"uX c #FEF6E8",
"iX c #FEF7E9",
"pX c #FEF7EA",
"aX c #FEF7ED",
"sX c #FEF8ED",
"dX c #FEF8EE",
"fX c #FEF9F2",
"gX c #FEFBF5",
"hX c gray100",
/* pixels */
"< @ @ & - 1 1 5 e p a k x V F U ! ^ | o.%.%.0.k.",
"O . X o @ @ & : 1 6 e a f x V G U ! ( | =.%.5.u.",
"@     s.@ s.  s.6 s.    k s.    ! _ } %.>.0.w.m.",
"&   +   &   1   e   f c V   I ! _ } $.%.7.w.h.N.",
"-     s.-       a s.  s.F s.  s.| $.:.6.w.h.n.H.",
"<   &   5   e   f k V   I ! _   $.>.6.w.h.m.M.L.",
"<     s.6   p   k     s.!     s.=.6.w.a.v.M.D.E.",
"6 - 1 6 e p f x V F G ! _ | $.%.6.w.h.m.M.D.L.(.",
"q 2 6 q i f x c F I ! ^ | $.%.5.w.h.v.M.H.  E._.",
"i 8 q a f x V Z G ! ^ | $.%.5.w.a.m.M.H.  E.(. X",
"i q a f k V Z I ! / | $.%.7.w.a.k.    P.E.Q.`.OX",
"f i f k c F G ! / | $.%.7.w.a.      s.  (._. X  ",
"k f x V Z I Y ^ | $.=.7.w.a.      s.%Xs.  |.  =X",
"c k V F G ! _ | $.%.5.0.a.    .   %Xs..   OX$X;X",
"F c Z G ! ^ } o.=.5.w.a.b.  . .     . hX  $X=X<X",
"G Z I Y ( | o.=.7.0.a.v.M.  . .     hX.   =X    ",
"! G ! ^ | o.%.5.0.u.k.M.D.  s..     . hX  :X<X7X",
"^ ! ^ | X.%.5.w.u.k.M.H.P.s.  s.  . hX.   2X3XqX",
"_ ^ | o.%.%.0.u.b.M.A.P.E.Q.      hX. hX  3X  tX",
"| | o.%.7.0.u.b.Z.D.P.U.Q.`.|.      hX  6X7XeX  ",
"$.o.=.3.w.a.k.M.A.L.T.Q._.{.OX$Xs.    3XqXqXtXpX",
">.%.3.w.u.v.M.D.P.T.Q._.{.OX$X=X<X2X6X7X  tXiXdX",
"5.%.w.a.k.m.D.L.T.Q._.{.OX#X=X:X<X3X7XeXtX  aXfX",
"h.h.k.M.D.L.T.Q.(.{.OX$X#X-X<X3X6XqXeXtXiXdXfXgX"
};
