/* XPM */
static char *TGLShadowHDS[] = {
/* columns rows colors chars-per-pixel */
"24 24 207 2",
"   c black",
".  c #EF960A",
"X  c #EF970C",
"o  c #EF980E",
"O  c #EF990E",
"+  c #EF9810",
"@  c #EF9912",
"#  c #EF9A12",
"$  c #F09B15",
"%  c #F09C16",
"&  c #F09C18",
"*  c #F09D18",
"=  c #F09D1B",
"-  c #F09D1C",
";  c #F09E1C",
":  c #F09F1E",
">  c #F0A01F",
",  c #F0A020",
"<  c #F0A120",
"1  c #F1A124",
"2  c #F1A125",
"3  c #F0A224",
"4  c #F1A224",
"5  c #F1A328",
"6  c #F1A329",
"7  c #F1A429",
"8  c #F1A52F",
"9  c #F1A62C",
"0  c #F1A62D",
"q  c #F1A62E",
"w  c #F1A62F",
"e  c #F2A730",
"r  c #F2A732",
"t  c #F2A834",
"y  c #F2A934",
"u  c #F2A935",
"i  c #F2A836",
"p  c #F2A937",
"a  c #F2AA39",
"s  c #F2AB39",
"d  c #F2AA3A",
"f  c #F2AB3A",
"g  c #F2AB3B",
"h  c #F2AD3F",
"j  c #F3AD3F",
"k  c #F2AD40",
"l  c #F3AD40",
"z  c #F2AE40",
"x  c #F3AE40",
"c  c #F3AE41",
"v  c #F3AF45",
"b  c #F3AF46",
"n  c #F3B044",
"m  c #F3B045",
"M  c #F3B046",
"N  c #F3B047",
"B  c #F3B249",
"V  c #F3B24A",
"C  c #F3B24B",
"Z  c #F3B34B",
"A  c #F3B24C",
"S  c #F3B34C",
"D  c #F3B34D",
"F  c #F4B34C",
"G  c #F3B551",
"H  c #F4B550",
"J  c #F4B551",
"K  c #F4B552",
"L  c #F4B756",
"P  c #F4B757",
"I  c #F4B758",
"U  c #F4B857",
"Y  c #F4B858",
"T  c #F4B859",
"R  c #F5B95B",
"E  c #F5BA5D",
"W  c #F4BA5E",
"Q  c #F5BA5E",
"!  c #F5BA5F",
"~  c #F5BB5E",
"^  c #F5BB5F",
"/  c #F4BB60",
"(  c #F5BB60",
")  c #F5BC63",
"_  c #F5BD64",
"`  c #F5BD65",
"'  c #F5BD66",
"]  c #F5BE65",
"[  c #F5BE66",
"{  c #F5BE67",
"}  c #F5BF6A",
"|  c #F6BF69",
" . c #F5C06B",
".. c #F5C06C",
"X. c #F5C16D",
"o. c #F6C16D",
"O. c #F6C26F",
"+. c #F5C370",
"@. c #F5C372",
"#. c #F6C371",
"$. c #F6C272",
"%. c #F6C372",
"&. c #F6C373",
"*. c #F5C474",
"=. c #F6C576",
"-. c #F6C577",
";. c #F6C578",
":. c #F6C579",
">. c #F6C678",
",. c #F6C679",
"<. c #F6C67A",
"1. c #F6C97F",
"2. c #F7C87E",
"3. c #F7C87F",
"4. c #F7C97F",
"5. c #808080",
"6. c #F6C880",
"7. c #F7C980",
"8. c #F7C981",
"9. c #F7C982",
"0. c #F7CB83",
"q. c #F7CB85",
"w. c #F7CB86",
"e. c #F7CB87",
"r. c #F7CC86",
"t. c #F7CC87",
"y. c #F7CC88",
"u. c #F7CD8B",
"i. c #F7CE8C",
"p. c #F7CF8E",
"a. c #F8CD8C",
"s. c #F8CE8C",
"d. c #F8CE8D",
"f. c #F8CF8D",
"g. c #F7D192",
"h. c #F8D092",
"j. c #F8D192",
"k. c #F8D193",
"l. c #F8D194",
"z. c #F8D398",
"x. c #F8D399",
"c. c #F8D39A",
"v. c #F8D499",
"b. c #F8D49A",
"n. c #F9D49A",
"m. c #F8D69F",
"M. c #F9D69F",
"N. c #F8D7A1",
"B. c #F9D6A0",
"V. c #F9D7A0",
"C. c #F9D7A1",
"Z. c #F9D8A5",
"A. c #F9D9A5",
"S. c #F9D9A6",
"D. c #F9D9A7",
"F. c #F9DAA7",
"G. c #F9DBAA",
"H. c #F9DBAC",
"J. c #FADBAC",
"K. c #FADCAC",
"L. c #FADCAD",
"P. c #FADDB1",
"I. c #FADEB2",
"U. c #FADEB3",
"Y. c #FADFB3",
"T. c #FADFB4",
"R. c #FAE0B7",
"E. c #FAE1B8",
"W. c #FAE1B9",
"Q. c #FBE1B9",
"!. c #FBE1BA",
"~. c #FBE3BC",
"^. c #FBE3BE",
"/. c #FBE3BF",
"(. c #FBE4BF",
"). c #FBE5C2",
"_. c #FBE6C4",
"`. c #FBE6C5",
"'. c #FBE7C7",
"]. c #FBE7C8",
"[. c #FCE9CA",
"{. c #FCE9CD",
"}. c #FCE9CE",
"|. c #FCEBCF",
" X c #FCEAD0",
".X c #FCEBD0",
"XX c #FCECD2",
"oX c #FCECD3",
"OX c #FCEDD5",
"+X c #FCEED6",
"@X c #FCEED7",
"#X c #FCEFD8",
"$X c #FDEFDA",
"%X c #FDF0DA",
"&X c #FDF0DC",
"*X c #FDF1DD",
"=X c #FDF2DF",
"-X c #FDF3E1",
";X c #FDF3E2",
":X c #FDF4E4",
">X c OldLace",
",X c #FEF7E9",
"<X c #FEF7EA",
"1X c #FEF8ED",
"2X c #FEF8EE",
"3X c #FEF9F2",
"4X c #FEFBF5",
/* pixels */
": + + % = : > 4 2 q y y g c N F K Y ~ ) } O.-.8.",
"X     . O     =         5.g c 5.        ] } &.4.",
"+     O +     >           5.N           O.-.<.u.",
"%     + %     1     y g     D     ) } } &.,.7.s.",
"=             7     f c     K         5.,.4.t.j.",
":             w     c N     T 5.        7.t.f.c.",
">     > 1     y     N D     ^ ] } &.    t.f.j.A.",
"1     1 7     f           5.]         5.s.j.c.D.",
"6     6 w     c         5.} }         5.l.n.C.G.",
"7 1 7 w y f c N N K I ~ ] } &.<.7.t.s.l.c.C.D.I.",
"y 6 w y f g N N L T ~ ] } &.<.4.t.s.j.c.C.D.L.R.",
"y w y f c N D K T ~ ] } &.<.4.w.s.j.c.M.D.L.R.(.",
"f y f c N D G Y ( ] } #.<.4.w.u.l.n.M.D.L.R.R._.",
"g f c b N K T ~ ] } &.-.4.w.s.j.n.M.D.L.Y.R.(.[.",
"N g b N K I ~ ] } &.<.4.w.s.j.c.M.D.L.R.R.(._.}.",
"V N N L Y ~ ) } &.<.4.w.s.j.c.B.D.L.Y.R.(._.[.XX",
"K V K L ~ ] } &.-.4.8.f.j.c.M.D.G.I.R.(._.[.|.#X",
"Y K Y ~ ) } &.-.4.w.u.l.c.M.D.G.I.R.(._.[.XXoX*X",
"T     ]   &.-.4.w.p.g.c.M.  J.R.R.(._.[.XXoX*X;X",
"^   ] }   -.4.q.p.j.l.M.A.  R.R.(._.[.|.oX#X=X>X",
"]     &.      s.    M.5.    W.5.  5.  oX*X*X  <X",
"} }   <.  q.    c.  D.  U.  /.  }.    #X  >X  2X",
"#.    4.  u.  l.    J.5.    _.5.  5.          3X",
"8.8.w.u.j.c.B.D.G.U.R.(./.'.}.oX+X*X;X>X<X2X3X4X"
};
