/* XPM */
static char *TGLVfsPAK[] = {
/* columns rows colors chars-per-pixel */
"24 24 198 2",
"   c black",
".  c #202020",
"X  c #9C9C00",
"o  c #EE9403",
"O  c #EF9506",
"+  c #EF9507",
"@  c #EF970C",
"#  c #EF9810",
"$  c #EF9912",
"%  c #EF9A12",
"&  c #F09B15",
"*  c #F09C18",
"=  c #F09D18",
"-  c #F09D1C",
";  c #F09E1C",
":  c #F09F1E",
">  c #F0A020",
",  c #F0A120",
"<  c #F1A124",
"1  c #F1A125",
"2  c #F1A328",
"3  c #F1A42A",
"4  c #F1A62C",
"5  c #F1A62D",
"6  c #F1A62F",
"7  c #F1A72F",
"8  c #F2A730",
"9  c #F2A732",
"0  c #F2A834",
"q  c #F2A935",
"w  c #F2A836",
"e  c #F2A937",
"r  c #F2AA39",
"t  c #F2AB3A",
"y  c #F2AB3B",
"u  c #F3AD3F",
"i  c #F3AE40",
"p  c #F3AE41",
"a  c #F3AF45",
"s  c #F3AF46",
"d  c #F3B046",
"f  c #F3B047",
"g  c #F3B249",
"h  c #F3B24C",
"j  c #F3B34C",
"k  c #F3B34D",
"l  c #F4B34C",
"z  c #F4B550",
"x  c #F4B552",
"c  c #F4B652",
"v  c #F4B653",
"b  c #F4B756",
"n  c #F4B757",
"m  c #F4B758",
"M  c #F4B857",
"N  c #F4B859",
"B  c #F5B95B",
"V  c #F5BA5D",
"C  c #F4BA5E",
"Z  c #F5BA5E",
"A  c #F5BA5F",
"S  c #F5BB5E",
"D  c #F5BB5F",
"F  c #F4BB60",
"G  c #F5BB60",
"H  c #F5BC63",
"J  c #F5BD63",
"K  c #F5BD64",
"L  c #F5BD65",
"P  c #F5BD66",
"I  c #F5BE66",
"U  c #F5BE67",
"Y  c #F5BF6A",
"T  c #F6BF69",
"R  c #CECE63",
"E  c #F5C06A",
"W  c #F5C06B",
"Q  c #F5C06C",
"!  c #F5C16D",
"~  c #F6C06C",
"^  c #F6C16D",
"/  c #F6C26F",
"(  c #F5C370",
")  c #F5C372",
"_  c #F6C270",
"`  c #F6C271",
"'  c #F6C371",
"]  c #F6C372",
"[  c #F6C373",
"{  c #F5C474",
"}  c #F6C576",
"|  c #F6C577",
" . c #F6C578",
".. c #F6C679",
"X. c #F6C67A",
"o. c #F7C87E",
"O. c #F7C87F",
"+. c #F6C880",
"@. c #F7C880",
"#. c #F7C980",
"$. c #F7C981",
"%. c #F7C982",
"&. c #F7CB83",
"*. c #F7CB85",
"=. c #F7CB86",
"-. c #F7CB87",
";. c #F7CC86",
":. c #F7CC87",
">. c #F7CC88",
",. c #F7CE8C",
"<. c #F7CF8E",
"1. c #F8CD8C",
"2. c #F8CE8C",
"3. c #F8CE8D",
"4. c #F8CF8D",
"5. c #FFCE9C",
"6. c #F7D092",
"7. c #F8D091",
"8. c #F8D092",
"9. c #F8D192",
"0. c #F8D193",
"q. c #F8D194",
"w. c #F8D398",
"e. c #F8D399",
"r. c #F8D39A",
"t. c #F8D499",
"y. c #F8D49A",
"u. c #F9D49A",
"i. c #F8D69F",
"p. c #F9D69E",
"a. c #F9D69F",
"s. c #F8D7A1",
"d. c #F9D6A0",
"f. c #F9D7A0",
"g. c #F9D7A1",
"h. c #F9D8A5",
"j. c #F9D9A5",
"k. c #F9D9A6",
"l. c #F9D9A7",
"z. c #F9DAA7",
"x. c #F9DBAA",
"c. c #F9DBAC",
"v. c #FADBAC",
"b. c #FADCAB",
"n. c #FADCAC",
"m. c #FADCAD",
"M. c #FADDB1",
"N. c #FADEB2",
"B. c #FADEB3",
"V. c #FADFB3",
"C. c #FADFB4",
"Z. c #FFFF9C",
"A. c #FAE0B7",
"S. c #FAE1B8",
"D. c #FAE1B9",
"F. c #FBE1B8",
"G. c #FBE1B9",
"H. c #FBE1BA",
"J. c #FBE3BC",
"K. c #FBE3BE",
"L. c #FBE3BF",
"P. c #FBE4BF",
"I. c #FBE5C2",
"U. c #FBE6C4",
"Y. c #FBE6C5",
"T. c #FBE7C7",
"R. c #FBE7C8",
"E. c #FCE8CA",
"W. c #FCE9CA",
"Q. c #FCE9CD",
"!. c #FCE9CE",
"~. c #FCEACF",
"^. c #FCEBCF",
"/. c #FCEBD0",
"(. c #FCECD2",
"). c #FCECD3",
"_. c #FCEDD5",
"`. c #FCEED6",
"'. c #FCEED7",
"]. c #FCEFD8",
"[. c #FFFFCE",
"{. c #FDF0DA",
"}. c #FDF0DC",
"|. c #FDF1DD",
" X c #FDF2DF",
".X c #FDF3E1",
"XX c #FDF3E2",
"oX c #FDF4E4",
"OX c OldLace",
"+X c #FEF6E8",
"@X c #FEF7E9",
"#X c #FEF7EA",
"$X c #FEF7ED",
"%X c #FEF8ED",
"&X c #FEF8EE",
"*X c gray97",
"=X c #FEF9F2",
"-X c #FEFBF5",
/* pixels */
": # # & = : > > 2 7 9 r y p f l x b S J W Y | &.",
"@ o + X X X X X   1 2 7 0 r p f l c m J W Y | @.",
"# + X *X[.[.Z.Z.X   7 0 y p f l b m J P ^ |  .:.",
"& X R R R R R R R X X X X X X v m S P Y [ ..O.4.",
"= X [.[.[.[.[.[.[.[.[.[.[.Z.R   S I ^ [ X.O.:.q.",
": X [.. . . Z.. . . Z.. Z.. R   I ^ [ ..O.:.4.y.",
"> X [.. Z.. Z.. Z.. 5.. 5.. R   Y { X.O.:.4.7.g.",
"1 X [.. . . Z.. . . Z.. . 5.R   { X.O.-.4.q.y.k.",
"2 X [.. Z.Z.Z.. 5.. 5.. 5.. R   ..O.-.4.q.y.g.m.",
"7 X [.. Z.Z.Z.. Z.. Z.. Z.. R   O.-.4.q.y.g.k.N.",
"7 X [.. Z.Z.5.. 5.. 5.. 5.. R   -.2.7.y.g.z.v.G.",
"0 X [.5.Z.5.Z.5.Z.5.Z.5.5.5.R   2.q.y.g.j.v.A.L.",
"r X R R R R R R R R R R R R R   7.u.g.j.b.A.G.U.",
"p r                             y.a.z.v.N.G.L.T.",
"s u s h x m S P W '  .O.=.2.q.y.i.j.b.A.G.L.T.!.",
"f . . x m S . . ' . . . . . . d.. . . . . . !.).",
"x . . v F P . . | . . 2.7.y.d.k.. . G.L.U.W.^.].",
"b . . S P W . . O.. . 7.y.i.k.m.. . L.U.W.^.).|.",
"m b . . W . . o.=.. . . . k.b.N.. . . . . . |.XX",
"J S . . ' . . *.2.. . i.k.b.N.G.L.U.W.^.. . XXOX",
"P J . . | . . 2.7.. . k.b.N.D.L.U.W.^.).. . XX#X",
"Y Y ' . . . 2.7.y.. . b.N.D.L.Y.W.^.`.].. . #X&X",
"' '  .. . . 7.w.i.. . N.D.L.Y.W.. . . . . . &X=X",
"@.@.=.2.7.w.i.h.b.m.A.L.I.T.!.).).|.XXOXOX&X=X-X"
};
