/* XPM */
static char *TAsyncTimer[] = {
/* columns rows colors chars-per-pixel */
"24 24 212 2",
"   c black",
".  c #004080",
"X  c #0080FF",
"o  c #800000",
"O  c #EE9403",
"+  c #EF9506",
"@  c #EF9507",
"#  c #EF960A",
"$  c #EF970A",
"%  c #EF970C",
"&  c #EF980E",
"*  c #EF990E",
"=  c #EF9810",
"-  c #EF9912",
";  c #EF9A12",
":  c #F09B15",
">  c #F09B16",
",  c #F09C16",
"<  c #F09C18",
"1  c #F09D18",
"2  c #F09D1A",
"3  c #F09D1B",
"4  c #F09E1A",
"5  c #F09E1B",
"6  c #F09D1C",
"7  c #F09E1C",
"8  c #F09F1E",
"9  c #F09F1F",
"0  c #F09F20",
"q  c #F0A01F",
"w  c #F0A020",
"e  c #F0A120",
"r  c #F1A124",
"t  c #F1A125",
"y  c #F0A224",
"u  c #F1A224",
"i  c #F1A328",
"p  c #F1A329",
"a  c #F1A429",
"s  c #F1A42A",
"d  c #F1A62C",
"f  c #F1A62D",
"g  c #F1A62E",
"h  c #F1A62F",
"j  c #F1A72F",
"k  c #F2A730",
"l  c #F2A732",
"z  c #F2A834",
"x  c #F2A935",
"c  c #F2A836",
"v  c #F2A937",
"b  c #F2AA39",
"n  c #F2AB39",
"m  c #F2AB3A",
"M  c #F2AB3B",
"N  c #F3AD3F",
"B  c #F3AD40",
"V  c #F3AE40",
"C  c #F3AE41",
"Z  c #F3AF45",
"A  c #F3AF46",
"S  c #F3B044",
"D  c #F3B046",
"F  c #F3B047",
"G  c #F3B249",
"H  c #F3B24A",
"J  c #F3B24B",
"K  c #F3B24C",
"L  c #F3B34C",
"P  c #F3B34D",
"I  c #F4B34C",
"U  c #F4B550",
"Y  c #F4B551",
"T  c #F4B552",
"R  c #F4B652",
"E  c #F4B653",
"W  c #F4B756",
"Q  c #F4B757",
"!  c #F4B858",
"~  c #F4B859",
"^  c #F5B95B",
"/  c #F5BA5D",
"(  c #F4BA5E",
")  c #F5BA5E",
"_  c #F5BB5F",
"`  c #F4BB60",
"'  c #F5BB60",
"]  c #F5BC63",
"[  c #F5BD63",
"{  c #F5BD64",
"}  c #F5BD66",
"|  c #F5BE66",
" . c #F5BE67",
".. c #F5BF6A",
"X. c #F6BF69",
"o. c #F5C06A",
"O. c #F5C06B",
"+. c #F5C06C",
"@. c #F5C16D",
"#. c #F6C06C",
"$. c #F6C16D",
"%. c #F6C26F",
"&. c #F5C370",
"*. c #F6C270",
"=. c #F6C271",
"-. c #F6C371",
";. c #F6C373",
":. c #F5C474",
">. c #F6C576",
",. c #F6C577",
"<. c #F6C578",
"1. c #F6C678",
"2. c #F6C679",
"3. c #F6C67A",
"4. c #F6C87E",
"5. c #F7C87E",
"6. c #F7C87F",
"7. c #F6C880",
"8. c #F7C980",
"9. c #F7C981",
"0. c #F7C982",
"q. c #F7CB83",
"w. c #F7CB84",
"e. c #F7CB85",
"r. c #F7CB86",
"t. c #F7CB87",
"y. c #F7CC87",
"u. c #F7CC88",
"i. c #F7CD8B",
"p. c #F7CE8C",
"a. c #F7CF8E",
"s. c #F8CD8C",
"d. c #F8CE8C",
"f. c #F8CE8D",
"g. c #F8CF8D",
"h. c #F7D092",
"j. c #F8D091",
"k. c #F8D092",
"l. c #F8D193",
"z. c #F8D194",
"x. c #F8D398",
"c. c #F8D399",
"v. c #F8D49A",
"b. c #F9D49A",
"n. c #F8D69F",
"m. c #F9D69E",
"M. c #F9D69F",
"N. c #F8D7A1",
"B. c #F9D7A0",
"V. c #F9D7A1",
"C. c #F9D8A5",
"Z. c #F9D9A6",
"A. c #F9D9A7",
"S. c #F9DAA7",
"D. c #F9DBAA",
"F. c #F9DBAC",
"G. c #FADBAC",
"H. c #FADCAC",
"J. c #FADCAD",
"K. c #FADDB1",
"L. c #FADEB2",
"P. c #FADEB3",
"I. c #FADFB3",
"U. c #FADFB4",
"Y. c #FAE0B7",
"T. c #FAE1B8",
"R. c #FAE1B9",
"E. c #FBE1B8",
"W. c #FBE1B9",
"Q. c #FBE1BA",
"!. c #FBE3BC",
"~. c #FBE3BE",
"^. c #FBE3BF",
"/. c #FBE4BF",
"(. c #C0C0C0",
"). c #FBE5C2",
"_. c #FBE6C4",
"`. c #FBE6C5",
"'. c #FBE7C7",
"]. c #FBE7C8",
"[. c #FCE8CA",
"{. c #FCE9CA",
"}. c #FCE9CD",
"|. c #FCE9CE",
" X c #FCEACF",
".X c #FCEBCF",
"XX c #FCEAD0",
"oX c #FCEBD0",
"OX c #FCECD2",
"+X c #FCECD3",
"@X c #FCEDD5",
"#X c #FCEED6",
"$X c #FCEED7",
"%X c #FCEFD8",
"&X c #FDEFDA",
"*X c #FDF0DA",
"=X c #FDF0DC",
"-X c #FDF1DD",
";X c #FDF2DF",
":X c #FDF3E1",
">X c #FDF3E2",
",X c #FDF4E4",
"<X c OldLace",
"1X c #FEF6E8",
"2X c #FEF7E9",
"3X c #FEF7EA",
"4X c #FEF7ED",
"5X c #FEF8ED",
"6X c #FEF8EE",
"7X c #FEF9F2",
"8X c #FEFBF5",
"9X c gray100",
/* pixels */
"8 = = , 2 q q t i d l v M Z F I E Q ^ ' ....,.q.",
"% O @ $ = = , 2 e t d d z v V F H E ^ _  .-.-.9.",
"= @ $ * = , 2 q t s d z M V F P E ^ ' } ..,.1.t.",
", $ * = , 2 q t s X X X X X P E ^ '  ...,.2.9.a.",
"2 * = , 2 e t X X 9X9X9X9X9XX X _ } ..;.1.9.u.z.",
"8 = , 2 e t X 9X9X9X9X  9X9X9X9XX ..>.3.9.e.a.v.",
"0 > 2 q t X 9X9Xo 9X9X  (.9Xo 9X9XX 1.6.t.a.j.V.",
"t 2 q t X 9X9X9X9X9X9X  (.9X9X9X9X9X. i.p.j.c.D.",
"p e t p X 9Xo 9X9X9X9X  (.9X9X9Xo 9X. p.z.b.V.H.",
"d e s X 9X9X9X9X9X9X9X  (.9X9X9X9X9X9X. b.V.C.U.",
"l p d X 9X9X9X9X9X9X9X  (.9X9X9X9X9X9X. V.D.H.Y.",
"z d z X 9Xo 9X9X9X9X9X        9X9Xo 9X. C.H.U.~.",
"v z M X 9X9X9X9X9X9X9X9X(.(.(.(.9X9X9X. H.Y.Y._.",
"V v V X 9X9X9X9X9X9X9X9X9X9X9X9X9X9X9X. L.Y.).].",
"A M Z P X 9Xo 9X9X9X9X9X9X9X9X9Xo 9X. L.W./._.|.",
"H Z J E X 9X9X9X9X9X9X9X9X9X9X9X9X9X. W./.`.{.+X",
"E H E E _ X 9X9Xo 9X9X9X9X9Xo 9X9X. W./.`.{.|.*X",
"E E Q _ } ..X 9X9X9X9Xo 9X9X9X9X. Y./.`.{..X+X-X",
"^ E _ } ..-.,.. . 9X9X9X9X9X. . Y.^.).{..X+X*X,X",
"_ _ } ..-.,.5.e.p.. . . . . L.Y.).`.{..X+X*X:X,X",
"} } ..-.1.5.e.p.j.c.n.C.H.L.W./._.|..X+X-X-X,X3X",
"....-.1.5.e.p.j.c.n.C.H.L.Y.^.`.{..X+X*X:X,X2X6X",
"-.-.1.6.q.i.j.c.n.C.G.L.W./.`.{.|.+X&X:X,X2X4X6X",
"7.7.q.p.j.c.n.C.D.L.Y./.).`.|.+X&X-X:X,X4X3X8X8X"
};
