/* XPM */
static char *TGLBitmapHDS[] = {
/* columns rows colors chars-per-pixel */
"24 24 211 2",
"   c black",
".  c #EF960A",
"X  c #EF970C",
"o  c #EF980E",
"O  c #EF990E",
"+  c #EF9810",
"@  c #EF9912",
"#  c #EF9A12",
"$  c #F09B15",
"%  c #F09C16",
"&  c #F09C18",
"*  c #F09D18",
"=  c #F09D1B",
"-  c #F09D1C",
";  c #F09E1C",
":  c #F09F1E",
">  c #F0A01F",
",  c #F0A020",
"<  c #F0A120",
"1  c #F1A124",
"2  c #F1A125",
"3  c #F0A224",
"4  c #F1A224",
"5  c #F1A328",
"6  c #F1A329",
"7  c #F1A429",
"8  c #F1A52F",
"9  c #F1A62C",
"0  c #F1A62D",
"q  c #F1A62E",
"w  c #F1A62F",
"e  c #F2A730",
"r  c #F2A732",
"t  c #F2A834",
"y  c #F2A934",
"u  c #F2A935",
"i  c #F2A836",
"p  c #F2A937",
"a  c #F2AA39",
"s  c #F2AB39",
"d  c #F2AA3A",
"f  c #F2AB3A",
"g  c #F2AB3B",
"h  c #F2AD3F",
"j  c #F3AD3F",
"k  c #F2AD40",
"l  c #F3AD40",
"z  c #F2AE40",
"x  c #F3AE40",
"c  c #F3AE41",
"v  c #F3AF45",
"b  c #F3AF46",
"n  c #F3B044",
"m  c #F3B045",
"M  c #F3B046",
"N  c #F3B047",
"B  c #F3B249",
"V  c #F3B24B",
"C  c #F3B34B",
"Z  c #F3B24C",
"A  c #F3B34C",
"S  c #F3B34D",
"D  c #F4B34C",
"F  c #F3B551",
"G  c #F4B550",
"H  c #F4B551",
"J  c #F4B552",
"K  c #F4B756",
"L  c #F4B757",
"P  c #F4B758",
"I  c #F4B857",
"U  c #F4B858",
"Y  c #F4B859",
"T  c #F5B95B",
"R  c #F5BA5D",
"E  c #F4BA5E",
"W  c #F5BA5E",
"Q  c #F5BA5F",
"!  c #F5BB5E",
"~  c #F5BB5F",
"^  c #F4BB60",
"/  c #F5BB60",
"(  c #F5BC63",
")  c #F5BD64",
"_  c #F5BD65",
"`  c #F5BD66",
"'  c #F5BE65",
"]  c #F5BE66",
"[  c #F5BE67",
"{  c #F6BF69",
"}  c #F5C06A",
"|  c #F5C06B",
" . c #F5C06C",
".. c #F5C16D",
"X. c #F6C16D",
"o. c #F6C26F",
"O. c #F5C370",
"+. c #F5C372",
"@. c #F6C271",
"#. c #F6C371",
"$. c #F6C272",
"%. c #F6C372",
"&. c #F6C373",
"*. c #F5C474",
"=. c #F6C576",
"-. c #F6C578",
";. c #F6C579",
":. c #F6C678",
">. c #F6C679",
",. c #F6C67A",
"<. c #F6C87E",
"1. c #F6C97F",
"2. c #F7C87E",
"3. c #F7C87F",
"4. c #F7C97F",
"5. c #808080",
"6. c #F6C880",
"7. c #F7C980",
"8. c #F7C981",
"9. c #F7C982",
"0. c #F7CB83",
"q. c #F7CB85",
"w. c #F7CB86",
"e. c #F7CB87",
"r. c #F7CC86",
"t. c #F7CC87",
"y. c #F7CC88",
"u. c #F7CE8C",
"i. c #F7CF8E",
"p. c #F8CE8C",
"a. c #F8CE8D",
"s. c #F8CF8D",
"d. c #F7D092",
"f. c #F8D092",
"g. c #F8D192",
"h. c #F8D193",
"j. c #F8D194",
"k. c #F8D398",
"l. c #F8D399",
"z. c #F8D39A",
"x. c #F8D499",
"c. c #F8D49A",
"v. c #F9D49A",
"b. c #F8D69F",
"n. c #F9D69E",
"m. c #F9D69F",
"M. c #F8D7A1",
"N. c #F9D6A0",
"B. c #F9D7A0",
"V. c #F9D7A1",
"C. c #F9D8A5",
"Z. c #F9D9A5",
"A. c #F9D9A6",
"S. c #F9D9A7",
"D. c #F9DAA7",
"F. c #F9DBAA",
"G. c #F9DBAC",
"H. c #FADBAC",
"J. c #FADCAC",
"K. c #FADCAD",
"L. c #FADDB1",
"P. c #FADEB2",
"I. c #FADEB3",
"U. c #FADFB3",
"Y. c #FADFB4",
"T. c #FAE0B7",
"R. c #FAE1B8",
"E. c #FAE1B9",
"W. c #FBE1B8",
"Q. c #FBE1B9",
"!. c #FBE1BA",
"~. c #FBE3BC",
"^. c #FBE3BE",
"/. c #FBE3BF",
"(. c #FBE4BF",
"). c #FBE5C2",
"_. c #FBE6C4",
"`. c #FBE6C5",
"'. c #FBE7C7",
"]. c #FBE7C8",
"[. c #FCE8CA",
"{. c #FCE9CA",
"}. c #FCE9CD",
"|. c #FCE9CE",
" X c #FCEACF",
".X c #FCEBCF",
"XX c #FCEAD0",
"oX c #FCEBD0",
"OX c #FCECD2",
"+X c #FCECD3",
"@X c #FCEDD5",
"#X c #FCEED6",
"$X c #FCEED7",
"%X c #FCEFD8",
"&X c #FDEFDA",
"*X c #FDF0DA",
"=X c #FDF0DC",
"-X c #FDF1DD",
";X c #FDF2DF",
":X c #FDF3E1",
">X c #FDF3E2",
",X c #FDF4E4",
"<X c OldLace",
"1X c #FEF6E8",
"2X c #FEF7E9",
"3X c #FEF7EA",
"4X c #FEF7ED",
"5X c #FEF8ED",
"6X c #FEF8EE",
"7X c #FEF9F2",
"8X c #FEFBF5",
/* pixels */
": + + % = : > 4 2 q y y g c N D J K ! ( { X.&.r.",
"X     . O     =         5.g c 5.        { { @.3.",
"+     O +     >           5.N           { &.3.u.",
"%     + %     1     y g     S     ( ] X.&.3.3.i.",
"=             7     f c     J         5.>.3.e.d.",
":             w     c N     Y 5.        3.e.i.n.",
">     > 1     y     N S     ~ ' X.&.    y.s.d.V.",
"1     1 7     f           5.'         5.s.d.x.A.",
"6     6 e     g         5.{ {         5.j.v.N.K.",
"w 1 7 e y f c b N J P ^ ' { *.,.3.e.a.j.v.V.F.Y.",
"w 7 e y f c b Z K Y ! ' { @.,.3.q.i.h.x.V.A.K.Y.",
"y w y f g N Z J Y ! ' { &.,.3.e.a.d.x.N.A.K.Y.(.",
"f y f g b Z J L ^ ' { %.,.3.r.u.d.m.N.A.K.Y.Y.`.",
"g f l B Z J L ! ' { *.>.3.r.i.d.k.N.A.H.Y.Y.).'.",
"b j b Z J P ^ ' { *.=.3.q.i.h.x.m.A.K.Y.!.).`.}.",
"B b Z J P ! ' { @.>.2.q.i.h.x.N.A.K.Y.Y.).`.{.#X",
"D         5.{   ,.3.e.  h.        5.T.(.`.{..X$X",
"L   L ! '   &.  5.e.5.  x.  C.J.I.  (._.{.OX#X-X",
"Y   ! ' {   ,.    5.    n.  J.I.T.  `.{.XX#X*X:X",
"(         5.3.  u.  k.  C.        5.{.OX#X*X-X<X",
"'   { @.,.  r.  h.k.n.  J.  T.(.`.{.XX#X*X-X<X3X",
"{   @.,.3.  i.  x.n.C.  I.  (._.{.}.#X*X-X<X3X4X",
"&.        5.h.  n.C.J.  T.  _.{.}.#X*X-X:X3X4X7X",
"e.3.e.u.h.k.n.C.F.I.T.T._.{.}.OX#X-X:X<X2X4X7X8X"
};
