/* XPM */
static char * virtualmoon_xpm[] = {
"32 32 17 1",
" 	c None",
".	c #000000",
"+	c #101010",
"@	c #5E5E5E",
"#	c #A0A0A0",
"$	c #BDBDBD",
"%	c #CECECE",
"&	c #DADADA",
"*	c #080808",
"=	c #777777",
"-	c #888888",
";	c #313131",
">	c #212121",
",	c #F3F3F3",
"'	c #424242",
")	c #4A4A4A",
"!	c #181818",
"..............++................",
"..........@###$$$%&$............",
"........*@==--####$%%&..........",
"........;@==-###$$$$$%%#........",
".......>@@@==-###$###%&,&.......",
".......>')@==--#----$%&&&&......",
"......*>')@==-#------$&%&$&.....",
"......+;')@@=--#=----#$&&$#+....",
"......+;')@-=-##-=----#-%%#%....",
"......!;'@@@==#----#=-#-#%%%'...",
"......!;))@==--==--#=----$%&$...",
"......!;)@==-=@---##=--##$#$$...",
"......>'@@-=-==###$##--#$$##$;..",
"......>;)@==@@=--$$$$$#$%$##$%..",
"......>;)@==@=--#$$$%&##%%##,&..",
"......+>')====###$%$%&%$#%$$%&..",
".......>;))===-##$$$&%,%#$%%%&..",
".......!;))@=@-##$$$$%&&$#%$&&..",
".......+;))@===-#$$$$$%&$%%&,-..",
".......+>;)@@==###$$%$%&&%&,&...",
".......!!')@@@@=###%$$%%%&&,&...",
"........+;)@@@@=#$%$$&%%%&&&%...",
"........*>')===#$%%$%%%&&&&%....",
"........+>')@###$$$%$%%$&&%$....",
".........!;)==-#$$%%$$$%&%$.....",
".........*>)@=--#$%$$$%%%%......",
"...........)@@=-$#$$$%%%&.......",
"...........*>@=-#$$$$$%&........",
".............>--$##$%$$.........",
"..............))@-$$$...........",
"................*...............",
"................................"};
