/* XPM */
static char *gls_lights[] = {
/* columns rows colors chars-per-pixel */
"16 16 143 2",
"   c #003636",
".  c #013C3C",
"X  c #013D3D",
"o  c #004646",
"O  c #074242",
"+  c #014949",
"@  c #014C4C",
"#  c #0E4F4F",
"$  c #045252",
"%  c #045C5C",
"&  c #085555",
"*  c #076464",
"=  c #076565",
"-  c #0A6363",
";  c #0E6767",
":  c #176363",
">  c #107171",
",  c #137373",
"<  c #157575",
"1  c #177676",
"2  c #187676",
"3  c #1C7A7A",
"4  c #276D6D",
"5  c #2C7171",
"6  c #2D7272",
"7  c #317777",
"8  c #347E7E",
"9  c #387E7E",
"0  c #238686",
"q  c #2E8686",
"w  c #298C8C",
"e  c #2A8D8D",
"r  c #318686",
"t  c #358181",
"y  c #348A8A",
"u  c #368F8F",
"i  c #339393",
"p  c #359292",
"a  c #369A9A",
"s  c #389797",
"d  c #3C9393",
"f  c #3E9595",
"g  c #498989",
"h  c #429191",
"j  c #439F9F",
"k  c #489F9F",
"l  c #499E9E",
"z  c #508989",
"x  c #5F8B8B",
"c  c #549C9C",
"v  c #45A0A0",
"b  c #46A3A3",
"n  c #47A2A2",
"m  c #4AA2A2",
"M  c #48A5A5",
"N  c #4AA5A5",
"B  c #4BA6A6",
"V  c #4DA1A1",
"C  c #4DA7A7",
"Z  c #4EA6A6",
"A  c #54A5A5",
"S  c #54A9A9",
"D  c #56AAAA",
"F  c #58A7A7",
"G  c #5EA9A9",
"H  c #5FB0B0",
"J  c #699C9C",
"K  c #61AFAF",
"L  c #63ACAC",
"P  c #64ABAB",
"I  c #64AFAF",
"U  c #62B1B1",
"Y  c #64B1B1",
"T  c #64B2B2",
"R  c #65B3B3",
"E  c #69B1B1",
"W  c #69B5B5",
"Q  c #6AB5B5",
"!  c #6DB3B3",
"~  c #6CB6B6",
"^  c #6FB8B8",
"/  c #73BABA",
"(  c #76B8B8",
")  c #7AB7B7",
"_  c #78BCBC",
"`  c #79BDBD",
"'  c #7ABDBD",
"]  c #7DB8B8",
"[  c #7DBDBD",
"{  c #7DBFBF",
"}  c #7EBDBD",
"|  c #7FC0C0",
" . c #81B6B6",
".. c #83BBBB",
"X. c #86BDBD",
"o. c #80C0C0",
"O. c #82C1C1",
"+. c #83C2C2",
"@. c #87C3C3",
"#. c #87C4C4",
"$. c #89C5C5",
"%. c #8DC7C7",
"&. c #93CACA",
"*. c #94C9C9",
"=. c #99CDCD",
"-. c #9CCECE",
";. c #9FD0D0",
":. c #A0CFCF",
">. c #A5CCCC",
",. c #A6CDCD",
"<. c #A2D1D1",
"1. c #A3D0D0",
"2. c #A4D2D2",
"3. c #A5D3D3",
"4. c #A9D4D4",
"5. c #ABD6D6",
"6. c #AFD7D7",
"7. c #B2D9D9",
"8. c #B8DCDC",
"9. c #B9DCDC",
"0. c #BCDEDE",
"q. c #BFDFDF",
"w. c #C3E0E0",
"e. c #C3E1E1",
"r. c #C5E2E2",
"t. c #C5E3E3",
"y. c #C6E3E3",
"u. c #C9E4E4",
"i. c #CCE6E6",
"p. c #CFE7E7",
"a. c #D2E9E9",
"s. c #D6EBEB",
"d. c #DFEFEF",
"f. c #E5F2F2",
"g. c #E8F4F4",
"h. c #EBF5F5",
"j. c #EFF7F7",
"k. c #EFF8F8",
"l. c #F2F8F8",
"z. c #F8FCFC",
"x. c #FCFDFD",
"c. c #FCFEFE",
"v. c gray100",
/* pixels */
"v.v.v.v.v.v.j.0.-.{ *.z.v.v.v.v.",
"v.v.v.v.v.j.9.9.5.O.s t v.v.v.v.",
"v.v.v.v.v.0.y.y.9.%.B = $.f.v.v.",
"v.v.v.v.d.e.i.k.9.O.B > u a >.v.",
"v.v.v.v.e.u.u.0.=.^ s = d b - r.",
"v.v.v.a.u.r.6.=.` C < + U C ; x ",
"v.v.s.e.0.3.$.Q B < X 7 ` v & 5 ",
"v.r.Y ~ ( ^ v e , $ g #.G 0   f ",
"<.&...v q : @ % F ~ O.Y s & O ` ",
"z.>.] c e r D <.{ U j 3 + . l =.",
"h 9 P D { { L i m 2 X O 6 L =.<.",
"J 8 ! r.X.) A y + 4 E &.=.=.<.g.",
"v.v.g. .1.G c m { =.=.=.5.r.j.v.",
"v.v.v.z # P ( =.=.<.i.j.v.v.v.v.",
"v.v.v.6.` %.=.6.a.v.v.v.v.v.v.v.",
"v.v.v.f.=.=.9.j.v.v.v.v.v.v.v.v."
};
