/* XPM */
static char *TGLActor[] = {
/* columns rows colors chars-per-pixel */
"16 16 256 2",
"   c #040204",
".  c #FC02FC",
"X  c #046204",
"o  c #000077",
"O  c #F34700",
"+  c #990B00",
"@  c #833E00",
"#  c #7C7700",
"$  c #186947",
"%  c #9F0E0B",
"&  c #803E3E",
"*  c #7C7777",
"=  c #FF0090",
"-  c #FF0003",
";  c #FF001F",
":  c red",
">  c #120086",
",  c #9FD001",
"<  c #80FD00",
"1  c #7C7F00",
"2  c #4A0100",
"3  c #930000",
"4  c #830000",
"5  c #7C0000",
"6  c #600000",
"7  c #E9D000",
"8  c #17FD00",
"9  c #007F00",
"0  c #0500EC",
"q  c #0100DD",
"w  c #810078",
"e  c #7C0000",
"r  c #309073",
"t  c #D203B3",
"y  c #121FD3",
"u  c #000077",
"i  c #600086",
"p  c #E90001",
"a  c #170000",
"s  c black",
"d  c #828CD8",
"f  c #00D0DD",
"g  c #811278",
"h  c #7C0000",
"j  c #CD5CA4",
"k  c #33D052",
"l  c #4012D4",
"z  c #000077",
"x  c #008000",
"c  c #02F100",
"v  c #00D604",
"b  c #007700",
"n  c #010000",
"m  c black",
"M  c #000400",
"N  c black",
"B  c #28002C",
"V  c #CF00D1",
"C  c #120012",
"Z  c black",
"A  c #C800A0",
"S  c #2A0093",
"D  c #4E0000",
"F  c #000001",
"G  c #386038",
"H  c #F918F9",
"J  c #120012",
"K  c #001000",
"L  c #F30094",
"P  c #990004",
"I  c #8300D6",
"U  c #7C0077",
"Y  c #084778",
"T  c #010BB3",
"R  c #813ED3",
"E  c #7C7777",
"W  c #FF86FF",
"Q  c #FF01FF",
"!  c magenta",
"~  c magenta",
"^  c #059073",
"/  c #0103B3",
"(  c #811FD3",
")  c #7C0077",
"_  c #3084B4",
"`  c #D2D0B3",
"'  c #1212D3",
"]  c #000077",
"[  c #60B4D8",
"{  c #E9B3DD",
"}  c #17D378",
"|  c #007700",
" . c #34D886",
".. c #D2DD01",
"X. c #127800",
"o. c black",
"O. c #828600",
"+. c #000100",
"@. c #810000",
"#. c #7C0000",
"$. c #6A48C4",
"%. c #8D72B3",
"&. c #4300D3",
"*. c #000077",
"=. c #609C00",
"-. c #E9D000",
";. c #171200",
":. c black",
">. c #180900",
",. c #008700",
"<. c #00D300",
"1. c #007700",
"2. c #009000",
"3. c #000300",
"4. c #001F00",
"5. c black",
"6. c #008600",
"7. c #000100",
"8. c black",
"9. c black",
"0. c #AE0012",
"q. c #E2009F",
"w. c #D30080",
"e. c #77007C",
"r. c #0000AE",
"t. c #0000E2",
"y. c #0000D3",
"u. c #000077",
"i. c #004760",
"p. c #000BE9",
"a. c #003E17",
"s. c #007700",
"d. c #A4CD60",
"f. c #52ABE9",
"g. c #D4BA17",
"h. c #77DC00",
"j. c #100000",
"k. c #0000E0",
"l. c #000017",
"z. c black",
"x. c #10D800",
"c. c #00D0E0",
"v. c #001217",
"b. c black",
"n. c #B04784",
"m. c #CF0BD1",
"M. c #123E12",
"N. c #007700",
"B. c #A40400",
"V. c #65D100",
"C. c #411200",
"Z. c #770000",
"A. c #18B1E0",
"S. c #008BD1",
"D. c #00D312",
"F. c #007700",
"G. c #9600F3",
"H. c #0DD099",
"J. c #01FD83",
"K. c #367F7C",
"L. c #090418",
"P. c #00D19F",
"I. c #001280",
"U. c #00007C",
"Y. c #0032FF",
"T. c #0088FF",
"R. c #00D3FF",
"E. c #0077FF",
"W. c #B0C412",
"Q. c #BDD09F",
"!. c #D31280",
"~. c #77007C",
"^. c #04FF4A",
"/. c #008793",
"(. c #00D383",
"). c #00777C",
"_. c #C40060",
"`. c #CF00E9",
"'. c #120017",
"]. c black",
"[. c #739005",
"{. c #C70301",
"}. c #D31F81",
"|. c #77007C",
" X c #06A4AE",
".X c #8052E2",
"XX c #00D4D3",
"oX c #007777",
"OX c #C01460",
"+X c #0800E9",
"@X c #170017",
"#X c black",
"$X c #1A01A4",
"%X c #070052",
"&X c #3E00D4",
"*X c #770077",
"=X c #0600AE",
"-X c #8000E2",
";X c #0000D3",
":X c #000077",
">X c #900086",
",X c #030001",
"<X c #1F0000",
"1X c black",
"2X c #FC1001",
"3X c red",
"4X c red",
"5X c red",
"6X c #0100C0",
"7X c #0000D1",
"8X c #000012",
"9X c black",
"0X c #F8FCD4",
"qX c #CFD0D1",
"wX c gray7",
"eX c black",
"rX c #F80138",
"tX c #CF00F9",
"yX c #120012",
"uX c black",
"iX c #4500F3",
"pX c #720099",
"aX c #720083",
"sX c #6F007C",
"dX c #720008",
"fX c #200001",
"gX c #720081",
"hX c #65007C",
"jX c #61B8FF",
"kX c #64D0FF",
"lX c #6912FF",
"zX c #6E00FF",
"xX c #674805",
"cX c #20D101",
"vX c #661281",
"bX c #69007C",
"nX c #6C4888",
"mX c #65D181",
"MX c #001243",
"NX c #200000",
"BX c #579460",
"VX c #6904E9",
"CX c #6ED617",
"ZX c #647700",
"AX c #6F0800",
"SX c #778800",
"DX c #73D300",
"FX c #207700",
"GX c #69FFF9",
"HX c #63FFB2",
"JX c #6FFF43",
"KX c #6EFF00",
"LX c #00FF60",
"PX c #0087E9",
"IX c #00D317",
"UX c #007700",
/* pixels */
". . . . . . . . . . . . . . . . ",
". . . . . .         . . . . . . ",
". . . . .   X     X   . . . . . ",
". . . . .   X X X X   . . . . . ",
". . . . . .         . . . . . . ",
". . . . . . .     . . . . . . . ",
". . . . . . .         . . . . . ",
". . . . . . .     .     . . . . ",
". . . . .         . . . . . . . ",
". . . . . . .     . . . . . . . ",
". . . . . . .       . . . . . . ",
". . . . . .     .   . . . . . . ",
". . . . .   . . . .     . . . . ",
". . . .     . . . . .   . . . . ",
". . . . . . . . . . . . . . . . ",
". . . . . . . . . . . . . . . . "
};
