/* XPM */
static char *TGLCylinder[] = {
/* columns rows colors chars-per-pixel */
"16 16 53 1",
"  c black",
". c #060606",
"X c #131313",
"o c gray15",
"O c #282828",
"+ c #373737",
"@ c gray23",
"# c #3F3F3F",
"$ c gray28",
"% c #494949",
"& c #505050",
"* c gray32",
"= c #555555",
"- c #5A5A5A",
"; c gray36",
": c #626262",
"> c gray39",
", c #676767",
"< c #6A6A6A",
"1 c #6C6C6C",
"2 c #727272",
"3 c #7C7C7C",
"4 c #7E7E7E",
"5 c gray50",
"6 c #818181",
"7 c gray51",
"8 c gray52",
"9 c #939393",
"0 c #989898",
"q c gray60",
"w c #9D9D9D",
"e c gray62",
"r c gray64",
"t c #AAAAAA",
"y c gray68",
"u c #AEAEAE",
"i c #B1B1B1",
"p c #B2B2B2",
"a c #B4B4B4",
"s c gray72",
"d c #C1C1C1",
"f c #C3C3C3",
"g c #C6C6C6",
"h c #C8C8C8",
"j c gray80",
"k c #CDCDCD",
"l c gray87",
"z c gray92",
"x c #F1F1F1",
"c c gray95",
"v c #F8F8F8",
"b c #FBFBFB",
"n c gray100",
/* pixels */
"nnnnnnnnnnnnnnnn",
"nnby91=>8wgbnnnn",
"nb,&&&&&%&&1hnnn",
"nx-&&&&&&&&&5lnn",
"nxa06>&=&$OX-0pn",
"nxajfr5%oX .-00b",
"nxsjfr5%oX .-00b",
"nxajfr5%oX .-00v",
"nxajfr5%oX .-00b",
"nxajfr5%oX .-w0b",
"nxajfr5%oX .-00b",
"nnfjfr6%oX .200v",
"nnnzgr6=@+$500wb",
"nnnnlw00000000pn",
"nnnnnxjsyttpflbn",
"nnnnnnnnnnnnnnnn"
};
