/* XPM */
static char *TGLDirectOpenGL[] = {
/* columns rows colors chars-per-pixel */
"16 16 16 1",
"  c #040284",
". c #848284",
"X c #FCFEFC",
"o c #000077",
"O c #F34700",
"+ c #990B00",
"@ c #833E00",
"# c #7C7700",
"$ c #186947",
"% c #9F0E0B",
"& c #803E3E",
"* c #7C7777",
"= c #FF004A",
"- c #FF0002",
"; c #FF002D",
": c red",
/* pixels */
"XXXXXXXXXXXXXXXX",
"XXXXXXXXXXXXXXXX",
"XXXX..    ..XXXX",
"XX.          .XX",
"X..XXXXXXXXXX..X",
". X   X   X XX .",
"  X X X XXX XX  ",
"  X X X X X XX  ",
". X   X   X  X .",
"X..XXXXXXXXXX..X",
"XX.          .XX",
"XXXX..    ..XXXX",
"XXXXXXXXXXXXXXXX",
"XXXXXXXXXXXXXXXX",
"XXXXXXXXXXXXXXXX",
"XXXXXXXXXXXXXXXX"
};
