/* XPM */
static char *TGLFreeFormProxy[] = {
/* columns rows colors chars-per-pixel */
"16 16 256 2",
"   c #040204",
".  c #848284",
"X  c #0402FC",
"o  c #04FEFC",
"O  c #444244",
"+  c #C4C2C4",
"@  c #242244",
"#  c #A4A2A4",
"$  c #646284",
"%  c #646244",
"&  c #C4DEC4",
"*  c #7C7700",
"=  c red",
"-  c red",
";  c #FF00EC",
":  c red",
">  c #120086",
",  c #9FD001",
"<  c #80FD00",
"1  c #7C7F00",
"2  c #4A0188",
"3  c #9300DC",
"4  c #83001C",
"5  c #7C0000",
"6  c #600078",
"7  c #E9D001",
"8  c #17FD15",
"9  c #007F00",
"0  c #0500EC",
"q  c #0100DD",
"w  c #810078",
"e  c #7C0000",
"r  c #309090",
"t  c #D203DC",
"y  c #121F1C",
"u  c black",
"i  c #600086",
"p  c #E90001",
"a  c #170000",
"s  c black",
"d  c #8200D8",
"f  c #0000DD",
"g  c #810078",
"h  c #7C0000",
"j  c #CD5CA4",
"k  c #33D052",
"l  c #4012D4",
"z  c #000077",
"x  c #008068",
"c  c #02F1EC",
"v  c #00D61C",
"b  c #007700",
"n  c #010024",
"m  c black",
"M  c #000400",
"N  c black",
"B  c #280050",
"V  c #CF0030",
"C  c #120016",
"Z  c black",
"A  c #C800A0",
"S  c #2A0093",
"D  c #4E0000",
"F  c #000001",
"G  c #386038",
"H  c #F918F9",
"J  c #120012",
"K  c #001000",
"L  c #F30094",
"P  c #990004",
"I  c #8300D6",
"U  c #7C0077",
"Y  c #084778",
"T  c #010BB3",
"R  c #813ED3",
"E  c #7C7777",
"W  c #FF86FF",
"Q  c #FF01FF",
"!  c magenta",
"~  c magenta",
"^  c #059073",
"/  c #0103B3",
"(  c #811FD3",
")  c #7C0077",
"_  c #3084B4",
"`  c #D2D0B3",
"'  c #1212D3",
"]  c #000077",
"[  c #60B458",
"{  c #E9B330",
"}  c #17D316",
"|  c #007700",
" . c #34D830",
".. c #D2DD05",
"X. c #127800",
"o. c black",
"O. c #828624",
"+. c #000100",
"@. c #810000",
"#. c #7C0000",
"$. c #6A48C4",
"%. c #8D72B3",
"&. c #4300D3",
"*. c #000077",
"=. c #609C00",
"-. c #E9D000",
";. c #171200",
":. c black",
">. c #180924",
",. c #008700",
"<. c #00D300",
"1. c #007700",
"2. c #009000",
"3. c #000300",
"4. c #001F00",
"5. c black",
"6. c #008600",
"7. c #000100",
"8. c black",
"9. c black",
"0. c #AE2412",
"q. c #E2009F",
"w. c #D30080",
"e. c #77007C",
"r. c #2400AE",
"t. c #0000E2",
"y. c #0000D3",
"u. c #000077",
"i. c #904760",
"p. c #DC0BE9",
"a. c #1C3E17",
"s. c #007700",
"d. c #A4CD60",
"f. c #52ABE9",
"g. c #D4BA17",
"h. c #77DC00",
"j. c #100000",
"k. c #0000E0",
"l. c #000017",
"z. c black",
"x. c #10D800",
"c. c #00D0E0",
"v. c #001217",
"b. c black",
"n. c #B04784",
"m. c #CF0BD1",
"M. c #123E12",
"N. c #007700",
"B. c #A40400",
"V. c #65D100",
"C. c #411200",
"Z. c #770000",
"A. c #18B1E0",
"S. c #008BD1",
"D. c #00D312",
"F. c #007700",
"G. c #9600F3",
"H. c #0DD099",
"J. c #01FD83",
"K. c #367F7C",
"L. c #090418",
"P. c #00D19F",
"I. c #001280",
"U. c #00007C",
"Y. c #0032FF",
"T. c #0088FF",
"R. c #00D3FF",
"E. c #0077FF",
"W. c #B0C412",
"Q. c #BDD09F",
"!. c #D31280",
"~. c #77007C",
"^. c #04FF4A",
"/. c #008793",
"(. c #00D383",
"). c #00777C",
"_. c #C40060",
"`. c #CF00E9",
"'. c #120017",
"]. c black",
"[. c #739005",
"{. c #C70301",
"}. c #D31F81",
"|. c #77007C",
" X c #06A4AE",
".X c #8052E2",
"XX c #00D4D3",
"oX c #007777",
"OX c #C01460",
"+X c #0800E9",
"@X c #170017",
"#X c black",
"$X c #1A01A4",
"%X c #070052",
"&X c #3E00D4",
"*X c #770077",
"=X c #060000",
"-X c #800000",
";X c #000015",
":X c black",
">X c #90B800",
",X c #03E100",
"<X c #1F1C00",
"1X c black",
"2X c #FCF001",
"3X c #FFD000",
"4X c #FF1200",
"5X c red",
"6X c #2546C0",
"7X c #000FD1",
"8X c #009112",
"9X c #007C00",
"0X c #F81E24",
"qX c #CF0000",
"wX c #120000",
"eX c black",
"rX c #F8B838",
"tX c #CFE1F9",
"yX c #121C12",
"uX c black",
"iX c #4500F3",
"pX c #720099",
"aX c #721583",
"sX c #6F007C",
"dX c #728808",
"fX c #20DC01",
"gX c #721C81",
"hX c #65007C",
"jX c #6100FF",
"kX c #6400FF",
"lX c #6915FF",
"zX c #6E00FF",
"xX c #670005",
"cX c #200001",
"vX c #661581",
"bX c #69007C",
"nX c #6C7888",
"mX c #650181",
"MX c #001543",
"NX c #200000",
"BX c #57C460",
"VX c #69D1E9",
"CX c #6E1217",
"ZX c #640000",
"AX c #6F9124",
"SX c #770E00",
"DX c #739100",
"FX c #207C00",
"GX c #6908F9",
"HX c #6306B2",
"JX c #6F1543",
"KX c #6E0000",
"LX c #006D60",
"PX c #0005E9",
"IX c #009117",
"UX c #007C00",
/* pixels */
"+ + + + + + + + + + + + + + + + ",
"+ + + X + + + + O . + + + + + + ",
"+ + X X X + + +   O . # + + + + ",
"+ X X o X X + + + . O @ % # + + ",
"X X o o & . # + + + + %   O . + ",
"X X X o % . + # + + + + . @ . + ",
"+ + + + @ . # % O % . + + + + + ",
"+ +   + @ O . + + % O % . # # + ",
"+       . @ $ # + + + . $ $ # + ",
"+ +   + + @ @ $ # + + + X + + + ",
"+ +   + + + O @ $ # + X X X + + ",
"+ +   + + +   % @ % # & o X X + ",
"+ +             # O @ % . # + X ",
"+ + + + + +   + + X X . $ # X X ",
"+ + + + + + + + + + + + + + + + ",
"+ + + + + + + + + + + + + + + + "
};
