/* XPM */
static char *TGLFrustrum[] = {
/* columns rows colors chars-per-pixel */
"16 16 16 1",
"  c #040204",
". c #848284",
"X c #C4C2C4",
"o c #FC02FC",
"O c #FCFEFC",
"+ c #990B00",
"@ c #833E00",
"# c #7C7700",
"$ c #186968",
"% c #9F0EF1",
"& c #803E17",
"* c #7C7700",
"= c #FF004A",
"- c #FF0002",
"; c #FF002D",
": c red",
/* pixels */
"oooooooooooooooo",
"oooooooooooooooo",
"oooooooooooooooo",
"ooooo.      Xooo",
"ooooO........ooo",
"oooOXXXXXXX...oo",
"ooOXXXXXXXX...Xo",
"ooOXXXXXXXXX...o",
"oOXXXXXXXXXX...X",
"oOXXXXXXXXXXX..o",
"OXXXXXXXXXXXX.Xo",
"OXXXXXXXXXXXX.oo",
"oOOOOOOOOOOOOooo",
"oooooooooooooooo",
"oooooooooooooooo",
"oooooooooooooooo"
};
