/* XPM */
static char *TGLAsyncHDS[] = {
/* columns rows colors chars-per-pixel */
"24 24 215 2",
"   c black",
".  c #EF960A",
"X  c #EF970C",
"o  c #EF980E",
"O  c #EF990E",
"+  c #EF9810",
"@  c #EF9912",
"#  c #EF9A12",
"$  c #F09B15",
"%  c #F09C16",
"&  c #F09C18",
"*  c #F09D18",
"=  c #F09D1B",
"-  c #F09D1C",
";  c #F09E1C",
":  c #F09F1E",
">  c #F0A01F",
",  c #F0A020",
"<  c #F0A120",
"1  c #F1A124",
"2  c #F1A125",
"3  c #F0A224",
"4  c #F1A224",
"5  c #F1A328",
"6  c #F1A329",
"7  c #F1A429",
"8  c #F1A52F",
"9  c #F1A62C",
"0  c #F1A62D",
"q  c #F1A62E",
"w  c #F1A62F",
"e  c #F2A730",
"r  c #F2A732",
"t  c #F2A834",
"y  c #F2A934",
"u  c #F2A935",
"i  c #F2A836",
"p  c #F2A937",
"a  c #F2AA39",
"s  c #F2AB39",
"d  c #F2AA3A",
"f  c #F2AB3A",
"g  c #F2AB3B",
"h  c #F2AD3F",
"j  c #F3AD3F",
"k  c #F2AD40",
"l  c #F3AD40",
"z  c #F2AE40",
"x  c #F3AE40",
"c  c #F3AE41",
"v  c #F3AF45",
"b  c #F3AF46",
"n  c #F3B044",
"m  c #F3B045",
"M  c #F3B046",
"N  c #F3B047",
"B  c #F3B249",
"V  c #F3B24A",
"C  c #F3B24B",
"Z  c #F3B34B",
"A  c #F3B24C",
"S  c #F3B34C",
"D  c #F3B34D",
"F  c #F4B34C",
"G  c #F3B551",
"H  c #F4B550",
"J  c #F4B551",
"K  c #F4B552",
"L  c #F4B756",
"P  c #F4B757",
"I  c #F4B758",
"U  c #F4B857",
"Y  c #F4B858",
"T  c #F4B859",
"R  c #F5B95B",
"E  c #F5BA5D",
"W  c #F4BA5E",
"Q  c #F5BA5E",
"!  c #F5BA5F",
"~  c #F5BB5E",
"^  c #F5BB5F",
"/  c #F4BB60",
"(  c #F5BB60",
")  c #F5BC63",
"_  c #F5BD63",
"`  c #F5BD64",
"'  c #F5BD65",
"]  c #F5BD66",
"[  c #F5BE65",
"{  c #F5BE66",
"}  c #F5BE67",
"|  c #F5BF6A",
" . c #F6BF69",
".. c #F5C06B",
"X. c #F5C06C",
"o. c #F5C16D",
"O. c #F6C16D",
"+. c #F6C26F",
"@. c #F5C370",
"#. c #F5C372",
"$. c #F6C270",
"%. c #F6C371",
"&. c #F6C272",
"*. c #F6C372",
"=. c #F6C373",
"-. c #F5C474",
";. c #F6C576",
":. c #F6C577",
">. c #F6C578",
",. c #F6C579",
"<. c #F6C678",
"1. c #F6C679",
"2. c #F6C67A",
"3. c #F6C97F",
"4. c #F7C87E",
"5. c #F7C87F",
"6. c #F7C97F",
"7. c #808080",
"8. c #F6C880",
"9. c #F7C980",
"0. c #F7C981",
"q. c #F7C982",
"w. c #F7CB83",
"e. c #F7CB84",
"r. c #F7CB85",
"t. c #F7CB86",
"y. c #F7CB87",
"u. c #F7CC86",
"i. c #F7CC87",
"p. c #F7CC88",
"a. c #F7CD8B",
"s. c #F7CE8C",
"d. c #F7CF8E",
"f. c #F8CE8C",
"g. c #F8CE8D",
"h. c #F8CF8D",
"j. c #F7D092",
"k. c #F7D192",
"l. c #F8D092",
"z. c #F8D192",
"x. c #F8D193",
"c. c #F8D194",
"v. c #F8D398",
"b. c #F8D399",
"n. c #F8D39A",
"m. c #F8D499",
"M. c #F8D49A",
"N. c #F9D49A",
"B. c #F8D69F",
"V. c #F9D69E",
"C. c #F9D69F",
"Z. c #F8D7A1",
"A. c #F9D6A0",
"S. c #F9D7A0",
"D. c #F9D7A1",
"F. c #F9D8A5",
"G. c #F9D9A5",
"H. c #F9D9A6",
"J. c #F9D9A7",
"K. c #F9DAA7",
"L. c #F9DBAA",
"P. c #F9DBAC",
"I. c #FADBAC",
"U. c #FADCAC",
"Y. c #FADCAD",
"T. c #FADDB1",
"R. c #FADEB2",
"E. c #FADEB3",
"W. c #FADFB3",
"Q. c #FADFB4",
"!. c #FAE0B7",
"~. c #FAE1B8",
"^. c #FAE1B9",
"/. c #FBE1B8",
"(. c #FBE1B9",
"). c #FBE1BA",
"_. c #FBE3BC",
"`. c #FBE3BE",
"'. c #FBE3BF",
"]. c #FBE4BF",
"[. c #FBE5C2",
"{. c #FBE6C4",
"}. c #FBE6C5",
"|. c #FBE7C7",
" X c #FBE7C8",
".X c #FCE8CA",
"XX c #FCE9CA",
"oX c #FCE9CD",
"OX c #FCE9CE",
"+X c #FCEACF",
"@X c #FCEBCF",
"#X c #FCEBD0",
"$X c #FCECD2",
"%X c #FCECD3",
"&X c #FCEDD5",
"*X c #FCEED6",
"=X c #FCEED7",
"-X c #FCEFD8",
";X c #FDEFDA",
":X c #FDF0DA",
">X c #FDF0DC",
",X c #FDF1DD",
"<X c #FDF2DF",
"1X c #FDF3E1",
"2X c #FDF3E2",
"3X c #FDF4E4",
"4X c OldLace",
"5X c #FEF6E8",
"6X c #FEF7E9",
"7X c #FEF7EA",
"8X c #FEF7ED",
"9X c #FEF8ED",
"0X c #FEF8EE",
"qX c #FEF9F2",
"wX c #FEFBF5",
/* pixels */
": + + % = : > 4 2 q y y g c N F K L ~ _ | | :.q.",
"X     . O     =         7.g c 7.        | | =.6.",
"+     O +     >           7.N           +.:.2.a.",
"%     + %     1     y g     D     _ [ | =.2.9.h.",
"=             7     f c     K         7.2.9.i.c.",
":             w     c N     T 7.        6.i.h.n.",
">     > 1     y     N D     ^ [ | :.    i.h.z.S.",
"1     1 7     f           7.[         7.f.z.n.J.",
"6     6 w     c         7.| |         7.c.n.V.U.",
"7 1 7 w y f c N N K I ~ [ | =.2.9.i.f.c.n.D.K.!.",
"y 6 w y f g N N L T ~ [ | =.2.6.i.f.z.n.D.K.I.!.",
"y w y f c N D K T ~ [ | =.2.6.t.f.z.n.C.K.I.!.'.",
"f y f c N D G I ( [ | %.2.6.t.a.z.n.D.K.I.E.(.{.",
"g f c b N K T ~ [ | =.:.6.t.f.z.n.A.K.I.E.(.'. X",
"N g b N K I ~ [ | =.2.6.t.f.z.n.A.J.L.!.(.[.{.oX",
"Z N N L I ~ _ | =.2.6.t.f.z.n.A.L.Y.Y.(.'.{.XX*X",
"K Z K L ~ [ | =.:.6.t.a.z.n.V.J.L.!.(.'.|.XX@X-X",
"L K T   [ | =.:.6.t.a.z.n.V.J.L.!.!.'.{.XX@X*X,X",
"T L   [   =.    t.  z.  V.  I.!.  '.|.    *X:X1X",
"~ ~       :.  t.h.  n.  J.    (.  [.  @X*X:X,X4X",
"[ _   =.  6.t.  z.c.  J.I.  ^.    XX  *X:X,X4X6X",
"| |   :.  t.    n.C.  I.E.  '.{.  oX*X    4X6X8X",
"%.=.:.4.t.d.z.c.C.J.L.E.^.'.{.XXoX*X;X1X1X6X8XqX",
"q.6.t.d.z.c.A.J.L.Y.!.'.[.|.oX$X*X,X1X4X6X8XqXwX"
};
