/* XPM */
static char *TGLCustomSpritePFXManager[] = {
/* columns rows colors chars-per-pixel */
"24 24 207 2",
"   c black",
".  c #0080FF",
"X  c #EF970A",
"o  c #EF970C",
"O  c #EF980E",
"+  c #EF9810",
"@  c #EF9912",
"#  c #EF9A12",
"$  c #F09B15",
"%  c #F09B16",
"&  c #F09C16",
"*  c #F09C18",
"=  c #F09D18",
"-  c #F09D1A",
";  c #F09D1B",
":  c #F09E1A",
">  c #F09E1B",
",  c #F09D1C",
"<  c #F09E1C",
"1  c #F09F1E",
"2  c #F09F1F",
"3  c #F09F20",
"4  c #F0A01F",
"5  c #F0A020",
"6  c #F0A120",
"7  c #F1A124",
"8  c #F1A125",
"9  c #F0A224",
"0  c #F1A224",
"q  c #F1A328",
"w  c #F1A329",
"e  c #F1A32A",
"r  c #F1A429",
"t  c #F1A42A",
"y  c #F1A62C",
"u  c #F1A62D",
"i  c #F1A62E",
"p  c #F1A62F",
"a  c #F1A72F",
"s  c #F2A730",
"d  c #F2A732",
"f  c #F2A834",
"g  c #F2A934",
"h  c #F2A935",
"j  c #F2A836",
"k  c #F2A937",
"l  c #F2AA39",
"z  c #F2AB39",
"x  c #F2AA3A",
"c  c #F2AB3A",
"v  c #F2AB3B",
"b  c #F2AD3F",
"n  c #F3AD3F",
"m  c #F2AD40",
"M  c #F3AD40",
"N  c #F3AD41",
"B  c #F2AE40",
"V  c #F2AE41",
"C  c #F3AE41",
"Z  c #F3AF45",
"A  c #F3AF46",
"S  c #F3B044",
"D  c #F3B045",
"F  c #F3B046",
"G  c #F3B047",
"H  c #F3B249",
"J  c #F3B24A",
"K  c #F3B24B",
"L  c #F3B24C",
"P  c #F3B34C",
"I  c #F3B34D",
"U  c #F4B34C",
"Y  c #F3B551",
"T  c #F4B550",
"R  c #F4B551",
"E  c #F4B552",
"W  c #F4B553",
"Q  c #F4B653",
"!  c #F4B756",
"~  c #F4B757",
"^  c #F4B758",
"/  c #F4B857",
"(  c #F4B858",
")  c #F4B859",
"_  c #F5B95B",
"`  c #F5BA5D",
"'  c #F4BA5E",
"]  c #F5BA5E",
"[  c #F5BA5F",
"{  c #F5BB5E",
"}  c #F5BB5F",
"|  c #F5BB60",
" . c #F5BC63",
".. c #F5BD63",
"X. c #F5BD64",
"o. c #F5BD65",
"O. c #F5BD66",
"+. c #F5BE65",
"@. c #F5BE66",
"#. c #F5BE67",
"$. c #F5BF6A",
"%. c #F6BF69",
"&. c #F5C06A",
"*. c #F5C06B",
"=. c #F5C06C",
"-. c #F6C16D",
";. c #F6C26F",
":. c #F5C370",
">. c #F6C270",
",. c #F6C271",
"<. c #F6C371",
"1. c #F6C372",
"2. c #F6C373",
"3. c #F6C576",
"4. c #F6C577",
"5. c #F6C578",
"6. c #F6C579",
"7. c #F6C679",
"8. c #F6C67A",
"9. c #F6C87E",
"0. c #F7C87E",
"q. c #F7C87F",
"w. c #F7C97F",
"e. c #808080",
"r. c #91CAFF",
"t. c #F7C880",
"y. c #F7C980",
"u. c #F7C982",
"i. c #F7CB83",
"p. c #F7CB84",
"a. c #F7CB85",
"s. c #F7CB86",
"d. c #F7CC86",
"f. c #F7CC87",
"g. c #F7CD8B",
"h. c #F7CE8C",
"j. c #F8CE8C",
"k. c #F8CE8D",
"l. c #F8CF8D",
"z. c #F8D092",
"x. c #F8D193",
"c. c #F8D194",
"v. c #F8D398",
"b. c #F8D39A",
"n. c #F8D499",
"m. c #F8D49A",
"M. c #F9D49A",
"N. c #F8D69F",
"B. c #F8D7A1",
"V. c #F9D6A0",
"C. c #F9D7A0",
"Z. c #F9D8A5",
"A. c #F9D9A6",
"S. c #F9D9A7",
"D. c #F9DAA7",
"F. c #F9DBAA",
"G. c #F9DBAC",
"H. c #FADBAC",
"J. c #FADCAD",
"K. c #FADDB1",
"L. c #FADEB3",
"P. c #FADFB3",
"I. c #FAE0B7",
"U. c #FAE1B8",
"Y. c #FBE1B9",
"T. c #FBE1BA",
"R. c #FBE3BC",
"E. c #FBE3BE",
"W. c #FBE3BF",
"Q. c #FBE4BF",
"!. c #FBE5C2",
"~. c #FBE6C4",
"^. c #FBE6C5",
"/. c #FBE7C7",
"(. c #FBE7C8",
"). c #FCE8CA",
"_. c #FCE9CA",
"`. c #FCE9CD",
"'. c #FCE9CE",
"]. c #FCEACF",
"[. c #FCEBCF",
"{. c #FCEAD0",
"}. c #FCEBD0",
"|. c #FCECD2",
" X c #FCECD3",
".X c #FCEDD5",
"XX c #FCEED6",
"oX c #FCEED7",
"OX c #FCEFD8",
"+X c #FDEFDA",
"@X c #FDF0DA",
"#X c #FDF0DC",
"$X c #FDF1DD",
"%X c #FDF2DF",
"&X c #FDF3E1",
"*X c #FDF3E2",
"=X c #FDF4E4",
"-X c OldLace",
";X c #FEF6E8",
":X c #FEF7E9",
">X c #FEF7EA",
",X c #FEF7ED",
"<X c #FEF8ED",
"1X c #FEF8EE",
"2X c #FEF9F2",
"3X c #FEFBF5",
"4X c gray100",
/* pixels */
"1 + + & - 4 4 7 t y d l v C A U E ~ }  .&.;.4.i.",
"o e.    O   &   4 e.    g       I e.  e.+.  u.  ",
"+   X O +   -   7   y g c C   I Q    .  ;.      ",
"&   O + &   3   t e.  e.C A   _ ~   &.  1.      ",
"-   + & 1   7   y g c   A I   _ }   *.  8.  s.  ",
"1 e.    4 e.  e.g     e.I I   } $.e.  e.y.  f.  ",
"3 % - 4 7 t a g c C A I E _ } +.*.:.8.y.s.l.z.B.",
"7 - 4 7       c C A I E     e.*.      s.  c.  S.",
"t 3 7 e   g c b A I E _   +.  2.  u.s.l.  M.  G.",
"y 3 t d       A       {     e.7.    k.z.M.  S.I.",
"g 7 y g c b   I E _ { +.  2.7.w.  k.z.M.  S.  I.",
"g y g l       E _ {  .$.  7.w.s.  z.M.V.  J.  E.",
"v g l C Z I Y ~ . . . . . . . k.c.M.Z.A.K.P.P.^.",
"C l C Z I E ~ r.4X4X4X4X4X4X4Xr.c.V.S.J.L.P.!./.",
"Z b Z I E ^ . 4X. . . . . . . 4X. S.K.P.T.!.^.`.",
"K Z K E ~ { . 4X. . r.4Xr.. . 4X. J.L.P.W.^._.XX",
"I J E ~ { . . 4X. . r.. 4X. . 4X. . I.Q.^._.[.oX",
"~ E ~ {  .. . 4X. . . r.r.. . 4X. . E./._.|.XX$X",
"_ ~ { +.$.. . 4X. . . 4X. . . 4X. . !._.}.XX@X&X",
"{ { +.$.2.4.. 4X. . . . . . . 4X. /._.`.XX@X$X-X",
"+. .$.2.4.9.. 4X. . . 4X. . . 4X. _.`.XX@X$X-X>X",
"*.$.2.4.9.s.g.r.4X4X4X4X4X4X4Xr._.}.XX@X$X-X>X,X",
":.2.4.w.s.k.z.c.. . . . . . . _.`.XX+X$X&X>X,X2X",
"u.0.s.k.z.c.N.S.F.K.I.R.!./.`.|.XX$X&X-X>X,X2X3X"
};
