/* XPM */
static char *TGLCadencer[] = {
/* columns rows colors chars-per-pixel */
"24 24 223 2",
"   c black",
".  c #800000",
"X  c #CE4300",
"o  c #EE9403",
"O  c #EF9506",
"+  c #EF9507",
"@  c #EF960A",
"#  c #EF970A",
"$  c #EF970C",
"%  c #EF980E",
"&  c #EF990E",
"*  c #EF9810",
"=  c #EF9912",
"-  c #EF9A12",
";  c #F09B15",
":  c #F09B16",
">  c #F09C16",
",  c #F09C18",
"<  c #F09D18",
"1  c #F09D1A",
"2  c #F09D1B",
"3  c #F09E1A",
"4  c #F09E1B",
"5  c #F09D1C",
"6  c #F09E1C",
"7  c #F09F1E",
"8  c #F09F1F",
"9  c #F09F20",
"0  c #F0A01F",
"q  c #F0A020",
"w  c #F0A120",
"e  c #F1A124",
"r  c #F1A125",
"t  c #F0A224",
"y  c #F1A224",
"u  c #F1A328",
"i  c #F1A329",
"p  c #F1A32A",
"a  c #F1A429",
"s  c #F1A42A",
"d  c #F1A52F",
"f  c #F1A62C",
"g  c #F1A62D",
"h  c #F1A62E",
"j  c #F1A62F",
"k  c #F1A72F",
"l  c #F2A730",
"z  c #F2A732",
"x  c #F2A834",
"c  c #F2A934",
"v  c #F2A935",
"b  c #F2A836",
"n  c #F2A937",
"m  c #F2AA39",
"M  c #F2AB39",
"N  c #F2AA3A",
"B  c #F2AB3A",
"V  c #F2AB3B",
"C  c #F2AD3F",
"Z  c #F3AD3F",
"A  c #F2AD40",
"S  c #F3AD40",
"D  c #F2AE40",
"F  c #F3AE40",
"G  c #F3AE41",
"H  c #F3AF45",
"J  c #F3AF46",
"K  c #F3B044",
"L  c #F3B045",
"P  c #F3B046",
"I  c #F3B047",
"U  c #F3B249",
"Y  c #F3B24A",
"T  c #F3B24B",
"R  c #F3B24C",
"E  c #F3B34C",
"W  c #F3B34D",
"Q  c #F4B34C",
"!  c #F3B551",
"~  c #F4B550",
"^  c #F4B551",
"/  c #F4B552",
"(  c #F4B652",
")  c #F4B653",
"_  c #F4B756",
"`  c #F4B757",
"'  c #F4B758",
"]  c #F4B857",
"[  c #F4B858",
"{  c #F4B859",
"}  c #F5B95B",
"|  c #F5BA5D",
" . c #F4BA5E",
".. c #F5BA5E",
"X. c #F5BA5F",
"o. c #F5BB5E",
"O. c #F5BB5F",
"+. c #F4BB60",
"@. c #F5BB60",
"#. c #F5BC63",
"$. c #F5BD63",
"%. c #F5BD64",
"&. c #F5BD66",
"*. c #F5BE66",
"=. c #F5BE67",
"-. c #F5BF6A",
";. c #F6BF69",
":. c #F5C06A",
">. c #F5C06B",
",. c #F5C06C",
"<. c #F5C16D",
"1. c #F6C06C",
"2. c #F6C16D",
"3. c #F6C26F",
"4. c #F5C370",
"5. c #F6C270",
"6. c #F6C271",
"7. c #F6C371",
"8. c #F6C372",
"9. c #F6C373",
"0. c #F5C474",
"q. c #F6C576",
"w. c #F6C577",
"e. c #F6C578",
"r. c #F6C679",
"t. c #F6C67A",
"y. c #F6C87E",
"u. c #F7C87E",
"i. c #F7C87F",
"p. c #808080",
"a. c #F6C880",
"s. c #F7C880",
"d. c #F7C980",
"f. c #F7C981",
"g. c #F7C982",
"h. c #F7CB83",
"j. c #F7CB84",
"k. c #F7CB85",
"l. c #F7CB86",
"z. c #F7CB87",
"x. c #F7CC86",
"c. c #F7CC87",
"v. c #F7CC88",
"b. c #F7CD8B",
"n. c #F7CE8C",
"m. c #F7CF8E",
"M. c #F8CE8C",
"N. c #F8CE8D",
"B. c #F8CF8D",
"V. c #F8D091",
"C. c #F8D092",
"Z. c #F8D193",
"A. c #F8D194",
"S. c #F8D398",
"D. c #F8D399",
"F. c #F8D499",
"G. c #F8D49A",
"H. c #F9D49A",
"J. c #F8D69F",
"K. c #F9D69E",
"L. c #F9D69F",
"P. c #F8D7A1",
"I. c #F9D6A0",
"U. c #F9D7A0",
"Y. c #F9D7A1",
"T. c #F9D8A5",
"R. c #F9D9A6",
"E. c #F9D9A7",
"W. c #F9DAA7",
"Q. c #F9DBAA",
"!. c #F9DBAC",
"~. c #FADBAC",
"^. c #FADCAC",
"/. c #FADCAD",
"(. c #FADDB1",
"). c #FADEB2",
"_. c #FADEB3",
"`. c #FADFB3",
"'. c #FADFB4",
"]. c #FAE0B7",
"[. c #FAE1B8",
"{. c #FBE1B8",
"}. c #FBE1B9",
"|. c #FBE1BA",
" X c #FBE3BC",
".X c #FBE3BE",
"XX c #FBE3BF",
"oX c #FBE4BF",
"OX c #FBE5C2",
"+X c #FBE6C4",
"@X c #FBE6C5",
"#X c #FBE7C7",
"$X c #FBE7C8",
"%X c #FCE9CA",
"&X c #FCE9CD",
"*X c #FCE9CE",
"=X c #FCEACF",
"-X c #FCEBCF",
";X c #FCEAD0",
":X c #FCEBD0",
">X c #FCECD2",
",X c #FCECD3",
"<X c #FCEDD5",
"1X c #FCEED6",
"2X c #FCEED7",
"3X c #FCEFD8",
"4X c #FDEFDA",
"5X c #FDF0DA",
"6X c #FDF0DC",
"7X c #FDF1DD",
"8X c #FDF2DF",
"9X c #FDF3E1",
"0X c #FDF3E2",
"qX c #FDF4E4",
"wX c OldLace",
"eX c #FEF6E8",
"rX c #FEF7E9",
"tX c #FEF7EA",
"yX c #FEF7ED",
"uX c #FEF8ED",
"iX c #FEF8EE",
"pX c #FEF9F2",
"aX c #FEFBF5",
/* pixels */
"7 * * > 1 7 0 r r k l B B G J W / ] o.#.-.3.q.h.",
"$ o + # & * > 1 w r a l x B G U W ) ` #.:.-.9.i.",
"* + # & * 1 1 0 r a X X X X X R / ` o.:.1.9.r.c.",
"> # & * > 1 0 r a X X X X X X . ] #.%.>.9.t.g.B.",
"1 & * > 1 w r a k X . C.C.C.X X . :.-.9.r.y.j.S.",
"7 * > 1 w r a k X X C.C.C.C.C.X . -.9.t.i.b.B.D.",
"9 : 1 0 r a k x X . C.C.C.C.C.  . 9.r.i.c.B.C.Y.",
"r 1 0 r a k x B X . C.C.C.C.C.  . r.g.c.B.Z.D.E.",
"i 9 9 i k c M G X . C.C.C.C.p.p.. g.c.M.Z.D.Y.~.",
"k r i k c M G J X . C.C.C.C.  p.. c.M.Z.K.Y.E.).",
"k i k c B C J E X . C.C.C.p.  C.. M.C.D.L.E.~.].",
"x k c B C J R X X C.C.C.C.  C.C.X . D.K.E.~.].oX",
"B l B G J E ! X . C.C.C.p.p.C.C.X . Y.E.~._.{.+X",
"C B G J R / ` X . C.C.p.  p.C.C.X . Q.~._.{.OX$X",
"H C J U / ' o.X X X X X X X X X X . /.'.{.XX+X&X",
"U J R / ` o.%.X X X X X X X X X X . _.{.XX+X%X1X",
"W U / ' o.%.>.X X X X X X X X X X . {.XX+X%X:X3X",
"` / ` o.%.-.X X X X X X X X X X X X . +X%X:X1X7X",
"` ' o.%.-.8.X X X X X X X X X X X X . %X:X1X5X0X",
"#.o.%.-.8.w.X X X X X X X X X X X X . >X1X3X0XwX",
"%.#.>.9.w.y.. . . . . . . . . . . . . 1X3X0XqXeX",
">.-.8.w.y.k.M.C.A.K.Q.~.`.].oX+X%X&X1X5X7XqXeXyX",
"9.9.w.y.j.b.C.A.K.E.~.`.{.XX+X%X&X1X3X0XwXeXyXpX",
"g.i.j.n.C.D.L.E.Q.).].].OX%X&X>X1X7X0XwXeXyXpXaX"
};
