/* XPM */
static char *TGLGuiLayout[] = {
/* columns rows colors chars-per-pixel */
"24 24 121 2",
"   c black",
".  c #0080FF",
"X  c #EE9403",
"o  c #EF9506",
"O  c #EF9507",
"+  c #EF960A",
"@  c #EF970A",
"#  c #EF970C",
"$  c #EF980E",
"%  c #EF990E",
"&  c #EF9810",
"*  c #EF9912",
"=  c #EF9A12",
"-  c #F09B15",
";  c #F09C16",
":  c #F09C18",
">  c #F09D18",
",  c #F09D1B",
"<  c #F09D1C",
"1  c #F09E1C",
"2  c #F09F1E",
"3  c #F09F20",
"4  c #F0A120",
"5  c #F1A124",
"6  c #F1A125",
"7  c #F1A328",
"8  c #F1A42A",
"9  c #F1A62D",
"0  c #F1A72F",
"q  c #F2A732",
"w  c #F2A935",
"e  c #F2A937",
"r  c #F2AB3A",
"t  c #F2AB3B",
"y  c #F3AE40",
"u  c #F3AE41",
"i  c #F3B046",
"p  c #F3B047",
"a  c #F3B34C",
"s  c #F4B34C",
"d  c #F4B552",
"f  c #F4B652",
"g  c #F4B757",
"h  c #F4B859",
"j  c #F5BA5D",
"k  c #F5BB60",
"l  c #F5BC63",
"z  c #F5BE66",
"x  c #F6BF69",
"c  c #F5C16D",
"v  c #F6C26F",
"b  c #F5C370",
"n  c #F6C270",
"m  c #F6C373",
"M  c #F6C576",
"N  c #F6C577",
"B  c #F7C87E",
"V  c #F7C87F",
"C  c #808080",
"Z  c #F6C880",
"A  c #F7C982",
"S  c #F7CB83",
"D  c #F7CB84",
"F  c #F7CB86",
"G  c #F7CC88",
"H  c #F7CD8B",
"J  c #F7CE8C",
"K  c #F7CF8E",
"L  c #F8D092",
"P  c #F8D194",
"I  c #F8D398",
"U  c #F8D49A",
"Y  c #F8D69F",
"T  c #F9D69E",
"R  c #F8D7A1",
"E  c #F9D8A5",
"W  c #F9D9A6",
"Q  c #F9D9A7",
"!  c #F9DBAA",
"~  c #F9DBAC",
"^  c #FADBAC",
"/  c #FADDB1",
"(  c #FADEB2",
")  c #FADEB3",
"_  c #FAE0B7",
"`  c #FAE1B8",
"'  c #FBE1B8",
"]  c #FBE3BC",
"[  c #FBE3BE",
"{  c #FBE3BF",
"}  c #FBE5C2",
"|  c #FBE6C4",
" . c #FBE7C7",
".. c #FBE7C8",
"X. c #FCE9CA",
"o. c #FCE9CD",
"O. c #FCE9CE",
"+. c #FCEBCF",
"@. c #FCECD2",
"#. c #FCECD3",
"$. c #FCEDD5",
"%. c #FCEED7",
"&. c #FCEFD8",
"*. c #FDEFDA",
"=. c #FDF0DA",
"-. c #FDF0DC",
";. c #FDF1DD",
":. c #FDF2DF",
">. c #FDF3E1",
",. c #FDF3E2",
"<. c #FDF4E4",
"1. c OldLace",
"2. c #FEF6E8",
"3. c #FEF7E9",
"4. c #FEF7EA",
"5. c #FEF7ED",
"6. c #FEF8ED",
"7. c #FEF8EE",
"8. c #FEF9F2",
"9. c #FEFBF5",
"0. c gray100",
/* pixels */
"2 & & ; , , 4 5 7 9 w w t u u s f g j l x v N D ",
"# X O @ % & ; , 4 5 7 9 w t u a a f h k z v b V ",
"& O @ % C C C C C C C C C C C C C C C C C C C H ",
"; @ % & C 0.  . . . . . . . . . . . . 0.  0.  J ",
", % C C C C C C C C C C C C C C C C C C C     P ",
"2 & C 0.  . . . . . . . . . . . . 0.  0.  0.  U ",
"C C C C C C C C C C C C C C C C C C C     0.  R ",
"C 0.  . . . . . . . . . . . . 0.  0.  0.  0.  ! ",
"C       . . . . . . . . . . .         0.  0.  ^ ",
"C 0.0.0.0.0.0.0.0.0.0.0.0.0.0.0.0.0.  0.  0.  / ",
"C 0.0.0.0.0.0.0.0.0.0.0.0.0.0.0.0.0.  0.  0.  ` ",
"C 0.0.0.0.      0.0.0.  0.0.0.0.0.0.  0.  0.  [ ",
"C 0.0.0.  0.0.0.  0.0.  0.0.0.0.0.0.  0.  0.  | ",
"C 0.0.  0.0.0.0.0.  0.  0.0.0.0.0.0.  0.  0.  ..",
"C 0.0.  0.0.0.0.0.0.0.  0.0.0.0.0.0.  0.  0.  o.",
"C 0.0.  0.0.0.      0.  0.0.0.0.0.0.  0.  0.  $.",
"C 0.0.  0.0.0.0.0.  0.  0.0.0.0.0.0.  0.  0.  &.",
"C 0.0.0.  0.0.0.  0.0.  0.0.0.0.0.0.  0.      ;.",
"C 0.0.0.0.      0.0.0.          0.0.  0.  $.=.,.",
"C 0.0.0.0.0.0.0.0.0.0.0.0.0.0.0.0.0.      =.;.1.",
"C 0.0.0.0.0.0.0.0.0.0.0.0.0.0.0.0.0.  $.=.;.1.2.",
"C                                     =.,.1.2.5.",
"b b N V D H L I Y E ^ / ' { | X.+.$.=.;.1.2.5.8.",
"A V D J L I Y E ! / _ { | | o.@.$.;.>.1.2.5.8.9."
};
