/* XPM */
static char *TGLScene[] = {
/* columns rows colors chars-per-pixel */
"24 24 195 2",
"   c black",
".  c #EE9403",
"X  c #EF9506",
"o  c #EF9507",
"O  c #EF960A",
"+  c #EF970A",
"@  c #EF970C",
"#  c #EF980E",
"$  c #EF990E",
"%  c #EF9810",
"&  c #EF9912",
"*  c #EF9A12",
"=  c #F09B15",
"-  c #F09B16",
";  c #F09C16",
":  c #F09C18",
">  c #F09D18",
",  c #F09D1A",
"<  c #F09D1B",
"1  c #F09E1A",
"2  c #F09E1B",
"3  c #F09D1C",
"4  c #F09E1C",
"5  c #F09F1E",
"6  c #F09F1F",
"7  c #F09F20",
"8  c #F0A01F",
"9  c #F0A020",
"0  c #F0A120",
"q  c #F1A124",
"w  c #F1A125",
"e  c #F0A224",
"r  c #F1A224",
"t  c #F1A328",
"y  c #F1A329",
"u  c #F1A429",
"i  c #F1A42A",
"p  c #F1A62C",
"a  c #F1A62D",
"s  c #F1A62E",
"d  c #F1A62F",
"f  c #F1A72F",
"g  c #F2A730",
"h  c #F2A732",
"j  c #F2A834",
"k  c #F2A935",
"l  c #F2A836",
"z  c #F2A937",
"x  c #F2AA39",
"c  c #F2AB39",
"v  c #F2AB3A",
"b  c #F2AB3B",
"n  c #F3AD3F",
"m  c #F3AD40",
"M  c #F3AE40",
"N  c #F3AE41",
"B  c #F3AF45",
"V  c #F3AF46",
"C  c #F3B044",
"Z  c #F3B046",
"A  c #F3B047",
"S  c #F3B249",
"D  c #F3B24A",
"F  c #F3B24B",
"G  c #F3B34C",
"H  c #F3B34D",
"J  c #F4B34C",
"K  c #F4B550",
"L  c #F4B551",
"P  c #F4B552",
"I  c #F4B652",
"U  c #F4B653",
"Y  c #F4B756",
"T  c #F4B757",
"R  c #F4B858",
"E  c #F4B859",
"W  c #F5B95B",
"Q  c #F5BA5D",
"!  c #F4BA5E",
"~  c #F5BB5F",
"^  c #F5BB60",
"/  c #F5BC63",
"(  c #F5BD63",
")  c #F5BD64",
"_  c #F5BD66",
"`  c #F5BE66",
"'  c #F5BE67",
"]  c #F5BF6A",
"[  c #F6BF69",
"{  c #F5C06B",
"}  c #F5C16D",
"|  c #F6C16D",
" . c #F6C26F",
".. c #F5C370",
"X. c #F6C270",
"o. c #F6C271",
"O. c #F6C373",
"+. c #F5C474",
"@. c #F6C576",
"#. c #F6C577",
"$. c #F6C578",
"%. c #F6C67A",
"&. c #F6C87E",
"*. c #F7C87E",
"=. c #F7C87F",
"-. c #808080",
";. c #F6C880",
":. c #F7C980",
">. c #F7C981",
",. c #F7C982",
"<. c #F7CB83",
"1. c #F7CB84",
"2. c #F7CB85",
"3. c #F7CB86",
"4. c #F7CB87",
"5. c #F7CC87",
"6. c #F7CC88",
"7. c #F7CD8B",
"8. c #F7CE8C",
"9. c #F7CF8E",
"0. c #F8CE8C",
"q. c #F8CF8D",
"w. c #F8D091",
"e. c #F8D092",
"r. c #F8D193",
"t. c #F8D194",
"y. c #F8D398",
"u. c #F8D399",
"i. c #F8D49A",
"p. c #F9D49A",
"a. c #F8D69F",
"s. c #F9D69E",
"d. c #F9D69F",
"f. c #F8D7A1",
"g. c #F9D7A1",
"h. c #F9D8A5",
"j. c #F9D9A6",
"k. c #F9D9A7",
"l. c #F9DAA7",
"z. c #F9DBAA",
"x. c #F9DBAC",
"c. c #FADBAC",
"v. c #FADCAC",
"b. c #FADCAD",
"n. c #FADDB1",
"m. c #FADEB2",
"M. c #FADEB3",
"N. c #FADFB3",
"B. c #FADFB4",
"V. c #FAE0B7",
"C. c #FAE1B8",
"Z. c #FBE1B8",
"A. c #FBE1B9",
"S. c #FBE1BA",
"D. c #FBE3BC",
"F. c #FBE3BE",
"G. c #FBE3BF",
"H. c #FBE4BF",
"J. c #FBE5C2",
"K. c #FBE6C4",
"L. c #FBE6C5",
"P. c #FBE7C7",
"I. c #FBE7C8",
"U. c #FCE8CA",
"Y. c #FCE9CA",
"T. c #FCE9CD",
"R. c #FCE9CE",
"E. c #FCEACF",
"W. c #FCEBCF",
"Q. c #FCEAD0",
"!. c #FCEBD0",
"~. c #FCECD2",
"^. c #FCECD3",
"/. c #FCEDD5",
"(. c #FCEED6",
"). c #FCEED7",
"_. c #FCEFD8",
"`. c #FDEFDA",
"'. c #FDF0DA",
"]. c #FDF0DC",
"[. c #FDF1DD",
"{. c #FDF2DF",
"}. c #FDF3E1",
"|. c #FDF3E2",
" X c #FDF4E4",
".X c OldLace",
"XX c #FEF6E8",
"oX c #FEF7E9",
"OX c #FEF7EA",
"+X c #FEF7ED",
"@X c #FEF8ED",
"#X c #FEF8EE",
"$X c #FEF9F2",
"%X c #FEFBF5",
"&X c gray100",
/* pixels */
"5 % % ; , 5 8 w w f h j b N A H K W ~ ^ ] o.$.5.",
"@ . o + $ % ; , 0 w i d j b N A H K T ^ _ | o.&.",
"% o + $ % , , 8 w i d j b N A H K W ~ _ | +.$.7.",
"; + $ % ; , 8 w                           $.<.9.",
", $ % ; , 0 w   -.&X&X&X&X&X&X&X&X&X&X    <.7.t.",
"5 % ; , 0 w   &X-.&X&X&X&X&X&X&X&X&X  &X  5.8.u.",
"7 - , 8 w   &X&X-.&X&X&X&X&X&X&X&X  &X&X  8.t.g.",
"w , 8 w   &X&X&X-.&X&X&X&X&X&X&X  &X&X&X  w.u.h.",
"y 0 w                           &X&X&X&X  u.g.z.",
"d 0 i   &X&X&X&X-.&X&X&X&X&X&X  &X&X&X&X  g.z.B.",
"d y d   &X&X&X&X-.&X&X&X&X&X&X  &X&X&X&X  h.v.Z.",
"j d j   &X&X&X&X-.&X&X&X&X&X&X  &X&X&X&X  v.B.H.",
"c j c   &X&X&X&X-.&X&X&X&X&X&X  &X&X&X&X  N.Z.P.",
"n c m   &X&X&X&X-.&X&X&X&X&X&X  &X&X&X&X  Z.G.P.",
"m n V   &X&X&X&X-.&X&X&X&X&X&X  &X&X&X&X  G.P.T.",
"F A F   &X&X&X&X-.-.-.-.-.-.-.  -.-.-.-.  P.Y.~.",
"K F K   &X&X&X-.&X&X&X&X&X&X&X  &X&X&X  P.Y.~.).",
"Y K W   &X&X-.&X&X&X&X&X&X&X&X  &X&X  J.Y.T.(.[.",
"W Y ~   &X-.&X&X&X&X&X&X&X&X&X  &X  P.Y.Q.(.'.}.",
"^ ~ ^   -.&X&X&X&X&X&X&X&X&X&X    P.Y.T.(.'.[..X",
"] ^ {                           P.Y.Q.(.'.[..XOX",
"| ] o.$.&.2.8.w.u.d.h.v.N.Z.G.K.Y.T.(.'.[..XOX+X",
"..o.$.&.<.7.w.u.d.h.z.N.Z.G.K.Y.T.(.'.[.}.OX+X$X",
",.=.2.8.w.u.d.h.z.N.B.G.J.P.T.~.(.[.}..XoX+X$X%X"
};
