/* XPM */
static char *TGLSLBumpShader[] = {
/* columns rows colors chars-per-pixel */
"24 24 162 2",
"   c #060B0E",
".  c #0C0C0B",
"X  c #0D161C",
"o  c #17140C",
"O  c #1E1E1C",
"+  c #13212C",
"@  c #192D3A",
"#  c #21211D",
"$  c #312713",
"%  c #322A1B",
"&  c #272727",
"*  c #2A2A29",
"=  c #322F29",
"-  c #31312B",
";  c #3B3B34",
":  c #1D3547",
">  c #1E3749",
",  c #1F3849",
"<  c #213847",
"1  c #20394B",
"2  c #244257",
"3  c #254358",
"4  c #284355",
"5  c #2B4D64",
"6  c #2C4F68",
"7  c #2F5068",
"8  c #305774",
"9  c #335A75",
"0  c #335B78",
"q  c #513F1B",
"w  c #423822",
"e  c #594B2B",
"r  c #5D5134",
"t  c #624E29",
"y  c #6C5427",
"u  c #74603B",
"i  c #4D4D44",
"p  c #4D4D4D",
"a  c #545448",
"s  c #535352",
"d  c #595955",
"f  c #5D5D5B",
"g  c #646455",
"h  c #63635B",
"j  c #646463",
"k  c #6B6B64",
"l  c #6B6B6A",
"z  c #707067",
"x  c #72726D",
"c  c #797969",
"v  c #747473",
"b  c #7C7C74",
"n  c #7B7B7A",
"m  c #366383",
"M  c #386585",
"N  c #3D6E92",
"B  c #3F7094",
"V  c #426F8D",
"C  c #437394",
"Z  c #497B9C",
"A  c #467CA4",
"S  c #4681AC",
"D  c #4C85AB",
"F  c #4A86B1",
"G  c #4C88B2",
"H  c #508AB2",
"J  c #5692B9",
"K  c #5192C0",
"L  c #569CCD",
"P  c #5C9DC5",
"I  c #57A2D7",
"U  c #5AA4DA",
"Y  c #5EA8DE",
"T  c #5FAAE0",
"R  c #63A8D3",
"E  c #64ACDE",
"W  c #60AAE0",
"Q  c #836A36",
"!  c #96753C",
"~  c #987C44",
"^  c #867C6B",
"/  c #B68833",
"(  c #85857B",
")  c #EE9405",
"_  c #EF960A",
"`  c #EF980E",
"'  c #EF9912",
"]  c #F09B15",
"[  c #F09D1B",
"{  c #F09F20",
"}  c #F0A01E",
"|  c #F0A123",
" . c #F1A42A",
".. c #F1A92D",
"X. c #F2A732",
"o. c #F1A933",
"O. c #F2AC39",
"+. c #C89F52",
"@. c #CEA151",
"#. c #D3A350",
"$. c #D5AA5C",
"%. c #D9B066",
"&. c #DCB871",
"*. c #F3AE40",
"=. c #F3B244",
"-. c #F3B44C",
";. c #F4B84C",
":. c #F4B653",
">. c #F4B854",
",. c #F4B95A",
"<. c #F5BC63",
"1. c #F5BF69",
"2. c #F5C164",
"3. c #F5C16C",
"4. c #F5C373",
"5. c #F6C679",
"6. c #F6C87E",
"7. c #828282",
"8. c #8B8B8B",
"9. c #93938C",
"0. c #9A9081",
"q. c #9B9B8C",
"w. c #949494",
"e. c #999991",
"r. c #9C9C9B",
"t. c #A1A199",
"y. c #A4A4A3",
"u. c #AAAAA5",
"i. c #ACACAB",
"p. c #B2B2A2",
"a. c #B2B2AC",
"s. c #B2B2B2",
"d. c #BABAB6",
"f. c #BCBCBB",
"g. c #C9BA9E",
"h. c #C0C0BF",
"j. c #D4C5A9",
"k. c #F6CA83",
"l. c #F7CD8B",
"z. c #F8D08F",
"x. c #F8D194",
"c. c #F8D49B",
"v. c #E4D5B9",
"b. c #EEDBBB",
"n. c #F9D7A0",
"m. c #F8D8A3",
"M. c #F9DBA9",
"N. c #F9DDB0",
"B. c #FAE1B5",
"V. c #FAE3BC",
"C. c #C4C4C1",
"Z. c #C8C8C6",
"A. c #CACAC9",
"S. c #FAE5C3",
"D. c #FBE9CC",
"F. c #FCECD3",
"G. c #FDEFDA",
"H. c #FCF0DC",
"J. c #FDF4E3",
"K. c #FEF6E9",
"L. c #FEF8ED",
"P. c #FEF9F3",
/* pixels */
"[ ` ' ' } ] } }  . .X.o.O.*.=.-.:.:.,.<.1.3.4.k.",
"` ) _ _ _ ' ] } } | p & o.O.*.=.-.:.,.<.<.3.4.k.",
"' ) _ ` ' ] } } | p i.y.j *.j l >.,.,.1.3.4.5.l.",
"' _ ` ' ' } } |  .s y.s.y.w.l d l ,.1.3.4.5.k.l.",
"[ ' } } } }  . .X.O.f w.i.s.s.v l 2.4.4.6.6.k.x.",
"| }  .....o.O.O.*.*.=.-.s i.Z.r.x x f n k.l.z.c.",
"....O.O.;.;.;.;.-.>.,.,.1.1.v 9.u.C.Z.u.k x.c.m.",
"=./ q $ $ Q +.t $ ! 1.1.%.u % O b h.l * k b c.M.",
"y + V D D 5 r m S # 4.&.r 9 S S 3 d 6 G @ s M.N.",
"o P P 9 D I 5 F Y   q.i 5 I B F Y + 9 Y 1 j B.V.",
"5 R 4 X 2 5 + G Y   p.g 2 T F M 3 a 9 Y , z V.V.",
"9 R , 9 U Y 9 G E   f c - 3 M J Y 3 8 I , i ^ b.",
"@ R D @ m Y 9 G T 9 0 , A T 6 0 Y 6 9 I C 0 7 ^ ",
"w 5 J U L B X F T Y Y 9 + F T T A   9 I E W H = ",
"/ e o . . ; g #       ; a O     - k ; .     * 0.",
"@.@.$.9.u.a.a.a.a.f.f.d.e.( y.s.s.y.^ g.j.v.F.F.",
",.s v x r.g.j.d.Z.A.A.A.i.8.d.s.w.v b S.D.D.F.G.",
",.r.h.l 8.D i.h.h.C.C.y.j y.s.l v b.S.S.D.D.G.H.",
",.v A.8.w.8.8.r.i.y.w.8.p y.r.j s b.S.D.D.G.G.J.",
"<.X 8.f.l 7.r.8.s.i.i.7.f s.s.8.l S.D.D.G.G.H.J.",
"1.1.1.p d j v 7.w.w.n n y.8.s.Z.d.n F.F.G.H.J.L.",
"1.1.1.k.k.j w.w.7.8.i.Z.C.r.v i.i.v F.G.G.J.J.L.",
"1.1.1.k.k.l.j s j l n 7.w.j S.D.D.F.G.H.J.L.L.P.",
"k.l.k.l.x.x.n.M.N.N.N.b.S.D.D.G.G.G.J.J.K.L.P.P."
};
