/* XPM */
static char *TGLThorFXManager[] = {
/* columns rows colors chars-per-pixel */
"24 24 180 2",
"   c black",
".  c #0066CC",
"X  c #0080FF",
"o  c #F09B15",
"O  c #F09B16",
"+  c #F09C16",
"@  c #F09C18",
"#  c #F09D1A",
"$  c #F09E1A",
"%  c #F09D1C",
"&  c #F09F1F",
"*  c #F0A01F",
"=  c #F0A020",
"-  c #F0A120",
";  c #F1A124",
":  c #F0A224",
">  c #F1A224",
",  c #F1A328",
"<  c #F1A329",
"1  c #F1A429",
"2  c #F1A42A",
"3  c #F1A52F",
"4  c #F1A62C",
"5  c #F1A62D",
"6  c #F1A62E",
"7  c #F1A62F",
"8  c #F1A72F",
"9  c #F2A730",
"0  c #F2A732",
"q  c #F2A834",
"w  c #F2A934",
"e  c #F2A836",
"r  c #F2A937",
"t  c #F2AA39",
"y  c #F2AB39",
"u  c #F2AA3A",
"i  c #F2AB3A",
"p  c #F2AB3B",
"a  c #F2AD3F",
"s  c #F3AD3F",
"d  c #F2AD40",
"f  c #F3AD40",
"g  c #F2AE40",
"h  c #F3AE40",
"j  c #F3AE41",
"k  c #F3AF45",
"l  c #F3AF46",
"z  c #F3B044",
"x  c #F3B045",
"c  c #F3B046",
"v  c #F3B047",
"b  c #F3B249",
"n  c #F3B24A",
"m  c #F3B24B",
"M  c #F3B34B",
"N  c #F3B24C",
"B  c #F3B34D",
"V  c #F4B34C",
"C  c #F4B550",
"Z  c #F4B551",
"A  c #F4B552",
"S  c #F4B653",
"D  c #F4B756",
"F  c #F4B757",
"G  c #F4B857",
"H  c #F4B858",
"J  c #F4B859",
"K  c #F5B95B",
"L  c #F4BA5E",
"P  c #F5BA5E",
"I  c #F5BB60",
"U  c #F5BD63",
"Y  c #F5BD64",
"T  c #F5BD66",
"R  c #F5BE66",
"E  c #F5BE67",
"W  c #F5BF6A",
"Q  c #F6BF69",
"!  c #F5C06A",
"~  c #F5C06B",
"^  c #F5C06C",
"/  c #F6C06C",
"(  c #F6C16D",
")  c #F5C370",
"_  c #F6C270",
"`  c #F6C271",
"'  c #F6C371",
"]  c #F6C372",
"[  c #F6C373",
"{  c #F5C474",
"}  c #F6C576",
"|  c #F6C577",
" . c #F6C578",
".. c #F6C678",
"X. c #F6C679",
"o. c #F6C67A",
"O. c #F6C87E",
"+. c #F7C87E",
"@. c #F7C87F",
"#. c #85A7E4",
"$. c #F7C980",
"%. c #F7C981",
"&. c #F7C982",
"*. c #F7CB84",
"=. c #F7CB85",
"-. c #F7CB86",
";. c #F7CC87",
":. c #F7CC88",
">. c #F7CD8B",
",. c #F7CE8C",
"<. c #F8CD8C",
"1. c #F8CE8C",
"2. c #F8CE8D",
"3. c #F8CF8D",
"4. c #F7D092",
"5. c #F8D091",
"6. c #F8D092",
"7. c #F8D192",
"8. c #F8D193",
"9. c #F8D194",
"0. c #F8D398",
"q. c #F8D399",
"w. c #F8D49A",
"e. c #F9D49A",
"r. c #F8D69F",
"t. c #F9D69E",
"y. c #F9D69F",
"u. c #F8D7A1",
"i. c #F9D6A0",
"p. c #F9D7A0",
"a. c #F9D7A1",
"s. c #F9D8A5",
"d. c #F9D9A6",
"f. c #F9D9A7",
"g. c #F9DAA7",
"h. c #F9DBAA",
"j. c #F9DBAC",
"k. c #FADBAC",
"l. c #FADCAC",
"z. c #FADCAD",
"x. c #FADDB1",
"c. c #FADEB2",
"v. c #FADEB3",
"b. c #FADFB3",
"n. c #FADFB4",
"m. c #FAE0B7",
"M. c #FAE1B8",
"N. c #FBE1B8",
"B. c #FBE1B9",
"V. c #FBE1BA",
"C. c #FBE3BC",
"Z. c #FBE3BE",
"A. c #FBE3BF",
"S. c #FBE4BF",
"D. c #CAE4FF",
"F. c #CCE6FF",
"G. c #FBE5C2",
"H. c #FBE6C4",
"J. c #FBE6C5",
"K. c #FBE7C7",
"L. c #FBE7C8",
"P. c #FCE9CA",
"I. c #FCE9CD",
"U. c #FCE9CE",
"Y. c #FCEBCF",
"T. c #FCEAD0",
"R. c #FCEBD0",
"E. c #FCECD2",
"W. c #FCECD3",
"Q. c #FCEDD5",
"!. c #FCEED6",
"~. c #FCEED7",
"^. c #FCEFD8",
"/. c #FDEFDA",
"(. c #FDF0DA",
"). c #FDF1DD",
"_. c #FDF2DF",
"`. c #FDF3E2",
"'. c OldLace",
"]. c #FEF7EA",
/* pixels */
"#.D.#.#.F.F.= ; 1 4 0 w p k c V S S S Q Q Q | | ",
"      D.  F.  F.      8     k c       P   |   =.",
"F.  #.#.  #.  F.  1   w   k   N   T T R   |   >.",
"o   F.#.      #.  F.  p     N S     R ( ]   &.0.",
"@   F.F.  #.  D.  F.  F.  N   J   ( ( ]   =.  0.",
"%   O $   F.  #.      F.  F.  P   ( ] o.  >.  0.",
"= O @ = > F.F.#.#.D.D.#.F.F.F.F.W ] o.%.=.3.9.s.",
"; @ = > 1 8 w F.F.#.#.D.X X . . . o.%.=.3.9.0.g.",
"< = ; < 4 0 p p c . X X D.X X . . . . >.5.0.t.h.",
"4 ; < 4 w y k c M S . . X D.D.X X . . . 0.s.s.m.",
"0 < 0 w y k c . . . . D.. X X D.X X . . s.d.z.m.",
"e 4 w y p . . . . . . . . X X D.F.X . . d.z.m.C.",
"y e y p l . . . . . X X X D.D.X X X . . l.b.N.H.",
"k w a M M . . . X X X D.D.X X . . . . h.m.N.S.K.",
"l a l N S . . . X D.D.X . . . . . . . m.M.A.H.Y.",
"c l M A G . . . X X D.D.X . . y.s.h.m.m.A.K.P.!.",
"S M S F L T W . . . X X D.X X . . b.N.G.H.P.I.~.",
"F V G L P ( ] X.. . . X X D.D.X . . A.H.P.E.!.).",
"J F L T W ] X.+.=.3.. . . X X D.X X . . E.!.~.'.",
"I L T W ] | +.=.3.5.0.. . . X X D.D.X . . ~._.'.",
"W P W ' | +.=.1.5.0.y.s.l.. . . X X F.X X . . ].",
"( W ' X.O.=.1.5.0.r.s.z.v.M.. . . X X F.F.. . . ",
"] ' | O.=.>.5.0.r.s.h.v.N.A.H.P.. . . X X F.X X ",
"&.O.-.1.5.0.r.s.g.v.m.A.G.K.I.E.^.. . . X X F.F."
};
