/* XPM */
static char *TScreenSaver[] = {
/* columns rows colors chars-per-pixel */
"24 24 221 2",
"   c black",
".  c #EE9403",
"X  c #EF9506",
"o  c #EF9507",
"O  c #EF960A",
"+  c #EF970A",
"@  c #EF970C",
"#  c #EF980E",
"$  c #EF990E",
"%  c #EF9810",
"&  c #EF9912",
"*  c #EF9A12",
"=  c #F09B15",
"-  c #F09B16",
";  c #F09C16",
":  c #F09C18",
">  c #F09D18",
",  c #F09D1A",
"<  c #F09D1B",
"1  c #F09E1A",
"2  c #F09E1B",
"3  c #F09D1C",
"4  c #F09E1C",
"5  c #F09F1E",
"6  c #F09F1F",
"7  c #F09F20",
"8  c #F0A01F",
"9  c #F0A020",
"0  c #F0A120",
"q  c #F1A124",
"w  c #F1A125",
"e  c #F0A224",
"r  c #F1A224",
"t  c #F1A328",
"y  c #F1A329",
"u  c #F1A429",
"i  c #F1A42A",
"p  c #F1A52F",
"a  c #F1A62C",
"s  c #F1A62D",
"d  c #F1A62E",
"f  c #F1A62F",
"g  c #F1A72F",
"h  c #F2A730",
"j  c #F2A732",
"k  c #F2A834",
"l  c #F2A934",
"z  c #F2A935",
"x  c #F2A836",
"c  c #F2A937",
"v  c #F2AA39",
"b  c #F2AB39",
"n  c #F2AA3A",
"m  c #F2AB3A",
"M  c #F2AB3B",
"N  c #F2AD3F",
"B  c #F3AD3F",
"V  c #F2AD40",
"C  c #F3AD40",
"Z  c #F2AE40",
"A  c #F3AE40",
"S  c #F3AE41",
"D  c #F3AF45",
"F  c #F3AF46",
"G  c #F3B044",
"H  c #F3B046",
"J  c #F3B047",
"K  c #F3B249",
"L  c #F3B24A",
"P  c #F3B24B",
"I  c #F3B24C",
"U  c #F3B34C",
"Y  c #F3B34D",
"T  c #F4B34C",
"R  c #F4B550",
"E  c #F4B551",
"W  c #F4B552",
"Q  c #F4B652",
"!  c #F4B653",
"~  c #F4B756",
"^  c #F4B757",
"/  c #F4B857",
"(  c #F4B858",
")  c #F4B859",
"_  c #F5B95B",
"`  c #F5BA5D",
"'  c #F4BA5E",
"]  c #F5BA5E",
"[  c #F5BB5F",
"{  c #F4BB60",
"}  c #F5BB60",
"|  c #F5BC63",
" . c #F5BD63",
".. c #F5BD64",
"X. c #F5BD66",
"o. c #F5BE66",
"O. c #F5BE67",
"+. c #F5BF6A",
"@. c #F6BF69",
"#. c #F5C06A",
"$. c #F5C06B",
"%. c #F5C06C",
"&. c #F5C16D",
"*. c #F6C16D",
"=. c #F6C26F",
"-. c #F5C370",
";. c #F6C270",
":. c #F6C271",
">. c #F6C371",
",. c #F6C372",
"<. c #F6C373",
"1. c #F5C474",
"2. c #F6C576",
"3. c #F6C577",
"4. c #F6C578",
"5. c #F6C679",
"6. c #F6C67A",
"7. c #F6C87E",
"8. c #F7C87E",
"9. c #F7C87F",
"0. c #808080",
"q. c #F6C880",
"w. c #F7C980",
"e. c #F7C981",
"r. c #F7C982",
"t. c #F7CB83",
"y. c #F7CB84",
"u. c #F7CB85",
"i. c #F7CB86",
"p. c #F7CB87",
"a. c #F7CC87",
"s. c #F7CC88",
"d. c #F7CD8B",
"f. c #F7CE8C",
"g. c #F7CF8E",
"h. c #F8CD8C",
"j. c #F8CE8C",
"k. c #F8CE8D",
"l. c #F8CF8D",
"z. c #F7D092",
"x. c #F8D091",
"c. c #F8D092",
"v. c #F8D192",
"b. c #F8D193",
"n. c #F8D194",
"m. c #F8D398",
"M. c #F8D399",
"N. c #F8D499",
"B. c #F8D49A",
"V. c #F9D49A",
"C. c #F8D69F",
"Z. c #F9D69E",
"A. c #F9D69F",
"S. c #F8D7A1",
"D. c #F9D6A0",
"F. c #F9D7A0",
"G. c #F9D7A1",
"H. c #F9D8A5",
"J. c #F9D9A5",
"K. c #F9D9A6",
"L. c #F9D9A7",
"P. c #F9DAA7",
"I. c #F9DBAA",
"U. c #F9DBAC",
"Y. c #FADBAC",
"T. c #FADCAB",
"R. c #FADCAC",
"E. c #FADCAD",
"W. c #FADDB1",
"Q. c #FADEB2",
"!. c #FADEB3",
"~. c #FADFB3",
"^. c #FADFB4",
"/. c #FAE0B7",
"(. c #FAE1B8",
"). c #FAE1B9",
"_. c #FBE1B8",
"`. c #FBE1B9",
"'. c #FBE1BA",
"]. c #FBE3BC",
"[. c #FBE3BE",
"{. c #FBE3BF",
"}. c #FBE4BF",
"|. c #C0C0C0",
" X c #FBE5C2",
".X c #FBE6C4",
"XX c #FBE6C5",
"oX c #FBE7C7",
"OX c #FBE7C8",
"+X c #FCE8CA",
"@X c #FCE9CA",
"#X c #FCE9CD",
"$X c #FCE9CE",
"%X c #FCEACF",
"&X c #FCEBCF",
"*X c #FCEAD0",
"=X c #FCEBD0",
"-X c #FCECD2",
";X c #FCECD3",
":X c #FCEDD5",
">X c #FCEED6",
",X c #FCEED7",
"<X c #FCEFD8",
"1X c #FDEFDA",
"2X c #FDF0DA",
"3X c #FDF0DC",
"4X c #FDF1DD",
"5X c #FDF2DF",
"6X c #FDF3E1",
"7X c #FDF3E2",
"8X c #FDF4E4",
"9X c OldLace",
"0X c #FEF6E8",
"qX c #FEF7E9",
"wX c #FEF7EA",
"eX c #FEF7ED",
"rX c #FEF8ED",
"tX c #FEF8EE",
"yX c #FEF9F2",
"uX c #FEFBF5",
"iX c gray100",
/* pixels */
"5 % % ; , 8 8 w t s j M M V F T Q ^ [ { +.<.4.p.",
"@ . o + % % ; , 8 w u s z M V F U Q ^ { X.*.>.e.",
"% o + $ % ; , 8 w u h z M S J Y Q ) [ X.*.3.4.s.",
"; + $ % ; , 8 w u g z M V J Y ! /  .X.+.<.4.e.d.",
", $ % ; , iXiXiXiXiXiXiXiXiXiXiXiXiXiX3.4.e.p.n.",
"5 % ; , 9 iX|.|.|.|.|.|.|.|.|.|.|.|.0.4.e.s.d.B.",
"7 - , 8 w iX|.0.0.0.0.0.0.0.0.0.0.|.0.e.s.l.n.S.",
"w , 8 w u iX|.0.                iX|.0.p.l.x.B.J.",
"y 6 w y s iX|.0.  iX        iX  iX|.0.h.n.m.A.Y.",
"s w y s z iX|.0.      iX        iX|.0.n.Z.G.I.Q.",
"s y h z M iX|.0.                iX|.0.m.A.I.R._.",
"z s h M N iX|.0.          iX    iX|.0.A.J.R.!.{.",
"M j M N F iX|.0.  iX            iX|.0.J.W.^.^..X",
"V M V F P iX|.0.                iX|.0.Y.^.^. XOX",
"F S F T ! iX|.iXiXiXiXiXiXiXiXiXiX|.0.^.^. X.X=X",
"K V P ! / iX|.|.|.|.|.|.|.|.|.|.|.|.0.^. XOX@X=X",
"! K ! ! { iX|.0.0.0.0.0.0.0.0.0.0.0.0.{..X@X&X<X",
"! ! ! [ X.+.<.4.|.0.0.0.0.0.0.0.!._.{..X@X-X>X4X",
"_ ! [ X.+.|.|.|.|.|.|.|.|.|.|.|.|.|.|.@X=X>X<X8X",
"[ [ X.+.<.3.7.u.d.x.m.Z.J.R.!._.{..XoX-X>X<X4X9X",
"X. .+.>.3.7.y.h.z.m.A.I.R.Q._.}..X@X=X>X<X4X9XwX",
"*.+.<.4.7.u.h.x.m.Z.J.R.Q._.{..X@X#X>X<X6X9XwXeX",
">.<.3.7.u.d.x.m.Z.J.R.~._.{..X@X=X>X1X4X6XwXeXyX",
"e.7.p.d.x.m.A.J.I.Q./.{.{.oX#X-X1X1X6X9XwXeXyXuX"
};
