<?xml version="1.0" encoding="UTF-8" standalone="no"?>
<svg
   viewBox="0 0 22 22"
   version="1.1"
   id="svg8"
   sodipodi:docname="i30.svg"
   inkscape:version="1.1.2 (0a00cf5339, 2022-02-04)"
   xmlns:inkscape="http://www.inkscape.org/namespaces/inkscape"
   xmlns:sodipodi="http://sodipodi.sourceforge.net/DTD/sodipodi-0.dtd"
   xmlns="http://www.w3.org/2000/svg"
   xmlns:svg="http://www.w3.org/2000/svg"
   xmlns:rdf="http://www.w3.org/1999/02/22-rdf-syntax-ns#"
   xmlns:cc="http://creativecommons.org/ns#"
   xmlns:dc="http://purl.org/dc/elements/1.1/">
  <metadata
     id="metadata12">
    <rdf:RDF>
      <cc:Work
         rdf:about="">
        <dc:format>image/svg+xml</dc:format>
        <dc:type
           rdf:resource="http://purl.org/dc/dcmitype/StillImage" />
      </cc:Work>
    </rdf:RDF>
  </metadata>
  <sodipodi:namedview
     pagecolor="#ffffff"
     bordercolor="#666666"
     borderopacity="1"
     objecttolerance="10"
     gridtolerance="10"
     guidetolerance="10"
     inkscape:pageopacity="0"
     inkscape:pageshadow="2"
     inkscape:window-width="1396"
     inkscape:window-height="1064"
     id="namedview10"
     showgrid="false"
     inkscape:zoom="10.727273"
     inkscape:cx="11.04661"
     inkscape:cy="11.04661"
     inkscape:window-x="516"
     inkscape:window-y="33"
     inkscape:window-maximized="0"
     inkscape:current-layer="svg8"
     inkscape:pagecheckerboard="0" />
  <defs
     id="defs3051">
    <style
       type="text/css"
       id="current-color-scheme">
      .ColorScheme-Text {
        color:#4d4d4d;
      }
      </style>
  </defs>
  <path
     inkscape:connector-curvature="0"
     style="color:#4d4d4d;fill:currentColor;fill-opacity:1;stroke:none"
     d="m 19,11 a 8,8 0 0 0 -8,-8 8,8 0 0 0 -8,8 8,8 0 0 0 8,8 8,8 0 0 0 8,-8 z m -1,0 a 7,7 0 0 1 -7,7 7,7 0 0 1 -7,-7 7,7 0 0 1 7,-7 7,7 0 0 1 7,7 z"
     class="ColorScheme-Text"
     id="path4" />
  <path
     inkscape:connector-curvature="0"
     style="color:#4d4d4d;fill:currentColor;fill-opacity:0.5;stroke:none"
     d="M 11.736328,3.0351562 C 11.491556,3.0121295 11.245852,3.0003982 11,3 6.581722,3 3,6.581722 3,11 c 0,4.418278 3.581722,8 8,8 0.238064,-0.0018 0.475931,-0.01414 0.712891,-0.03711 C 10.174399,18.568446 9.000075,15.121563 9,11 9.000815,6.8558354 10.18828,3.3993891 11.736328,3.0351562 Z"
     class="ColorScheme-Text"
     id="path6" />
  <path
     style="color:#232629;fill:currentColor;fill-opacity:1;stroke:none;stroke-width:0.490247"
     d="m 9.2117479,7.3796032 5.9516431,5.8075128 h 0.002 v 1.940881 H 14.669066 13.676479 13.17631 v -0.0019 l -5.9516439,-5.8075132 9.933e-4,-9.691e-4 -9.933e-4,-9.691e-4 1.9851724,-1.937098 9.934e-4,9.192e-4 9.933e-4,-9.192e-4 M 10.203438,9.0319515 8.9181158,10.286147 12.683936,13.960771 V 13.19085 h 0.496294 0.496294 V 12.706575 12.420929 L 10.203435,9.0319515 m 3.969379,3.8732515 v 0.769921 H 13.67652 13.180226 v 0.484275 0.285646 l 0.203486,0.198628 h 0.789029 l 0.496294,-0.484274 v -0.769921 l -0.496294,-0.484275"
     class="ColorScheme-Text"
     id="path4-3" />
</svg>
