<?xml version="1.0" encoding="UTF-8" standalone="no"?>
<!-- Created with Inkscape (http://www.inkscape.org/) -->

<svg
   version="1.1"
   id="svg540"
   width="512"
   height="512"
   viewBox="0 0 512 512"
   sodipodi:docname="Databases.svg"
   inkscape:version="1.2.2 (b0a8486541, 2022-12-01)"
   xmlns:inkscape="http://www.inkscape.org/namespaces/inkscape"
   xmlns:sodipodi="http://sodipodi.sourceforge.net/DTD/sodipodi-0.dtd"
   xmlns="http://www.w3.org/2000/svg"
   xmlns:svg="http://www.w3.org/2000/svg">
  <defs
     id="defs544" />
  <sodipodi:namedview
     id="namedview542"
     pagecolor="#ffffff"
     bordercolor="#666666"
     borderopacity="1.0"
     inkscape:showpageshadow="2"
     inkscape:pageopacity="0.0"
     inkscape:pagecheckerboard="0"
     inkscape:deskcolor="#d1d1d1"
     showgrid="false"
     inkscape:zoom="1.0356666"
     inkscape:cx="33.794659"
     inkscape:cy="258.77053"
     inkscape:window-width="1600"
     inkscape:window-height="949"
     inkscape:window-x="147"
     inkscape:window-y="79"
     inkscape:window-maximized="0"
     inkscape:current-layer="g546" />
  <g
     inkscape:groupmode="layer"
     inkscape:label="Image"
     id="g546">
    <path
       id="path550"
       style="fill:#000000;stroke-width:1.32"
       d="m 213.5918,86.771484 c -1.0134,0.148416 -2.21791,-0.04726 -2.96778,0.807647 -20.02045,15.683619 -37.00031,34.804929 -56.68457,50.875949 -1.72178,1.40113 -3.9339,1.97966 -6.05827,2.46697 -4.57659,0.9672 -9.43987,0.33134 -13.6468,-1.70135 -6.43172,-2.97162 -11.42545,-8.14931 -16.44511,-13.00116 -3.48434,-3.44288 -7.05325,-6.92253 -11.40646,-9.25665 -1.30104,-0.92532 -2.37269,-2.29141 -4.03242,-2.57769 -2.643119,-0.57649 -5.193543,1.03539 -6.907533,2.91349 -1.55258,1.78188 -2.694569,4.18242 -2.371091,6.59002 0.257022,1.70617 1.461971,3.05534 2.832412,4.00973 3.307874,2.78361 6.334662,5.88023 9.483532,8.83885 7.08049,6.77076 14.31564,13.77304 23.16176,18.29446 0.82493,0.43311 1.9051,0.91663 2.62241,1.21044 2.72119,1.17344 5.71999,1.45006 8.64423,1.68279 4.50778,0.28927 9.05082,-0.19633 13.42217,-1.31951 0.32066,-0.0959 1.09984,-0.29409 1.58934,-0.4569 1.27842,-0.36019 2.51034,-0.85731 3.58449,-1.65052 9.4171,-6.19559 17.88912,-13.69381 26.05859,-21.42774 7.41783,-7.05547 14.69942,-14.47598 22.198,-21.53415 1.3737,-1.24791 2.67308,-2.59153 4.11205,-3.75917 1.2226,-0.7435 2.65364,-1.10443 3.75831,-2.05433 4.24812,-3.23283 6.30606,-9.055421 5.15177,-14.248918 -0.45198,-1.98967 -1.74228,-3.984488 -3.84086,-4.473473 -0.7317,-0.208251 -1.50105,-0.251537 -2.25817,-0.228785 z m 53.50195,41.994136 c -2.12114,0.35513 -3.3958,2.39331 -4.18555,4.22071 -0.83297,2.06671 -1.26993,4.61779 -0.0376,6.61399 1.01704,1.06085 2.24289,1.90514 3.20041,3.03073 0.47078,0.39633 0.85631,0.99866 1.37667,1.2752 44.45494,0 88.90989,0 133.36484,0 4.06125,-0.66514 8.14475,0.57509 12.20898,0.0606 1.41571,-0.57906 2.67241,-1.56602 3.6755,-2.71067 1.86778,-2.33893 1.97638,-5.66453 0.82841,-8.34793 -0.62262,-1.53422 -1.58465,-2.92913 -2.79101,-4.0625 -48.87891,0 -97.75782,0 -146.63672,0 -0.33437,-0.0296 -0.66715,-0.0948 -1.00391,-0.0801 z m -53.15234,70.01368 c -0.69389,0.14354 -1.5536,-0.12642 -2.06941,0.47971 -14.19674,10.27522 -26.14549,23.1876 -38.92782,35.08518 -2.77298,2.63184 -5.64845,5.16156 -8.50004,7.7003 -2.67023,4.00362 -6.19923,7.5636 -10.6234,9.58099 -4.98759,2.39215 -10.85174,2.48107 -16.08079,0.84795 -6.80076,-2.07899 -12.65956,-6.50084 -17.4594,-11.65304 -1.68056,-1.8652 -3.31304,-3.80824 -4.64383,-5.93562 -1.8939,-4.7201 -6.68932,-7.75845 -11.58586,-8.53124 -3.02207,-0.49027 -6.441646,-0.31772 -8.931719,1.65819 -1.445726,1.33484 -1.515306,3.47639 -1.112356,5.27405 0.239387,1.25421 0.563833,2.58693 1.569768,3.45799 7.167377,8.06363 14.123357,16.41013 22.458607,23.32069 0.43586,0.36163 1.14019,0.93054 1.68554,1.35938 4.29205,3.31226 8.90947,6.32197 14.01463,8.20999 7.28123,1.24643 14.97011,1.434 22.03008,-1.01627 2.32232,-0.7884 4.45145,-2.04594 6.3504,-3.58813 16.43731,-12.36991 30.4318,-27.49388 45.17047,-41.74285 1.62583,-1.56825 3.23526,-3.17678 4.94599,-4.64104 6.04664,-2.34387 9.66841,-9.52358 8.06141,-15.78372 -0.54287,-1.9326 -2.10561,-3.6488 -4.16087,-3.92236 -0.72098,-0.13962 -1.45812,-0.1822 -2.1914,-0.16015 z m 120.39062,41.32031 c -20.74283,0.12292 -41.49955,0.592 -62.21289,1.27148 -2.64785,-0.84752 -5.8168,-0.108 -7.55286,2.13747 -2.30146,2.67574 -3.14104,6.88434 -1.20886,9.98753 0.99242,1.49144 2.68114,2.56735 4.51261,2.48771 8.94824,0.50844 17.90871,0.77749 26.8663,1.06893 35.65593,1.02602 71.46878,0.74788 107.12249,-0.47942 3.70932,-0.13239 7.42422,-0.26138 11.13141,-0.31745 2.03882,-0.23357 3.76549,-1.71243 4.49907,-3.60127 1.28663,-2.85976 1.19608,-6.49895 -0.74097,-9.04797 -1.19261,-1.42824 -3.10989,-1.96004 -4.91168,-1.88911 -16.76707,-0.88057 -33.48287,-1.31241 -50.26971,-1.52144 -9.0778,-0.11187 -18.15655,-0.12875 -27.23491,-0.0965 z m -119.55078,71.13086 c -1.56212,0.10327 -3.17842,0.52093 -4.31075,1.66695 -15.75683,12.16742 -29.52474,26.61197 -44.00334,40.21108 -1.89146,1.84278 -3.91496,3.5552 -5.7467,5.45466 -2.54193,3.09488 -5.7273,5.7664 -9.52866,7.14544 -4.07309,1.59006 -8.64322,1.49777 -12.79288,0.24852 -6.07443,-1.80008 -11.29311,-5.62277 -16.04698,-9.69486 -3.20449,-2.77746 -6.21375,-5.76775 -9.23475,-8.74078 -1.21334,-3.23131 -3.77925,-6.21784 -7.28692,-6.92666 -4.19288,-0.96834 -9.022971,0.45232 -11.680522,3.91817 -1.066474,1.50216 -1.156398,3.54707 -0.327019,5.17652 1.267292,2.97965 4.075528,4.8077 6.264841,7.05053 3.88845,3.71305 7.70086,7.55731 11.6174,11.1545 6.32084,5.77553 13.21932,11.27886 21.4037,14.12206 6.23631,2.26518 13.16206,1.74925 19.42087,-0.14681 2.95382,-0.87401 5.87084,-2.02892 8.3396,-3.90885 15.2702,-10.59072 28.24406,-24.00385 41.41489,-37.00792 3.73263,-3.67931 7.44116,-7.39254 11.32359,-10.91301 1.25559,-0.9141 2.85333,-1.26346 3.96593,-2.39683 3.2952,-2.94668 4.03367,-7.98524 2.60418,-12.0338 -0.73941,-2.01047 -2.24183,-4.08145 -4.52734,-4.34376 -0.28745,-0.0416 -0.57931,-0.0506 -0.86914,-0.0351 z m 52.28125,42.72851 c -3.83962,2.32417 -5.81297,7.65748 -3.82838,11.79594 0.64595,1.14787 1.61188,2.24109 2.86778,2.69156 44.72442,1.52136 89.478,0.53801 134.2156,0.56965 2.36575,-0.0123 4.72663,-0.37798 7.09109,-0.0988 2.27116,0.13164 4.60355,0.5454 6.84668,0.0221 1.39758,-0.69799 2.45059,-1.97151 3.24957,-3.28405 1.44396,-2.72444 0.77438,-6.07465 -0.84243,-8.56675 -0.75019,-1.20062 -1.69757,-2.2792 -2.78741,-3.18242 -48.9069,0 -97.8138,0 -146.7207,0 l -0.0867,0.0498 z" />
  </g>
</svg>
