<?xml version="1.0" encoding="UTF-8" standalone="no"?>
<!-- Created with Inkscape (http://www.inkscape.org/) -->

<svg
   version="1.1"
   id="svg473"
   width="512"
   height="512"
   viewBox="0 0 512 512"
   sodipodi:docname="Lien fenetre.svg"
   inkscape:version="1.2.2 (b0a8486541, 2022-12-01)"
   xmlns:inkscape="http://www.inkscape.org/namespaces/inkscape"
   xmlns:sodipodi="http://sodipodi.sourceforge.net/DTD/sodipodi-0.dtd"
   xmlns="http://www.w3.org/2000/svg"
   xmlns:svg="http://www.w3.org/2000/svg">
  <defs
     id="defs477" />
  <sodipodi:namedview
     id="namedview475"
     pagecolor="#ffffff"
     bordercolor="#666666"
     borderopacity="1.0"
     inkscape:showpageshadow="2"
     inkscape:pageopacity="0.0"
     inkscape:pagecheckerboard="0"
     inkscape:deskcolor="#d1d1d1"
     showgrid="false"
     inkscape:zoom="1.0729879"
     inkscape:cx="261.41953"
     inkscape:cy="259.08958"
     inkscape:window-width="1487"
     inkscape:window-height="951"
     inkscape:window-x="107"
     inkscape:window-y="29"
     inkscape:window-maximized="0"
     inkscape:current-layer="g479" />
  <g
     inkscape:groupmode="layer"
     inkscape:label="Image"
     id="g479">
    <path
       id="path483"
       style="fill:#000000;stroke-width:1.32"
       d="m 329.94727,95.941406 c -5.93106,0.119391 -11.84394,0.527965 -17.60352,1.957032 -0.75491,0.187313 -1.7919,0.459307 -2.64837,0.714529 -6.25371,1.859003 -12.21333,4.620263 -17.88681,7.821523 -5.42171,3.12386 -10.50607,6.84286 -15.13737,11.04939 -2.26346,2.15851 -4.77046,4.39818 -5.58945,7.54232 -1.42589,4.95032 0.23105,10.78713 4.44937,13.87762 3.5483,2.74978 8.61637,3.59709 12.74329,1.67283 4.30871,-1.89221 7.49401,-5.51184 11.43928,-7.98407 6.2244,-4.211 12.90867,-8.07148 20.32812,-9.66585 6.30931,-1.23209 12.77271,-0.88488 19.16131,-0.83298 5.13709,0.17076 10.29086,1.18005 14.94552,3.41196 9.89366,4.20278 18.88719,10.82466 25.18392,19.6008 4.02392,5.5478 7.18287,11.73734 9.27055,18.26567 1.66253,5.77847 1.43306,11.85557 1.45973,17.80511 -0.0754,4.41885 -0.18184,8.90683 -1.48466,13.16799 -1.16151,4.00461 -2.98007,7.78013 -4.87896,11.47894 -1.97901,3.73732 -4.45576,7.18957 -7.25684,10.35305 -6.41456,7.49556 -13.46159,14.41355 -20.36609,21.45072 -13.40473,13.53154 -26.88603,26.98828 -40.50887,40.3003 -6.18087,5.95206 -12.41187,11.88625 -19.1946,17.15604 -5.14651,3.92088 -10.95511,7.10096 -17.28301,8.60772 -7.71239,2.11969 -15.85717,2.73346 -23.7778,1.53943 -11.59129,-1.62511 -22.78563,-6.48325 -31.61905,-14.20685 -2.30657,-1.88479 -4.69331,-4.12877 -7.81218,-4.39185 -3.6698,-0.34476 -7.6826,-0.0879 -10.74992,2.17449 -3.30796,2.42753 -4.62381,6.73825 -4.45443,10.7021 0.002,2.99543 0.86705,6.11987 3.04427,8.27579 3.74272,4.09708 8.32183,7.32079 12.96213,10.31608 6.81891,4.2978 14.08854,7.91518 21.69688,10.58879 5.32984,1.86447 10.91593,2.96536 16.55388,3.27481 9.21918,0.52719 18.53535,0.0239 27.57986,-1.89558 4.81568,-1.03779 9.50089,-2.61724 14.06672,-4.45246 3.79426,-1.57531 7.61807,-3.66932 10.86319,-5.93907 6.62829,-4.74895 12.57166,-10.19675 18.50936,-15.79593 12.06757,-11.39338 23.71589,-23.21897 35.47268,-34.92992 10.89072,-10.94913 21.8398,-21.85083 32.28358,-33.23118 4.42802,-4.92297 8.78465,-9.9776 12.22922,-15.65376 2.91102,-4.87921 4.95773,-10.21094 6.72782,-15.59233 0.11562,-0.37172 0.36846,-1.16965 0.47954,-1.56318 0.97964,-3.31259 1.70569,-6.48935 2.27827,-9.87432 0.0956,-0.63104 0.25376,-1.58605 0.35264,-2.34425 0.23143,-1.66832 0.39391,-3.18741 0.53459,-4.8903 0.0819,-1.03904 0.135,-2.05541 0.18503,-2.97834 0.10413,-2.43438 0.10851,-5.04754 0.0137,-7.37305 -0.0417,-0.99261 -0.11307,-2.16102 -0.17631,-3.04301 -0.99785,-12.92637 -4.79724,-25.69814 -11.43363,-36.8614 -3.91802,-6.54565 -9.24435,-12.09862 -14.69015,-17.38485 -5.81005,-5.59223 -12.24182,-10.69523 -19.52041,-14.2071 -8.28116,-4.297157 -17.42798,-6.88558 -26.72855,-7.604058 -4.65871,-0.412158 -9.33965,-0.463383 -14.01345,-0.409346 z m -83.17774,84.511714 c -5.11533,0.12125 -10.24723,0.38172 -15.29297,1.2793 -0.68491,0.12057 -1.66668,0.31284 -2.4558,0.50351 -6.31816,1.49873 -12.28808,4.16589 -18.0724,7.06602 -7.22897,3.71288 -14.06804,8.24969 -20.01124,13.81295 -10.33365,9.55927 -20.32305,19.4839 -30.23494,29.47772 -15.51308,15.72274 -30.9348,31.54601 -45.77054,47.91324 -0.71313,0.81645 -1.6102,1.81723 -2.38527,2.71504 -2.25179,2.58257 -4.52854,5.19127 -6.11551,8.25243 -3.91767,7.14081 -6.93927,14.78459 -8.768751,22.72784 -0.0793,0.34914 -0.24927,1.13998 -0.363281,1.65821 -0.220054,1.08579 -0.490525,2.42713 -0.680114,3.62039 -1.10207,6.62373 -1.38684,13.37984 -0.886292,20.07492 0.03483,0.41334 0.09713,1.23675 0.141254,1.64624 1.591932,17.11959 8.553214,33.69819 19.720114,46.77844 9.4859,11.20944 22.05822,19.74568 35.94631,24.50149 4.92588,1.66686 9.99332,3.00039 15.16212,3.62917 1.75467,0.1908 3.51864,0.29417 5.20179,0.34648 6.32433,0.13245 12.65422,-0.20327 18.94755,-0.82174 0.87037,-0.10053 2.02231,-0.22669 3.00013,-0.36872 0.98779,-0.13309 1.78809,-0.26934 2.74401,-0.43402 0.68518,-0.12552 1.66517,-0.3115 2.46058,-0.49193 4.67661,-1.03569 9.13184,-2.87551 13.4861,-4.83719 3.44153,-1.59344 6.81279,-3.40611 9.99964,-5.33603 3.42888,-2.09373 6.69072,-4.24727 9.83866,-6.78468 2.92001,-2.41963 5.97929,-4.90942 7.80064,-8.30566 2.42547,-4.98447 1.27743,-11.49756 -2.89646,-15.20286 -3.74817,-3.39236 -9.63063,-4.45323 -14.16011,-2.02419 -4.26806,2.15081 -7.54457,5.76174 -11.61223,8.22692 -5.90932,3.95381 -12.26602,7.50544 -19.25471,9.09156 -5.67866,1.15275 -11.50877,0.95279 -17.27024,0.92262 -4.46328,-0.0617 -8.98478,-0.42535 -13.22311,-1.92249 -4.15309,-1.42711 -8.10445,-3.39981 -11.90209,-5.59162 -8.10155,-4.78295 -15.02804,-11.55144 -19.89403,-19.61165 -2.78097,-4.55263 -5.08868,-9.42258 -6.64071,-14.53169 -1.58536,-5.77763 -1.3405,-11.82973 -1.36398,-17.76237 0.0773,-4.46096 0.22765,-8.99488 1.59772,-13.28023 1.27926,-4.17758 3.1687,-8.15062 5.31168,-11.94913 2.67794,-4.70121 6.35242,-8.709 9.93302,-12.72586 6.72618,-7.32382 13.79815,-14.3213 20.78309,-21.39506 13.00564,-13.03982 26.06022,-26.03217 39.23727,-38.89832 5.53272,-5.33141 11.09873,-10.65144 17.08959,-15.471 3.88258,-3.03348 8.20438,-5.47654 12.76737,-7.32703 4.51795,-1.92663 9.41026,-2.99341 14.32948,-2.95587 9.17347,-0.32157 18.59482,0.28668 27.19636,3.74558 5.35947,2.08425 10.2773,5.17935 14.68702,8.85207 3.54729,2.88103 7.20801,6.01669 11.7932,7.01728 2.36623,0.54802 4.86701,0.15977 7.02189,-0.93147 2.72766,-1.28468 5.17629,-3.38241 6.34245,-6.21997 1.30295,-2.98334 1.68167,-6.4545 0.76262,-9.59856 -1.06955,-2.95676 -3.49313,-5.11266 -5.66407,-7.27539 -4.64276,-4.29335 -9.98472,-7.75122 -15.43517,-10.92099 -6.85152,-3.87527 -14.11801,-7.11834 -21.75717,-9.07869 -6.93757,-1.59779 -14.10006,-1.81484 -21.19047,-1.80501 z" />
  </g>
</svg>
