/* XPM */
static char *TGLMaterialScripter[] = {
/* columns rows colors chars-per-pixel */
"24 24 196 2",
"   c black",
".  c blue",
"X  c #00A000",
"o  c #EE9403",
"O  c #EF9506",
"+  c #EF9507",
"@  c #EF960A",
"#  c #EF970A",
"$  c #EF970C",
"%  c #EF980E",
"&  c #EF990E",
"*  c #EF9810",
"=  c #EF9912",
"-  c #EF9A12",
";  c #F09B15",
":  c #F09C18",
">  c #F09D18",
",  c #F09D1C",
"<  c #F09E1C",
"1  c #F09F1E",
"2  c #E0A000",
"3  c #F0A020",
"4  c #F0A120",
"5  c #F1A124",
"6  c #F1A328",
"7  c #F1A62C",
"8  c #F1A62D",
"9  c #F1A62E",
"0  c #F1A72F",
"q  c #F2A730",
"w  c #F2A732",
"e  c #F2A834",
"r  c #F2A935",
"t  c #F2A836",
"y  c #F2A937",
"u  c #F2AA39",
"i  c #F2AB39",
"p  c #F2AA3A",
"a  c #F2AB3A",
"s  c #F2AB3B",
"d  c #F2AD3F",
"f  c #F3AD3F",
"g  c #F2AD40",
"h  c #F3AD40",
"j  c #F2AE40",
"k  c #F3AE40",
"l  c #F3AE41",
"z  c #F3AF45",
"x  c #F3AF46",
"c  c #F3B044",
"v  c #F3B045",
"b  c #F3B046",
"n  c #F3B047",
"m  c #F3B249",
"M  c #F3B24A",
"N  c #F3B24B",
"B  c #F3B34B",
"V  c #F3B24C",
"C  c #F3B34C",
"Z  c #F3B34D",
"A  c #F4B34C",
"S  c #F3B551",
"D  c #F4B550",
"F  c #F4B551",
"G  c #F4B552",
"H  c #F4B553",
"J  c #F4B652",
"K  c #F4B653",
"L  c #F4B756",
"P  c #F4B757",
"I  c #F4B758",
"U  c #F4B857",
"Y  c #F4B858",
"T  c #F4B859",
"R  c #F5B95B",
"E  c #F5BA5D",
"W  c #F4BA5E",
"Q  c #F5BA5E",
"!  c #F5BA5F",
"~  c #F5BB5E",
"^  c #F5BB5F",
"/  c #F4BB60",
"(  c #F5BB60",
")  c #F5BC63",
"_  c #F5BD63",
"`  c #F5BD64",
"'  c #F5BD65",
"]  c #F5BD66",
"[  c #F5BE65",
"{  c #F5BE66",
"}  c #F5BE67",
"|  c #F5BF6A",
" . c #F6BF69",
".. c #C0E000",
"X. c #F5C06A",
"o. c #F5C06B",
"O. c #F5C06C",
"+. c #F5C16D",
"@. c #F6C06C",
"#. c #F6C16D",
"$. c #F6C26F",
"%. c #F5C370",
"&. c #F5C372",
"*. c #F6C270",
"=. c #F6C271",
"-. c #F6C371",
";. c #F6C272",
":. c #F6C372",
">. c #F6C373",
",. c #F5C474",
"<. c #F6C576",
"1. c #F6C577",
"2. c #F6C578",
"3. c #F6C678",
"4. c #F6C679",
"5. c #F6C67A",
"6. c #F6C87E",
"7. c #F7C87E",
"8. c #F7C87F",
"9. c #F7C97F",
"0. c #F6C880",
"q. c #F7C880",
"w. c #F7C980",
"e. c #F7C981",
"r. c #F7C982",
"t. c #F7CB83",
"y. c #F7CB84",
"u. c #F7CB85",
"i. c #F7CB86",
"p. c #F7CB87",
"a. c #F7CC86",
"s. c #F7CC87",
"d. c #F7CC88",
"f. c #F7CD8B",
"g. c #F7CE8C",
"h. c #F7CF8E",
"j. c #F8CD8C",
"k. c #F8CE8C",
"l. c #F8CE8D",
"z. c #F8CF8D",
"x. c #F7D092",
"c. c #F7D192",
"v. c #F8D091",
"b. c #F8D092",
"n. c #F8D192",
"m. c #F8D193",
"M. c #F8D194",
"N. c #F8D398",
"B. c #F8D399",
"V. c #F8D499",
"C. c #F8D49A",
"Z. c #F9D49A",
"A. c #F8D69F",
"S. c #F9D69E",
"D. c #F9D69F",
"F. c #F8D7A1",
"G. c #F9D7A0",
"H. c #F9D7A1",
"J. c #F9D8A5",
"K. c #F9D9A6",
"L. c #F9D9A7",
"P. c #F9DAA7",
"I. c #F9DBAA",
"U. c #F9DBAC",
"Y. c #FADBAC",
"T. c #FADCAC",
"R. c #FADCAD",
"E. c #FADDB1",
"W. c #FADEB2",
"Q. c #FADEB3",
"!. c #FAE0B7",
"~. c #FAE1B8",
"^. c #FBE3BC",
"/. c #FBE3BE",
"(. c #FBE5C2",
"). c #FBE6C4",
"_. c #FBE7C7",
"`. c #FBE7C8",
"'. c #FCE9CD",
"]. c #FCE9CE",
"[. c #FCECD2",
"{. c #FCECD3",
"}. c #FCEED7",
"|. c #FCEFD8",
" X c #FDF0DC",
".X c #FDF1DD",
"XX c #FDF3E1",
"oX c #FDF3E2",
"OX c OldLace",
"+X c #FEF7E9",
"@X c #FEF7EA",
"#X c #FEF8ED",
"$X c #FEF8EE",
"%X c #FEF9F2",
"&X c #FEFBF5",
"*X c gray100",
/* pixels */
"1 * * ; > 1 3 5 5 0 w e s z b A K K ^ [ | O.1.t.",
"$ o # # %             0 e s k b Z K T ! | O.:.t.",
"* O # %   . . . .     e s k b Z K T ! [ #.1.5.a.",
"; # %   . . . .   2   s k n Z K T ! [ O.>.5.r.j.",
"> %   . . . .   2 2   k n Z K T ! [ O.:.5.t.f.M.",
"1             2 2 2   n Z K T ! [ O.1.5.9.a.j.V.",
"1   ......    2 2 2   n K T ^ [ | :.5.t.a.j.M.H.",
"5   ....  X   2 2   Z K I ^ [ O.:.1.t.a.j.v.V.J.",
"6   ..  X X   2   Z K I ^ [ | >.5.6.i.j.M.V.G.Y.",
"0     X X X     Z K T ^ [ O.:.5.t.a.j.M.D.H.I.Q.",
"q             Z K       :.:.5.9.a.g.v.V.D.J.T.~.",
"e 0 e s s b Z K I     :.                      /.",
"p e s k x Z S T ^   :.:.  *X*X*X*X*X*X*X*X*X  _.",
"s p k b Z K K ! ) :.:.:.  *X          *X*X*X  `.",
"n s x Z K I ^ [ | :.5.9.  *X*X*X*X*X*X*X*X*X  '.",
"B b n K K ^ ) | :.5.9.i.  *X        *X    *X  [.",
"K B K K ^ [ | :.1.9.i.j.  *X*X*X*X*X*X*X*X*X  |.",
"K A I ^ [ | :.5.9.a.f.v.  *X    *X      *X*X  .X",
"^ K ! [ | :.1.6.a.g.x.V.  *X*X*X*X*X*X*X*X*X  oX",
"! ^ [ O.:.1.6.i.g.v.V.D.  *X          *X  *X  OX",
"[ ) | :.1.6.r.j.x.B.D.J.  *X*X*X*X*X*X*X*X*X  @X",
"O.| :.5.6.i.j.v.B.D.J.T.  *X*X*X*X*X*X*X*X*X  $X",
":.O.1.9.t.f.v.B.D.J.Y.W.                      %X",
"r.r.i.g.v.B.D.J.I.W.!.^.(._.'.[.}..XoXOX@X$X%X&X"
};
