/* XPM */
static char *TGLSMWaveOut[] = {
/* columns rows colors chars-per-pixel */
"24 24 223 2",
"   c black",
".  c #EF9507",
"X  c #EF960A",
"o  c #EF970A",
"O  c #EF970C",
"+  c #EF980E",
"@  c #EF990E",
"#  c #EF9810",
"$  c #EF9912",
"%  c #EF9A12",
"&  c #F09B15",
"*  c #F09B16",
"=  c #F09C16",
"-  c #F09C18",
";  c #F09D18",
":  c #F09D1A",
">  c #F09D1B",
",  c #F09E1A",
"<  c #F09E1B",
"1  c #F09D1C",
"2  c #F09E1C",
"3  c #F09F1E",
"4  c #F0A01F",
"5  c #F0A020",
"6  c #F0A120",
"7  c #F1A124",
"8  c #F1A125",
"9  c #F1A224",
"0  c #F1A328",
"q  c #F1A32A",
"w  c #F1A429",
"e  c #F1A42A",
"r  c #F1A52F",
"t  c #F1A62C",
"y  c #F1A62D",
"u  c #F1A62F",
"i  c #F1A72F",
"p  c #F2A730",
"a  c #F2A732",
"s  c #F2A834",
"d  c #F2A934",
"f  c #F2A935",
"g  c #F2A836",
"h  c #F2A937",
"j  c #F2AA39",
"k  c #F2AB39",
"l  c #F2AB3A",
"z  c #F2AB3B",
"x  c #F3AD3F",
"c  c #F2AD40",
"v  c #F3AD40",
"b  c #F3AD41",
"n  c #F2AE40",
"m  c #F2AE41",
"M  c #F3AE40",
"N  c #F3AE41",
"B  c #F3AF45",
"V  c #F3AF46",
"C  c #F3B044",
"Z  c #F3B046",
"A  c #F3B047",
"S  c #F3B249",
"D  c #F3B24A",
"F  c #F3B24B",
"G  c #F3B34B",
"H  c #F3B24C",
"J  c #F3B34C",
"K  c #F3B34D",
"L  c #F4B34C",
"P  c #F4B550",
"I  c #F4B551",
"U  c #F4B552",
"Y  c #F4B553",
"T  c #F4B653",
"R  c #F4B756",
"E  c #F4B757",
"W  c #F4B758",
"Q  c #F4B857",
"!  c #F4B858",
"~  c #F4B859",
"^  c #F5B95B",
"/  c #F5BA5D",
"(  c #F4BA5E",
")  c #F5BA5E",
"_  c #F5BA5F",
"`  c #F5BB5E",
"'  c #F5BB5F",
"]  c #F4BB60",
"[  c #F5BB60",
"{  c #F5BC63",
"}  c #F5BD63",
"|  c #F5BD64",
" . c #F5BD65",
".. c #F5BD66",
"X. c #F5BE65",
"o. c #F5BE66",
"O. c #F5BE67",
"+. c #F5BF6A",
"@. c #F6BF69",
"#. c #F5C06A",
"$. c #F5C06B",
"%. c #F5C06C",
"&. c #F5C16D",
"*. c #F6C16D",
"=. c #F6C26F",
"-. c #F5C370",
";. c #F5C372",
":. c #F6C270",
">. c #F6C271",
",. c #F6C371",
"<. c #F6C272",
"1. c #F6C372",
"2. c #F6C373",
"3. c #F5C474",
"4. c #F6C576",
"5. c #F6C577",
"6. c #F6C578",
"7. c #F6C579",
"8. c #F6C678",
"9. c #F6C679",
"0. c #F6C67A",
"q. c #F6C87E",
"w. c #F6C97F",
"e. c #F7C87E",
"r. c #F7C87F",
"t. c #F7C97F",
"y. c #808080",
"u. c #F6C880",
"i. c #F7C880",
"p. c #F7C980",
"a. c #F7C981",
"s. c #F7C982",
"d. c #F7CB83",
"f. c #F7CB84",
"g. c #F7CB85",
"h. c #F7CB86",
"j. c #F7CB87",
"k. c #F7CC86",
"l. c #F7CC87",
"z. c #F7CC88",
"x. c #F7CD8B",
"c. c #F7CE8C",
"v. c #F7CF8E",
"b. c #F8CD8C",
"n. c #F8CE8C",
"m. c #F8CE8D",
"M. c #F8CF8D",
"N. c #F7D092",
"B. c #F7D192",
"V. c #F8D091",
"C. c #F8D092",
"Z. c #F8D192",
"A. c #F8D193",
"S. c #F8D194",
"D. c #F8D398",
"F. c #F8D399",
"G. c #F8D499",
"H. c #F8D49A",
"J. c #F8D69F",
"K. c #F9D69E",
"L. c #F9D69F",
"P. c #F8D7A1",
"I. c #F9D7A0",
"U. c #F9D7A1",
"Y. c #F9D8A5",
"T. c #F9D9A5",
"R. c #F9D9A6",
"E. c #F9D9A7",
"W. c #F9DAA7",
"Q. c #F9DBAA",
"!. c #F9DBAC",
"~. c #FADBAC",
"^. c #FADCAB",
"/. c #FADCAC",
"(. c #FADCAD",
"). c #FADDB1",
"_. c #FADEB2",
"`. c #FADEB3",
"'. c #FADFB3",
"]. c #FADFB4",
"[. c #FAE0B7",
"{. c #FAE1B8",
"}. c #FAE1B9",
"|. c #FBE1B8",
" X c #FBE1B9",
".X c #FBE3BC",
"XX c #FBE3BF",
"oX c #FBE4BF",
"OX c #C0C0C0",
"+X c #FBE5C2",
"@X c #FBE6C4",
"#X c #FBE6C5",
"$X c #FBE7C7",
"%X c #FBE7C8",
"&X c #FCE9CA",
"*X c #FCE9CD",
"=X c #FCE9CE",
"-X c #FCEACF",
";X c #FCEBCF",
":X c #FCEBD0",
">X c #FCECD2",
",X c #FCEDD5",
"<X c #FCEED6",
"1X c #FCEED7",
"2X c #FCEFD8",
"3X c #FDEFDA",
"4X c #FDF0DA",
"5X c #FDF0DC",
"6X c #FDF1DD",
"7X c #FDF2DF",
"8X c #FDF3E1",
"9X c #FDF3E2",
"0X c #FDF4E4",
"qX c OldLace",
"wX c #FEF6E8",
"eX c #FEF7E9",
"rX c #FEF7EA",
"tX c #FEF7ED",
"yX c #FEF8ED",
"uX c #FEF8EE",
"iX c #FEF9F2",
"pX c #FEFBF5",
"aX c gray100",
/* pixels */
"3 # # = - 3 5 9 e i a s x N Z J U E ' { @.*.5.t.",
"O   . o #   = y.  y.e   s   M y.    ~ ' +.$.2.t.",
"#   o @ #   -   7   i   x   A   E ~ _ X.*.5.7.x.",
"=   @   =   5       s   x   J     _ X.$.<.5.s.v.",
"-   #   3   7   u   l   y.  U   ' X.*.4.5.t.h.S.",
"3 y.  y.  y.e   s   N V   U ~ y.    2.5.s.x.c.H.",
"5 * - 5 7 e i s l N Z J U ~ ' X.*.2.5.s.k.c.v.R.",
"7 - 5 7 e i s l N Z J U ~ ' X.$.2.5.s.k.c.S.F.Q.",
"e y.  y.i   x   Z       _ X.$.4.7.t.k.c.S.  L.Q.",
"e   e   s   x   J U   _ X.$.2.7.t.k.c.S.  L.Q.`.",
"a   i   l   V   U ~   X.$.2.7.t.h.    H.U.R.(. X",
"s   a   N   V   W '   $.2.7.t.      y.  Q.(.].  ",
"l y.  y.V y.  y.' X.  2.7.t.      y.OXy.  _.  $X",
"N k N Z V U ~ { X.$.2.5.t.    O   OXy.O    XXX$X",
"B N B J U W ' X.+.2.7.t.h.  O O     O aX  XX$X*X",
"V Z V U E ' { +.2.5.t.h.c.  O O     aXo   $X    ",
"U G U E ' { $.=.7.t.h.c.S.  y.O     O aX  &X*X4X",
"Q U Q ' { $.=.7.t.k.x.v.H.y.  y.  O aXO   :X<X6X",
"~ E ' { $.2.9.t.k.c.N.H.L.R.      aXO aX  <X  9X",
"{ ' { $.$.5.t.k.c.v.F.K.R.^.'.      aX  <X4X6X  ",
"X.{ $.<.7.t.h.x.N.S.L.R.^._. XoXy.    <X4X6X0XrX",
"*.+.<.5.t.k.c.v.F.K.Q.^._. XXX@X&X*X<X4X  0XeXuX",
"=.2.5.t.h.x.v.H.K.R.Q._. XXX@X&X:X<X4X7X0X  tXiX",
"s.t.j.c.v.F.L.R.Q._.[.XX+X$X*X>X<X6X9X0XeXuXiXpX"
};
