/* XPM */
static char *TGLSmoothUserInterface[] = {
/* columns rows colors chars-per-pixel */
"24 24 175 2",
"   c black",
".  c #31340F",
"X  c #313512",
"o  c #323819",
"O  c #80745E",
"+  c #847B64",
"@  c #857C69",
"#  c #8A7F69",
"$  c red",
"%  c #9E814D",
"&  c #8B8069",
"*  c #8E886C",
"=  c #8E8471",
"-  c #91896F",
";  c #948870",
":  c #9B8D77",
">  c #998E7E",
",  c #9B917B",
"<  c #A18A5B",
"1  c #AD8B50",
"2  c #A49F5D",
"3  c #B69052",
"4  c #B8985F",
"5  c #A49569",
"6  c #A3957E",
"7  c #B2BC5B",
"8  c #B5A375",
"9  c #B1C957",
"0  c #BAC159",
"q  c #B5C467",
"w  c #B3CD62",
"e  c #BFC765",
"r  c #BECA6C",
"t  c #B6C374",
"y  c #B3D26D",
"u  c #B3D574",
"i  c #B4D778",
"p  c #B4D97D",
"a  c #C2BB3D",
"s  c #DEB53B",
"d  c #EE9405",
"f  c #EF960A",
"g  c #EF980E",
"h  c #EF9912",
"j  c #F09B15",
"k  c #F09E1B",
"l  c #F0A01E",
"z  c #F0A324",
"x  c #F1A62C",
"c  c #F2A82D",
"v  c #F2AB33",
"b  c #F2AD39",
"n  c #C19852",
"m  c #C3BD43",
"M  c #C4B059",
"N  c #D3A253",
"B  c #DEAA52",
"V  c #DAAB5F",
"C  c #DFB944",
"Z  c #D1B95B",
"A  c #DCBC52",
"S  c #C6AD7A",
"D  c #D4A862",
"F  c #D4AF71",
"G  c #DDBD7B",
"H  c #E3AA4D",
"J  c #EBAC45",
"K  c #E2AB53",
"L  c #E9B04E",
"P  c #E4B05D",
"I  c #E0BF51",
"U  c #ECB050",
"Y  c #EDB45B",
"T  c #EFB95D",
"R  c #F0AF47",
"E  c #F3B141",
"W  c #F1B24A",
"Q  c #F3B554",
"!  c #F3B759",
"~  c #F3B95B",
"^  c #E6BA6C",
"/  c #EEBA64",
"(  c #EDBC6C",
")  c #E8BB71",
"_  c #F4BC62",
"`  c #F5BF6A",
"'  c #C3C047",
"]  c #C3C14B",
"[  c #C2C553",
"{  c #C4C759",
"}  c #C4CA5C",
"|  c #C1C861",
" . c #C5CD7A",
".. c #C4D07C",
"X. c #DBC364",
"o. c #E0C357",
"O. c #E1CC6B",
"+. c #EAC27B",
"@. c #F5C16D",
"#. c #F5C373",
"$. c #F5C57A",
"%. c #F6C87E",
"&. c #9E9583",
"*. c #A49983",
"=. c #A99E8B",
"-. c #A3BE8B",
";. c #B1A694",
":. c #B5A991",
">. c #BAAA91",
",. c #BBAE99",
"<. c #BFB29B",
"1. c #AAC38A",
"2. c #ADC893",
"3. c #AECA99",
"4. c #B0C98D",
"5. c #B5CF9D",
"6. c #B4DC85",
"7. c #B5DF8A",
"8. c #B5E08B",
"9. c #B6E190",
"0. c #B6E69B",
"q. c #B6E89E",
"w. c #B6E9A4",
"e. c #C0B096",
"r. c #C5B59B",
"t. c #C2B6A0",
"y. c #C8BDAA",
"u. c #CEDE9D",
"i. c #DDC088",
"p. c #D0D786",
"a. c #D0DD92",
"s. c #CFC1AA",
"d. c #CEC3B0",
"f. c #CCDFA3",
"g. c #D2C3A5",
"h. c #D2C1A8",
"j. c #D9C9AE",
"k. c #DACAB1",
"l. c #DACEB9",
"z. c #DDD0BB",
"x. c #EAC181",
"c. c #EECF96",
"v. c #F1C780",
"b. c #F6CA83",
"n. c #F6CD8A",
"m. c #F8CD87",
"M. c #F8CE8C",
"N. c #F6D89F",
"B. c #F8D193",
"V. c #F8D49B",
"C. c #E5D1AF",
"Z. c #E2D2BB",
"A. c #F6D8A4",
"S. c #F3D9AE",
"D. c #F9D9A5",
"F. c #F9DDAD",
"G. c #F2D9B1",
"H. c #E1D6C4",
"J. c #E6DBC9",
"K. c #EADAC2",
"L. c #EFE2CC",
"P. c #EFF1D6",
"I. c #EFF2D9",
"U. c #F3E5CD",
"Y. c #F2E5D1",
"T. c #F7E9D5",
"R. c #F3E9D9",
"E. c #F8E9D2",
"W. c #FBEEDA",
"Q. c #FDF2DF",
"!. c #FCF4E4",
"~. c #FEF6E9",
"^. c #FEF8ED",
"/. c #FEF9F3",
"(. c gray100",
/* pixels */
"k g h h k l k c E o.] X X { X._ ! ! ~ _ @.@.#.m.",
"g d f f f h l v C m . P.I.X { X.T Y ! ~ _ @.#.%.",
"h d f g g l c s m X P.(.(.I.o } X./ _ _ @.#.%.m.",
"h f h h l z b a X I.(.(.(.(.I.o e ^ ( #.$.%.%.M.",
"k h k z c b W ' X X   (.(.    o r G +.v.b.m.n.B.",
"l k c s a a o.O.} X           w  . .y u p.V.B.V.",
"x v C a . . [ } X X $ $ $ $     y y     p a.N.A.",
"b C m . P.. } X X $ $ $ $ $ $     u   (.  6.u.S.",
"C a . P.(.X X X $ $ $     $ $ $       (.(.  9.f.",
"m . P.(.(.(.(.  $ $         $ $   (.(.(.(.(.  q.",
"m X P.(.(.(.(.        (.(.  $ $   (.(.(.(.(.  w.",
"A ] X I.(.    (.(.(.(.(.    $ $       (.(.  q.5.",
"W A 0 o I.  9     (.(.    $ $ $   8.  (.  q.2.> ",
"R U Z 0 o o q w w       $ $ $     9.    q.1.@ = ",
"E J B M 7 7 2 5 t y   $ $ $     8.4.0.w.-.+ @ &.",
"R J H N n 1 % < 8 u   $ $     9.1.+ + # @ = , ;.",
"Q R U K N n 3 4 F u   $ $   8.4.@ O & : 6 =.<.s.",
"Q Q Q Y P V D F r.p         8.* + & 6 >.r.h.z.J.",
"~ Q ~ _ / ^ ) x.c.6.  8.8.  q.- - 6 r.j.Z.K.L.R.",
"_ ~ ` @.` $.$.n.N.6.  $ $   q., *.e.j.K.U.R.W.!.",
"` _ ` ` $.b.b.B.D.7.  $ $   w.*.>.h.Z.E.W.Q.!.~.",
"` ` #.$.b.b.M.B.D.9.        w.*.<.k.U.W.Q.!.~.^.",
"#.#.$.%.b.n.B.V.D.u.0.w.w.w.3.*.r.z.Y.!.!.~.^./.",
"b.%.b.n.B.V.V.A.F.S.C.g.:.*.*.=.y.H.R.!.!.^././."
};
