/* XPM */
static char *TGLTextureSharingShader[] = {
/* columns rows colors chars-per-pixel */
"24 24 209 2",
"   c black",
".  c #2A1F00",
"X  c navy",
"o  c blue",
"O  c #008000",
"+  c green",
"@  c cyan",
"#  c #800000",
"$  c red",
"%  c #800080",
"&  c magenta",
"*  c #808000",
"=  c #EF970C",
"-  c #EF9810",
";  c #EF9912",
":  c #EF9A12",
">  c #F09B15",
",  c #F09B16",
"<  c #F09C16",
"1  c #F09C18",
"2  c #F09D18",
"3  c #F09D1A",
"4  c #F09D1B",
"5  c #F09E1A",
"6  c #F09D1C",
"7  c #F09E1C",
"8  c #F09F1E",
"9  c #F09F1F",
"0  c #F09F20",
"q  c #F0A01F",
"w  c #F0A020",
"e  c #F0A120",
"r  c #F1A124",
"t  c #F1A125",
"y  c #F0A224",
"u  c #F1A224",
"i  c #F1A328",
"p  c #F1A329",
"a  c #F1A32A",
"s  c #F1A429",
"d  c #F1A42A",
"f  c #F1A52F",
"g  c #F1A62C",
"h  c #F1A62D",
"j  c #F1A62E",
"k  c #F1A62F",
"l  c #F1A72F",
"z  c #F2A730",
"x  c #F2A732",
"c  c #F2A834",
"v  c #F2A934",
"b  c #F2A935",
"n  c #F2A836",
"m  c #F2A937",
"M  c #F2AA39",
"N  c #F2AB39",
"B  c #F2AA3A",
"V  c #F2AB3A",
"C  c #F2AB3B",
"Z  c #F2AD3F",
"A  c #F3AD3F",
"S  c #F2AD40",
"D  c #F3AD40",
"F  c #F3AE40",
"G  c #F3AE41",
"H  c #F3AF45",
"J  c #F3AF46",
"K  c #F3B044",
"L  c #F3B046",
"P  c #F3B047",
"I  c #F3B249",
"U  c #F3B24A",
"Y  c #F3B24B",
"T  c #F3B24C",
"R  c #F3B34C",
"E  c #F3B34D",
"W  c #F4B34C",
"Q  c #F4B550",
"!  c #F4B551",
"~  c #F4B552",
"^  c #F4B652",
"/  c #F4B653",
"(  c #F4B756",
")  c #F4B757",
"_  c #F4B857",
"`  c #F4B858",
"'  c #F4B859",
"]  c #F5B95B",
"[  c #F5BA5D",
"{  c #F4BA5E",
"}  c #F5BA5E",
"|  c #F5BB5F",
" . c #F4BB60",
".. c #F5BB60",
"X. c #F5BC63",
"o. c #F5BD64",
"O. c #F5BE66",
"+. c #F5BE67",
"@. c #F6BF69",
"#. c yellow",
"$. c #F5C06B",
"%. c #F6C06C",
"&. c #F6C16D",
"*. c #F6C26F",
"=. c #F5C370",
"-. c #F6C372",
";. c #F6C576",
":. c #F6C678",
">. c #F6C679",
",. c #F6C67A",
"<. c #F7C87E",
"1. c #F7C87F",
"2. c #F6C880",
"3. c #F7C880",
"4. c #F7C980",
"5. c #F7C982",
"6. c #F7CB83",
"7. c #F7CB85",
"8. c #F7CB86",
"9. c #F7CC86",
"0. c #F7CC87",
"q. c #F7CC88",
"w. c #F7CE8C",
"e. c #F7CF8E",
"r. c #F8CD8C",
"t. c #F8CE8C",
"y. c #F8CE8D",
"u. c #F8CF8D",
"i. c #F7D092",
"p. c #F8D091",
"a. c #F8D092",
"s. c #F8D192",
"d. c #F8D193",
"f. c #F8D194",
"g. c #F8D398",
"h. c #F8D399",
"j. c #F8D499",
"k. c #F8D49A",
"l. c #F9D49A",
"z. c #F8D69F",
"x. c #F9D69E",
"c. c #F9D69F",
"v. c #F8D7A1",
"b. c #F9D6A0",
"n. c #F9D7A0",
"m. c #F9D7A1",
"M. c #F9D8A5",
"N. c #F9D9A5",
"B. c #F9D9A6",
"V. c #F9D9A7",
"C. c #F9DAA7",
"Z. c #F9DBAA",
"A. c #F9DBAC",
"S. c #FADBAC",
"D. c #FADCAB",
"F. c #FADCAC",
"G. c #FADCAD",
"H. c #FADDB1",
"J. c #FADEB2",
"K. c #FADEB3",
"L. c #FADFB3",
"P. c #FADFB4",
"I. c #FAE0B7",
"U. c #FAE1B8",
"Y. c #FAE1B9",
"T. c #FBE1B8",
"R. c #FBE1B9",
"E. c #FBE1BA",
"W. c #FBE3BC",
"Q. c #FBE3BE",
"!. c #FBE3BF",
"~. c #FBE4BF",
"^. c #C0C0C0",
"/. c #FBE5C2",
"(. c #FBE6C4",
"). c #FBE6C5",
"_. c #FBE7C7",
"`. c #FBE7C8",
"'. c #FCE8CA",
"]. c #FCE9CA",
"[. c #FCE9CD",
"{. c #FCE9CE",
"}. c #FCEACF",
"|. c #FCEBCF",
" X c #FCEAD0",
".X c #FCEBD0",
"XX c #FCECD2",
"oX c #FCECD3",
"OX c #FCEDD5",
"+X c #FCEED6",
"@X c #FCEED7",
"#X c #FCEFD8",
"$X c #FDEFDA",
"%X c #FDF0DA",
"&X c #FDF0DC",
"*X c #FDF1DD",
"=X c #FDF2DF",
"-X c #FDF3E1",
";X c #FDF3E2",
":X c #FDF4E4",
">X c OldLace",
",X c #FEF6E8",
"<X c #FEF7E9",
"1X c #FEF7EA",
"2X c #FEF7ED",
"3X c #FEF8ED",
"4X c #FEF8EE",
"5X c #FEF9F2",
"6X c #FEFBF5",
/* pixels */
"8 - - < 1 8 9 t s l x b C G J W / ( } X.@.&.;.6.",
"= . . . . . < 1 9 t s l b C G I Y / . . . . . 5.",
"- . @ @ @ . 1 9 t s l b C G J E / ' . #.#.#.. 8.",
"< . @ @ @ . e t s l b ^.^.J E / '  .. #.#.#.. e.",
"1 . @ @ @ . t s l @ @ @ @ @ @ ' } +.. #.#.#.. f.",
"8 . . . . . s l @ @ @ @ @ @ @ @ +.$.. . . . . k.",
"8 , 1 e t a l ^.@ @ @ @ @ @ @ @ @ -.,.5.9.e.i.b.",
"t 1 e t s l c @ @ @ @ @ @ @ @ @ @ ,.5.8.w.p.g.S.",
"a 8 e a l c C @ o o o @ @ + + + @ 5.9.w.f.l.b.D.",
"s t a l c C & o o o o   O + + + + #.w.f.l.b.V.J.",
"c t l c b & & o o o X     O + + + #.#.l.b.V.D.Y.",
"b l c C G & & & o o         + + #.#.#.b.S.D.P.Q.",
"C c C Z & & & & & X         O + #.#.#.^.S.K.R.(.",
"Z C Z J & & & & & % #     # * #.#.#.#.#.K.R.!.`.",
"H A H Y & & & & & & $ $ $ $ #.#.#.#.#.^.R.~.(.[.",
"Y K Y / _ & & & & & $ $ $ $ #.#.#.#.#.R.~.(.].+X",
"E Y / ( } & & & & & $ $ $ #.#.#.#.#.#.!.(.].[.#X",
"_ / ' } X.$.& & & & & $ $ #.#.#.#.#./.(.].XX+X*X",
"' . . . . . ;.1.& & ^.l.k.^.#.^.Y.Q.(.]. X+X#X:X",
"| . & & & . 1.9.e.i.l.k.S.D.J.Y.Q.(.].[.+X#X-X:X",
"+.. & & & . 9.w.i.l.k.V.D.J.Y.~.(.].[.+X#X-X:X<X",
"&.. & & & . w.p.l.k.S.D.J.Y.~.(.]. X+X#X-X:X<X2X",
"=.. . . . . p.f.k.V.S.J.R.!.(.].[.+X$X-X:X<X2X5X",
"5.1.8.w.f.f.b.V.S.J.I.!.(.(.[.XX+X*X-X:X<X2X5X6X"
};
