/* XPM */
static char *TGLUserShader[] = {
/* columns rows colors chars-per-pixel */
"24 24 174 2",
"   c #6B5A3E",
".  c #4C4C4C",
"X  c #655741",
"o  c #60574A",
"O  c #655B4B",
"+  c #6C5C42",
"@  c #6B5E4A",
"#  c #6C604D",
"$  c #6D6251",
"%  c #756243",
"&  c #706248",
"*  c #736854",
"=  c #8C0402",
"-  c #8E0803",
";  c #930F08",
":  c #98190E",
">  c #992103",
",  c #A22C16",
"<  c #A32E1B",
"1  c #A4311E",
"2  c #9C7537",
"3  c #9D793F",
"4  c #AE431B",
"5  c #AB5001",
"6  c #BB562E",
"7  c #BC5932",
"8  c #BC5C39",
"9  c #B76E00",
"0  c #B86F05",
"q  c #BD7708",
"w  c #B27B27",
"e  c #B27E2C",
"r  c #9B7D4B",
"t  c #9A7F50",
"y  c #BF8300",
"u  c #B28132",
"i  c #B2843A",
"p  c #A3814C",
"a  c #AD8A4D",
"s  c #B38640",
"d  c #B38844",
"f  c #B48C4C",
"g  c #B58E52",
"h  c #B19360",
"j  c #C28A03",
"k  c #C38F0B",
"l  c #CC8515",
"z  c #CD881C",
"x  c #C8910E",
"c  c #CD8B23",
"v  c #CD8E28",
"b  c #CC9929",
"n  c #CE9133",
"m  c #CF9439",
"M  c #EF970C",
"N  c #EF980E",
"B  c #EF9811",
"V  c #F09B15",
"C  c #F09D1B",
"Z  c #F09F20",
"A  c #F0A01F",
"S  c #F0A123",
"D  c #F1A52B",
"F  c #F2A731",
"G  c #F2A834",
"H  c #F2AB3A",
"J  c #CF9942",
"K  c #CB9B52",
"L  c #D88844",
"P  c #D58A51",
"I  c #D09A44",
"U  c #D09C4C",
"Y  c #DD9249",
"T  c #D19F50",
"R  c #D89954",
"E  c #D99561",
"W  c #C6A052",
"Q  c #D8A34D",
"!  c #D1A054",
"~  c #D1A25A",
"^  c #D4AB5C",
"/  c #C4A77C",
"(  c #C3A97F",
")  c #C9A870",
"_  c #CFAF7C",
"`  c #D0A662",
"'  c #D2A866",
"]  c #D2A968",
"[  c #DFA169",
"{  c #D1AD72",
"}  c #D4B279",
"|  c #DFB776",
" . c #DFB77C",
".. c #E1A346",
"X. c #EBAC5C",
"o. c #EFB05A",
"O. c #F2AD41",
"+. c #F3B046",
"@. c #F2B24B",
"#. c #F3B453",
"$. c #F3B658",
"%. c #F5B95C",
"&. c #ECB674",
"*. c #EABF7D",
"=. c #F5BC63",
"-. c #F4BE69",
";. c #F1BF7F",
":. c #F6C16E",
">. c #F5C374",
",. c #F5C67A",
"<. c #BEA98B",
"1. c #C4AA85",
"2. c #C3AD8B",
"3. c #C1AF91",
"4. c #CDB083",
"5. c #CBB18A",
"6. c #C3B193",
"7. c #CBB693",
"8. c #CCB99C",
"9. c #D4B584",
"0. c #D8BB8F",
"q. c #D4BA91",
"w. c #D6BF9A",
"e. c #DBBE91",
"r. c #C6B7A0",
"t. c #CBBBA0",
"y. c #D3BFA0",
"u. c #E0BF8D",
"i. c #DCC39B",
"p. c #D4C2A7",
"a. c #D3C5AC",
"s. c #DAC4A3",
"d. c #DDC8A5",
"f. c #DCCBAD",
"g. c #D6C8B2",
"h. c #DECFB8",
"j. c #EDC78D",
"k. c #ECC88D",
"l. c #E4C592",
"z. c #E5C89A",
"x. c #F7CA82",
"c. c #F5CA88",
"v. c #F2CE93",
"b. c #F1CF9C",
"n. c #F5D197",
"m. c #F6D49F",
"M. c #F8D193",
"N. c #F8D49A",
"B. c #E8CFA7",
"V. c #E6D0AA",
"C. c #EED2A4",
"Z. c #E5D3B2",
"A. c #EADABC",
"S. c #F3D4A2",
"D. c #F1D7AC",
"F. c #F4D9AB",
"G. c #F9D6A0",
"H. c #F9D9A6",
"J. c #FADBAC",
"K. c #F5DCB2",
"L. c #F2DEBA",
"P. c #FADFB3",
"I. c #F9E1BB",
"U. c #EADEC8",
"Y. c #F1E1C5",
"T. c #F9E5C3",
"R. c #F9E6C8",
"E. c #FBE9CD",
"W. c #F5E7D0",
"Q. c #FCEDD5",
"!. c #FCEED9",
"~. c #FDF1DD",
"^. c #FDF4E4",
"/. c #FEF6E9",
/* pixels */
"C N z B B v Z S D D F G H O.O.@.#.$.%.=.:.:.>.x.",
"N l   z z + c C C S D F G H O.@.@.#.$.%.=.=.:.,.",
"B l   z z X v C S D D G H O.O.@.@.@.#.#.$.X.-.:.",
"B l   w w + v S D F G H H @.@.@.@.#.$.Y 6 7 P ;.",
"C N w + + e S D F G H O.@.O.@.@.#.#.L , ; : 8 &.",
"C B B e u S D D G H O.+.@.@.@.#.$.L < - = ; 8 ,.",
"Z V e + + n D G H O.O.@.+.@.#.$.L < - = - < [ M.",
"S c % 2 i D G H O.O.@.@.@.$.#.L < - = - 1 E c.M.",
"D C u + @ i H H +.@.@.@.#.#.L , - = - < E c.M.N.",
"D S D i r % J +.@.+.@.#.#.L , = = - 1 E c.n.N.m.",
"D D m + + d @.@.#.@.#.#.L , - = - 1 E c.M.N.m.H.",
"G D m i d I @.@.@.#.#.L , - = - 1 E c.M.N.m.H.J.",
"H m O O @ @ Q @.#.#.L < = = = 1 E c.M.N.N.H.J.J.",
"O.m + r f Q @.#.#.L , - = - < E c.M.N.G.H.H.I.I.",
"O.J o O # U #.#.L , = = - 1 E c.M.N.m.H.J.K.I.L.",
"@.I O p f ! $.L < = = = 1 E c.v.N.N.H.F.F.V.f.Z.",
"#.U O O O # K 4 > - - 1 E c.M.M.m.S.C.V.s.t.r.a.",
"$.@.f g g ! ..0 0 5 1 R c.M.n.b.z.i.i.p.8.r.t.g.",
"%.! @ O @ a x j y q R c.n.v.l.i.7.6.8.t.a.f.h.U.",
"%.~ O r r & . j y b *.k.l.0.5.<.<.<.8.f.A.U.W.!.",
"-.~ o o O . . k ^ } 9.9.5.1.<.3.8.p.Z.Y.E.Q.!.~.",
">.` $ p O . W | } / ( 1.2.2.7.s.V.I.R.Q.Q.!.~.^.",
">.` # ` h * )  ._ 1.1.q.i.i.V.A.T.E.E.Q.~.~.^./.",
",.>.] ,.,.{ c.j.0.l.z.C.D.K.I.R.E.E.Q.~.~.^././."
};
